<svg width="232" height="232" viewBox="0 0 232 232" fill="none" xmlns="http://www.w3.org/2000/svg">
<path d="M120.625 30L156.261 65.7126L123.045 99H221.302V149.488H123.88L156.261 181.939L120.625 217.652L27 123.826L120.625 30Z" fill="#081732" fill-opacity="0.25"/>
<path d="M112.625 22L148.261 57.7126L115.045 91H213.302V141.488H115.88L148.261 173.939L112.625 209.652L19 115.826L112.625 22Z" fill="#081732"/>
<path d="M104.625 14L140.261 49.7126L107.045 83H205.302V133.488H107.88L140.261 165.939L104.625 201.652L11 107.826L104.625 14Z" fill="#081732"/>
<path d="M104.625 25.3259L128.96 49.7127L87.7606 91.0001H197.302V125.488H88.5953L128.96 165.939L104.625 190.326L22.3018 107.826L104.625 25.3259Z" fill="#2D76FF"/>
</svg>
