<svg width="68" height="68" viewBox="0 0 68 68" fill="none" xmlns="http://www.w3.org/2000/svg">
<path d="M27.0385 55.4362C17.741 55.4362 10.2039 47.8991 10.2039 38.6016C10.2039 29.3041 17.741 21.767 27.0385 21.767C36.336 21.767 43.873 29.3041 43.873 38.6016C43.873 47.8991 36.336 55.4362 27.0385 55.4362Z" fill="#081732" fill-opacity="0.25"/>
<path d="M23.9369 52.3346C14.6394 52.3346 7.10235 44.7975 7.10235 35.5C7.10235 26.2026 14.6394 18.6655 23.9369 18.6655C33.2344 18.6655 40.7715 26.2026 40.7715 35.5C40.7715 44.7975 33.2344 52.3346 23.9369 52.3346Z" fill="#081732"/>
<path d="M20.8354 49.233C11.5379 49.233 4.00079 41.6959 4.00079 32.3985C4.00079 23.101 11.5379 15.5639 20.8354 15.5639C30.1328 15.5639 37.6699 23.101 37.6699 32.3985C37.6699 41.6959 30.1328 49.233 20.8354 49.233Z" fill="#081732"/>
<path fill-rule="evenodd" clip-rule="evenodd" d="M8.10655 32.3984C8.10655 39.4285 13.8055 45.1274 20.8355 45.1274C27.8655 45.1274 33.5645 39.4285 33.5645 32.3984C33.5645 25.3684 27.8655 19.6695 20.8355 19.6695C13.8055 19.6695 8.10655 25.3684 8.10655 32.3984Z" fill="#F4F2EB"/>
<path d="M47.1674 55.4362C37.8699 55.4362 30.3328 47.8991 30.3328 38.6016C30.3328 29.3041 37.8699 21.767 47.1674 21.767C56.4649 21.767 64.002 29.3041 64.002 38.6016C64.002 47.8991 56.4649 55.4362 47.1674 55.4362Z" fill="#081732" fill-opacity="0.25"/>
<path d="M44.0658 52.3346C34.7683 52.3346 27.2313 44.7975 27.2313 35.5C27.2313 26.2026 34.7684 18.6655 44.0658 18.6655C53.3633 18.6655 60.9004 26.2026 60.9004 35.5C60.9004 44.7975 53.3633 52.3346 44.0658 52.3346Z" fill="#081732"/>
<path d="M40.9643 49.233C31.6668 49.233 24.1297 41.6959 24.1297 32.3985C24.1297 23.101 31.6668 15.5639 40.9643 15.5639C50.2617 15.5639 57.7988 23.101 57.7988 32.3985C57.7988 41.6959 50.2617 49.233 40.9643 49.233Z" fill="#081732"/>
<path fill-rule="evenodd" clip-rule="evenodd" d="M28.2355 32.3984C28.2355 39.4285 33.9344 45.1274 40.9644 45.1274C47.9944 45.1274 53.6934 39.4285 53.6934 32.3984C53.6934 25.3684 47.9944 19.6695 40.9644 19.6695C33.9344 19.6695 28.2355 25.3684 28.2355 32.3984Z" fill="#F4F2EB"/>
</svg>
