<svg width="68" height="68" viewBox="0 0 68 68" fill="none" xmlns="http://www.w3.org/2000/svg">
<path d="M37.8898 58.9995C26.231 58.9995 16.7797 49.5481 16.7797 37.8893C16.7797 26.2305 26.231 16.7792 37.8898 16.7792C49.5487 16.7792 59 26.2305 59 37.8893C59 49.5482 49.5487 58.9995 37.8898 58.9995Z" fill="#081732" fill-opacity="0.25"/>
<path d="M34.0002 55.1102C22.3414 55.1102 12.89 45.6589 12.89 34C12.89 22.3412 22.3414 12.8899 34.0002 12.8899C45.659 12.8899 55.1104 22.3412 55.1103 34.0001C55.1103 45.6589 45.659 55.1102 34.0002 55.1102Z" fill="#081732"/>
<path d="M30.1115 51.2209C18.4527 51.2209 9.00136 41.7696 9.00136 30.1108C9.00137 18.4519 18.4527 9.00061 30.1115 9.00061C41.7703 9.00061 51.2217 18.4519 51.2217 30.1108C51.2217 41.7696 41.7703 51.2209 30.1115 51.2209Z" fill="#081732"/>
<path fill-rule="evenodd" clip-rule="evenodd" d="M14.1506 30.1107C14.1506 38.9262 21.2969 46.0725 30.1124 46.0725C38.9279 46.0725 46.0742 38.9262 46.0742 30.1107C46.0742 21.2953 38.9279 14.1489 30.1124 14.1489C21.2969 14.1489 14.1506 21.2953 14.1506 30.1107Z" fill="#F4F2EB"/>
<path d="M29.0645 20.2864V31.5722L36.5883 35.3341" stroke="#081732" stroke-width="4.2" stroke-linecap="round" stroke-linejoin="round"/>
</svg>
