<svg width="80" height="80" viewBox="0 0 80 80" fill="none" xmlns="http://www.w3.org/2000/svg">
<rect x="1.5" y="1.5" width="77" height="77" rx="38.5" fill="#F8AE05"/>
<rect x="1.5" y="1.5" width="77" height="77" rx="38.5" stroke="#081732" stroke-width="3"/>
<path d="M38.5849 53.1042L31.1452 57.017C29.3255 57.9733 27.198 56.4284 27.5477 54.4023L28.9652 46.1152C29.0331 45.7188 29.0037 45.3119 28.8795 44.9295C28.7553 44.5471 28.54 44.2005 28.2522 43.9197L22.231 38.0509C20.759 36.6159 21.5715 34.1156 23.6055 33.8203L31.9261 32.6112C32.3241 32.5533 32.702 32.3996 33.0272 32.1632C33.3525 31.9268 33.6154 31.6148 33.7933 31.2542L37.5147 23.7145C38.424 21.8713 41.0532 21.8713 41.9615 23.7145L45.6849 31.2542C45.8628 31.6149 46.1258 31.9269 46.4512 32.1633C46.7766 32.3997 47.1546 32.5534 47.5526 32.6112L55.8732 33.8203C57.9073 34.1156 58.7212 36.6159 57.2477 38.0509L51.226 43.9197C50.9382 44.2005 50.723 44.5471 50.5988 44.9295C50.4746 45.3119 50.4451 45.7188 50.513 46.1152L51.9345 54.4023C52.2817 56.4284 50.1552 57.9733 48.337 57.017L40.8933 53.1042C40.5373 52.9172 40.1412 52.8194 39.7391 52.8194C39.337 52.8194 38.9409 52.9172 38.5849 53.1042Z" fill="#F9D744" stroke="#081732" stroke-width="2" stroke-linecap="round" stroke-linejoin="round"/>
<path d="M36.966 41.3075C36.964 41.6641 37.0322 42.0176 37.1667 42.3479C37.3013 42.6782 37.4996 42.9787 37.7503 43.2323C38.001 43.4859 38.2992 43.6877 38.6279 43.8261C38.9566 43.9645 39.3093 44.0367 39.6659 44.0388C40.0225 44.0409 40.376 43.9727 40.7063 43.8381C41.0366 43.7036 41.3371 43.5053 41.5907 43.2546C41.8443 43.0039 42.0461 42.7057 42.1845 42.377C42.3229 42.0483 42.3951 41.6956 42.3972 41.339" stroke="#081732" stroke-width="2" stroke-linecap="round" stroke-linejoin="round"/>
<path d="M43.127 37.2393C43.127 37.5138 42.9045 37.7363 42.6301 37.7363C42.3556 37.7363 42.1331 37.5138 42.1331 37.2393C42.1331 36.9649 42.3556 36.7424 42.6301 36.7424C42.9045 36.7424 43.127 36.9649 43.127 37.2393Z" fill="#081732" stroke="#081732" stroke-width="2"/>
<path d="M37.2307 37.2393C37.2307 37.5138 37.0082 37.7363 36.7338 37.7363C36.4593 37.7363 36.2368 37.5138 36.2368 37.2393C36.2368 36.9649 36.4593 36.7424 36.7338 36.7424C37.0082 36.7424 37.2307 36.9649 37.2307 37.2393Z" fill="#081732" stroke="#081732" stroke-width="2"/>
</svg>
