<svg width="80" height="80" viewBox="0 0 80 80" fill="none" xmlns="http://www.w3.org/2000/svg">
<rect x="1.5" y="1.5" width="77" height="77" rx="38.5" fill="#F8AE05"/>
<rect x="1.5" y="1.5" width="77" height="77" rx="38.5" stroke="#081732" stroke-width="3"/>
<path d="M22.559 50.429L16.6175 53.5538C15.1642 54.3175 13.4652 53.0837 13.7445 51.4657L14.8765 44.8474C14.9307 44.5309 14.9072 44.2059 14.808 43.9005C14.7089 43.5951 14.537 43.3183 14.3071 43.0941L9.49845 38.4071C8.32291 37.2611 8.97173 35.2643 10.5962 35.0285L17.2412 34.0629C17.559 34.0167 17.8608 33.8939 18.1206 33.7051C18.3803 33.5163 18.5903 33.2671 18.7324 32.9791L21.7043 26.9578C22.4305 25.4858 24.5302 25.4858 25.2557 26.9578L28.2292 32.9791C28.3713 33.2672 28.5813 33.5163 28.8412 33.7051C29.101 33.894 29.4029 34.0167 29.7208 34.0629L36.3658 35.0285C37.9902 35.2643 38.6403 37.2611 37.4635 38.4071L32.6544 43.0941C32.4246 43.3183 32.2527 43.5951 32.1535 43.9005C32.0543 44.2059 32.0308 44.5309 32.085 44.8474L33.2203 51.4657C33.4976 53.0837 31.7993 54.3175 30.3473 53.5538L24.4025 50.429C24.1183 50.2796 23.8019 50.2016 23.4808 50.2016C23.1596 50.2016 22.8433 50.2796 22.559 50.429Z" fill="#F9D744" stroke="#081732" stroke-width="2" stroke-linecap="round" stroke-linejoin="round"/>
<path d="M21.2661 41.0079C21.2645 41.2927 21.319 41.5751 21.4264 41.8388C21.5339 42.1026 21.6922 42.3426 21.8925 42.5451C22.0927 42.7477 22.3308 42.9088 22.5933 43.0193C22.8558 43.1298 23.1375 43.1876 23.4223 43.1892C23.7071 43.1909 23.9894 43.1364 24.2532 43.0289C24.5169 42.9215 24.7569 42.7631 24.9595 42.5629C25.162 42.3627 25.3232 42.1245 25.4337 41.862C25.5442 41.5996 25.6019 41.3179 25.6036 41.0331" stroke="#081732" stroke-width="2" stroke-linecap="round" stroke-linejoin="round"/>
<path d="M25.7895 38.9545C26.4498 38.9545 26.985 38.4193 26.985 37.759C26.985 37.0988 26.4498 36.5635 25.7895 36.5635C25.1293 36.5635 24.5941 37.0988 24.5941 37.759C24.5941 38.4193 25.1293 38.9545 25.7895 38.9545Z" fill="#081732"/>
<path d="M21.0806 38.9545C21.7409 38.9545 22.2761 38.4193 22.2761 37.759C22.2761 37.0988 21.7409 36.5635 21.0806 36.5635C20.4204 36.5635 19.8851 37.0988 19.8851 37.759C19.8851 38.4193 20.4204 38.9545 21.0806 38.9545Z" fill="#081732"/>
<path d="M55.4947 50.429L49.5532 53.5538C48.0999 54.3175 46.4009 53.0837 46.6802 51.4657L47.8122 44.8474C47.8664 44.5309 47.8429 44.2059 47.7437 43.9005C47.6445 43.5951 47.4726 43.3183 47.2428 43.0941L42.4341 38.4071C41.2586 37.2611 41.9074 35.2643 43.5318 35.0285L50.1769 34.0629C50.4947 34.0167 50.7965 33.8939 51.0562 33.7051C51.316 33.5163 51.526 33.2671 51.668 32.9791L54.64 26.9578C55.3662 25.4858 57.4659 25.4858 58.1913 26.9578L61.1649 32.9791C61.307 33.2672 61.517 33.5163 61.7769 33.7051C62.0367 33.894 62.3386 34.0167 62.6565 34.0629L69.3015 35.0285C70.9259 35.2643 71.5759 37.2611 70.3992 38.4071L65.5901 43.0941C65.3603 43.3183 65.1884 43.5951 65.0892 43.9005C64.99 44.2059 64.9665 44.5309 65.0207 44.8474L66.1559 51.4657C66.4333 53.0837 64.735 54.3175 63.2829 53.5538L57.3382 50.429C57.0539 50.2796 56.7376 50.2016 56.4165 50.2016C56.0953 50.2016 55.779 50.2796 55.4947 50.429Z" fill="#F9D744" stroke="#081732" stroke-width="2" stroke-linecap="round" stroke-linejoin="round"/>
<path d="M54.2018 41.0079C54.2002 41.2927 54.2546 41.5751 54.3621 41.8388C54.4696 42.1026 54.6279 42.3426 54.8281 42.5451C55.0284 42.7477 55.2665 42.9088 55.529 43.0193C55.7915 43.1298 56.0732 43.1876 56.358 43.1892C56.6428 43.1909 56.9251 43.1364 57.1889 43.0289C57.4526 42.9215 57.6926 42.7631 57.8952 42.5629C58.0977 42.3627 58.2588 42.1245 58.3694 41.862C58.4799 41.5996 58.5376 41.3179 58.5393 41.0331" stroke="#081732" stroke-width="2" stroke-linecap="round" stroke-linejoin="round"/>
<path d="M58.7252 38.9545C59.3855 38.9545 59.9207 38.4193 59.9207 37.759C59.9207 37.0988 59.3855 36.5635 58.7252 36.5635C58.065 36.5635 57.5297 37.0988 57.5297 37.759C57.5297 38.4193 58.065 38.9545 58.7252 38.9545Z" fill="#081732"/>
<path d="M54.0163 38.9545C54.6765 38.9545 55.2118 38.4193 55.2118 37.759C55.2118 37.0988 54.6765 36.5635 54.0163 36.5635C53.356 36.5635 52.8208 37.0988 52.8208 37.759C52.8208 38.4193 53.356 38.9545 54.0163 38.9545Z" fill="#081732"/>
</svg>
