<svg width="128" height="128" viewBox="0 0 128 128" fill="none" xmlns="http://www.w3.org/2000/svg">
<g clip-path="url(#clip0_6_1627)">
<mask id="path-1-outside-1_6_1627" maskUnits="userSpaceOnUse" x="5.60077" y="59.6651" width="116" height="64" fill="black">
<rect fill="white" x="5.60077" y="59.6651" width="116" height="64"/>
<path d="M41.1783 110.555C35.5704 112.655 29.7247 113.131 23.6412 111.981C20.7679 111.268 18.6773 109.901 17.3694 107.88C15.2491 104.015 14.8627 94.9694 16.2102 80.7416C16.8443 75.7281 18.8853 72.5972 22.3333 71.3488C33.3708 68.4755 44.1309 68.9313 54.6135 72.7161C55.3269 73.0134 55.634 73.38 55.535 73.8159C54.9603 77.462 54.0091 80.8506 52.6815 83.9815C52.3644 84.5562 51.7204 84.7246 50.7494 84.4868C43.9922 82.8817 37.8789 82.8817 32.4097 84.4868C31.3595 84.7642 30.6857 85.329 30.3885 86.1811C30.0913 87.7267 30.012 89.8371 30.1507 92.5123C30.2498 94.6722 30.765 96.5349 31.6964 98.1004C32.1918 98.6948 32.7961 99.0515 33.5095 99.1704C35.5902 99.3686 38.0077 98.7642 40.7622 97.3573C40.7027 93.7904 40.7126 90.7784 40.7919 88.3212C40.8315 87.8852 41.3467 87.6375 42.3375 87.5781C46.8754 87.2809 50.5513 87.3106 53.3651 87.6673C53.92 87.7465 54.2073 87.9744 54.2271 88.3509C54.6036 95.0289 54.6333 102.995 54.3163 112.249C54.2965 112.606 53.8902 112.834 53.0976 112.933C49.3722 113.25 45.6072 113.2 41.8025 112.784C41.426 112.725 41.2377 112.546 41.2377 112.249C41.2179 111.674 41.1981 111.11 41.1783 110.555ZM103.064 71.2596C105.937 71.973 108.057 73.8456 109.424 76.8775C111.109 80.801 111.495 89.2724 110.584 102.291C109.771 107.86 107.73 110.991 104.461 111.684C89.5986 113.487 76.9164 113.329 66.4139 111.209C64.8287 110.792 63.5307 109.871 62.5201 108.444C60.0431 104.501 58.8244 98.3283 58.864 89.9263C59.0622 83.387 59.9638 78.5321 61.5689 75.3616C62.2823 73.6177 63.8973 72.4486 66.4139 71.8541C78.7196 69.179 90.9362 68.9808 103.064 71.2596ZM92.9871 100.359C94.0572 100.161 94.7706 99.6658 95.1273 98.8732C95.7416 97.5059 96.0883 95.4351 96.1676 92.6609C96.1874 89.1138 95.7019 86.4981 94.7111 84.8138C94.2752 84.1995 93.7005 83.8032 92.9871 83.6248C88.3898 82.7331 83.2872 82.7034 77.6793 83.5356C75.5986 83.7734 74.37 85.0714 73.9935 87.4295C73.617 92.9581 73.7954 96.5547 74.5286 98.2193C75.123 99.4875 76.0445 100.28 77.2929 100.597C82.2073 101.568 87.4387 101.489 92.9871 100.359Z"/>
</mask>
<path d="M41.1783 110.555C35.5704 112.655 29.7247 113.131 23.6412 111.981C20.7679 111.268 18.6773 109.901 17.3694 107.88C15.2491 104.015 14.8627 94.9694 16.2102 80.7416C16.8443 75.7281 18.8853 72.5972 22.3333 71.3488C33.3708 68.4755 44.1309 68.9313 54.6135 72.7161C55.3269 73.0134 55.634 73.38 55.535 73.8159C54.9603 77.462 54.0091 80.8506 52.6815 83.9815C52.3644 84.5562 51.7204 84.7246 50.7494 84.4868C43.9922 82.8817 37.8789 82.8817 32.4097 84.4868C31.3595 84.7642 30.6857 85.329 30.3885 86.1811C30.0913 87.7267 30.012 89.8371 30.1507 92.5123C30.2498 94.6722 30.765 96.5349 31.6964 98.1004C32.1918 98.6948 32.7961 99.0515 33.5095 99.1704C35.5902 99.3686 38.0077 98.7642 40.7622 97.3573C40.7027 93.7904 40.7126 90.7784 40.7919 88.3212C40.8315 87.8852 41.3467 87.6375 42.3375 87.5781C46.8754 87.2809 50.5513 87.3106 53.3651 87.6673C53.92 87.7465 54.2073 87.9744 54.2271 88.3509C54.6036 95.0289 54.6333 102.995 54.3163 112.249C54.2965 112.606 53.8902 112.834 53.0976 112.933C49.3722 113.25 45.6072 113.2 41.8025 112.784C41.426 112.725 41.2377 112.546 41.2377 112.249C41.2179 111.674 41.1981 111.11 41.1783 110.555ZM103.064 71.2596C105.937 71.973 108.057 73.8456 109.424 76.8775C111.109 80.801 111.495 89.2724 110.584 102.291C109.771 107.86 107.73 110.991 104.461 111.684C89.5986 113.487 76.9164 113.329 66.4139 111.209C64.8287 110.792 63.5307 109.871 62.5201 108.444C60.0431 104.501 58.8244 98.3283 58.864 89.9263C59.0622 83.387 59.9638 78.5321 61.5689 75.3616C62.2823 73.6177 63.8973 72.4486 66.4139 71.8541C78.7196 69.179 90.9362 68.9808 103.064 71.2596ZM92.9871 100.359C94.0572 100.161 94.7706 99.6658 95.1273 98.8732C95.7416 97.5059 96.0883 95.4351 96.1676 92.6609C96.1874 89.1138 95.7019 86.4981 94.7111 84.8138C94.2752 84.1995 93.7005 83.8032 92.9871 83.6248C88.3898 82.7331 83.2872 82.7034 77.6793 83.5356C75.5986 83.7734 74.37 85.0714 73.9935 87.4295C73.617 92.9581 73.7954 96.5547 74.5286 98.2193C75.123 99.4875 76.0445 100.28 77.2929 100.597C82.2073 101.568 87.4387 101.489 92.9871 100.359Z" fill="#F8AE05"/>
<path d="M41.1783 110.555L50.8567 110.209L50.3767 96.7677L37.7813 101.485L41.1783 110.555ZM23.6412 111.981L21.3076 121.381L21.5738 121.447L21.8433 121.498L23.6412 111.981ZM17.3694 107.88L8.87903 112.538L9.04786 112.846L9.23852 113.141L17.3694 107.88ZM16.2102 80.7416L6.60213 79.5263L6.58306 79.6771L6.56873 79.8285L16.2102 80.7416ZM22.3333 71.3488L19.8935 61.9766L19.4587 62.0898L19.0363 62.2427L22.3333 71.3488ZM54.6135 72.7161L58.3384 63.7765L58.1224 63.6865L57.9024 63.6071L54.6135 72.7161ZM55.535 73.8159L46.0912 71.6696L46.0191 71.9868L45.9685 72.3081L55.535 73.8159ZM52.6815 83.9815L61.1611 88.6599L61.4025 88.2224L61.5976 87.7624L52.6815 83.9815ZM50.7494 84.4868L53.0531 75.0802L53.0204 75.0722L52.9876 75.0644L50.7494 84.4868ZM32.4097 84.4868L34.8831 93.8502L35.0105 93.8166L35.1369 93.7795L32.4097 84.4868ZM30.3885 86.1811L21.2443 82.9912L21.0116 83.6583L20.8782 84.3522L30.3885 86.1811ZM30.1507 92.5123L39.8251 92.0685L39.8238 92.0396L39.8223 92.0108L30.1507 92.5123ZM31.6964 98.1004L23.3734 103.052L23.7655 103.711L24.2564 104.3L31.6964 98.1004ZM33.5095 99.1704L31.9174 108.723L32.2528 108.779L32.5913 108.811L33.5095 99.1704ZM40.7622 97.3573L45.1675 105.982L50.5461 103.235L50.4454 97.1959L40.7622 97.3573ZM40.7919 88.3212L31.1471 87.4444L31.1214 87.7262L31.1123 88.0089L40.7919 88.3212ZM42.3375 87.5781L42.9176 97.2453L42.9441 97.2437L42.9705 97.242L42.3375 87.5781ZM53.3651 87.6673L54.7347 78.08L54.6589 78.0692L54.583 78.0595L53.3651 87.6673ZM54.2271 88.3509L44.5559 88.8599L44.5568 88.878L44.5579 88.8961L54.2271 88.3509ZM54.3163 112.249L63.986 112.786L63.9917 112.683L63.9952 112.581L54.3163 112.249ZM53.0976 112.933L53.9189 122.582L54.1092 122.566L54.2988 122.542L53.0976 112.933ZM41.8025 112.784L40.2921 122.35L40.5201 122.386L40.7495 122.411L41.8025 112.784ZM41.2377 112.249H50.9224V112.082L50.9166 111.915L41.2377 112.249ZM37.7813 101.485C33.8895 102.943 29.8444 103.297 25.439 102.465L21.8433 121.498C29.6049 122.964 37.2512 122.367 44.5753 119.624L37.7813 101.485ZM25.9748 102.582C25.4025 102.44 25.2042 102.306 25.2192 102.316C25.2275 102.321 25.2727 102.353 25.3351 102.415C25.3983 102.478 25.4554 102.549 25.5003 102.618L9.23852 113.141C12.1743 117.678 16.6232 120.218 21.3076 121.381L25.9748 102.582ZM25.8598 103.221C25.9404 103.368 25.3482 102.068 25.1652 97.7837C24.9984 93.8799 25.1988 88.5485 25.8516 81.6547L6.56873 79.8285C5.87414 87.1625 5.59395 93.468 5.8136 98.6103C6.017 103.372 6.67812 108.527 8.87903 112.538L25.8598 103.221ZM25.8182 81.9568C26.0129 80.4177 26.3393 79.9072 26.3295 79.9221C26.3115 79.9497 26.224 80.0705 26.0511 80.2085C25.8764 80.3478 25.7157 80.424 25.6304 80.4549L19.0363 62.2427C10.9028 65.1876 7.49404 72.4747 6.60213 79.5263L25.8182 81.9568ZM24.7731 80.7211C33.9654 78.3281 42.7264 78.7207 51.3246 81.8252L57.9024 63.6071C45.5353 59.1418 32.7763 58.6229 19.8935 61.9766L24.7731 80.7211ZM50.8887 81.6558C50.5987 81.5349 49.2309 80.9559 47.9555 79.4336C47.2503 78.592 46.545 77.4233 46.1584 75.9324C45.766 74.4187 45.8005 72.9486 46.0912 71.6696L64.9787 75.9622C65.7515 72.5621 64.7422 69.3096 62.8024 66.9944C61.2198 65.1055 59.3417 64.1945 58.3384 63.7765L50.8887 81.6558ZM45.9685 72.3081C45.5065 75.2389 44.7592 77.8571 43.7654 80.2006L61.5976 87.7624C63.2591 83.8441 64.4141 79.6852 65.1015 75.3237L45.9685 72.3081ZM44.2018 79.3031C45.3459 77.2294 47.3061 75.7458 49.5102 75.1694C51.3333 74.6926 52.6973 74.993 53.0531 75.0802L48.4457 93.8934C49.7725 94.2184 51.9441 94.5535 54.4111 93.9083C57.2593 93.1634 59.7 91.3082 61.1611 88.6599L44.2018 79.3031ZM52.9876 75.0644C44.9483 73.1548 37.0858 73.0214 29.6825 75.1941L35.1369 93.7795C38.6721 92.742 43.036 92.6087 48.5112 93.9092L52.9876 75.0644ZM29.9364 75.1234C26.5006 76.0309 22.8268 78.4547 21.2443 82.9912L39.5327 89.3709C39.1223 90.5474 38.3759 91.6705 37.3381 92.5404C36.3576 93.3623 35.4181 93.7089 34.8831 93.8502L29.9364 75.1234ZM20.8782 84.3522C20.3659 87.0159 20.3239 90.0211 20.4791 93.0138L39.8223 92.0108C39.7001 89.6531 39.8166 88.4376 39.8989 88.01L20.8782 84.3522ZM20.4763 92.956C20.6347 96.41 21.4882 99.8834 23.3734 103.052L40.0194 93.1487C40.0182 93.1467 40.0106 93.1339 39.9986 93.1054C39.9865 93.0766 39.9672 93.0258 39.9456 92.9475C39.9022 92.7906 39.8454 92.5095 39.8251 92.0685L20.4763 92.956ZM24.2564 104.3C26.1242 106.542 28.7485 108.195 31.9174 108.723L35.1017 89.6176C35.8836 89.7479 36.6882 90.0276 37.4434 90.4733C38.19 90.9139 38.7462 91.4324 39.1363 91.9004L24.2564 104.3ZM32.5913 108.811C37.1881 109.249 41.5111 107.85 45.1675 105.982L36.3568 88.7326C35.4839 89.1785 34.8841 89.3829 34.5343 89.4703C34.193 89.5556 34.1853 89.5064 34.4277 89.5295L32.5913 108.811ZM50.4454 97.1959C50.3875 93.7234 50.399 90.88 50.4715 88.6334L31.1123 88.0089C31.0263 90.6767 31.0179 93.8574 31.0789 97.5187L50.4454 97.1959ZM50.4367 89.198C50.2715 91.0149 49.5651 92.7344 48.4305 94.1325C47.3724 95.4361 46.1939 96.1571 45.4043 96.5367C44.6157 96.9159 43.9634 97.077 43.6189 97.1472C43.2533 97.2218 43.0015 97.2403 42.9176 97.2453L41.7575 77.9109C40.7944 77.9687 38.9447 78.1509 37.0117 79.0802C34.7538 80.1657 31.5696 82.797 31.1471 87.4444L50.4367 89.198ZM42.9705 97.242C47.2125 96.9641 50.2003 97.0282 52.1472 97.275L54.583 78.0595C50.9022 77.593 46.5383 77.5976 41.7045 77.9142L42.9705 97.242ZM51.9955 97.2545C51.3995 97.1694 49.71 96.8585 47.9788 95.4855C45.8769 93.8185 44.6873 91.3571 44.5559 88.8599L63.8983 87.8419C63.7471 84.9682 62.404 82.2047 60.0147 80.3098C57.9961 78.7088 55.8856 78.2444 54.7347 78.08L51.9955 97.2545ZM44.5579 88.8961C44.913 95.1954 44.9479 102.854 44.6374 111.917L63.9952 112.581C64.3188 103.136 64.2942 94.8624 63.8964 87.8058L44.5579 88.8961ZM44.6466 111.712C44.7465 109.913 45.3707 108.204 46.4024 106.788C47.3697 105.461 48.4818 104.677 49.2586 104.241C50.6615 103.454 51.8107 103.334 51.8964 103.323L54.2988 122.542C55.1771 122.433 56.9258 122.149 58.735 121.134C60.8371 119.954 63.7373 117.263 63.986 112.786L44.6466 111.712ZM52.2764 103.283C49.1896 103.546 46.0523 103.506 42.8555 103.157L40.7495 122.411C45.162 122.894 49.5548 122.954 53.9189 122.582L52.2764 103.283ZM43.3129 103.218C44.1963 103.357 46.1891 103.822 48.0395 105.575C50.1646 107.588 50.9224 110.164 50.9224 112.249H31.5531C31.5531 114.631 32.405 117.445 34.7184 119.636C36.757 121.568 39.0322 122.151 40.2921 122.35L43.3129 103.218ZM50.9166 111.915C50.8967 111.337 50.8767 110.768 50.8567 110.209L31.4999 110.9C31.5195 111.451 31.5392 112.012 31.5589 112.583L50.9166 111.915ZM103.064 71.2596L105.397 61.8604L105.126 61.7932L104.852 61.7416L103.064 71.2596ZM109.424 76.8775L118.324 73.0571L118.289 72.9763L118.253 72.8961L109.424 76.8775ZM110.584 102.291L120.167 103.69L120.219 103.33L120.245 102.968L110.584 102.291ZM104.461 111.684L105.627 121.298L106.052 121.247L106.47 121.158L104.461 111.684ZM66.4139 111.209L63.955 120.576L64.2244 120.647L64.4974 120.702L66.4139 111.209ZM62.5201 108.444L54.3192 113.596L54.462 113.823L54.6172 114.042L62.5201 108.444ZM58.864 89.9263L49.1839 89.6329L49.1801 89.7567L49.1796 89.8806L58.864 89.9263ZM61.5689 75.3616L70.2094 79.7358L70.3851 79.3886L70.5325 79.0285L61.5689 75.3616ZM66.4139 71.8541L64.3566 62.3906L64.2719 62.409L64.1875 62.4289L66.4139 71.8541ZM92.9871 100.359L91.2237 90.8367L91.1393 90.8523L91.0552 90.8694L92.9871 100.359ZM95.1273 98.8732L103.959 102.847L103.961 102.842L95.1273 98.8732ZM96.1676 92.6609L105.848 92.9375L105.851 92.8263L105.852 92.715L96.1676 92.6609ZM94.7111 84.8138L103.059 79.9035L102.849 79.5465L102.609 79.2088L94.7111 84.8138ZM92.9871 83.6248L95.336 74.2294L95.0851 74.1666L94.8312 74.1174L92.9871 83.6248ZM77.6793 83.5356L78.779 93.1576L78.9403 93.1392L79.101 93.1153L77.6793 83.5356ZM73.9935 87.4295L64.4301 85.9025L64.3611 86.3348L64.3313 86.7715L73.9935 87.4295ZM74.5286 98.2193L65.6657 102.123L65.7114 102.227L65.7596 102.33L74.5286 98.2193ZM77.2929 100.597L74.909 109.984L75.1608 110.048L75.4157 110.098L77.2929 100.597ZM100.73 80.6589C100.752 80.6643 100.707 80.6551 100.624 80.6119C100.539 80.5678 100.459 80.5122 100.398 80.458C100.339 80.4057 100.331 80.3858 100.365 80.4334C100.401 80.4841 100.486 80.6145 100.596 80.8589L118.253 72.8961C115.836 67.5381 111.533 63.3837 105.397 61.8604L100.73 80.6589ZM100.525 80.6978C100.518 80.6815 100.567 80.7927 100.642 81.0753C100.717 81.3531 100.805 81.7443 100.892 82.2687C101.07 83.3305 101.218 84.76 101.303 86.6149C101.473 90.3364 101.365 95.3024 100.923 101.615L120.245 102.968C120.714 96.2614 120.869 90.4822 120.652 85.7323C120.448 81.2488 119.885 76.6934 118.324 73.0571L100.525 80.6978ZM101.001 100.893C100.86 101.855 100.691 102.537 100.542 102.992C100.391 103.451 100.291 103.588 100.331 103.527C100.381 103.45 100.59 103.16 101.023 102.848C101.474 102.523 101.982 102.31 102.451 102.21L106.47 121.158C116.056 119.125 119.216 110.205 120.167 103.69L101.001 100.893ZM103.294 102.07C89.0838 103.794 77.504 103.568 68.3305 101.716L64.4974 120.702C76.3288 123.09 90.1134 123.181 105.627 121.298L103.294 102.07ZM68.8728 101.841C69.1753 101.921 69.5265 102.073 69.8577 102.308C70.1816 102.538 70.3595 102.757 70.423 102.846L54.6172 114.042C56.8484 117.192 60.0149 119.542 63.955 120.576L68.8728 101.841ZM70.721 103.293C69.7307 101.716 68.5116 97.8125 68.5485 89.972L49.1796 89.8806C49.1373 98.844 50.3555 107.286 54.3192 113.596L70.721 103.293ZM68.5442 90.2196C68.7296 84.1018 69.581 80.977 70.2094 79.7358L52.9285 70.9873C50.3466 76.0872 49.3948 82.6722 49.1839 89.6329L68.5442 90.2196ZM70.5325 79.0285C70.1649 79.9271 69.5607 80.6115 68.9942 81.0216C68.5086 81.3731 68.2734 81.366 68.6404 81.2793L64.1875 62.4289C59.8545 63.4525 54.911 66.0586 52.6054 71.6946L70.5325 79.0285ZM68.4712 81.3177C79.5382 78.9118 90.4469 78.743 101.275 80.7777L104.852 61.7416C91.4255 59.2187 77.9011 59.4461 64.3566 62.3906L68.4712 81.3177ZM94.7506 109.882C98.0587 109.269 101.968 107.271 103.959 102.847L86.2957 94.899C86.8377 93.6943 87.713 92.6399 88.8007 91.8846C89.8195 91.1771 90.7395 90.9264 91.2237 90.8367L94.7506 109.882ZM103.961 102.842C105.371 99.7043 105.758 96.0871 105.848 92.9375L86.4869 92.3843C86.4562 93.4599 86.3776 94.2105 86.2965 94.6951C86.2098 95.2124 86.1557 95.2106 86.2933 94.9043L103.961 102.842ZM105.852 92.715C105.875 88.6411 105.396 83.8767 103.059 79.9035L86.3636 89.7241C86.1225 89.3141 86.19 89.2329 86.2964 89.8061C86.3978 90.3529 86.4907 91.2559 86.4831 92.6068L105.852 92.715ZM102.609 79.2088C100.871 76.7596 98.3513 74.9832 95.336 74.2294L90.6383 93.0203C89.9291 92.843 89.1738 92.5241 88.4549 92.0283C87.7389 91.5345 87.1986 90.9617 86.8133 90.4187L102.609 79.2088ZM94.8312 74.1174C88.9576 72.9781 82.7291 72.9955 76.2576 73.956L79.101 93.1153C83.8454 92.4112 87.822 92.4881 91.143 93.1322L94.8312 74.1174ZM76.5796 73.9137C73.6832 74.2447 70.6071 75.4488 68.164 78.0299C65.8258 80.5001 64.8243 83.4333 64.4301 85.9025L83.557 88.9564C83.5393 89.0676 83.3404 90.1727 82.2307 91.345C81.0162 92.6281 79.5947 93.0644 78.779 93.1576L76.5796 73.9137ZM64.3313 86.7715C64.1294 89.7362 64.0571 92.4315 64.1722 94.753C64.274 96.8068 64.5541 99.5995 65.6657 102.123L83.3915 94.3154C83.6352 94.8688 83.6612 95.1631 83.6251 94.9553C83.597 94.7929 83.5489 94.4253 83.5176 93.7938C83.4544 92.5188 83.4812 90.6514 83.6558 88.0875L64.3313 86.7715ZM65.7596 102.33C67.4624 105.962 70.581 108.885 74.909 109.984L79.6768 91.2106C80.4147 91.398 81.2394 91.7849 81.9812 92.423C82.7036 93.0445 83.1024 93.6923 83.2976 94.1088L65.7596 102.33ZM75.4157 110.098C81.7416 111.348 88.2773 111.201 94.919 109.849L91.0552 90.8694C86.6 91.7764 82.6729 91.7883 79.1701 91.0963L75.4157 110.098Z" fill="#081732" mask="url(#path-1-outside-1_6_1627)"/>
<mask id="path-3-outside-2_6_1627" maskUnits="userSpaceOnUse" x="1.33136" y="6.09302" width="125" height="64" fill="black">
<rect fill="white" x="1.33136" y="6.09302" width="125" height="64"/>
<path d="M15.1924 57.1015C14.7168 47.0746 14.5484 38.0386 14.6871 29.9933C13.9737 30.0527 13.3396 30.1122 12.7847 30.1716C12.2695 30.3698 11.9326 30.2905 11.7741 29.9338C11.2391 26.8822 11.0508 23.2261 11.2094 18.9657C11.1301 18.4505 11.3283 18.0839 11.8038 17.8659C27.8746 15.2898 40.9828 15.1214 51.1286 17.3606C53.9425 18.1731 55.9934 19.6196 57.2815 21.7003C59.3622 25.6635 59.7387 34.8581 58.411 49.2841C57.7571 54.1985 55.7556 57.1213 52.4068 58.0527C42.0628 60.1135 29.9751 60.0343 16.1435 57.8149C15.5689 57.7356 15.2518 57.4978 15.1924 57.1015ZM29.6977 29.5474C29.8364 35.1752 29.8661 40.7038 29.7868 46.1334C34.2256 46.7675 38.4662 46.6288 42.5087 45.7172C43.5391 45.4398 44.2029 44.8751 44.5002 44.023C44.7974 42.2594 44.8767 39.9211 44.738 37.0081C44.5596 34.5113 44.0147 32.4505 43.1032 30.8255C42.6078 30.2113 42.0133 29.8347 41.3197 29.696C38.8625 29.1412 34.9885 29.0916 29.6977 29.5474ZM108.615 17.6876C111.488 18.4009 113.608 20.2735 114.976 23.3054C116.66 27.2289 117.046 35.7003 116.135 48.7194C115.322 54.2876 113.281 57.4186 110.012 58.1121C95.1498 59.9154 82.4676 59.7569 71.9651 57.6365C70.3798 57.2204 69.0819 56.299 68.0713 54.8722C65.5943 50.9288 64.3756 44.7562 64.4152 36.3542C64.6134 29.8149 65.515 24.96 67.1201 21.7895C67.8335 20.0457 69.4485 18.8765 71.9651 18.282C84.2708 15.6069 96.4874 15.4087 108.615 17.6876ZM98.5383 46.7873C99.6084 46.5891 100.322 46.0937 100.678 45.3011C101.293 43.9338 101.64 41.863 101.719 39.0888C101.739 35.5417 101.253 32.926 100.262 31.2417C99.8263 30.6274 99.2517 30.2311 98.5383 30.0527C93.941 29.161 88.8384 29.1313 83.2305 29.9636C81.1498 30.2013 79.9212 31.4993 79.5447 33.8574C79.1682 39.386 79.3466 42.9826 80.0797 44.6472C80.6742 45.9154 81.5957 46.708 82.8441 47.0251C87.7584 47.9961 92.9898 47.9168 98.5383 46.7873Z"/>
</mask>
<path d="M15.1924 57.1015C14.7168 47.0746 14.5484 38.0386 14.6871 29.9933C13.9737 30.0527 13.3396 30.1122 12.7847 30.1716C12.2695 30.3698 11.9326 30.2905 11.7741 29.9338C11.2391 26.8822 11.0508 23.2261 11.2094 18.9657C11.1301 18.4505 11.3283 18.0839 11.8038 17.8659C27.8746 15.2898 40.9828 15.1214 51.1286 17.3606C53.9425 18.1731 55.9934 19.6196 57.2815 21.7003C59.3622 25.6635 59.7387 34.8581 58.411 49.2841C57.7571 54.1985 55.7556 57.1213 52.4068 58.0527C42.0628 60.1135 29.9751 60.0343 16.1435 57.8149C15.5689 57.7356 15.2518 57.4978 15.1924 57.1015ZM29.6977 29.5474C29.8364 35.1752 29.8661 40.7038 29.7868 46.1334C34.2256 46.7675 38.4662 46.6288 42.5087 45.7172C43.5391 45.4398 44.2029 44.8751 44.5002 44.023C44.7974 42.2594 44.8767 39.9211 44.738 37.0081C44.5596 34.5113 44.0147 32.4505 43.1032 30.8255C42.6078 30.2113 42.0133 29.8347 41.3197 29.696C38.8625 29.1412 34.9885 29.0916 29.6977 29.5474ZM108.615 17.6876C111.488 18.4009 113.608 20.2735 114.976 23.3054C116.66 27.2289 117.046 35.7003 116.135 48.7194C115.322 54.2876 113.281 57.4186 110.012 58.1121C95.1498 59.9154 82.4676 59.7569 71.9651 57.6365C70.3798 57.2204 69.0819 56.299 68.0713 54.8722C65.5943 50.9288 64.3756 44.7562 64.4152 36.3542C64.6134 29.8149 65.515 24.96 67.1201 21.7895C67.8335 20.0457 69.4485 18.8765 71.9651 18.282C84.2708 15.6069 96.4874 15.4087 108.615 17.6876ZM98.5383 46.7873C99.6084 46.5891 100.322 46.0937 100.678 45.3011C101.293 43.9338 101.64 41.863 101.719 39.0888C101.739 35.5417 101.253 32.926 100.262 31.2417C99.8263 30.6274 99.2517 30.2311 98.5383 30.0527C93.941 29.161 88.8384 29.1313 83.2305 29.9636C81.1498 30.2013 79.9212 31.4993 79.5447 33.8574C79.1682 39.386 79.3466 42.9826 80.0797 44.6472C80.6742 45.9154 81.5957 46.708 82.8441 47.0251C87.7584 47.9961 92.9898 47.9168 98.5383 46.7873Z" fill="#F16932"/>
<path d="M15.1924 57.1015L5.51865 57.5603L5.54195 58.0517L5.61492 58.5381L15.1924 57.1015ZM14.6871 29.9933L24.3702 30.1602L24.5548 19.4528L13.8828 20.3421L14.6871 29.9933ZM12.7847 30.1716L11.753 20.5421L10.4919 20.6772L9.30816 21.1325L12.7847 30.1716ZM11.7741 29.9338L2.23502 31.6063L2.44064 32.7791L2.92422 33.8671L11.7741 29.9338ZM11.2094 18.9657L20.8873 19.3258L20.9216 18.4044L20.7813 17.4931L11.2094 18.9657ZM11.8038 17.8659L10.271 8.30338L8.96818 8.51222L7.76871 9.06198L11.8038 17.8659ZM51.1286 17.3606L53.8151 8.05608L53.5179 7.97026L53.2158 7.90358L51.1286 17.3606ZM57.2815 21.7003L65.8562 17.1986L65.6966 16.8946L65.516 16.6028L57.2815 21.7003ZM58.411 49.2841L68.011 50.5615L68.0369 50.367L68.0548 50.1717L58.411 49.2841ZM52.4068 58.0527L54.2991 67.5506L54.6535 67.48L55.0016 67.3832L52.4068 58.0527ZM16.1435 57.8149L17.6779 48.2526L17.5725 48.2357L17.4668 48.2211L16.1435 57.8149ZM29.6977 29.5474L28.8665 19.8985L19.7916 20.6803L20.016 29.786L29.6977 29.5474ZM29.7868 46.1334L20.1033 45.992L19.9788 54.5152L28.4172 55.7206L29.7868 46.1334ZM42.5087 45.7172L44.639 55.1646L44.8337 55.1207L45.0264 55.0688L42.5087 45.7172ZM44.5002 44.023L53.6444 47.2128L53.914 46.4398L54.0501 45.6325L44.5002 44.023ZM44.738 37.0081L54.4116 36.5475L54.4061 36.4327L54.398 36.3181L44.738 37.0081ZM43.1032 30.8255L51.5495 26.0873L51.1519 25.3786L50.6418 24.746L43.1032 30.8255ZM41.3197 29.696L39.1866 39.1428L39.3032 39.1691L39.4204 39.1926L41.3197 29.696ZM24.8661 56.6427C24.3981 46.7758 24.2359 37.9534 24.3702 30.1602L5.0039 29.8263C4.86084 38.1237 5.03548 47.3735 5.51865 57.5603L24.8661 56.6427ZM13.8828 20.3421C13.1135 20.4062 12.4012 20.4727 11.753 20.5421L13.8165 39.8011C14.278 39.7517 14.8339 39.6992 15.4913 39.6444L13.8828 20.3421ZM9.30816 21.1325C9.87517 20.9145 11.8165 20.2343 14.3638 20.8336C17.5492 21.5831 19.6531 23.816 20.624 26.0005L2.92422 33.8671C4.05363 36.4083 6.40522 38.8592 9.92751 39.6879C12.8117 40.3666 15.1791 39.6269 16.2613 39.2107L9.30816 21.1325ZM21.3132 28.2614C20.9304 26.0776 20.7453 23.1401 20.8873 19.3258L1.53146 18.6056C1.35633 23.3121 1.54782 27.6867 2.23502 31.6063L21.3132 28.2614ZM20.7813 17.4931C20.9809 18.7901 20.9518 20.8123 19.8181 22.9095C18.6865 25.003 17.0171 26.1299 15.839 26.6698L7.76871 9.06198C6.11497 9.81994 4.10871 11.239 2.77893 13.6991C1.44714 16.163 1.35857 18.6261 1.63738 20.4383L20.7813 17.4931ZM13.3367 27.4284C28.8097 24.9482 40.5643 24.9467 49.0414 26.8176L53.2158 7.90358C41.4014 5.2961 26.9394 5.6315 10.271 8.30338L13.3367 27.4284ZM48.4421 26.6651C48.9825 26.8211 49.1841 26.9611 49.1953 26.969C49.2014 26.9733 49.1773 26.9567 49.1392 26.9165C49.1007 26.8758 49.0687 26.8329 49.047 26.7978L65.516 16.6028C62.7241 12.0928 58.4567 9.39625 53.8151 8.05608L48.4421 26.6651ZM48.7068 26.202C48.6858 26.1622 49.2691 27.5993 49.4479 31.9649C49.6116 35.9637 49.4112 41.398 48.7671 48.3966L68.0548 50.1717C68.7384 42.7442 69.0136 36.3682 68.8009 31.1724C68.6031 26.3434 67.9578 21.2016 65.8562 17.1986L48.7068 26.202ZM48.811 48.0067C48.7146 48.7309 48.5909 49.2071 48.4955 49.4888C48.4012 49.767 48.3535 49.8002 48.4287 49.6904C48.5139 49.5659 48.6995 49.3429 49.0051 49.1228C49.3129 48.901 49.6087 48.7787 49.8119 48.7222L55.0016 67.3832C63.6553 64.9765 67.1012 57.3984 68.011 50.5615L48.811 48.0067ZM50.5144 48.5547C41.6028 50.3302 30.7238 50.3459 17.6779 48.2526L14.6092 67.3772C29.2264 69.7226 42.5228 69.8968 54.2991 67.5506L50.5144 48.5547ZM17.4668 48.2211C18.1045 48.3091 19.6588 48.6094 21.2855 49.8294C23.1884 51.2566 24.4268 53.3777 24.7698 55.6649L5.61492 58.5381C6.01744 61.2216 7.44401 63.6598 9.66399 65.3248C11.6077 66.7826 13.6079 67.2414 14.8203 67.4087L17.4668 48.2211ZM20.016 29.786C20.1517 35.2917 20.1806 40.6936 20.1033 45.992L39.4704 46.2747C39.5516 40.714 39.521 35.0586 39.3793 29.3088L20.016 29.786ZM28.4172 55.7206C33.9254 56.5075 39.3571 56.3556 44.639 55.1646L40.3784 36.2698C37.5753 36.9019 34.5258 37.0274 31.1564 36.5461L28.4172 55.7206ZM45.0264 55.0688C48.5 54.1337 52.0892 51.671 53.6444 47.2128L35.356 40.8331C35.7535 39.6937 36.4767 38.5832 37.504 37.7092C38.4799 36.8789 39.427 36.5175 39.9909 36.3656L45.0264 55.0688ZM54.0501 45.6325C54.5116 42.8944 54.5654 39.778 54.4116 36.5475L35.0643 37.4688C35.1879 40.0641 35.0833 41.6243 34.9503 42.4134L54.0501 45.6325ZM54.398 36.3181C54.1512 32.863 53.3552 29.3062 51.5495 26.0873L34.6568 35.5637C34.6742 35.5947 34.9681 36.1596 35.078 37.6981L54.398 36.3181ZM50.6418 24.746C48.8995 22.5856 46.3936 20.8344 43.219 20.1995L39.4204 39.1926C38.6078 39.03 37.8162 38.7153 37.104 38.2642C36.4042 37.821 35.9022 37.3237 35.5645 36.9051L50.6418 24.746ZM43.4529 20.2493C39.4449 19.3443 34.3024 19.4303 28.8665 19.8985L30.5288 39.1963C35.6747 38.753 38.2801 38.9381 39.1866 39.1428L43.4529 20.2493ZM108.615 17.6876L110.948 8.28832L110.678 8.22108L110.403 8.16954L108.615 17.6876ZM114.976 23.3054L123.875 19.485L123.84 19.4042L123.804 19.324L114.976 23.3054ZM116.135 48.7194L125.718 50.1176L125.77 49.7582L125.796 49.3958L116.135 48.7194ZM110.012 58.1121L111.178 67.7262L111.603 67.6747L112.021 67.5859L110.012 58.1121ZM71.9651 57.6365L69.5062 67.0038L69.7756 67.0745L70.0486 67.1296L71.9651 57.6365ZM68.0713 54.8722L59.8703 60.0236L60.0132 60.251L60.1684 60.4701L68.0713 54.8722ZM64.4152 36.3542L54.7351 36.0609L54.7313 36.1847L54.7307 36.3085L64.4152 36.3542ZM67.1201 21.7895L75.7606 26.1637L75.9363 25.8165L76.0837 25.4564L67.1201 21.7895ZM71.9651 18.282L69.9078 8.81848L69.8231 8.8369L69.7387 8.85683L71.9651 18.282ZM98.5383 46.7873L96.7749 37.2646L96.6905 37.2802L96.6064 37.2973L98.5383 46.7873ZM100.678 45.3011L109.51 49.2753L109.512 49.27L100.678 45.3011ZM101.719 39.0888L111.399 39.3654L111.403 39.2542L111.403 39.1429L101.719 39.0888ZM100.262 31.2417L108.61 26.3314L108.4 25.9745L108.16 25.6367L100.262 31.2417ZM98.5383 30.0527L100.887 20.6573L100.636 20.5946L100.382 20.5453L98.5383 30.0527ZM83.2305 29.9636L84.3301 39.5855L84.4915 39.5671L84.6522 39.5432L83.2305 29.9636ZM79.5447 33.8574L69.9812 32.3304L69.9122 32.7627L69.8825 33.1994L79.5447 33.8574ZM80.0797 44.6472L71.2168 48.5511L71.2626 48.6549L71.3107 48.7577L80.0797 44.6472ZM82.8441 47.0251L80.4602 56.4117L80.712 56.4757L80.9669 56.526L82.8441 47.0251ZM106.281 27.0868C106.303 27.0922 106.258 27.083 106.175 27.0398C106.09 26.9958 106.01 26.9401 105.949 26.886C105.89 26.8337 105.883 26.8137 105.916 26.8613C105.953 26.912 106.037 27.0424 106.147 27.2868L123.804 19.324C121.388 13.966 117.084 9.81161 110.948 8.28832L106.281 27.0868ZM106.076 27.1258C106.069 27.1094 106.118 27.2206 106.194 27.5032C106.268 27.781 106.356 28.1722 106.443 28.6966C106.621 29.7584 106.77 31.1879 106.854 33.0428C107.024 36.7643 106.916 41.7303 106.474 48.0429L125.796 49.3958C126.265 42.6894 126.42 36.9102 126.203 32.1603C125.999 27.6767 125.436 23.1213 123.875 19.485L106.076 27.1258ZM106.552 47.3211C106.411 48.2828 106.242 48.9645 106.093 49.4201C105.943 49.8787 105.842 50.0156 105.882 49.9549C105.932 49.8778 106.141 49.588 106.574 49.2761C107.025 48.9511 107.533 48.7378 108.002 48.6383L112.021 67.5859C121.607 65.5527 124.767 56.633 125.718 50.1176L106.552 47.3211ZM108.845 48.498C94.635 50.2222 83.0552 49.9955 73.8816 48.1435L70.0486 67.1296C81.88 69.5182 95.6646 69.6085 111.178 67.7262L108.845 48.498ZM74.424 48.2693C74.7264 48.3487 75.0777 48.5013 75.4089 48.7364C75.7328 48.9663 75.9107 49.1848 75.9741 49.2743L60.1684 60.4701C62.3996 63.62 65.5661 65.9695 69.5062 67.0038L74.424 48.2693ZM76.2722 49.7209C75.2818 48.1442 74.0627 44.2404 74.0997 36.3999L54.7307 36.3085C54.6885 45.2719 55.9067 53.7134 59.8703 60.0236L76.2722 49.7209ZM74.0954 36.6475C74.2808 30.5297 75.1322 27.4049 75.7606 26.1637L58.4796 17.4152C55.8978 22.5151 54.946 29.1001 54.7351 36.0609L74.0954 36.6475ZM76.0837 25.4564C75.716 26.355 75.1119 27.0394 74.5454 27.4495C74.0598 27.8011 73.8245 27.7939 74.1915 27.7072L69.7387 8.85683C65.4057 9.88038 60.4622 12.4865 58.1565 18.1226L76.0837 25.4564ZM74.0224 27.7456C85.0894 25.3397 95.9981 25.1709 106.826 27.2056L110.403 8.16954C96.9767 5.64657 83.4523 5.87403 69.9078 8.81848L74.0224 27.7456ZM100.302 56.31C103.61 55.6974 107.519 53.6989 109.51 49.2753L91.8468 41.3269C92.3889 40.1223 93.2642 39.0678 94.3518 38.3125C95.3707 37.605 96.2907 37.3543 96.7749 37.2646L100.302 56.31ZM109.512 49.27C110.922 46.1322 111.309 42.515 111.399 39.3654L92.0381 38.8122C92.0074 39.8878 91.9288 40.6384 91.8476 41.123C91.761 41.6403 91.7068 41.6385 91.8444 41.3322L109.512 49.27ZM111.403 39.1429C111.426 35.069 110.947 30.3046 108.61 26.3314L91.9148 36.152C91.6736 35.742 91.7411 35.6608 91.8475 36.2341C91.949 36.7808 92.0419 37.6838 92.0343 39.0347L111.403 39.1429ZM108.16 25.6367C106.422 23.1875 103.903 21.4111 100.887 20.6573L96.1895 39.4482C95.4803 39.2709 94.725 38.952 94.0061 38.4562C93.2901 37.9624 92.7498 37.3896 92.3644 36.8466L108.16 25.6367ZM100.382 20.5453C94.5088 19.406 88.2802 19.4234 81.8088 20.3839L84.6522 39.5432C89.3966 38.8391 93.3732 38.916 96.6942 39.5601L100.382 20.5453ZM82.1308 20.3416C79.2344 20.6726 76.1583 21.8768 73.7151 24.4578C71.3769 26.928 70.3755 29.8612 69.9812 32.3304L89.1082 35.3843C89.0904 35.4955 88.8915 36.6006 87.7819 37.7729C86.5674 39.056 85.1459 39.4923 84.3301 39.5855L82.1308 20.3416ZM69.8825 33.1994C69.6806 36.1641 69.6083 38.8594 69.7234 41.181C69.8252 43.2347 70.1052 46.0275 71.2168 48.5511L88.9426 40.7433C89.1864 41.2967 89.2123 41.591 89.1763 41.3832C89.1482 41.2208 89.1001 40.8532 89.0688 40.2217C89.0056 38.9467 89.0323 37.0793 89.2069 34.5154L69.8825 33.1994ZM71.3107 48.7577C73.0136 52.3904 76.1322 55.3125 80.4602 56.4117L85.228 37.6385C85.9659 37.8259 86.7906 38.2128 87.5323 38.8509C88.2548 39.4724 88.6535 40.1202 88.8488 40.5367L71.3107 48.7577ZM80.9669 56.526C87.2928 57.7759 93.8285 57.6293 100.47 56.2773L96.6064 37.2973C92.1512 38.2043 88.224 38.2162 84.7213 37.5242L80.9669 56.526Z" fill="#081732" mask="url(#path-3-outside-2_6_1627)"/>
</g>
<defs>
<clipPath id="clip0_6_1627">
<rect width="128" height="128" fill="white"/>
</clipPath>
</defs>
</svg>
