<svg width="512" height="512" viewBox="0 0 512 512" fill="none" xmlns="http://www.w3.org/2000/svg">
<rect width="512" height="512" fill="#F9D744"/>
<path d="M272.515 170.467C264.148 167.7 254.172 166.585 242.944 166.728C232.253 166.85 222.062 168.602 212.442 172.055L211.535 172.381L210.702 172.864C210.012 173.265 209.195 173.816 208.374 174.539C205.996 172.72 203.216 171.357 200.039 170.568L199.743 170.495L199.443 170.438C181.475 167.062 163.376 167.364 145.231 171.309L145.139 171.329L145.046 171.351C140.317 172.468 135.266 175.021 132.251 180.061C128.892 175.707 124.249 172.96 119.134 171.483L118.809 171.389L118.479 171.316C102.811 167.858 87.6908 168.27 65.11 171.89L63.6851 172.118L62.3732 172.72C60.5002 173.578 58.2604 175.17 56.7792 177.91C55.6168 180.06 55.3008 182.217 55.3705 184.036C55.173 190.111 55.4443 195.688 56.3131 200.643L56.538 201.926L57.0669 203.116C57.7126 204.569 58.7144 205.99 60.0647 207.154C60.076 216.152 60.3324 225.897 60.8298 236.384L60.8553 236.921L60.9351 237.453C61.3834 240.442 62.9691 243.151 65.4399 245.004C67.5317 246.573 69.6971 247.116 71.1076 247.326C90.8077 250.48 104.35 250.687 120.009 247.567L120.397 247.49L120.778 247.384C126.801 245.709 130.78 241.945 133.287 237.357L133.355 237.466L133.525 237.706C136.239 241.537 140.054 244.356 144.792 245.6L145.087 245.677L145.385 245.737C161.168 248.924 179.678 249.065 200.668 246.519L201.133 246.462L201.591 246.365C206.284 245.37 209.723 242.978 212.232 239.905C213.73 242.967 216.286 244.795 218.138 245.721L219.333 246.318L220.638 246.6C224.453 247.424 229.788 248.267 236.462 249.142L236.573 249.156L236.684 249.169C248.381 250.452 259.96 250.295 271.398 248.682L272.148 248.576L272.874 248.365C276.813 247.221 280.574 245.269 283.541 242.266C284.935 243.952 286.604 245.063 287.919 245.721L289.114 246.318L290.42 246.6C294.235 247.424 299.57 248.267 306.244 249.142L306.354 249.156L306.466 249.169C318.163 250.452 329.741 250.295 341.18 248.682L341.929 248.576L342.656 248.365C344.957 247.696 347.198 246.752 349.255 245.484C350.635 246.422 352.113 247.004 353.519 247.317L354.381 247.508L355.263 247.555C368.633 248.254 384.407 248.177 402.53 247.355L403.449 247.314L404.348 247.114C405.18 246.929 406.007 246.655 406.808 246.288C408.19 246.929 409.487 247.214 410.458 247.348L410.519 247.356L410.58 247.364C414.261 247.828 418.443 247.95 423.019 247.812C437.364 247.809 449.518 247.376 459.406 246.483C461.72 246.314 464.538 245.436 466.875 243.098C469.156 240.817 469.955 238.164 470.229 236.362C471.003 231.465 470.998 225.663 470.481 219.254L470.48 219.244C470.368 217.877 470.027 215.476 468.579 213.094C466.909 210.346 463.985 208.068 460.178 207.551C460.176 206.918 460.163 206.279 460.141 205.632C461.899 204.754 463.442 203.437 464.617 201.741C466.351 199.236 466.782 196.631 466.911 195.053L466.914 195.017L466.917 194.98C467.39 188.652 467.248 182.779 466.133 177.69L466.1 177.538L466.062 177.387C465.527 175.245 464.244 172.551 461.513 170.558C459.02 168.739 456.367 168.27 454.373 168.268C435.033 167.782 418.162 168.159 403.824 169.443C400.673 169.708 397.688 171.209 395.594 173.811C394.869 174.711 394.337 175.636 393.943 176.519H383.888C383.324 175.064 382.433 173.661 381.158 172.448C378.999 170.391 376.588 169.694 375.197 169.429L374.698 169.334L374.191 169.287C367.754 168.691 361.437 168.656 355.251 169.202L355.104 169.215L354.958 169.232C353.827 169.363 351.743 169.699 349.631 170.899C348.783 171.38 347.87 172.051 347.024 172.916C345.767 172.019 344.357 171.248 342.778 170.64L342.539 170.548L342.296 170.467C333.93 167.7 323.953 166.585 312.725 166.728C302.034 166.85 291.843 168.602 282.223 172.055L281.317 172.381L280.483 172.864C279.949 173.175 279.338 173.575 278.708 174.076C277.11 172.675 275.221 171.497 272.997 170.64L272.758 170.548L272.515 170.467Z" fill="#081732" fill-opacity="0.25"/>
<path d="M265.438 163.391C257.072 160.624 247.095 159.509 235.867 159.652C225.176 159.773 214.985 161.525 205.365 164.979L204.459 165.304L203.626 165.788C202.936 166.188 202.119 166.74 201.297 167.462C198.919 165.644 196.139 164.28 192.962 163.492L192.666 163.418L192.366 163.362C174.398 159.985 156.3 160.288 138.155 164.232L138.062 164.253L137.97 164.274C133.241 165.391 128.189 167.944 125.175 172.985C121.815 168.631 117.173 165.883 112.058 164.406L111.732 164.312L111.402 164.239C95.734 160.781 80.6143 161.194 58.0335 164.813L56.6086 165.042L55.2967 165.643C53.4237 166.502 51.1839 168.093 49.7027 170.833C48.5403 172.984 48.2244 175.14 48.294 176.96C48.0965 183.035 48.3678 188.611 49.2366 193.567L49.4615 194.849L49.9904 196.039C50.6361 197.492 51.6379 198.914 52.9882 200.077C52.9995 209.075 53.2559 218.821 53.7533 229.307L53.7788 229.845L53.8586 230.377C54.3069 233.365 55.8926 236.075 58.3634 237.928C60.4552 239.497 62.6206 240.039 64.0311 240.249C83.7312 243.403 97.2736 243.611 112.933 240.491L113.32 240.414L113.701 240.308C119.724 238.633 123.703 234.868 126.211 230.281L126.279 230.389L126.449 230.629C129.163 234.46 132.977 237.279 137.716 238.523L138.01 238.6L138.309 238.661C154.092 241.847 172.601 241.989 193.592 239.442L194.056 239.386L194.514 239.289C199.207 238.293 202.646 235.901 205.156 232.829C206.654 235.891 209.209 237.718 211.061 238.644L212.256 239.242L213.562 239.524C217.377 240.348 222.712 241.19 229.386 242.065L229.497 242.08L229.608 242.092C241.305 243.376 252.883 243.218 264.322 241.605L265.071 241.5L265.798 241.289C269.737 240.144 273.497 238.192 276.465 235.19C277.858 236.875 279.528 237.987 280.843 238.644L282.037 239.242L283.343 239.524C287.158 240.348 292.493 241.19 299.167 242.065L299.278 242.08L299.389 242.092C311.086 243.376 322.665 243.218 334.103 241.605L334.853 241.5L335.579 241.289C337.881 240.62 340.121 239.675 342.178 238.407C343.559 239.345 345.036 239.928 346.442 240.24L347.305 240.432L348.187 240.478C361.557 241.177 377.331 241.1 395.453 240.279L396.373 240.237L397.271 240.037C398.103 239.853 398.93 239.579 399.731 239.211C401.113 239.852 402.411 240.138 403.381 240.271L403.442 240.28L403.503 240.288C407.185 240.752 411.366 240.874 415.942 240.736C430.287 240.733 442.442 240.3 452.33 239.407C454.644 239.237 457.461 238.359 459.799 236.021C462.08 233.741 462.878 231.088 463.153 229.285C463.927 224.388 463.922 218.587 463.404 212.177L463.404 212.168C463.292 210.8 462.95 208.399 461.502 206.017C459.832 203.27 456.908 200.991 453.101 200.474C453.099 199.842 453.087 199.202 453.065 198.556C454.822 197.677 456.366 196.36 457.54 194.664C459.274 192.159 459.706 189.554 459.835 187.976L459.838 187.94L459.84 187.904C460.313 181.576 460.171 175.702 459.057 170.613L459.023 170.461L458.986 170.31C458.45 168.168 457.167 165.474 454.437 163.482C451.943 161.662 449.29 161.194 447.297 161.191C427.956 160.705 411.085 161.083 396.747 162.366C393.597 162.632 390.612 164.132 388.517 166.735C387.793 167.635 387.26 168.56 386.866 169.443H376.811C376.247 167.987 375.356 166.585 374.082 165.371C371.922 163.314 369.511 162.618 368.12 162.353L367.621 162.258L367.115 162.211C360.678 161.615 354.361 161.58 348.174 162.126L348.028 162.138L347.882 162.155C346.751 162.287 344.666 162.622 342.554 163.822C341.707 164.304 340.794 164.974 339.948 165.839C338.691 164.942 337.281 164.172 335.702 163.563L335.463 163.471L335.22 163.391C326.853 160.624 316.877 159.509 305.648 159.652C294.958 159.773 284.767 161.525 275.147 164.979L274.24 165.304L273.407 165.788C272.873 166.098 272.262 166.499 271.632 167C270.033 165.599 268.145 164.42 265.92 163.563L265.682 163.471L265.438 163.391Z" fill="#081732"/>
<path d="M258.362 156.314C249.996 153.547 240.019 152.432 228.791 152.575C218.1 152.697 207.909 154.449 198.289 157.902L197.382 158.227L196.549 158.711C195.86 159.112 195.042 159.663 194.221 160.386C191.843 158.567 189.063 157.204 185.886 156.415L185.59 156.342L185.29 156.285C167.322 152.909 149.223 153.211 131.078 157.156L130.986 157.176L130.893 157.198C126.164 158.315 121.113 160.868 118.098 165.908C114.739 161.554 110.096 158.807 104.981 157.33L104.656 157.236L104.326 157.163C88.6575 153.705 73.5378 154.117 50.957 157.737L49.5321 157.965L48.2203 158.567C46.3472 159.425 44.1074 161.017 42.6262 163.757C41.4638 165.907 41.1479 168.064 41.2175 169.883C41.02 175.958 41.2914 181.535 42.1601 186.49L42.385 187.773L42.9139 188.963C43.5596 190.416 44.5615 191.837 45.9118 193.001C45.923 201.999 46.1794 211.744 46.6768 222.231L46.7023 222.768L46.7821 223.3C47.2304 226.289 48.8161 228.998 51.2869 230.851C53.3787 232.42 55.5441 232.963 56.9546 233.173C76.6548 236.327 90.1971 236.534 105.856 233.414L106.244 233.337L106.625 233.231C112.648 231.556 116.627 227.791 119.134 223.204L119.203 223.313L119.372 223.552C122.086 227.384 125.901 230.203 130.639 231.447L130.934 231.524L131.232 231.584C147.015 234.771 165.525 234.912 186.516 232.365L186.98 232.309L187.438 232.212C192.131 231.216 195.57 228.825 198.079 225.752C199.577 228.814 202.133 230.642 203.985 231.568L205.18 232.165L206.485 232.447C210.301 233.271 215.635 234.113 222.309 234.989L222.42 235.003L222.531 235.016C234.228 236.299 245.807 236.142 257.245 234.529L257.995 234.423L258.721 234.212C262.66 233.068 266.421 231.115 269.388 228.113C270.782 229.799 272.451 230.91 273.766 231.568L274.961 232.165L276.267 232.447C280.082 233.271 285.417 234.113 292.091 234.989L292.202 235.003L292.313 235.016C304.01 236.299 315.588 236.142 327.027 234.529L327.776 234.423L328.503 234.212C330.804 233.543 333.045 232.599 335.102 231.33C336.482 232.269 337.96 232.851 339.366 233.164L340.228 233.355L341.11 233.401C354.48 234.101 370.254 234.024 388.377 233.202L389.296 233.161L390.195 232.961C391.027 232.776 391.854 232.502 392.655 232.135C394.037 232.776 395.334 233.061 396.305 233.195L396.366 233.203L396.427 233.211C400.108 233.675 404.29 233.797 408.866 233.659C423.211 233.656 435.365 233.223 445.254 232.33C447.567 232.161 450.385 231.283 452.722 228.945C455.003 226.664 455.802 224.011 456.076 222.209C456.85 217.312 456.845 211.51 456.328 205.101L456.327 205.091C456.215 203.724 455.874 201.323 454.426 198.941C452.756 196.193 449.832 193.915 446.025 193.398C446.023 192.765 446.01 192.126 445.989 191.479C447.746 190.601 449.289 189.284 450.464 187.588C452.198 185.083 452.629 182.478 452.758 180.899L452.761 180.863L452.764 180.827C453.237 174.499 453.095 168.626 451.98 163.537L451.947 163.385L451.909 163.234C451.374 161.091 450.091 158.398 447.36 156.405C444.867 154.586 442.214 154.117 440.22 154.115C420.88 153.629 404.009 154.006 389.671 155.29C386.52 155.555 383.535 157.056 381.441 159.658C380.716 160.558 380.184 161.483 379.79 162.366H369.735C369.171 160.911 368.28 159.508 367.005 158.295C364.846 156.238 362.435 155.541 361.044 155.276L360.545 155.181L360.039 155.134C353.601 154.538 347.284 154.503 341.098 155.049L340.951 155.062L340.805 155.079C339.674 155.21 337.59 155.546 335.478 156.746C334.63 157.227 333.717 157.898 332.871 158.763C331.614 157.865 330.205 157.095 328.625 156.487L328.386 156.395L328.143 156.314C319.777 153.547 309.8 152.432 298.572 152.575C287.881 152.697 277.69 154.449 268.07 157.902L267.164 158.227L266.33 158.711C265.796 159.021 265.185 159.422 264.555 159.923C262.957 158.522 261.068 157.344 258.844 156.487L258.605 156.395L258.362 156.314Z" fill="#081732"/>
<path fill-rule="evenodd" clip-rule="evenodd" d="M208.722 222.094C212.101 222.824 217.09 223.622 223.687 224.487C234.529 225.677 245.222 225.528 255.766 224.041C259.768 222.878 262.444 220.81 263.796 217.836C266.365 210.076 265.459 203.033 261.079 196.706C260.457 195.976 259.687 195.354 258.767 194.841C262.661 194.002 263.607 187.676 261.606 175.861C260.525 170.805 258.335 167.641 255.036 166.37C248.169 164.099 239.463 163.031 228.918 163.167C219.32 163.275 210.303 164.843 201.868 167.871C201.029 168.358 200.57 168.925 200.489 169.574C200.489 173.414 200.962 178.105 201.908 183.647C202.07 184.188 202.449 184.445 203.044 184.418C204.314 184.364 205.572 184.296 206.815 184.215C206.653 195.544 206.869 207.683 207.464 220.634C207.545 221.229 207.964 221.716 208.722 222.094ZM239.95 180.646C242.734 180.998 244.316 181.741 244.695 182.877C244.776 184.066 244.762 185.08 244.654 185.918C244.573 187 244.073 187.987 243.153 188.879C242.613 189.528 241.964 189.92 241.207 190.055C236.394 191.272 232.014 191.407 228.067 190.461C228.094 187.946 228.067 184.729 227.986 180.808C232.393 180.349 236.381 180.295 239.95 180.646ZM228.107 201.695C229.432 201.532 231.487 201.438 234.272 201.411C239.922 201.6 243.045 202.073 243.64 202.83C244.613 204.101 245.087 205.399 245.06 206.723C245.168 207.345 245.06 208.292 244.735 209.562C244.411 210.265 243.694 210.725 242.586 210.941C238.692 211.644 233.812 211.847 227.945 211.55C227.972 208.684 228.026 205.399 228.107 201.695Z" fill="#F16932"/>
<path fill-rule="evenodd" clip-rule="evenodd" d="M293.686 224.487C287.089 223.622 282.101 222.824 278.721 222.094C277.964 221.716 277.545 221.229 277.464 220.634C276.869 207.683 276.653 195.544 276.815 184.215C275.571 184.296 274.314 184.364 273.043 184.418C272.448 184.445 272.07 184.188 271.908 183.647C270.961 178.105 270.488 173.414 270.488 169.574C270.569 168.925 271.029 168.358 271.867 167.871C280.303 164.843 289.319 163.275 298.918 163.167C309.462 163.031 318.168 164.099 325.036 166.37C328.334 167.641 330.524 170.805 331.606 175.861C333.606 187.676 332.66 194.002 328.767 194.841C329.686 195.354 330.457 195.976 331.078 196.706C335.458 203.033 336.364 210.076 333.796 217.836C332.444 220.81 329.767 222.878 325.766 224.041C315.221 225.528 304.528 225.677 293.686 224.487ZM314.694 182.877C314.315 181.741 312.734 180.998 309.949 180.646C306.38 180.295 302.392 180.349 297.985 180.808C298.066 184.729 298.093 187.946 298.066 190.461C302.013 191.407 306.393 191.272 311.206 190.055C311.963 189.92 312.612 189.528 313.153 188.879C314.072 187.987 314.572 187 314.653 185.918C314.761 185.08 314.775 184.066 314.694 182.877ZM304.271 201.411C301.486 201.438 299.431 201.532 298.107 201.695C298.025 205.399 297.971 208.684 297.944 211.55C303.811 211.847 308.692 211.644 312.585 210.941C313.694 210.725 314.41 210.265 314.734 209.562C315.059 208.292 315.167 207.345 315.059 206.723C315.086 205.399 314.613 204.101 313.639 202.83C313.045 202.073 309.922 201.6 304.271 201.411Z" fill="#F16932"/>
<path d="M416.732 205.061C416.759 203.682 416.773 202.303 416.773 200.924C423.154 200.627 428.872 200.397 433.928 200.235C434.523 200.208 434.874 199.91 434.982 199.342C435.523 196.395 435.577 192.556 435.145 187.824C435.037 186.797 434.658 186.27 434.009 186.243C429.467 186.216 423.681 186.297 416.651 186.486L416.57 182.593C424.654 182.322 432.711 182.174 440.741 182.147C441.607 182.066 442.093 181.363 442.201 180.038C442.634 174.252 442.445 169.507 441.634 165.803C441.444 165.046 440.944 164.681 440.133 164.708C420.964 164.221 404.444 164.6 390.574 165.843C389.844 165.897 389.398 166.452 389.235 167.506C389.317 172.616 389.871 177.821 390.898 183.12C391.061 183.607 391.439 183.836 392.034 183.809C393.278 183.728 394.508 183.647 395.724 183.566C395.562 195.057 395.806 207.751 396.454 221.648C396.536 222.243 396.968 222.594 397.752 222.702C400.753 223.081 404.403 223.203 408.702 223.067C423.005 223.067 434.915 222.635 444.432 221.77C445.108 221.743 445.5 221.351 445.608 220.594C446.203 216.862 446.257 211.982 445.77 205.953C445.662 204.628 445.243 203.939 444.513 203.885C437.835 204.317 428.575 204.709 416.732 205.061Z" fill="#F16932"/>
<path d="M341.664 222.824C354.587 223.5 369.998 223.432 387.897 222.621C388.627 222.459 389.06 221.918 389.195 220.999C389.736 217.538 389.776 212.793 389.317 206.764C389.208 205.439 388.816 204.75 388.14 204.696C380.949 204.75 371.783 204.926 360.644 205.223C360.779 192.434 360.535 179.524 359.914 166.492C359.914 166.06 359.63 165.789 359.062 165.681C353.222 165.14 347.544 165.113 342.028 165.6C340.866 165.735 340.271 166.073 340.244 166.614C339.325 182.187 339.365 200.437 340.366 221.364C340.501 222.175 340.933 222.662 341.664 222.824Z" fill="#F16932"/>
<path fill-rule="evenodd" clip-rule="evenodd" d="M183.334 166.695C187.254 167.668 190.147 170.223 192.013 174.36C194.311 179.713 194.838 191.272 193.594 209.035C192.486 216.633 189.701 220.905 185.24 221.851C164.962 224.311 147.658 224.095 133.328 221.202C131.165 220.634 129.394 219.377 128.015 217.43C124.636 212.05 122.973 203.628 123.027 192.164C123.297 183.242 124.528 176.618 126.718 172.292C127.691 169.912 129.895 168.317 133.328 167.506C150.118 163.856 166.787 163.586 183.334 166.695ZM169.585 206.399C171.045 206.129 172.019 205.453 172.505 204.371C173.343 202.506 173.816 199.68 173.925 195.895C173.952 191.055 173.289 187.487 171.937 185.188C171.343 184.35 170.559 183.809 169.585 183.566C163.313 182.349 156.35 182.309 148.699 183.444C145.86 183.769 144.184 185.54 143.67 188.757C143.156 196.301 143.4 201.208 144.4 203.479C145.211 205.209 146.468 206.291 148.172 206.724C154.877 208.048 162.015 207.94 169.585 206.399Z" fill="#F16932"/>
<path fill-rule="evenodd" clip-rule="evenodd" d="M55.1772 183.485C54.9879 194.462 55.2178 206.791 55.8667 220.472C55.9478 221.013 56.3804 221.337 57.1644 221.445C76.0364 224.473 92.5291 224.582 106.643 221.77C111.212 220.499 113.943 216.511 114.835 209.806C116.646 190.123 116.133 177.577 113.294 172.17C111.536 169.331 108.738 167.357 104.899 166.249C91.0556 163.194 73.1705 163.423 51.2433 166.938C50.5944 167.236 50.324 167.736 50.4322 168.439C50.2159 174.252 50.4727 179.24 51.2027 183.404C51.419 183.891 51.8787 183.999 52.5816 183.728C53.3387 183.647 54.2039 183.566 55.1772 183.485ZM75.7796 205.507C75.8877 198.099 75.8472 190.555 75.6579 182.877C82.8768 182.255 88.1626 182.322 91.5152 183.079C92.4615 183.269 93.2726 183.782 93.9486 184.621C95.1923 186.838 95.9358 189.649 96.1791 193.056C96.3684 197.031 96.2602 200.221 95.8547 202.627C95.4491 203.79 94.5434 204.561 93.1374 204.939C87.6219 206.183 81.8359 206.372 75.7796 205.507Z" fill="#F16932"/>
<path d="M254.484 346.94C254.48 347.059 254.476 347.177 254.472 347.296L254.468 347.409L254.462 347.521C254.179 352.605 250.895 355.704 248.382 357.114C246.189 358.344 243.96 358.741 242.581 358.913L242.373 358.939L242.165 358.957C233.459 359.698 224.68 359.58 215.837 358.613L215.586 358.585L215.337 358.546C213.96 358.329 211.775 357.767 209.693 356.159C198.751 358.749 187.481 358.938 175.986 356.766L175.692 356.711L175.4 356.638C167.244 354.613 160.171 350.392 155.579 343.296L155.371 342.974L155.186 342.637C151.66 336.211 150.275 327.165 149.849 317.182C149.405 306.783 149.965 293.744 151.436 278.212L151.451 278.047L151.472 277.882C153.117 264.877 159 253.602 171.536 249.063L171.998 248.896L172.473 248.772C198.215 242.07 223.53 243.119 248.122 251.999L248.363 252.085L248.599 252.184C250.073 252.798 252.396 253.969 254.289 256.229C254.359 256.312 254.427 256.396 254.495 256.481C258.069 253.009 262.703 250.922 267.454 249.8L267.547 249.778L267.639 249.758C295.444 243.713 323.133 243.255 350.621 248.421L350.921 248.477L351.217 248.551C360.961 250.97 367.906 257.49 371.992 266.551L372.032 266.639L372.07 266.727C374.666 272.775 375.829 281.029 376.256 290.404C376.697 300.071 376.389 312.063 375.395 326.271L375.367 326.667L375.31 327.06C373.412 340.064 367.801 353.125 353.865 356.081L353.408 356.178L352.943 356.234C320.286 360.197 291.821 359.931 267.793 355.08L267.495 355.02L267.2 354.942C262.084 353.599 257.809 350.815 254.484 346.94Z" fill="#081732" fill-opacity="0.25"/>
<path d="M247.408 339.863C247.404 339.982 247.4 340.101 247.395 340.22L247.392 340.332L247.385 340.445C247.103 345.529 243.819 348.627 241.305 350.037C239.112 351.267 236.883 351.664 235.504 351.837L235.297 351.863L235.089 351.88C226.383 352.621 217.603 352.503 208.761 351.536L208.51 351.509L208.261 351.469C206.884 351.252 204.699 350.69 202.616 349.083C191.674 351.673 180.404 351.861 168.91 349.69L168.615 349.634L168.324 349.562C160.167 347.537 153.094 343.316 148.503 336.219L148.294 335.897L148.11 335.561C144.583 329.134 143.199 320.088 142.772 310.106C142.328 299.706 142.888 286.667 144.359 271.136L144.375 270.97L144.396 270.805C146.041 257.8 151.923 246.525 164.459 241.986L164.921 241.819L165.397 241.695C191.139 234.994 216.453 236.043 241.046 244.922L241.286 245.009L241.523 245.107C242.996 245.721 245.32 246.893 247.213 249.152C247.282 249.235 247.351 249.319 247.418 249.404C250.993 245.933 255.627 243.846 260.378 242.723L260.47 242.702L260.563 242.682C288.368 236.637 316.057 236.179 343.544 241.344L343.844 241.401L344.141 241.474C353.884 243.893 360.83 250.414 364.916 259.475L364.956 259.562L364.993 259.651C367.59 265.699 368.752 273.952 369.18 283.328C369.621 292.994 369.313 304.987 368.318 319.194L368.291 319.59L368.233 319.983C366.336 332.988 360.724 346.049 346.789 349.005L346.331 349.102L345.867 349.158C313.209 353.12 284.744 352.854 260.717 348.003L260.418 347.943L260.124 347.866C255.008 346.523 250.732 343.738 247.408 339.863Z" fill="#081732"/>
<path d="M240.331 332.787C240.327 332.906 240.323 333.024 240.319 333.143L240.315 333.256L240.309 333.368C240.026 338.452 236.742 341.551 234.229 342.961C232.036 344.191 229.807 344.588 228.428 344.76L228.22 344.786L228.012 344.804C219.306 345.545 210.527 345.427 201.684 344.46L201.433 344.432L201.184 344.393C199.807 344.176 197.622 343.614 195.54 342.006C184.598 344.596 173.328 344.785 161.833 342.613L161.539 342.558L161.247 342.485C153.091 340.46 146.018 336.239 141.426 329.143L141.218 328.821L141.033 328.484C137.507 322.058 136.122 313.012 135.696 303.029C135.252 292.63 135.812 279.591 137.283 264.059L137.298 263.894L137.319 263.729C138.964 250.724 144.847 239.449 157.383 234.91L157.845 234.743L158.32 234.619C184.062 227.917 209.377 228.966 233.969 237.846L234.21 237.932L234.446 238.031C235.92 238.645 238.243 239.816 240.136 242.076C240.206 242.159 240.274 242.243 240.342 242.328C243.916 238.856 248.55 236.769 253.301 235.647L253.394 235.625L253.486 235.605C281.291 229.56 308.98 229.102 336.468 234.268L336.768 234.324L337.064 234.398C346.808 236.817 353.753 243.337 357.839 252.398L357.879 252.486L357.917 252.574C360.513 258.622 361.676 266.876 362.103 276.251C362.544 285.918 362.236 297.91 361.242 312.117L361.214 312.514L361.157 312.907C359.259 325.911 353.648 338.972 339.712 341.928L339.255 342.025L338.79 342.081C306.133 346.044 277.668 345.778 253.64 340.927L253.342 340.867L253.047 340.789C247.931 339.446 243.656 336.662 240.331 332.787Z" fill="#081732"/>
<path d="M163.8 332.206C176.876 334.676 189.44 333.654 201.494 329.139C201.537 330.332 201.579 331.545 201.622 332.781C201.622 333.419 202.027 333.803 202.836 333.931C211.014 334.825 219.106 334.932 227.114 334.25C228.818 334.037 229.691 333.547 229.733 332.781C230.415 312.89 230.351 295.767 229.542 281.414C229.499 280.604 228.881 280.115 227.689 279.944C221.641 279.177 213.74 279.114 203.986 279.752C201.856 279.88 200.749 280.413 200.664 281.35C200.493 286.631 200.472 293.105 200.6 300.772C194.679 303.796 189.483 305.095 185.011 304.669C183.477 304.414 182.178 303.647 181.114 302.369C179.112 299.004 178.004 295.001 177.791 290.358C177.493 284.608 177.664 280.072 178.302 276.75C178.941 274.918 180.39 273.704 182.647 273.108C194.403 269.658 207.542 269.658 222.067 273.108C224.154 273.619 225.538 273.257 226.219 272.022C229.073 265.292 231.118 258.009 232.353 250.172C232.566 249.235 231.906 248.447 230.372 247.808C207.841 239.673 184.713 238.693 160.988 244.869C153.577 247.552 149.19 254.282 147.827 265.058C144.931 295.64 145.762 315.083 150.319 323.389C153.13 327.733 157.624 330.672 163.8 332.206Z" fill="#F8AE05"/>
<path fill-rule="evenodd" clip-rule="evenodd" d="M348.184 256.752C345.245 250.236 340.688 246.211 334.512 244.677C308.445 239.779 282.186 240.205 255.736 245.955C250.327 247.233 246.856 249.746 245.322 253.494C241.872 260.309 239.934 270.744 239.508 284.8C239.423 302.859 242.043 316.127 247.367 324.603C249.539 327.669 252.329 329.65 255.736 330.544C278.311 335.102 305.57 335.443 337.515 331.567C344.542 330.076 348.93 323.346 350.676 311.378C352.635 283.394 351.805 265.186 348.184 256.752ZM317.453 304.03C316.687 305.734 315.153 306.799 312.853 307.225C300.927 309.653 289.683 309.823 279.12 307.736C276.436 307.055 274.456 305.351 273.178 302.625C271.602 299.047 271.219 291.316 272.028 279.433C272.837 274.364 275.478 271.575 279.95 271.064C292.004 269.275 302.972 269.339 312.853 271.255C314.387 271.639 315.622 272.49 316.559 273.811C318.689 277.431 319.732 283.053 319.69 290.678C319.519 296.641 318.774 301.092 317.453 304.03Z" fill="#F8AE05"/>
</svg>
