<svg width="514" height="254" viewBox="0 0 514 254" fill="none" xmlns="http://www.w3.org/2000/svg">
<path d="M275.784 27.4004C266.049 24.1808 254.439 22.883 241.374 23.0498C228.934 23.191 217.075 25.2296 205.881 29.248L204.826 29.6268L203.856 30.1897C203.054 30.6556 202.103 31.2974 201.147 32.1383C198.38 30.0221 195.145 28.4357 191.448 27.5178L191.104 27.4322L190.755 27.3666C169.847 23.4379 148.786 23.7898 127.672 28.3798L127.564 28.4032L127.457 28.4286C121.954 29.7285 116.076 32.6993 112.568 38.5644C108.659 33.4977 103.257 30.3006 97.3045 28.582L96.9262 28.4728L96.5418 28.3879C78.3099 24.3641 60.716 24.844 34.4401 29.0559L32.7821 29.3217L31.2556 30.0214C29.0761 31.0203 26.4697 32.8724 24.7462 36.0609C23.3935 38.5634 23.0259 41.0725 23.1069 43.19C22.8771 50.2591 23.1929 56.748 24.2038 62.5141L24.4655 64.0066L25.0809 65.3913C25.8323 67.082 26.9981 68.7365 28.5693 70.0904C28.5824 80.5605 28.8808 91.901 29.4596 104.103L29.4892 104.729L29.5821 105.348C30.1037 108.825 31.9489 111.978 34.8241 114.134C37.2581 115.96 39.7779 116.591 41.4192 116.836C64.343 120.506 80.1014 120.747 98.323 117.117L98.774 117.027L99.2171 116.904C106.226 114.955 110.856 110.574 113.774 105.236L113.853 105.362L114.051 105.641C117.209 110.099 121.647 113.38 127.161 114.827L127.504 114.917L127.851 114.987C146.217 118.695 167.755 118.86 192.181 115.896L192.721 115.831L193.254 115.718C198.715 114.559 202.717 111.776 205.637 108.201C207.38 111.764 210.354 113.891 212.509 114.968L213.899 115.663L215.419 115.991C219.858 116.95 226.066 117.93 233.832 118.949L233.961 118.966L234.09 118.98C247.701 120.474 261.175 120.291 274.485 118.414L275.357 118.291L276.202 118.045C280.786 116.713 285.161 114.442 288.614 110.948C290.236 112.909 292.179 114.203 293.709 114.968L295.099 115.663L296.619 115.991C301.058 116.95 307.266 117.93 315.032 118.949L315.161 118.966L315.29 118.98C328.901 120.474 342.375 120.291 355.685 118.414L356.557 118.291L357.403 118.045C360.08 117.267 362.688 116.168 365.081 114.692C366.688 115.784 368.407 116.462 370.043 116.825L371.047 117.048L372.073 117.102C387.631 117.916 405.986 117.826 427.074 116.87L428.144 116.822L429.19 116.589C430.158 116.374 431.12 116.055 432.052 115.628C433.66 116.374 435.17 116.706 436.3 116.862L436.37 116.871L436.441 116.88C440.725 117.421 445.591 117.562 450.916 117.402C467.608 117.398 481.752 116.894 493.258 115.856C495.95 115.658 499.229 114.636 501.949 111.916C504.603 109.262 505.532 106.175 505.852 104.078C506.752 98.3792 506.746 91.6283 506.144 84.1701L506.144 84.159C506.014 82.5679 505.616 79.7739 503.931 77.002C501.988 73.8049 498.586 71.1539 494.155 70.5524C494.153 69.8163 494.138 69.0718 494.113 68.3196C496.158 67.2974 497.954 65.7652 499.321 63.7912C501.339 60.8766 501.841 57.8451 501.991 56.0087L501.994 55.9668L501.997 55.9249C502.548 48.561 502.382 41.7264 501.085 35.805L501.047 35.628L501.003 35.4522C500.38 32.9594 498.886 29.8247 495.709 27.5061C492.808 25.3891 489.721 24.8437 487.401 24.8408C464.896 24.2753 445.264 24.7149 428.58 26.2084C424.914 26.5171 421.44 28.2634 419.003 31.2916C418.16 32.3388 417.54 33.415 417.082 34.4428H405.382C404.725 32.7491 403.688 31.1173 402.206 29.7052C399.692 27.3117 396.887 26.5008 395.268 26.1925L394.688 26.0819L394.099 26.0274C386.608 25.3338 379.257 25.293 372.058 25.9282L371.888 25.9432L371.718 25.963C370.402 26.1159 367.976 26.5062 365.519 27.9024C364.533 28.4628 363.47 29.243 362.486 30.2495C361.023 29.2055 359.383 28.309 357.545 27.6011L357.267 27.4939L356.984 27.4004C347.249 24.1808 335.639 22.883 322.574 23.0498C310.134 23.191 298.275 25.2296 287.081 29.248L286.026 29.6268L285.056 30.1897C284.435 30.5507 283.724 31.0172 282.991 31.6001C281.131 29.9695 278.933 28.5982 276.345 27.6011L276.067 27.4939L275.784 27.4004Z" fill="#081732" fill-opacity="0.25"/>
<path d="M267.55 19.1659C257.814 15.9463 246.205 14.6485 233.139 14.8153C220.699 14.9565 208.841 16.9951 197.647 21.0135L196.591 21.3923L195.622 21.9552C194.82 22.4211 193.869 23.0629 192.912 23.9038C190.145 21.7876 186.911 20.2012 183.214 19.2833L182.869 19.1977L182.52 19.1321C161.612 15.2034 140.552 15.5553 119.438 20.1453L119.33 20.1687L119.222 20.1941C113.72 21.494 107.842 24.4648 104.334 30.3299C100.424 25.2632 95.0223 22.0661 89.07 20.3475L88.6917 20.2383L88.3073 20.1534C70.0754 16.1296 52.4816 16.6095 26.2057 20.8214L24.5476 21.0872L23.0211 21.7869C20.8416 22.7858 18.2353 24.6379 16.5117 27.8264C15.159 30.3289 14.7914 32.838 14.8724 34.9555C14.6426 42.0246 14.9584 48.5135 15.9693 54.2796L16.231 55.7721L16.8464 57.1568C17.5978 58.8475 18.7636 60.502 20.3349 61.8559C20.3479 72.3261 20.6464 83.6665 21.2251 95.8688L21.2548 96.4941L21.3476 97.1132C21.8693 100.591 23.7144 103.744 26.5896 105.9C29.0236 107.725 31.5434 108.357 33.1848 108.601C56.1085 112.272 71.8669 112.513 90.0885 108.882L90.5396 108.793L90.9826 108.669C97.9914 106.72 102.622 102.339 105.539 97.0013L105.619 97.1279L105.816 97.4067C108.974 101.865 113.413 105.145 118.927 106.593L119.269 106.683L119.617 106.753C137.983 110.461 159.521 110.626 183.947 107.662L184.487 107.596L185.019 107.483C190.481 106.325 194.483 103.542 197.402 99.9664C199.146 103.529 202.119 105.656 204.274 106.734L205.665 107.429L207.184 107.757C211.624 108.716 217.831 109.696 225.598 110.715L225.727 110.731L225.856 110.746C239.467 112.239 252.94 112.056 266.25 110.179L267.122 110.056L267.968 109.811C272.551 108.479 276.927 106.207 280.38 102.714C282.002 104.675 283.944 105.969 285.474 106.734L286.865 107.429L288.384 107.757C292.824 108.716 299.031 109.696 306.798 110.715L306.927 110.731L307.056 110.746C320.667 112.239 334.14 112.056 347.45 110.179L348.322 110.056L349.168 109.811C351.846 109.033 354.453 107.934 356.847 106.458C358.454 107.549 360.173 108.227 361.809 108.591L362.812 108.814L363.839 108.867C379.396 109.681 397.751 109.591 418.839 108.636L419.91 108.587L420.955 108.355C421.923 108.14 422.885 107.821 423.818 107.393C425.426 108.139 426.936 108.471 428.065 108.627L428.136 108.637L428.207 108.646C432.491 109.186 437.357 109.328 442.681 109.167C459.374 109.164 473.517 108.66 485.023 107.621C487.716 107.423 490.994 106.402 493.715 103.682C496.369 101.028 497.298 97.9403 497.617 95.8433C498.518 90.1447 498.512 83.3938 497.91 75.9356L497.909 75.9245C497.779 74.3334 497.382 71.5394 495.697 68.7675C493.753 65.5704 490.351 62.9194 485.921 62.3179C485.918 61.5818 485.904 60.8373 485.879 60.0851C487.924 59.0629 489.72 57.5307 491.086 55.5567C493.104 52.6421 493.606 49.6106 493.756 47.7742L493.76 47.7323L493.763 47.6904C494.313 40.3265 494.148 33.4919 492.851 27.5705L492.812 27.3935L492.768 27.2177C492.145 24.7249 490.652 21.5902 487.475 19.2717C484.574 17.1546 481.487 16.6092 479.167 16.6064C456.661 16.0408 437.03 16.4804 420.345 17.9739C416.679 18.2826 413.206 20.0289 410.768 23.0571C409.926 24.1043 409.306 25.1805 408.847 26.2083H397.147C396.491 24.5146 395.454 22.8828 393.971 21.4707C391.458 19.0772 388.653 18.2663 387.034 17.958L386.453 17.8474L385.864 17.7929C378.374 17.0993 371.023 17.0585 363.824 17.6937L363.653 17.7087L363.484 17.7285C362.168 17.8814 359.742 18.2717 357.285 19.6679C356.298 20.2283 355.236 21.0085 354.251 22.015C352.789 20.971 351.148 20.0745 349.311 19.3666L349.033 19.2595L348.75 19.1659C339.014 15.9463 327.405 14.6485 314.34 14.8153C301.899 14.9565 290.041 16.9951 278.847 21.0135L277.791 21.3923L276.822 21.9552C276.2 22.3162 275.49 22.7827 274.756 23.3656C272.896 21.735 270.699 20.3637 268.111 19.3666L267.833 19.2595L267.55 19.1659Z" fill="#081732"/>
<path d="M259.315 10.9314C249.58 7.71179 237.97 6.41401 224.905 6.58082C212.465 6.72197 200.606 8.76061 189.412 12.779L188.357 13.1578L187.387 13.7207C186.585 14.1866 185.634 14.8284 184.678 15.6693C181.911 13.5531 178.676 11.9667 174.979 11.0488L174.635 10.9632L174.286 10.8976C153.378 6.96888 132.317 7.32078 111.203 11.9108L111.095 11.9342L110.988 11.9596C105.485 13.2595 99.6071 16.2303 96.0993 22.0954C92.1899 17.0287 86.7878 13.8316 80.8355 12.113L80.4573 12.0038L80.0728 11.919C61.8409 7.89512 44.2471 8.37502 17.9712 12.5869L16.3132 12.8527L14.7867 13.5524C12.6071 14.5513 10.0008 16.4034 8.27725 19.5919C6.92457 22.0944 6.55696 24.6035 6.63798 26.721C6.40815 33.7901 6.72393 40.279 7.73487 46.0451L7.99655 47.5376L8.61198 48.9223C9.36337 50.613 10.5291 52.2675 12.1004 53.6214C12.1135 64.0916 12.4119 75.432 12.9906 87.6343L13.0203 88.2596L13.1132 88.8787C13.6348 92.3562 15.48 95.5091 18.3552 97.6655C20.7892 99.491 23.3089 100.122 24.9503 100.367C47.8741 104.037 63.6325 104.278 81.8541 100.648L82.3051 100.558L82.7482 100.435C89.757 98.4857 94.3871 94.105 97.3047 88.7668L97.3842 88.8934L97.5817 89.1723C100.74 93.6305 105.178 96.9108 110.692 98.3582L111.035 98.4482L111.382 98.5183C129.748 102.226 151.287 102.391 175.712 99.4274L176.252 99.3619L176.785 99.2489C182.246 98.0904 186.248 95.3075 189.168 91.7319C190.911 95.2949 193.885 97.4216 196.04 98.4991L197.43 99.1943L198.95 99.5225C203.389 100.481 209.597 101.462 217.363 102.48L217.492 102.497L217.621 102.511C231.232 104.005 244.706 103.822 258.016 101.945L258.888 101.822L259.733 101.576C264.317 100.244 268.693 97.9729 272.146 94.4794C273.767 96.4404 275.71 97.7342 277.24 98.4991L278.63 99.1943L280.15 99.5225C284.589 100.481 290.797 101.462 298.563 102.48L298.692 102.497L298.821 102.511C312.432 104.005 325.906 103.822 339.216 101.945L340.088 101.822L340.934 101.576C343.612 100.798 346.219 99.6991 348.612 98.223C350.219 99.3149 351.938 99.9927 353.574 100.356L354.578 100.579L355.604 100.633C371.162 101.447 389.517 101.357 410.605 100.401L411.675 100.353L412.721 100.12C413.689 99.9052 414.651 99.5864 415.583 99.159C417.191 99.9049 418.701 100.237 419.831 100.393L419.902 100.402L419.972 100.411C424.256 100.952 429.122 101.093 434.447 100.933C451.139 100.929 465.283 100.425 476.789 99.3866C479.481 99.189 482.76 98.1673 485.48 95.4471C488.134 92.7933 489.063 89.7058 489.383 87.6088C490.283 81.9102 490.277 75.1593 489.675 67.7011L489.675 67.69C489.545 66.0989 489.147 63.3049 487.462 60.533C485.519 57.3359 482.117 54.6849 477.686 54.0834C477.684 53.3473 477.67 52.6028 477.644 51.8506C479.689 50.8284 481.485 49.2962 482.852 47.3222C484.87 44.4076 485.372 41.3761 485.522 39.5397L485.525 39.4978L485.528 39.4559C486.079 32.092 485.913 25.2574 484.617 19.336L484.578 19.159L484.534 18.9832C483.911 16.4904 482.418 13.3557 479.24 11.0372C476.339 8.92012 473.252 8.37469 470.932 8.37185C448.427 7.80632 428.795 8.24595 412.111 9.7394C408.445 10.0481 404.971 11.7945 402.534 14.8226C401.691 15.8698 401.071 16.946 400.613 17.9738H388.913C388.256 16.2801 387.219 14.6483 385.737 13.2362C383.223 10.8427 380.418 10.0318 378.8 9.72354L378.219 9.61288L377.63 9.55836C370.139 8.86479 362.788 8.82399 355.589 9.45918L355.419 9.47421L355.249 9.49396C353.933 9.64695 351.507 10.0372 349.05 11.4334C348.064 11.9938 347.001 12.774 346.017 13.7805C344.554 12.7365 342.914 11.84 341.076 11.1321L340.798 11.025L340.515 10.9314C330.78 7.71179 319.17 6.41401 306.105 6.58082C293.665 6.72197 281.806 8.76061 270.612 12.779L269.557 13.1578L268.588 13.7207C267.966 14.0817 267.255 14.5482 266.522 15.1311C264.662 13.5005 262.464 12.1292 259.876 11.1321L259.598 11.025L259.315 10.9314Z" fill="#081732"/>
<path fill-rule="evenodd" clip-rule="evenodd" d="M201.552 87.4753C205.484 88.3247 211.289 89.2529 218.966 90.2596C231.582 91.6439 244.025 91.4709 256.295 89.7405C260.951 88.3877 264.066 85.9809 265.639 82.5201C268.628 73.4907 267.574 65.2949 262.477 57.9329C261.753 57.0835 260.857 56.3599 259.787 55.7621C264.317 54.7868 265.419 47.4248 263.09 33.6761C261.832 27.7928 259.284 24.1119 255.445 22.6332C247.454 19.9904 237.323 18.7477 225.053 18.905C213.885 19.0308 203.392 20.8556 193.576 24.3793C192.601 24.9456 192.066 25.6063 191.972 26.3614C191.972 30.8289 192.522 36.2874 193.623 42.7371C193.812 43.3663 194.253 43.6652 194.945 43.6337C196.424 43.5708 197.887 43.4921 199.334 43.3977C199.145 56.5801 199.397 70.7063 200.089 85.7764C200.183 86.4685 200.671 87.0348 201.552 87.4753ZM237.89 39.2448C241.13 39.6538 242.971 40.519 243.411 41.8404C243.506 43.2247 243.49 44.4045 243.364 45.3798C243.27 46.6383 242.688 47.7866 241.618 48.8249C240.989 49.5799 240.234 50.0361 239.353 50.1934C233.753 51.6092 228.656 51.7665 224.062 50.6653C224.094 47.7394 224.062 43.9955 223.968 39.4336C229.096 38.8988 233.737 38.8358 237.89 39.2448ZM224.11 63.7376C225.651 63.5488 228.042 63.4387 231.283 63.4073C237.858 63.6275 241.492 64.1781 242.184 65.059C243.317 66.5377 243.867 68.0478 243.836 69.5894C243.962 70.313 243.836 71.4142 243.458 72.8929C243.081 73.7109 242.247 74.2457 240.957 74.4974C236.427 75.3154 230.748 75.5514 223.921 75.2053C223.952 71.8704 224.015 68.0478 224.11 63.7376Z" fill="#F16932"/>
<path fill-rule="evenodd" clip-rule="evenodd" d="M300.419 90.2596C292.743 89.2529 286.938 88.3247 283.006 87.4753C282.125 87.0348 281.637 86.4685 281.543 85.7764C280.85 70.7063 280.599 56.5801 280.788 43.3977C279.34 43.4921 277.877 43.5708 276.399 43.6337C275.707 43.6652 275.266 43.3663 275.077 42.7371C273.976 36.2874 273.426 30.8289 273.426 26.3614C273.52 25.6063 274.055 24.9456 275.03 24.3793C284.846 20.8556 295.338 19.0308 306.507 18.905C318.777 18.7477 328.908 19.9904 336.899 22.6332C340.737 24.1119 343.286 27.7928 344.544 33.6761C346.872 47.4248 345.771 54.7868 341.241 55.7621C342.31 56.3599 343.207 57.0835 343.931 57.9329C349.028 65.2949 350.081 73.4907 347.093 82.5201C345.52 85.9809 342.405 88.3877 337.749 89.7405C325.479 91.4709 313.036 91.6439 300.419 90.2596ZM324.865 41.8404C324.425 40.519 322.584 39.6538 319.344 39.2448C315.191 38.8358 310.55 38.8988 305.422 39.4336C305.516 43.9955 305.548 47.7394 305.516 50.6653C310.11 51.7665 315.206 51.6092 320.807 50.1934C321.687 50.0361 322.443 49.5799 323.072 48.8249C324.141 47.7866 324.723 46.6383 324.818 45.3798C324.944 44.4045 324.959 43.2247 324.865 41.8404ZM312.737 63.4073C309.496 63.4387 307.105 63.5488 305.563 63.7376C305.469 68.0478 305.406 71.8704 305.375 75.2053C312.202 75.5514 317.881 75.3154 322.411 74.4974C323.701 74.2457 324.535 73.7109 324.912 72.8929C325.29 71.4142 325.416 70.313 325.29 69.5894C325.321 68.0478 324.771 66.5377 323.638 65.059C322.946 64.1781 319.312 63.6275 312.737 63.4073Z" fill="#F16932"/>
<path d="M443.601 67.6545C443.632 66.05 443.648 64.4455 443.648 62.8409C451.073 62.4949 457.727 62.2274 463.61 62.0387C464.302 62.0072 464.711 61.6611 464.837 61.0004C465.466 57.5711 465.529 53.1036 465.026 47.5978C464.9 46.4023 464.46 45.7888 463.705 45.7573C458.419 45.7259 451.686 45.8203 443.506 46.0405L443.412 41.51C452.819 41.1954 462.194 41.0224 471.539 40.9909C472.545 40.8965 473.112 40.0785 473.237 38.5369C473.741 31.8042 473.521 26.2827 472.577 21.9725C472.357 21.0915 471.775 20.6668 470.831 20.6983C448.524 20.132 429.301 20.5724 413.162 22.0197C412.312 22.0826 411.793 22.7275 411.604 23.9545C411.699 29.9008 412.344 35.9571 413.539 42.1235C413.728 42.6898 414.169 42.9573 414.861 42.9258C416.308 42.8314 417.739 42.737 419.155 42.6427C418.966 56.0138 419.25 70.785 420.005 86.9562C420.099 87.6483 420.602 88.0573 421.515 88.1832C425.007 88.6236 429.254 88.7652 434.257 88.6079C450.9 88.6079 464.759 88.1045 475.833 87.0977C476.62 87.0663 477.076 86.6101 477.202 85.7292C477.894 81.3875 477.957 75.7087 477.39 68.6928C477.265 67.1512 476.777 66.3489 475.927 66.286C468.156 66.7893 457.381 67.2455 443.601 67.6545Z" fill="#F16932"/>
<path d="M356.248 88.3247C371.286 89.1113 389.22 89.0326 410.047 88.0888C410.896 87.9 411.4 87.2708 411.557 86.2011C412.186 82.174 412.234 76.6525 411.699 69.6366C411.573 68.095 411.117 67.2927 410.33 67.2298C401.961 67.2927 391.296 67.4972 378.334 67.8433C378.491 52.962 378.208 37.9392 377.484 22.7747C377.484 22.2713 377.154 21.9567 376.493 21.8309C369.698 21.2017 363.091 21.1702 356.673 21.7365C355.32 21.8938 354.628 22.2871 354.596 22.9163C353.526 41.0381 353.574 62.2746 354.738 86.6258C354.895 87.5697 355.398 88.136 356.248 88.3247Z" fill="#F16932"/>
<path fill-rule="evenodd" clip-rule="evenodd" d="M172.009 23.0107C176.571 24.1433 179.938 27.1164 182.109 31.93C184.783 38.1594 185.396 51.6092 183.949 72.2794C182.659 81.1201 179.419 86.091 174.227 87.1921C150.631 90.0551 130.496 89.8034 113.821 86.4371C111.305 85.7764 109.244 84.3134 107.639 82.0482C103.707 75.7873 101.772 65.9871 101.835 52.6474C102.149 42.2651 103.581 34.5571 106.129 29.5232C107.262 26.7546 109.826 24.8984 113.821 23.9546C133.359 19.7073 152.755 19.3926 172.009 23.0107ZM156.011 69.2119C157.71 68.8973 158.843 68.1107 159.409 66.8523C160.384 64.6814 160.935 61.3937 161.061 56.9891C161.092 51.3575 160.322 47.2046 158.748 44.5304C158.056 43.5551 157.144 42.9258 156.011 42.6427C148.712 41.2269 140.611 41.1797 131.707 42.5011C128.404 42.8786 126.453 44.9394 125.855 48.6833C125.258 57.461 125.541 63.1713 126.705 65.8141C127.649 67.8276 129.112 69.0861 131.094 69.5894C138.896 71.1311 147.202 71.0052 156.011 69.2119Z" fill="#F16932"/>
<path fill-rule="evenodd" clip-rule="evenodd" d="M22.882 42.5483C22.6618 55.3216 22.9292 69.6681 23.6843 85.5876C23.7787 86.2168 24.2821 86.5944 25.1944 86.7202C47.1546 90.2439 66.3461 90.3697 82.7689 87.0977C88.0859 85.619 91.2635 80.9785 92.3018 73.176C94.4097 50.2721 93.8119 35.6739 90.5085 29.3816C88.4635 26.0782 85.2072 23.7815 80.7397 22.4916C64.6314 18.9364 43.8196 19.2039 18.3044 23.2938C17.5493 23.6399 17.2347 24.222 17.3605 25.04C17.1088 31.8042 17.4077 37.6088 18.2572 42.4539C18.5089 43.0202 19.0437 43.146 19.8617 42.8314C20.7426 42.737 21.7494 42.6427 22.882 42.5483ZM46.8557 68.1737C46.9815 59.5532 46.9343 50.7754 46.7141 41.8404C55.1143 41.1168 61.265 41.1954 65.1662 42.0764C66.2674 42.2966 67.2112 42.8943 67.9978 43.8697C69.445 46.4495 70.3102 49.7215 70.5934 53.6856C70.8136 58.3105 70.6877 62.0229 70.2158 64.823C69.7439 66.1758 68.6899 67.0725 67.0539 67.513C60.6358 68.9602 53.903 69.1804 46.8557 68.1737Z" fill="#F16932"/>
<path d="M254.803 232.75C254.798 232.889 254.793 233.027 254.789 233.165L254.784 233.296L254.777 233.427C254.448 239.343 250.627 242.948 247.702 244.589C245.15 246.021 242.556 246.482 240.951 246.683L240.71 246.713L240.468 246.734C230.337 247.596 220.122 247.459 209.832 246.333L209.54 246.301L209.25 246.256C207.648 246.003 205.105 245.349 202.682 243.478C189.949 246.492 176.835 246.712 163.46 244.185L163.117 244.12L162.778 244.036C153.287 241.68 145.057 236.767 139.714 228.51L139.471 228.135L139.256 227.744C135.153 220.266 133.542 209.74 133.045 198.123C132.528 186.022 133.18 170.85 134.892 152.777L134.91 152.584L134.934 152.392C136.848 137.259 143.694 124.139 158.281 118.857L158.818 118.663L159.372 118.518C189.327 110.721 218.783 111.941 247.4 122.273L247.68 122.374L247.955 122.489C249.67 123.203 252.373 124.567 254.576 127.196C254.657 127.292 254.737 127.39 254.815 127.489C258.975 123.449 264.367 121.021 269.895 119.715L270.003 119.69L270.111 119.666C302.465 112.632 334.685 112.1 366.671 118.11L367.02 118.175L367.365 118.261C378.703 121.076 386.785 128.664 391.54 139.207L391.586 139.309L391.63 139.412C394.651 146.45 396.004 156.054 396.501 166.963C397.014 178.212 396.656 192.167 395.499 208.699L395.467 209.16L395.4 209.617C393.192 224.75 386.662 239.948 370.447 243.387L369.914 243.5L369.374 243.566C331.372 248.177 298.249 247.867 270.29 242.222L269.942 242.152L269.6 242.062C263.646 240.5 258.671 237.259 254.803 232.75Z" fill="#081732" fill-opacity="0.25"/>
<path d="M246.568 224.516C246.564 224.654 246.559 224.792 246.554 224.931L246.55 225.062L246.542 225.192C246.214 231.108 242.392 234.714 239.467 236.355C236.915 237.786 234.322 238.248 232.717 238.449L232.476 238.479L232.233 238.499C222.103 239.361 211.887 239.224 201.598 238.099L201.306 238.067L201.015 238.021C199.414 237.768 196.871 237.114 194.448 235.244C181.715 238.258 168.6 238.477 155.225 235.95L154.882 235.886L154.544 235.802C145.052 233.445 136.822 228.533 131.479 220.276L131.237 219.901L131.022 219.509C126.918 212.031 125.307 201.505 124.811 189.889C124.294 177.788 124.946 162.615 126.657 144.542L126.676 144.35L126.7 144.158C128.614 129.024 135.459 115.904 150.046 110.623L150.584 110.428L151.137 110.284C181.092 102.486 210.549 103.706 239.165 114.039L239.445 114.14L239.72 114.254C241.435 114.969 244.139 116.332 246.342 118.961C246.422 119.058 246.502 119.155 246.581 119.254C250.74 115.215 256.132 112.786 261.661 111.48L261.768 111.455L261.876 111.432C294.231 104.398 326.451 103.865 358.437 109.875L358.786 109.941L359.13 110.027C370.468 112.842 378.55 120.429 383.305 130.973L383.351 131.075L383.396 131.177C386.417 138.215 387.769 147.819 388.267 158.729C388.78 169.977 388.422 183.932 387.264 200.464L387.232 200.926L387.165 201.383C384.957 216.515 378.428 231.713 362.212 235.153L361.68 235.266L361.139 235.332C323.138 239.942 290.015 239.633 262.055 233.988L261.708 233.918L261.365 233.828C255.412 232.265 250.437 229.025 246.568 224.516Z" fill="#081732"/>
<path d="M238.334 216.281C238.329 216.42 238.324 216.558 238.32 216.696L238.315 216.827L238.308 216.958C237.979 222.874 234.158 226.479 231.233 228.12C228.681 229.552 226.087 230.013 224.483 230.214L224.241 230.244L223.999 230.265C213.868 231.127 203.653 230.99 193.363 229.864L193.071 229.832L192.781 229.787C191.179 229.534 188.636 228.88 186.213 227.009C173.48 230.023 160.366 230.243 146.991 227.716L146.648 227.651L146.309 227.567C136.818 225.211 128.588 220.298 123.245 212.041L123.002 211.666L122.787 211.275C118.684 203.797 117.073 193.271 116.576 181.654C116.059 169.553 116.711 154.381 118.423 136.308L118.441 136.115L118.465 135.923C120.379 120.79 127.225 107.67 141.812 102.388L142.35 102.194L142.903 102.049C172.858 94.2516 202.314 95.4719 230.931 105.804L231.211 105.905L231.486 106.02C233.201 106.734 235.904 108.098 238.107 110.727C238.188 110.823 238.268 110.921 238.346 111.02C242.506 106.98 247.898 104.552 253.426 103.246L253.534 103.221L253.642 103.197C285.997 96.1634 318.216 95.6305 350.202 101.641L350.551 101.706L350.896 101.792C362.234 104.607 370.316 112.195 375.071 122.738L375.117 122.84L375.161 122.943C378.182 129.981 379.535 139.585 380.032 150.494C380.545 161.743 380.187 175.698 379.03 192.23L378.998 192.691L378.931 193.148C376.723 208.281 370.193 223.479 353.978 226.918L353.445 227.031L352.905 227.097C314.903 231.708 281.78 231.398 253.821 225.753L253.473 225.683L253.131 225.593C247.177 224.031 242.202 220.79 238.334 216.281Z" fill="#081732"/>
<path d="M149.279 215.605C164.495 218.48 179.116 217.29 193.142 212.037C193.191 213.424 193.241 214.837 193.291 216.274C193.291 217.018 193.761 217.464 194.703 217.612C204.219 218.653 213.636 218.777 222.954 217.984C224.936 217.736 225.952 217.166 226.002 216.274C226.795 193.128 226.721 173.204 225.779 156.502C225.729 155.56 225.011 154.99 223.623 154.792C216.585 153.9 207.391 153.825 196.041 154.569C193.563 154.717 192.275 155.337 192.175 156.427C191.977 162.573 191.952 170.107 192.101 179.028C185.212 182.547 179.165 184.059 173.961 183.563C172.177 183.266 170.665 182.373 169.426 180.887C167.097 176.971 165.808 172.312 165.56 166.91C165.213 160.219 165.412 154.94 166.155 151.075C166.899 148.943 168.584 147.531 171.21 146.837C184.89 142.822 200.18 142.822 217.081 146.837C219.509 147.432 221.12 147.01 221.913 145.573C225.234 137.742 227.613 129.267 229.05 120.148C229.298 119.057 228.53 118.14 226.745 117.397C200.527 107.93 173.614 106.79 146.008 113.977C137.384 117.099 132.279 124.93 130.693 137.47C127.323 173.056 128.289 195.681 133.592 205.346C136.864 210.401 142.092 213.821 149.279 215.605Z" fill="#F8AE05"/>
<path fill-rule="evenodd" clip-rule="evenodd" d="M363.836 127.805C360.416 120.222 355.113 115.538 347.926 113.754C317.594 108.054 287.038 108.55 256.26 115.241C249.965 116.728 245.926 119.652 244.142 124.013C240.127 131.943 237.872 144.086 237.377 160.442C237.277 181.456 240.326 196.895 246.521 206.758C249.049 210.327 252.295 212.631 256.26 213.672C282.528 218.975 314.248 219.372 351.42 214.862C359.598 213.127 364.703 205.296 366.735 191.369C369.015 158.806 368.048 137.618 363.836 127.805ZM328.076 182.819C327.184 184.802 325.4 186.041 322.723 186.537C308.846 189.362 295.761 189.56 283.47 187.131C280.347 186.338 278.043 184.356 276.556 181.184C274.722 177.021 274.276 168.025 275.218 154.197C276.159 148.299 279.232 145.053 284.436 144.458C298.462 142.376 311.225 142.451 322.723 144.681C324.508 145.127 325.945 146.118 327.035 147.655C329.513 151.868 330.728 158.41 330.678 167.282C330.48 174.22 329.613 179.4 328.076 182.819Z" fill="#F8AE05"/>
</svg>
