<svg width="68" height="68" viewBox="0 0 68 68" fill="none" xmlns="http://www.w3.org/2000/svg">
<path fill-rule="evenodd" clip-rule="evenodd" d="M41.6914 17.7936L45.4531 25.411L53.8609 26.6328C58.7738 27.3464 60.7452 33.3871 57.1832 36.8574L57.1823 36.8582L51.0986 42.7875L52.5351 51.162C53.3739 56.056 48.2373 59.7937 43.8393 57.4812L43.8385 57.4808L36.3171 53.5272L28.7987 57.4813C24.4059 59.7899 19.2594 56.0636 20.1032 51.1615L20.1038 51.1584L21.5356 42.7876L15.4512 36.8573C11.8945 33.3899 13.8561 27.347 18.7732 26.6328L27.1808 25.4111L30.9412 17.7922C33.1385 13.3395 39.4918 13.3351 41.6901 17.7911L41.6914 17.7936Z" fill="#081732" fill-opacity="0.25"/>
<path fill-rule="evenodd" clip-rule="evenodd" d="M39.373 15.4766L43.1348 23.094L51.5426 24.3158C56.4555 25.0294 58.4268 31.0701 54.8649 34.5404L54.864 34.5413L48.7803 40.4705L50.2168 48.845C51.0556 53.7391 45.919 57.4767 41.5209 55.1642L41.5202 55.1638L33.9988 51.2103L26.4804 55.1644C22.0875 57.473 16.9411 53.7467 17.7849 48.8446L17.7854 48.8415L19.2172 40.4707L13.1329 34.5403C9.57617 31.0729 11.5377 25.0301 16.4548 24.3159L24.8624 23.0941L28.6229 15.4753C30.8202 11.0225 37.1734 11.0181 39.3718 15.4741L39.373 15.4766Z" fill="#081732"/>
<path fill-rule="evenodd" clip-rule="evenodd" d="M37.0566 13.1597L40.8183 20.7771L49.2262 21.9989C54.1391 22.7125 56.1104 28.7532 52.5485 32.2235L52.5476 32.2244L46.4639 38.1536L47.9004 46.5281C48.7392 51.4222 43.6026 55.1598 39.2045 52.8474L39.2038 52.847L31.6824 48.8934L24.164 52.8475C19.7711 55.1561 14.6246 51.4298 15.4685 46.5277L15.469 46.5246L16.9008 38.1538L10.8165 32.2234C7.25976 28.756 9.2213 22.7132 14.1384 21.999L22.546 20.7772L26.3065 13.1584C28.5038 8.7056 34.857 8.70123 37.0554 13.1572L37.0566 13.1597Z" fill="#081732"/>
<path d="M30.4617 45.7256L22.5952 49.8627C20.6711 50.8739 18.4216 49.2404 18.7914 47.0981L20.2902 38.3357C20.362 37.9166 20.3309 37.4864 20.1995 37.082C20.0682 36.6776 19.8406 36.3112 19.5363 36.0143L13.1697 29.8088C11.6133 28.2915 12.4724 25.6479 14.6231 25.3357L23.421 24.0572C23.8417 23.996 24.2413 23.8334 24.5852 23.5834C24.9292 23.3335 25.2072 23.0036 25.3952 22.6223L29.33 14.6502C30.2916 12.7012 33.0715 12.7012 34.032 14.6502L37.9689 22.6223C38.157 23.0037 38.4351 23.3336 38.7791 23.5836C39.1232 23.8335 39.5228 23.9961 39.9437 24.0572L48.7416 25.3357C50.8923 25.6479 51.7529 28.2915 50.1949 29.8088L43.8278 36.0143C43.5235 36.3112 43.2959 36.6776 43.1646 37.082C43.0333 37.4864 43.0021 37.9166 43.0739 38.3357L44.5769 47.0981C44.9441 49.2404 42.6956 50.8739 40.7731 49.8627L32.9024 45.7256C32.5261 45.5278 32.1072 45.4245 31.6821 45.4245C31.2569 45.4245 30.8381 45.5278 30.4617 45.7256Z" fill="#F9D744"/>
<path d="M28.1329 34.3474C28.1302 34.8057 28.2179 35.26 28.3908 35.6844C28.5637 36.1089 28.8186 36.4951 29.1407 36.821C29.4629 37.147 29.8462 37.4063 30.2686 37.5841C30.691 37.762 31.1443 37.8548 31.6026 37.8575C32.0609 37.8602 32.5152 37.7725 32.9397 37.5996C33.3641 37.4267 33.7503 37.1718 34.0763 36.8496C34.4022 36.5274 34.6615 36.1442 34.8393 35.7218C35.0172 35.2994 35.1101 34.8461 35.1127 34.3878" stroke="#081732" stroke-width="3.34067" stroke-linecap="round" stroke-linejoin="round"/>
<path d="M35.6636 29.1191C35.6636 29.2591 35.5501 29.3726 35.4101 29.3726C35.2701 29.3726 35.1567 29.2591 35.1567 29.1191C35.1567 28.9791 35.2701 28.8656 35.4101 28.8656C35.5501 28.8656 35.6636 28.9791 35.6636 29.1191Z" fill="#081732" stroke="#081732" stroke-width="3.34067"/>
<path d="M28.0874 29.1191C28.0874 29.2591 27.9739 29.3726 27.834 29.3726C27.694 29.3726 27.5805 29.2591 27.5805 29.1191C27.5805 28.9791 27.694 28.8656 27.834 28.8656C27.9739 28.8656 28.0874 28.9791 28.0874 29.1191Z" fill="#081732" stroke="#081732" stroke-width="3.34067"/>
</svg>
