<svg width="108" height="108" viewBox="0 0 108 108" fill="none" xmlns="http://www.w3.org/2000/svg">
<path d="M54.0557 89C73.3857 89 89.0557 73.33 89.0557 54C89.0557 34.67 73.3857 19 54.0557 19C34.7257 19 19.0557 34.67 19.0557 54C19.0557 73.33 34.7257 89 54.0557 89Z" fill="#F9D744"/>
<path d="M54.0557 89C73.3857 89 89.0557 73.33 89.0557 54C89.0557 34.67 73.3857 19 54.0557 19C34.7257 19 19.0557 34.67 19.0557 54C19.0557 73.33 34.7257 89 54.0557 89Z" stroke="black" stroke-width="2" stroke-linecap="round" stroke-linejoin="round"/>
<path d="M85.3647 32.847C80.8507 28.987 75.2827 29.838 72.8757 34.578C70.4677 29.838 64.8997 28.987 60.3867 32.847C58.8667 34.147 57.7967 36.169 57.3537 38.561H50.1707C49.7277 36.169 48.6577 34.147 47.1387 32.847C42.6247 28.987 37.0567 29.838 34.6487 34.578C32.2417 29.838 26.6737 28.987 22.1597 32.847C17.0037 37.257 17.0227 49.969 29.1597 57.289C30.8168 58.2885 32.7154 58.8167 34.6507 58.8167C36.5859 58.8167 38.4845 58.2885 40.1417 57.289C45.6167 53.989 48.6247 49.589 49.8047 45.348H57.7237C58.9037 49.587 61.9117 53.987 67.3867 57.289C69.0438 58.2885 70.9424 58.8167 72.8777 58.8167C74.8129 58.8167 76.7115 58.2885 78.3687 57.289C90.5017 49.969 90.5207 37.257 85.3647 32.847Z" fill="#050000" stroke="black" stroke-width="2" stroke-linecap="round" stroke-linejoin="round"/>
<path d="M35.5987 53.007C36.573 52.9259 37.5066 52.5801 38.2987 52.007C40.4987 50.42 41.7987 48.513 42.3987 46.649" stroke="white" stroke-width="2" stroke-linecap="round" stroke-linejoin="round"/>
<path d="M44.5117 43.644C45.445 43.644 46.2017 42.8873 46.2017 41.954C46.2017 41.0206 45.445 40.264 44.5117 40.264C43.5783 40.264 42.8217 41.0206 42.8217 41.954C42.8217 42.8873 43.5783 43.644 44.5117 43.644Z" fill="white"/>
<path d="M74.0327 53.007C75.007 52.9261 75.9407 52.5803 76.7327 52.007C78.9327 50.42 80.2327 48.513 80.8327 46.649" stroke="white" stroke-width="2" stroke-linecap="round" stroke-linejoin="round"/>
<path d="M82.9457 43.644C83.879 43.644 84.6357 42.8873 84.6357 41.954C84.6357 41.0206 83.879 40.264 82.9457 40.264C82.0123 40.264 81.2557 41.0206 81.2557 41.954C81.2557 42.8873 82.0123 43.644 82.9457 43.644Z" fill="white"/>
<path d="M47.2287 56.3441C47.2233 57.2534 47.3971 58.1548 47.7402 58.997C48.0832 59.8391 48.5888 60.6054 49.2281 61.2521C49.8674 61.8988 50.6278 62.4132 51.4659 62.766C52.304 63.1188 53.2034 63.303 54.1127 63.3081C55.0221 63.3135 55.9236 63.1397 56.7658 62.7966C57.608 62.4536 58.3744 61.948 59.0211 61.3087C59.6679 60.6695 60.1824 59.9091 60.5353 59.071C60.8882 58.2328 61.0725 57.3334 61.0777 56.4241" stroke="black" stroke-width="2" stroke-linecap="round" stroke-linejoin="round"/>
</svg>
