<svg width="108" height="108" viewBox="0 0 108 108" fill="none" xmlns="http://www.w3.org/2000/svg">
<path d="M52.43 49.007C48.814 43.938 46.737 37.287 46.53 30.167C46.5209 29.8492 46.3883 29.5474 46.1603 29.3258C45.9324 29.1042 45.627 28.9801 45.309 28.98V28.98C44.9909 28.9799 44.6853 29.1038 44.4571 29.3254C44.2289 29.5471 44.0961 29.849 44.087 30.167C43.879 37.287 41.802 43.938 38.187 49.007C34.64 53.978 30.008 56.873 25.039 57.258C24.7303 57.2802 24.4414 57.4182 24.2301 57.6445C24.0189 57.8707 23.901 58.1685 23.9 58.478V59.5C23.901 59.8095 24.0189 60.1072 24.2301 60.3335C24.4414 60.5597 24.7303 60.6978 25.039 60.72C30.008 61.105 34.639 64 38.187 68.971C41.802 74.04 43.879 80.691 44.087 87.811C44.0956 88.1291 44.228 88.4314 44.456 88.6535C44.6841 88.8755 44.9897 88.9998 45.308 89V89C45.626 88.9999 45.9314 88.8758 46.1593 88.6542C46.3873 88.4326 46.5199 88.1308 46.529 87.813C46.737 80.693 48.814 74.042 52.429 68.973C55.975 64.002 60.607 61.107 65.576 60.722C65.8848 60.6998 66.1737 60.5617 66.3849 60.3355C66.5961 60.1092 66.714 59.8115 66.715 59.502V58.478C66.714 58.1685 66.5961 57.8707 66.3849 57.6445C66.1737 57.4182 65.8848 57.2802 65.576 57.258C60.608 56.873 55.976 53.978 52.43 49.007Z" fill="#F9D744" stroke="black" stroke-width="2" stroke-linecap="round" stroke-linejoin="round"/>
<path d="M75.745 30.631C73.645 27.688 72.439 23.825 72.318 19.69C72.3128 19.5054 72.2358 19.33 72.1035 19.2012C71.9711 19.0724 71.7937 19.0002 71.609 19V19C71.4242 19.0002 71.2467 19.0723 71.1141 19.2011C70.9816 19.3299 70.9044 19.5053 70.899 19.69C70.779 23.825 69.573 27.69 67.473 30.631C65.413 33.519 62.722 35.2 59.837 35.424C59.6576 35.4366 59.4897 35.5166 59.3669 35.648C59.2441 35.7793 59.1756 35.9522 59.175 36.132V36.727C59.1755 36.9069 59.2441 37.0799 59.3668 37.2114C59.4896 37.3429 59.6575 37.4231 59.837 37.436C62.722 37.659 65.413 39.336 67.473 42.228C69.573 45.172 70.779 49.035 70.899 53.17C70.9047 53.3546 70.982 53.5296 71.1145 53.6582C71.247 53.7868 71.4243 53.8588 71.609 53.859V53.859C71.7936 53.8591 71.971 53.7871 72.1034 53.6585C72.2358 53.5298 72.3128 53.3545 72.318 53.17C72.439 49.035 73.645 45.17 75.745 42.228C77.805 39.341 80.495 37.659 83.381 37.436C83.5604 37.4231 83.7284 37.3429 83.8511 37.2114C83.9739 37.0799 84.0424 36.9069 84.043 36.727V36.132C84.0424 35.9522 83.9739 35.7793 83.8511 35.648C83.7283 35.5166 83.5603 35.4366 83.381 35.424C80.495 35.2 77.805 33.519 75.745 30.631Z" fill="#F9D744" stroke="black" stroke-width="2" stroke-linecap="round" stroke-linejoin="round"/>
<path d="M34.723 59.367C34.723 59.367 44.252 62.567 44.602 72.127" stroke="white" stroke-width="2" stroke-linecap="round" stroke-linejoin="round"/>
</svg>
