<svg width="108" height="108" viewBox="0 0 108 108" fill="none" xmlns="http://www.w3.org/2000/svg">
<path d="M89.0048 40.6768C89.0058 39.3853 88.7068 38.1114 88.1313 36.9553C87.5559 35.7992 86.7197 34.7925 85.6888 34.0147C86.6392 33.2941 87.4243 32.3782 87.9911 31.3287C88.5579 30.2792 88.8933 29.1205 88.9747 27.9305C89.0562 26.7405 88.8817 25.5468 88.4632 24.4299C88.0446 23.313 87.3917 22.2987 86.5483 21.4553C85.7048 20.6119 84.6905 19.9589 83.5736 19.5403C82.4567 19.1218 81.2631 18.9474 80.0731 19.0288C78.8831 19.1102 77.7243 19.4456 76.6748 20.0124C75.6253 20.5792 74.7095 21.3643 73.9888 22.3147C73.21 21.2849 72.2031 20.4496 71.0471 19.8744C69.8911 19.2993 68.6175 19 67.3263 19C66.0351 19 64.7615 19.2993 63.6055 19.8744C62.4495 20.4496 61.4426 21.2849 60.6638 22.3147C59.8851 21.2849 58.8783 20.4496 57.7223 19.8744C56.5664 19.2993 55.2929 19 54.0018 19C52.7107 19 51.4371 19.2993 50.2812 19.8744C49.1253 20.4496 48.1185 21.2849 47.3398 22.3147C46.561 21.2849 45.5541 20.4496 44.3981 19.8744C43.2421 19.2993 41.9685 19 40.6773 19C39.3861 19 38.1125 19.2993 36.9565 19.8744C35.8005 20.4496 34.7936 21.2849 34.0148 22.3147C33.2941 21.3643 32.3782 20.5792 31.3287 20.0124C30.2792 19.4456 29.1205 19.1102 27.9305 19.0288C26.7405 18.9474 25.5469 19.1218 24.43 19.5403C23.313 19.9589 22.2987 20.6119 21.4553 21.4553C20.6119 22.2987 19.9589 23.313 19.5404 24.4299C19.1218 25.5468 18.9474 26.7405 19.0288 27.9305C19.1103 29.1205 19.4457 30.2792 20.0125 31.3287C20.5793 32.3782 21.3643 33.2941 22.3148 34.0147C21.2849 34.7935 20.4496 35.8004 19.8745 36.9564C19.2993 38.1124 19 39.3861 19 40.6772C19 41.9684 19.2993 43.242 19.8745 44.398C20.4496 45.5541 21.2849 46.561 22.3148 47.3397C21.2849 48.1184 20.4496 49.1252 19.8745 50.2812C19.2993 51.4371 19 52.7107 19 54.0018C19 55.2929 19.2993 56.5663 19.8745 57.7223C20.4496 58.8782 21.2849 59.8851 22.3148 60.6638C21.2849 61.4425 20.4496 62.4493 19.8745 63.6052C19.2993 64.7611 19 66.0347 19 67.3258C19 68.6169 19.2993 69.8904 19.8745 71.0463C20.4496 72.2022 21.2849 73.209 22.3148 73.9877C21.3643 74.7084 20.5793 75.6243 20.0125 76.6738C19.4457 77.7233 19.1103 78.882 19.0288 80.072C18.9474 81.262 19.1218 82.4556 19.5404 83.5726C19.9589 84.6895 20.6119 85.7038 21.4553 86.5472C22.2987 87.3906 23.313 88.0436 24.43 88.4621C25.5469 88.8807 26.7405 89.0551 27.9305 88.9736C29.1205 88.8922 30.2792 88.5568 31.3287 87.99C32.3782 87.4232 33.2941 86.6381 34.0148 85.6877C34.7933 86.7179 35.8002 87.5536 36.9562 88.129C38.1123 88.7044 39.386 89.0038 40.6773 89.0038C41.9686 89.0038 43.2423 88.7044 44.3984 88.129C45.5544 87.5536 46.5612 86.7179 47.3398 85.6877C48.1182 86.7179 49.125 87.5536 50.2809 88.129C51.4369 88.7044 52.7105 89.0038 54.0018 89.0038C55.293 89.0038 56.5667 88.7044 57.7226 88.129C58.8786 87.5536 59.8854 86.7179 60.6638 85.6877C61.4423 86.7179 62.4492 87.5536 63.6052 88.129C64.7613 88.7044 66.035 89.0038 67.3263 89.0038C68.6176 89.0038 69.8913 88.7044 71.0474 88.129C72.2034 87.5536 73.2102 86.7179 73.9888 85.6877C74.7095 86.6381 75.6253 87.4232 76.6748 87.99C77.7243 88.5568 78.8831 88.8922 80.0731 88.9736C81.2631 89.0551 82.4567 88.8807 83.5736 88.4621C84.6905 88.0436 85.7048 87.3906 86.5483 86.5472C87.3917 85.7038 88.0446 84.6895 88.4632 83.5726C88.8817 82.4556 89.0562 81.262 88.9747 80.072C88.8933 78.882 88.5579 77.7233 87.9911 76.6738C87.4243 75.6243 86.6392 74.7084 85.6888 73.9877C86.719 73.2093 87.5546 72.2025 88.13 71.0466C88.7054 69.8906 89.0049 68.617 89.0049 67.3258C89.0049 66.0345 88.7054 64.7608 88.13 63.6049C87.5546 62.4489 86.719 61.4422 85.6888 60.6638C86.719 59.8853 87.5546 58.8785 88.13 57.7226C88.7054 56.5666 89.0049 55.293 89.0049 54.0018C89.0049 52.7105 88.7054 51.4368 88.13 50.2809C87.5546 49.1249 86.719 48.1182 85.6888 47.3397C86.7199 46.5619 87.5561 45.5551 88.1316 44.3988C88.707 43.2425 89.006 41.9683 89.0048 40.6768V40.6768Z" fill="#F8AE05" stroke="black" stroke-width="2" stroke-linecap="round" stroke-linejoin="round"/>
</svg>
