<svg width="108" height="108" viewBox="0 0 108 108" fill="none" xmlns="http://www.w3.org/2000/svg">
<path d="M54 89C73.33 89 89 73.33 89 54C89 34.67 73.33 19 54 19C34.67 19 19 34.67 19 54C19 73.33 34.67 89 54 89Z" fill="#F9D744" stroke="black" stroke-width="2" stroke-linecap="round" stroke-linejoin="round"/>
<path d="M34.528 52.688C34.466 63.394 43.095 72.123 53.801 72.188C64.507 72.253 73.236 63.621 73.301 52.915" stroke="black" stroke-width="2" stroke-linecap="round" stroke-linejoin="round"/>
<path d="M59.773 46.684C61.4277 46.684 62.769 45.3427 62.769 43.688C62.769 42.0334 61.4277 40.692 59.773 40.692C58.1184 40.692 56.777 42.0334 56.777 43.688C56.777 45.3427 58.1184 46.684 59.773 46.684Z" fill="black"/>
<path d="M47.972 46.684C49.6266 46.684 50.968 45.3427 50.968 43.688C50.968 42.0334 49.6266 40.692 47.972 40.692C46.3173 40.692 44.976 42.0334 44.976 43.688C44.976 45.3427 46.3173 46.684 47.972 46.684Z" fill="black"/>
<path d="M71.424 52.688H75.521" stroke="black" stroke-width="2" stroke-linecap="round" stroke-linejoin="round"/>
<path d="M32.479 52.688H36.576" stroke="black" stroke-width="2" stroke-linecap="round" stroke-linejoin="round"/>
</svg>
