<svg width="108" height="108" viewBox="0 0 108 108" fill="none" xmlns="http://www.w3.org/2000/svg">
<path d="M54 89C73.33 89 89 73.33 89 54C89 34.67 73.33 19 54 19C34.67 19 19 34.67 19 54C19 73.33 34.67 89 54 89Z" fill="#F9D744" stroke="black" stroke-width="2" stroke-linecap="round" stroke-linejoin="round"/>
<path d="M73.472 69.746C73.534 59.04 64.905 50.311 54.199 50.246C43.493 50.181 34.764 58.813 34.699 69.519" stroke="black" stroke-width="2" stroke-linecap="round" stroke-linejoin="round"/>
<path d="M59.773 44.2451C61.4276 44.2451 62.769 42.9037 62.769 41.2491C62.769 39.5944 61.4276 38.2531 59.773 38.2531C58.1184 38.2531 56.777 39.5944 56.777 41.2491C56.777 42.9037 58.1184 44.2451 59.773 44.2451Z" fill="black"/>
<path d="M47.972 44.2451C49.6266 44.2451 50.968 42.9037 50.968 41.2491C50.968 39.5944 49.6266 38.2531 47.972 38.2531C46.3173 38.2531 44.976 39.5944 44.976 41.2491C44.976 42.9037 46.3173 44.2451 47.972 44.2451Z" fill="black"/>
<path d="M36.576 69.746H32.479" stroke="black" stroke-width="2" stroke-linecap="round" stroke-linejoin="round"/>
<path d="M75.521 69.746H71.424" stroke="black" stroke-width="2" stroke-linecap="round" stroke-linejoin="round"/>
</svg>
