<svg width="108" height="108" viewBox="0 0 108 108" fill="none" xmlns="http://www.w3.org/2000/svg">
<path d="M54 89C73.33 89 89 73.33 89 54C89 34.67 73.33 19 54 19C34.67 19 19 34.67 19 54C19 73.33 34.67 89 54 89Z" fill="#F9D744" stroke="black" stroke-width="2" stroke-linecap="round" stroke-linejoin="round"/>
<path d="M41.653 62.436C41.6435 64.0503 41.9521 65.6507 42.5612 67.1457C43.1702 68.6408 44.0678 70.0012 45.2027 71.1493C46.3375 72.2974 47.6874 73.2108 49.1752 73.8372C50.6631 74.4636 52.2597 74.7907 53.874 74.8C55.4881 74.8094 57.0882 74.5007 58.583 73.8917C60.0778 73.2826 61.438 72.3851 62.5859 71.2504C63.7339 70.1156 64.647 68.7659 65.2733 67.2782C65.8996 65.7906 66.2267 64.1941 66.236 62.58" stroke="black" stroke-width="2" stroke-linecap="round" stroke-linejoin="round"/>
<path d="M65.048 62.436H67.646" stroke="black" stroke-width="2" stroke-linecap="round" stroke-linejoin="round"/>
<path d="M40.354 62.436H42.952" stroke="black" stroke-width="2" stroke-linecap="round" stroke-linejoin="round"/>
<path d="M63.644 54.663C64.8513 55.3909 66.2343 55.7756 67.644 55.7756C69.0537 55.7756 70.4367 55.3909 71.644 54.663C80.488 49.329 80.502 40.063 76.744 36.849C73.454 34.036 69.396 34.656 67.644 38.111C65.889 34.656 61.831 34.036 58.544 36.849C54.785 40.063 54.8 49.329 63.644 54.663Z" fill="#F16932" stroke="black" stroke-width="2" stroke-linecap="round" stroke-linejoin="round"/>
<path d="M74.405 43.5C74.405 43.5 72.471 48.934 67.869 50.959Z" fill="#FF9AB1"/>
<path d="M74.405 43.5C74.405 43.5 72.471 48.934 67.869 50.959" stroke="white" stroke-width="1.974" stroke-linecap="round" stroke-linejoin="round"/>
<path d="M36.178 54.663C37.3853 55.3909 38.7683 55.7756 40.178 55.7756C41.5877 55.7756 42.9707 55.3909 44.178 54.663C53.022 49.329 53.036 40.063 49.278 36.849C45.988 34.036 41.93 34.656 40.178 38.111C38.423 34.656 34.365 34.036 31.078 36.849C27.319 40.063 27.333 49.329 36.178 54.663Z" fill="#F16932" stroke="black" stroke-width="2" stroke-linecap="round" stroke-linejoin="round"/>
<path d="M46.939 43.5C46.939 43.5 45.005 48.934 40.403 50.959Z" fill="#FF9AB1"/>
<path d="M46.939 43.5C46.939 43.5 45.005 48.934 40.403 50.959" stroke="white" stroke-width="1.974" stroke-linecap="round" stroke-linejoin="round"/>
</svg>
