<svg width="108" height="108" viewBox="0 0 108 108" fill="none" xmlns="http://www.w3.org/2000/svg">
<path d="M52 89C71.33 89 87 73.33 87 54C87 34.67 71.33 19 52 19C32.67 19 17 34.67 17 54C17 73.33 32.67 89 52 89Z" fill="#F9D744" stroke="black" stroke-width="2" stroke-linecap="round" stroke-linejoin="round"/>
<path d="M57.901 54C59.5556 54 60.897 52.6586 60.897 51.004C60.897 49.3494 59.5556 48.008 57.901 48.008C56.2463 48.008 54.905 49.3494 54.905 51.004C54.905 52.6586 56.2463 54 57.901 54Z" fill="black"/>
<path d="M46.099 54C47.7537 54 49.095 52.6586 49.095 51.004C49.095 49.3494 47.7537 48.008 46.099 48.008C44.4444 48.008 43.103 49.3494 43.103 51.004C43.103 52.6586 44.4444 54 46.099 54Z" fill="black"/>
<path d="M33.144 62.0651H72.892" stroke="black" stroke-width="2" stroke-linecap="round" stroke-linejoin="round"/>
<path d="M42.026 36.547L50.173 44.694" stroke="black" stroke-width="2" stroke-linecap="round" stroke-linejoin="round"/>
<path d="M61.974 36.547L53.827 44.694" stroke="black" stroke-width="2" stroke-linecap="round" stroke-linejoin="round"/>
<path d="M72.892 60.016V64.113" stroke="black" stroke-width="2" stroke-linecap="round" stroke-linejoin="round"/>
<path d="M32.229 60.016V64.113" stroke="black" stroke-width="2" stroke-linecap="round" stroke-linejoin="round"/>
</svg>
