<svg width="108" height="108" viewBox="0 0 108 108" fill="none" xmlns="http://www.w3.org/2000/svg">
<path d="M54 89C73.33 89 89 73.33 89 54C89 34.67 73.33 19 54 19C34.67 19 19 34.67 19 54C19 73.33 34.67 89 54 89Z" fill="#F9D744" stroke="black" stroke-width="2" stroke-linecap="round" stroke-linejoin="round"/>
<path d="M34.528 52.688C34.466 63.394 43.095 72.123 53.801 72.188C64.507 72.253 73.236 63.621 73.301 52.915L34.528 52.688Z" fill="#F4F2EB"/>
<path d="M34.528 52.688C34.466 63.394 43.095 72.123 53.801 72.188C64.507 72.253 73.236 63.621 73.301 52.915L34.528 52.688Z" stroke="black" stroke-width="2" stroke-linecap="round" stroke-linejoin="round"/>
<path d="M50.85 46.935C50.8501 46.2607 50.7174 45.593 50.4595 44.97C50.2015 44.347 49.8234 43.7809 49.3466 43.3041C48.8699 42.8272 48.3039 42.449 47.6809 42.1909C47.058 41.9328 46.3903 41.8 45.716 41.8C44.3544 41.8003 43.0487 42.3412 42.086 43.304C41.1232 44.2667 40.5822 45.5724 40.582 46.934" stroke="black" stroke-width="2" stroke-linecap="round" stroke-linejoin="round"/>
<path d="M67.243 46.935C67.2431 46.2607 67.1104 45.593 66.8525 44.97C66.5945 44.347 66.2164 43.7809 65.7396 43.3041C65.2629 42.8272 64.6969 42.449 64.0739 42.1909C63.451 41.9328 62.7833 41.8 62.109 41.8C60.7475 41.8003 59.4418 42.3412 58.479 43.304C57.5163 44.2667 56.9753 45.5724 56.975 46.934" stroke="black" stroke-width="2" stroke-linecap="round" stroke-linejoin="round"/>
</svg>
