<svg width="108" height="108" viewBox="0 0 108 108" fill="none" xmlns="http://www.w3.org/2000/svg">
<path d="M54 89C73.33 89 89 73.33 89 54C89 34.67 73.33 19 54 19C34.67 19 19 34.67 19 54C19 73.33 34.67 89 54 89Z" fill="#F9D744" stroke="black" stroke-width="2" stroke-linecap="round" stroke-linejoin="round"/>
<path d="M48.45 56.978C48.4417 58.4189 49.0059 59.8041 50.0184 60.8292C51.031 61.8543 52.4091 62.4355 53.85 62.445C55.2907 62.4533 56.6758 61.8891 57.7008 60.8765C58.7258 59.8639 59.3067 58.4858 59.316 57.045" stroke="black" stroke-width="2" stroke-linecap="round" stroke-linejoin="round"/>
<path d="M59.786 51.832C61.4406 51.832 62.782 50.4906 62.782 48.836C62.782 47.1813 61.4406 45.84 59.786 45.84C58.1313 45.84 56.79 47.1813 56.79 48.836C56.79 50.4906 58.1313 51.832 59.786 51.832Z" fill="black"/>
<path d="M47.985 51.832C49.6397 51.832 50.981 50.4906 50.981 48.836C50.981 47.1813 49.6397 45.84 47.985 45.84C46.3304 45.84 44.989 47.1813 44.989 48.836C44.989 50.4906 46.3304 51.832 47.985 51.832Z" fill="black"/>
</svg>
