<svg width="108" height="108" viewBox="0 0 108 108" fill="none" xmlns="http://www.w3.org/2000/svg">
<path d="M51.7353 80.5878L36.8453 88.4188C33.2033 90.3328 28.9453 87.2407 29.6453 83.1857L32.4823 66.5998C32.6181 65.8065 32.5592 64.9922 32.3106 64.2268C32.062 63.4614 31.6313 62.7678 31.0553 62.2058L19.0043 50.4598C16.0583 47.5878 17.6843 42.5837 21.7553 41.9927L38.4083 39.5728C39.2047 39.457 39.961 39.1492 40.6121 38.6761C41.2631 38.2029 41.7893 37.5785 42.1453 36.8568L49.5933 21.7667C51.4133 18.0778 56.6753 18.0778 58.4933 21.7667L65.9453 36.8568C66.3014 37.5787 66.8277 38.2031 67.4789 38.6763C68.1302 39.1494 68.8867 39.4571 69.6833 39.5728L86.3363 41.9927C90.4073 42.5837 92.0363 47.5878 89.0873 50.4598L77.0353 62.2058C76.4593 62.7678 76.0285 63.4614 75.78 64.2268C75.5314 64.9922 75.4725 65.8065 75.6083 66.5998L78.4533 83.1857C79.1483 87.2407 74.8923 90.3328 71.2533 88.4188L56.3553 80.5878C55.6428 80.2134 54.8501 80.0178 54.0453 80.0178C53.2405 80.0178 52.4477 80.2134 51.7353 80.5878V80.5878Z" fill="#F9D744" stroke="black" stroke-width="2" stroke-linecap="round" stroke-linejoin="round"/>
<path d="M48.4953 56.9777C48.4912 57.6915 48.6277 58.399 48.897 59.06C49.1663 59.721 49.5632 60.3225 50.0649 60.8301C50.5667 61.3377 51.1635 61.7415 51.8213 62.0185C52.4792 62.2954 53.1851 62.4401 53.8988 62.4442C54.6126 62.4484 55.3201 62.3119 55.9811 62.0426C56.6421 61.7732 57.2436 61.3764 57.7512 60.8746C58.2588 60.3729 58.6626 59.776 58.9396 59.1182C59.2165 58.4604 59.3612 57.7545 59.3653 57.0407" stroke="black" stroke-width="2" stroke-linecap="round" stroke-linejoin="round"/>
<path d="M59.8313 51.8317C61.486 51.8317 62.8273 50.4904 62.8273 48.8357C62.8273 47.1811 61.486 45.8397 59.8313 45.8397C58.1767 45.8397 56.8353 47.1811 56.8353 48.8357C56.8353 50.4904 58.1767 51.8317 59.8313 51.8317Z" fill="black"/>
<path d="M48.0303 51.8317C49.6849 51.8317 51.0263 50.4904 51.0263 48.8357C51.0263 47.1811 49.6849 45.8397 48.0303 45.8397C46.3757 45.8397 45.0343 47.1811 45.0343 48.8357C45.0343 50.4904 46.3757 51.8317 48.0303 51.8317Z" fill="black"/>
</svg>
