<svg width="108" height="108" viewBox="0 0 108 108" fill="none" xmlns="http://www.w3.org/2000/svg">
<path d="M54 73.43C64.7309 73.43 73.43 64.7309 73.43 54C73.43 43.2691 64.7309 34.57 54 34.57C43.2691 34.57 34.57 43.2691 34.57 54C34.57 64.7309 43.2691 73.43 54 73.43Z" fill="#F9D744" stroke="black" stroke-width="2" stroke-linecap="round" stroke-linejoin="round"/>
<path d="M54 19V29.38" stroke="black" stroke-width="2" stroke-linecap="round" stroke-linejoin="round"/>
<path d="M54 78.62V89" stroke="black" stroke-width="2" stroke-linecap="round" stroke-linejoin="round"/>
<path d="M89 54H78.62" stroke="black" stroke-width="2" stroke-linecap="round" stroke-linejoin="round"/>
<path d="M29.38 54H19" stroke="black" stroke-width="2" stroke-linecap="round" stroke-linejoin="round"/>
<path d="M78.749 29.251L71.409 36.591" stroke="black" stroke-width="2" stroke-linecap="round" stroke-linejoin="round"/>
<path d="M36.591 71.409L29.251 78.749" stroke="black" stroke-width="2" stroke-linecap="round" stroke-linejoin="round"/>
<path d="M78.749 78.749L71.409 71.409" stroke="black" stroke-width="2" stroke-linecap="round" stroke-linejoin="round"/>
<path d="M36.591 36.591L29.251 29.251" stroke="black" stroke-width="2" stroke-linecap="round" stroke-linejoin="round"/>
<path d="M67.667 21.779L63.614 31.335" stroke="black" stroke-width="2" stroke-linecap="round" stroke-linejoin="round"/>
<path d="M44.386 76.665L40.333 86.221" stroke="black" stroke-width="2" stroke-linecap="round" stroke-linejoin="round"/>
<path d="M86.221 67.667L76.665 63.614" stroke="black" stroke-width="2" stroke-linecap="round" stroke-linejoin="round"/>
<path d="M31.3349 44.386L21.779 40.333" stroke="black" stroke-width="2" stroke-linecap="round" stroke-linejoin="round"/>
<path d="M86.4481 40.88L76.825 44.771" stroke="black" stroke-width="2" stroke-linecap="round" stroke-linejoin="round"/>
<path d="M31.175 63.229L21.5519 67.12" stroke="black" stroke-width="2" stroke-linecap="round" stroke-linejoin="round"/>
<path d="M67.12 86.448L63.229 76.825" stroke="black" stroke-width="2" stroke-linecap="round" stroke-linejoin="round"/>
<path d="M44.771 31.1749L40.88 21.5519" stroke="black" stroke-width="2" stroke-linecap="round" stroke-linejoin="round"/>
<path d="M50.907 56.4C50.9022 57.2203 51.2235 58.009 51.8002 58.5924C52.3768 59.1758 53.1617 59.5062 53.982 59.511C54.8023 59.5158 55.5909 59.1945 56.1743 58.6178C56.7578 58.0412 57.0882 57.2563 57.093 56.436" stroke="black" stroke-width="2" stroke-linecap="round" stroke-linejoin="round"/>
<path d="M57.358 53.4751C58.2996 53.4751 59.063 52.7117 59.063 51.7701C59.063 50.8284 58.2996 50.0651 57.358 50.0651C56.4164 50.0651 55.653 50.8284 55.653 51.7701C55.653 52.7117 56.4164 53.4751 57.358 53.4751Z" fill="black"/>
<path d="M50.642 53.4751C51.5836 53.4751 52.347 52.7117 52.347 51.7701C52.347 50.8284 51.5836 50.0651 50.642 50.0651C49.7003 50.0651 48.937 50.8284 48.937 51.7701C48.937 52.7117 49.7003 53.4751 50.642 53.4751Z" fill="black"/>
</svg>
