<svg width="108" height="108" viewBox="0 0 108 108" fill="none" xmlns="http://www.w3.org/2000/svg">
<path fill-rule="evenodd" clip-rule="evenodd" d="M65.0782 78.0162C65.1006 80.9055 63.9748 83.6855 61.9483 85.7452C59.9218 87.8049 57.1605 88.9756 54.2712 89.0002C51.3815 89.018 48.603 87.8877 46.5465 85.8576C44.49 83.8275 43.3237 81.0639 43.3042 78.1742C43.2612 72.1522 54.0162 53.8612 54.0162 53.8612C54.0162 53.8612 65.0352 71.9942 65.0782 78.0162Z" fill="#F16932" stroke="black" stroke-width="2" stroke-linecap="round" stroke-linejoin="round"/>
<path fill-rule="evenodd" clip-rule="evenodd" d="M42.9552 29.9842C42.9329 27.0947 44.0588 24.3145 46.0854 22.2549C48.1121 20.1952 50.8737 19.0245 53.7632 19.0002C56.6527 18.9826 59.4309 20.1131 61.4873 22.1432C63.5436 24.1732 64.7096 26.9367 64.7292 29.8262C64.7732 35.8482 54.0182 54.1392 54.0182 54.1392C54.0182 54.1392 42.9992 36.0062 42.9552 29.9842Z" fill="#F16932" stroke="black" stroke-width="2" stroke-linecap="round" stroke-linejoin="round"/>
<path fill-rule="evenodd" clip-rule="evenodd" d="M29.9852 65.1002C27.0955 65.1228 24.3151 63.997 22.2552 61.9703C20.1953 59.9436 19.0245 57.1819 19.0002 54.2922C18.9826 51.4025 20.1133 48.6241 22.1436 46.5678C24.1738 44.5115 26.9375 43.3455 29.8272 43.3262C35.8492 43.2822 54.1392 54.0372 54.1392 54.0372C54.1392 54.0372 36.0072 65.0532 29.9852 65.1002Z" fill="#F16932" stroke="black" stroke-width="2" stroke-linecap="round" stroke-linejoin="round"/>
<path fill-rule="evenodd" clip-rule="evenodd" d="M77.9972 42.9222C80.8869 42.8996 83.6673 44.0254 85.7272 46.0521C87.7871 48.0788 88.9579 50.8405 88.9822 53.7302C89.0008 56.6206 87.8707 59.4 85.8403 61.4572C83.8099 63.5144 81.0456 64.6809 78.1552 64.7002C72.1332 64.7432 53.8432 53.9892 53.8432 53.9892C53.8432 53.9892 71.9752 42.9652 77.9972 42.9222Z" fill="#F16932" stroke="black" stroke-width="2" stroke-linecap="round" stroke-linejoin="round"/>
<path fill-rule="evenodd" clip-rule="evenodd" d="M37.0832 83.0792C33.9613 83.0869 30.9634 81.858 28.7452 79.6612C24.0762 75.0612 24.0272 67.5132 28.6352 62.8382C30.5012 60.9452 35.3352 58.7022 43.0022 56.1732C48.6312 54.3162 53.8102 52.9672 53.8622 52.9542C53.9442 52.9332 54.0286 52.9224 54.1132 52.9222C54.3753 52.9228 54.6267 53.0262 54.8132 53.2102C54.9365 53.3315 55.0261 53.4827 55.0734 53.6491C55.1207 53.8154 55.1241 53.9912 55.0832 54.1592C55.0702 54.2112 53.7972 59.4092 52.0222 65.0592C49.6042 72.7592 47.4322 77.6282 45.5662 79.5212C44.4615 80.6507 43.1418 81.5476 41.6848 82.1586C40.2278 82.7697 38.6632 83.0827 37.0832 83.0792Z" fill="#FFBCDD"/>
<path d="M54.1132 53.9221C54.1132 53.9221 49.0832 74.5352 44.8562 78.8222C43.8421 79.8543 42.6323 80.6739 41.2977 81.2328C39.963 81.7917 38.5302 82.0787 37.0832 82.0771C34.2248 82.0812 31.4804 80.9563 29.4472 78.9472C27.3913 76.9165 26.2258 74.1525 26.207 71.2629C26.1883 68.3732 27.3178 65.5943 29.3472 63.5372C33.5742 59.2482 54.1122 53.9202 54.1122 53.9202M54.1122 51.9202C53.9435 51.9203 53.7755 51.9418 53.6122 51.9842C53.5602 51.9982 48.3492 53.3542 42.6902 55.2212C34.7602 57.8372 29.9302 60.0982 27.9242 62.1342C26.7311 63.3376 25.7883 64.7656 25.1503 66.3357C24.5123 67.9057 24.1918 69.5865 24.2072 71.2812C24.2132 72.9749 24.5554 74.6505 25.2141 76.2109C25.8728 77.7714 26.8347 79.1854 28.0442 80.3712C30.449 82.7532 33.6994 84.0857 37.0842 84.0771C38.7648 84.0788 40.4295 83.7513 41.9842 83.1132C43.5987 82.4527 45.0617 81.4704 46.2842 80.2262C48.2902 78.1912 50.4842 73.3262 52.9842 65.3622C54.7692 59.6762 56.0492 54.4462 56.0622 54.3942C56.1445 54.0579 56.1381 53.706 56.0436 53.373C55.9491 53.0399 55.7698 52.7371 55.5232 52.4942C55.15 52.1261 54.6473 51.9193 54.1232 51.9182L54.1122 51.9202Z" fill="black"/>
<path fill-rule="evenodd" clip-rule="evenodd" d="M53.8692 55.1002C53.6073 55.0999 53.3559 54.9968 53.1692 54.8132C53.0458 54.6918 52.9561 54.5404 52.9088 54.3739C52.8614 54.2073 52.8582 54.0314 52.8992 53.8632C52.9122 53.8112 54.1852 48.6132 55.9602 42.9582C58.3782 35.2582 60.5502 30.3892 62.4162 28.4962C63.5216 27.3674 64.8419 26.4716 66.2992 25.8615C67.7566 25.2514 69.3214 24.9395 70.9012 24.9442C74.023 24.9361 77.0209 26.1647 79.2392 28.3612C83.9082 32.9612 83.9572 40.5092 79.3492 45.1852C77.4832 47.0782 72.6492 49.3202 64.9822 51.8502C59.3532 53.7072 54.1742 55.0502 54.1222 55.0682C54.0397 55.0899 53.9546 55.1006 53.8692 55.1002V55.1002Z" fill="#FFBCDD"/>
<path d="M70.8992 25.9402C73.7575 25.9358 76.5019 27.0604 78.5352 29.0692C80.5912 31.0999 81.7566 33.8638 81.7754 36.7535C81.7941 39.6432 80.6646 42.422 78.6352 44.4792C74.4082 48.7682 53.8702 54.0962 53.8702 54.0962C53.8702 54.0962 58.9002 33.4832 63.1272 29.1962C64.1413 28.1642 65.3511 27.3448 66.6858 26.7861C68.0205 26.2273 69.4533 25.9404 70.9002 25.9422M70.9002 23.9422C69.2195 23.9401 67.5548 24.2676 66.0002 24.9062C64.3856 25.566 62.9225 26.5479 61.7002 27.7922C59.6942 29.8272 57.5002 34.6922 55.0002 42.6572C53.2152 48.3422 51.9352 53.5722 51.9222 53.6242C51.8399 53.9605 51.8463 54.3123 51.9408 54.6454C52.0353 54.9784 52.2146 55.2812 52.4612 55.5242C52.8346 55.8919 53.3373 56.0983 53.8612 56.0992C54.0299 56.099 54.1979 56.0775 54.3612 56.0352C54.4132 56.0222 59.6242 54.6652 65.2832 52.7982C73.2132 50.1822 78.0432 47.9212 80.0492 45.8862C81.2423 44.6825 82.185 43.2543 82.823 41.6841C83.461 40.114 83.7816 38.433 83.7662 36.7382C83.7602 35.0445 83.4179 33.3688 82.7593 31.8084C82.1006 30.248 81.1387 28.8339 79.9292 27.6482C77.5242 25.2666 74.2739 23.9344 70.8892 23.9432L70.9002 23.9422Z" fill="black"/>
<path fill-rule="evenodd" clip-rule="evenodd" d="M54.0782 55.1312C53.9984 55.1313 53.9188 55.1219 53.8412 55.1032C53.7892 55.0902 48.5912 53.8172 42.9362 52.0422C35.2362 49.6242 30.3672 47.4522 28.4742 45.5862C23.7982 40.9782 23.7382 33.4312 28.3392 28.7632C29.4418 27.638 30.7587 26.7451 32.212 26.1373C33.6654 25.5295 35.2258 25.219 36.8012 25.2242C39.9323 25.2174 42.9388 26.4506 45.1632 28.6542C47.0562 30.5192 49.2982 35.3542 51.8272 43.0202C53.6842 48.6492 55.0332 53.8282 55.0462 53.8802C55.0896 54.0476 55.0888 54.2234 55.0439 54.3905C54.9991 54.5575 54.9117 54.71 54.7902 54.8332C54.6972 54.9276 54.5863 55.0025 54.4641 55.0536C54.3419 55.1048 54.2107 55.1312 54.0782 55.1312V55.1312Z" fill="#FFBCDD"/>
<path d="M36.8012 26.2242C39.6689 26.2207 42.422 27.35 44.4612 29.3662C48.7502 33.5932 54.0782 54.1312 54.0782 54.1312C54.0782 54.1312 33.4652 49.1012 29.1782 44.8742C27.1192 42.8469 25.9494 40.085 25.926 37.1956C25.9025 34.3061 27.0274 31.5256 29.0532 29.4652C30.0647 28.4369 31.271 27.6206 32.6018 27.0641C33.9325 26.5076 35.3608 26.2221 36.8032 26.2242M36.8032 24.2242C35.1265 24.2218 33.4655 24.5479 31.9142 25.1842C30.3052 25.8421 28.8472 26.821 27.6292 28.0612C26.4378 29.2647 25.4973 30.6928 24.8622 32.2627C24.227 33.8325 23.9099 35.5128 23.9292 37.2062C23.9386 38.9009 24.2836 40.5769 24.9444 42.1375C25.6053 43.698 26.5687 45.1121 27.7792 46.2982C29.8142 48.3042 34.6792 50.4982 42.6432 52.9982C48.3292 54.7832 53.5592 56.0632 53.6112 56.0762C53.7663 56.1144 53.9255 56.1336 54.0852 56.1332C54.3507 56.1328 54.6134 56.0795 54.8581 55.9765C55.1027 55.8735 55.3244 55.7228 55.5102 55.5332C55.7529 55.2868 55.9276 54.9817 56.0171 54.6476C56.1067 54.3136 56.1081 53.962 56.0212 53.6272C56.0082 53.5752 54.6512 48.3642 52.7842 42.7052C50.1682 34.7752 47.9072 29.9452 45.8722 27.9392C43.4608 25.5511 40.202 24.2147 36.8082 24.2222L36.8032 24.2242Z" fill="black"/>
<path fill-rule="evenodd" clip-rule="evenodd" d="M71.1812 82.8003C68.0501 82.8071 65.0436 81.5739 62.8192 79.3703C60.9262 77.5043 58.6842 72.6703 56.1552 65.0033C54.2982 59.3743 52.9492 54.1953 52.9362 54.1433C52.8928 53.9758 52.8936 53.8 52.9385 53.633C52.9833 53.466 53.0707 53.3134 53.1922 53.1903C53.285 53.0955 53.3958 53.0202 53.5181 52.9687C53.6403 52.9172 53.7715 52.8905 53.9042 52.8903C53.9841 52.89 54.0637 52.8998 54.1412 52.9193C54.1932 52.9313 59.3912 54.2043 65.0462 55.9793C72.7462 58.3973 77.6152 60.5693 79.5082 62.4353C80.625 63.5297 81.5139 64.8345 82.1236 66.2744C82.7332 67.7142 83.0516 69.2606 83.0602 70.8243C83.0772 72.3863 82.784 73.9361 82.1974 75.3839C81.6108 76.8317 80.7427 78.1486 79.6432 79.2583C78.5408 80.3839 77.2241 81.2773 75.7707 81.8857C74.3173 82.494 72.7567 82.805 71.1812 82.8003Z" fill="#FFBCDD"/>
<path d="M53.9042 53.8873C53.9042 53.8873 74.5172 58.9173 78.8042 63.1443C80.8635 65.1716 82.0335 67.9337 82.0569 70.8234C82.0804 73.7131 80.9554 76.4938 78.9292 78.5543C77.9184 79.5832 76.7126 80.4003 75.3822 80.9577C74.0518 81.515 72.6236 81.8015 71.1812 81.8003C68.3136 81.8032 65.5607 80.674 63.5212 78.6583C59.2322 74.4303 53.9042 53.8923 53.9042 53.8923M53.9042 51.8923C53.6387 51.8927 53.3761 51.946 53.1314 52.049C52.8867 52.152 52.665 52.3027 52.4792 52.4923C52.2365 52.7387 52.0618 53.0438 51.9723 53.3778C51.8827 53.7119 51.8813 54.0635 51.9682 54.3983C51.9812 54.4503 53.3382 59.6613 55.2052 65.3203C57.8212 73.2503 60.0822 78.0803 62.1172 80.0863C64.5292 82.4732 67.7878 83.8084 71.1812 83.8003C72.8579 83.8026 74.5189 83.4764 76.0702 82.8403C77.6794 82.1824 79.1375 81.2031 80.3552 79.9623C81.5466 78.7588 82.4872 77.3307 83.1223 75.7608C83.7575 74.191 84.0746 72.5106 84.0552 70.8173C84.0458 69.1226 83.7007 67.4466 83.0398 65.8861C82.379 64.3255 81.4156 62.9114 80.2052 61.7253C78.1702 59.7193 73.3052 57.5253 65.3412 55.0253C59.6552 53.2413 54.4252 51.9603 54.3732 51.9473C54.218 51.9095 54.0589 51.8904 53.8992 51.8903L53.9042 51.8923Z" fill="black"/>
<path d="M53.8582 67.2222C61.0738 67.2222 66.9232 61.3728 66.9232 54.1572C66.9232 46.9416 61.0738 41.0922 53.8582 41.0922C46.6426 41.0922 40.7932 46.9416 40.7932 54.1572C40.7932 61.3728 46.6426 67.2222 53.8582 67.2222Z" fill="#F9D744"/>
<path d="M53.8582 67.2222C61.0738 67.2222 66.9232 61.3728 66.9232 54.1572C66.9232 46.9416 61.0738 41.0922 53.8582 41.0922C46.6426 41.0922 40.7932 46.9416 40.7932 54.1572C40.7932 61.3728 46.6426 67.2222 53.8582 67.2222Z" stroke="black" stroke-width="2" stroke-linecap="round" stroke-linejoin="round"/>
<path d="M50.9792 56.3672C50.9768 56.765 51.0529 57.1594 51.203 57.5278C51.3531 57.8962 51.5743 58.2314 51.8541 58.5143C52.1338 58.7972 52.4665 59.0222 52.8332 59.1764C53.1999 59.3306 53.5934 59.4111 53.9912 59.4132C54.389 59.4154 54.7834 59.3393 55.1518 59.189C55.5201 59.0388 55.8553 58.8174 56.138 58.5376C56.4208 58.2578 56.6457 57.925 56.7998 57.5583C56.9539 57.1915 57.0343 56.798 57.0362 56.4002" stroke="black" stroke-width="2" stroke-linecap="round" stroke-linejoin="round"/>
<path d="M57.2962 53.4982C58.218 53.4982 58.9652 52.7509 58.9652 51.8292C58.9652 50.9074 58.218 50.1602 57.2962 50.1602C56.3744 50.1602 55.6272 50.9074 55.6272 51.8292C55.6272 52.7509 56.3744 53.4982 57.2962 53.4982Z" fill="black"/>
<path d="M50.7202 53.4982C51.642 53.4982 52.3892 52.7509 52.3892 51.8292C52.3892 50.9074 51.642 50.1602 50.7202 50.1602C49.7985 50.1602 49.0512 50.9074 49.0512 51.8292C49.0512 52.7509 49.7985 53.4982 50.7202 53.4982Z" fill="black"/>
</svg>
