<svg width="108" height="108" viewBox="0 0 108 108" fill="none" xmlns="http://www.w3.org/2000/svg">
<path d="M68.4459 48.4454L77.3999 38.4253C78.0651 37.7209 78.9814 37.3072 79.9497 37.2743C80.9181 37.2413 81.8603 37.5917 82.5719 38.2494V38.2494C82.9514 38.6001 83.2527 39.0269 83.4563 39.5019C83.6599 39.9769 83.7611 40.4894 83.7533 41.0061C83.7456 41.5229 83.6291 42.0322 83.4114 42.5008C83.1937 42.9695 82.8797 43.3871 82.4899 43.7263L81.8419 44.2903C81.1629 44.8813 81.6949 45.9903 82.5799 45.8313L84.1099 45.5573C84.9941 45.3985 85.9054 45.5904 86.6503 46.0925C87.3953 46.5945 87.9153 47.3672 88.0999 48.2464V48.2464C88.2863 49.1354 88.1149 50.062 87.6228 50.8255C87.1307 51.5891 86.3575 52.1279 85.4709 52.3253L85.1169 52.4043C84.2359 52.6043 84.1779 53.8343 85.0379 54.1123L86.8459 54.6964C87.6087 54.9421 88.247 55.4732 88.6273 56.1785C89.0077 56.8839 89.1007 57.709 88.8869 58.4813V58.4813C88.6671 59.2758 88.1408 59.9504 87.4237 60.3568C86.7065 60.7632 85.8573 60.8681 85.0629 60.6483L84.8489 60.5893C84.6691 60.5393 84.4781 60.5473 84.3031 60.6122C84.1282 60.6771 83.9782 60.7956 83.8745 60.9508C83.7709 61.106 83.7189 61.29 83.7259 61.4765C83.733 61.663 83.7988 61.8425 83.9139 61.9893L84.2839 62.4623C84.6152 62.887 84.8413 63.384 84.9438 63.9127C85.0464 64.4414 85.0224 64.9869 84.8739 65.5046C84.7254 66.0222 84.4565 66.4975 84.0893 66.8914C83.7221 67.2854 83.2669 67.5869 82.7609 67.7714C78.7979 69.2154 69.5179 59.7474 65.9369 57.5214L68.4459 48.4454Z" fill="white" stroke="black" stroke-width="2" stroke-linecap="round" stroke-linejoin="round"/>
<path d="M38.5409 46.9574L28.4219 38.1154C27.6754 37.4982 26.7155 37.2004 25.7507 37.2867C24.7859 37.373 23.8941 37.8365 23.2689 38.5764V38.5764C22.9353 38.9712 22.6887 39.4318 22.545 39.9283C22.4014 40.4248 22.3639 40.946 22.4351 41.4579C22.5064 41.9699 22.6847 42.461 22.9584 42.8994C23.2322 43.3379 23.5952 43.7137 24.0239 44.0024L24.7369 44.4824C25.4829 44.9824 25.0919 46.1514 24.1939 46.1024L22.6409 46.0174C21.7438 45.9687 20.8631 46.2715 20.1856 46.8615C19.5081 47.4514 19.0871 48.2822 19.0119 49.1774C18.9365 50.0828 19.2208 50.9815 19.8033 51.6787C20.3858 52.3759 21.2195 52.8156 22.1239 52.9024L22.4839 52.9364C23.3839 53.0234 23.5919 54.2414 22.7729 54.6224L21.0499 55.4224C20.3235 55.7607 19.7558 56.3664 19.4653 57.1132C19.1748 57.86 19.184 58.6902 19.4909 59.4304C19.807 60.1914 20.4122 60.7959 21.1737 61.1109C21.9352 61.4259 22.7906 61.4257 23.5519 61.1104L23.7579 61.0244C23.9302 60.9527 24.1206 60.9373 24.3021 60.9802C24.4836 61.0231 24.647 61.1222 24.7689 61.2634C24.8908 61.4046 24.965 61.5806 24.981 61.7665C24.997 61.9523 24.9539 62.1385 24.8579 62.2984L24.5499 62.8134C24.2735 63.2756 24.1103 63.7966 24.0736 64.3339C24.0369 64.8712 24.1279 65.4096 24.339 65.905C24.5501 66.4005 24.8754 66.839 25.2883 67.1847C25.7013 67.5304 26.1901 67.7736 26.7149 67.8944V67.8944C30.8249 68.8394 38.8689 58.3014 42.1499 55.6514L38.5409 46.9574Z" fill="white" stroke="black" stroke-width="2" stroke-linecap="round" stroke-linejoin="round"/>
<path d="M53.9389 74.0803C54.5101 74.2784 55.1344 74.2574 55.6909 74.0213C78.5549 64.2853 78.8209 43.2543 70.6909 36.7613C64.3289 31.6803 56.741 33.1023 53.661 39.7063C50.144 33.3243 42.4779 32.4143 36.4709 37.9113C28.7999 44.9353 30.4729 65.9013 53.9389 74.0803Z" fill="#FFBCDD" stroke="black" stroke-width="2" stroke-linecap="round" stroke-linejoin="round"/>
<path d="M56.0569 68.0843C62.0419 65.5363 65.7099 61.8293 67.6319 58.0013" stroke="white" stroke-width="2" stroke-linecap="round" stroke-linejoin="round"/>
<path d="M43.6519 38.7573C42.4839 39.1373 41.3199 39.8163 40.2379 40.8073C38.5229 42.3763 37.5069 44.9863 37.4989 47.9703" stroke="white" stroke-width="2" stroke-linecap="round" stroke-linejoin="round"/>
<path d="M51.3219 52.5903C51.331 53.3996 51.6576 54.173 52.2314 54.7438C52.8053 55.3145 53.5804 55.637 54.3897 55.6417C55.199 55.6464 55.9778 55.333 56.5583 54.769C57.1388 54.205 57.4744 53.4355 57.4929 52.6263" stroke="black" stroke-width="2" stroke-linecap="round" stroke-linejoin="round"/>
<path d="M57.7569 49.6684C58.6958 49.6684 59.4569 48.9073 59.4569 47.9684C59.4569 47.0295 58.6958 46.2684 57.7569 46.2684C56.8181 46.2684 56.0569 47.0295 56.0569 47.9684C56.0569 48.9073 56.8181 49.6684 57.7569 49.6684Z" fill="black"/>
<path d="M51.0579 49.6684C51.9968 49.6684 52.7579 48.9073 52.7579 47.9684C52.7579 47.0295 51.9968 46.2684 51.0579 46.2684C50.119 46.2684 49.3579 47.0295 49.3579 47.9684C49.3579 48.9073 50.119 49.6684 51.0579 49.6684Z" fill="black"/>
</svg>
