<svg width="108" height="108" viewBox="0 0 108 108" fill="none" xmlns="http://www.w3.org/2000/svg">
<path d="M63.644 89.2723H43.965C42.4316 89.2724 40.9567 88.6837 39.8447 87.6279C38.7327 86.5721 38.0684 85.1297 37.989 83.5983L36.222 49.5443H71.384L69.616 83.5983C69.5366 85.129 68.8729 86.5708 67.7617 87.6265C66.6506 88.6822 65.1767 89.2713 63.644 89.2723V89.2723Z" fill="#DFC0AE" stroke="black" stroke-width="2" stroke-linecap="round" stroke-linejoin="round"/>
<path d="M63.474 86.1894C65.3164 86.1894 66.81 84.6958 66.81 82.8534C66.81 81.011 65.3164 79.5174 63.474 79.5174C61.6316 79.5174 60.138 81.011 60.138 82.8534C60.138 84.6958 61.6316 86.1894 63.474 86.1894Z" fill="#AF5A00" stroke="black" stroke-width="2" stroke-linecap="round" stroke-linejoin="round"/>
<path d="M48.741 78.0533C50.5834 78.0533 52.077 76.5598 52.077 74.7173C52.077 72.8749 50.5834 71.3813 48.741 71.3813C46.8985 71.3813 45.405 72.8749 45.405 74.7173C45.405 76.5598 46.8985 78.0533 48.741 78.0533Z" fill="#AF5A00" stroke="black" stroke-width="2" stroke-linecap="round" stroke-linejoin="round"/>
<path d="M53.804 86.1894C55.6464 86.1894 57.14 84.6958 57.14 82.8534C57.14 81.011 55.6464 79.5174 53.804 79.5174C51.9615 79.5174 50.468 81.011 50.468 82.8534C50.468 84.6958 51.9615 86.1894 53.804 86.1894Z" fill="#AF5A00" stroke="black" stroke-width="2" stroke-linecap="round" stroke-linejoin="round"/>
<path d="M44.529 86.1894C46.3714 86.1894 47.865 84.6958 47.865 82.8534C47.865 81.011 46.3714 79.5174 44.529 79.5174C42.6865 79.5174 41.193 81.011 41.193 82.8534C41.193 84.6958 42.6865 86.1894 44.529 86.1894Z" fill="#AF5A00" stroke="black" stroke-width="2" stroke-linecap="round" stroke-linejoin="round"/>
<path d="M46.796 19.3285L46.7951 19.3287C45.1868 19.6758 44.1645 21.2609 44.5116 22.8691L56.8322 79.9506C57.1794 81.5589 58.7645 82.5812 60.3727 82.234L60.3737 82.2338C61.9819 81.8867 63.0042 80.3016 62.6571 78.6934L50.3365 21.6119C49.9894 20.0037 48.4042 18.9814 46.796 19.3285Z" fill="#2D76FF" stroke="black" stroke-width="2" stroke-linecap="round" stroke-linejoin="round"/>
<path d="M72.432 44.8464H35.535C34.3006 44.8464 33.3 45.8468 33.3 47.0809C33.3 48.315 34.3006 49.3154 35.535 49.3154H72.432C73.6663 49.3154 74.667 48.315 74.667 47.0809C74.667 45.8468 73.6663 44.8464 72.432 44.8464Z" stroke="black" stroke-width="2" stroke-linecap="round" stroke-linejoin="round"/>
<path d="M35.877 44.6723C35.877 39.9177 37.7657 35.3578 41.1277 31.9957C44.4896 28.6335 49.0494 26.7446 53.804 26.7443C58.5587 26.7446 63.1185 28.6335 66.4804 31.9957C69.8424 35.3578 71.731 39.9177 71.731 44.6723H35.877Z" stroke="black" stroke-width="2" stroke-linecap="round" stroke-linejoin="round"/>
<path d="M62.2419 73.2604C64.0844 73.2604 65.5779 71.7668 65.5779 69.9244C65.5779 68.082 64.0844 66.5884 62.2419 66.5884C60.3995 66.5884 58.9059 68.082 58.9059 69.9244C58.9059 71.7668 60.3995 73.2604 62.2419 73.2604Z" fill="#AF5A00" stroke="black" stroke-width="2" stroke-linecap="round" stroke-linejoin="round"/>
<path d="M43.6 69.4084C45.4424 69.4084 46.936 67.9148 46.936 66.0724C46.936 64.23 45.4424 62.7364 43.6 62.7364C41.7576 62.7364 40.264 64.23 40.264 66.0724C40.264 67.9148 41.7576 69.4084 43.6 69.4084Z" fill="#AF5A00" stroke="black" stroke-width="2" stroke-linecap="round" stroke-linejoin="round"/>
</svg>
