<svg width="108" height="108" viewBox="0 0 108 108" fill="none" xmlns="http://www.w3.org/2000/svg">
<path d="M73.7931 32.926L73.0841 85.837C73.0558 86.6855 72.6988 87.4899 72.0884 88.0801C71.478 88.6703 70.6622 89.0002 69.8131 89H38.2771C37.428 89.0002 36.6121 88.6703 36.0018 88.0801C35.3914 87.4899 35.0344 86.6855 35.0061 85.837L34.2971 32.926H73.7931Z" fill="white" stroke="black" stroke-width="2" stroke-linecap="round" stroke-linejoin="round"/>
<path d="M71.9511 75.622H36.1391C34.7041 75.622 33.5231 74.322 33.4531 72.676L32.3451 46.386C32.2701 44.62 33.4941 43.141 35.0301 43.141H73.0601C74.5961 43.141 75.8201 44.62 75.7451 46.386L74.6371 72.676C74.5671 74.326 73.3861 75.622 71.9511 75.622Z" fill="#AF5A00" stroke="black" stroke-width="2" stroke-linecap="round" stroke-linejoin="round"/>
<path d="M76.009 25.963H32.081C30.1585 25.963 28.6 27.5215 28.6 29.444V29.445C28.6 31.3675 30.1585 32.926 32.081 32.926H76.009C77.9315 32.926 79.49 31.3675 79.49 29.445V29.444C79.49 27.5215 77.9315 25.963 76.009 25.963Z" fill="white" stroke="black" stroke-width="2" stroke-linecap="round" stroke-linejoin="round"/>
<path d="M39.876 19H68.213C70.0597 19 71.8308 19.7336 73.1366 21.0394C74.4424 22.3452 75.176 24.1163 75.176 25.963H32.913C32.913 24.1163 33.6466 22.3452 34.9524 21.0394C36.2583 19.7336 38.0293 19 39.876 19V19Z" fill="white" stroke="black" stroke-width="2" stroke-linecap="round" stroke-linejoin="round"/>
<path d="M54.0451 70.819C60.3621 70.819 65.4831 65.6981 65.4831 59.381C65.4831 53.064 60.3621 47.943 54.0451 47.943C47.728 47.943 42.6071 53.064 42.6071 59.381C42.6071 65.6981 47.728 70.819 54.0451 70.819Z" fill="#017A71" stroke="black" stroke-width="2" stroke-linecap="round" stroke-linejoin="round"/>
</svg>
