<svg width="108" height="108" viewBox="0 0 108 108" fill="none" xmlns="http://www.w3.org/2000/svg">
<path d="M54 52.61V88.999" stroke="black" stroke-width="2" stroke-linecap="round" stroke-linejoin="round"/>
<path d="M64.841 89H43.159" stroke="black" stroke-width="2" stroke-linecap="round" stroke-linejoin="round"/>
<path d="M20.1 28.679L50.131 58.654C51.1586 59.68 52.5514 60.2562 54.0035 60.2562C55.4556 60.2562 56.8484 59.68 57.876 58.654L87.906 28.679H20.1Z" fill="#E4E5E6" stroke="black" stroke-width="2" stroke-linecap="round" stroke-linejoin="round"/>
<path d="M80.54 36.028L57.873 58.654C56.8454 59.68 55.4526 60.2562 54.0005 60.2562C52.5484 60.2562 51.1556 59.68 50.128 58.654L26.1 34.67C26.1 34.67 39.505 41.55 53.321 36.034C70.755 29.074 80.54 36.028 80.54 36.028Z" fill="#F8AE05" stroke="black" stroke-width="2" stroke-linecap="round" stroke-linejoin="round"/>
<path d="M84.455 19L63.313 39.778" stroke="black" stroke-width="2" stroke-linecap="round" stroke-linejoin="round"/>
<path d="M64.3869 45.0419C65.4293 42.6695 64.3511 39.9012 61.9787 38.8588C59.6063 37.8164 56.838 38.8946 55.7956 41.2671C54.7532 43.6395 55.8314 46.4077 58.2038 47.4501C60.5762 48.4925 63.3445 47.4144 64.3869 45.0419Z" fill="#017A71" stroke="black" stroke-width="2" stroke-linecap="round" stroke-linejoin="round"/>
<path d="M33.741 32.939L45.005 44.467" stroke="white" stroke-width="2" stroke-linecap="round" stroke-linejoin="round"/>
</svg>
