<svg width="108" height="108" viewBox="0 0 108 108" fill="none" xmlns="http://www.w3.org/2000/svg">
<path d="M39.519 20H68.889C70.0854 20 71.2328 20.4753 72.0788 21.3212C72.9247 22.1672 73.4 23.3146 73.4 24.511V37.686C73.4 42.7782 71.3771 47.6618 67.7764 51.2625C64.1757 54.8632 59.2922 56.886 54.2 56.886C49.1078 56.886 44.2242 54.8632 40.6235 51.2625C37.0228 47.6618 35 42.7782 35 37.686V24.511C35 23.9179 35.1169 23.3307 35.3441 22.7829C35.5713 22.2351 35.9043 21.7374 36.3241 21.3184C36.7438 20.8994 37.242 20.5673 37.7903 20.3411C38.3385 20.1149 38.9259 19.999 39.519 20V20Z" stroke="black" stroke-width="2" stroke-linecap="round" stroke-linejoin="round"/>
<path d="M54.2029 56.8841C43.6029 56.8841 35.0029 48.2891 35.0029 37.6841V30.5241C35.0029 30.5241 42.2339 35.6361 54.6559 30.5241C67.0779 25.4121 73.3989 30.5241 73.3989 30.5241V37.6871C73.4029 48.2891 64.8029 56.8841 54.2029 56.8841Z" fill="#F16932" stroke="black" stroke-width="2" stroke-linecap="round" stroke-linejoin="round"/>
<path d="M43.9229 87.4481H64.4819" stroke="black" stroke-width="2" stroke-linecap="round" stroke-linejoin="round"/>
<path d="M54.2029 56.884V87.448" stroke="black" stroke-width="2" stroke-linecap="round" stroke-linejoin="round"/>
</svg>
