<svg width="108" height="108" viewBox="0 0 108 108" fill="none" xmlns="http://www.w3.org/2000/svg">
<path d="M60.925 19L59.2279 29.058" stroke="black" stroke-width="2" stroke-linecap="round" stroke-linejoin="round"/>
<path d="M65.726 31.659L73.314 26.262" stroke="black" stroke-width="2" stroke-linecap="round" stroke-linejoin="round"/>
<path d="M51.908 29.328L46.5109 21.741" stroke="black" stroke-width="2" stroke-linecap="round" stroke-linejoin="round"/>
<path d="M74.7695 70.7753C72.8533 71.2751 70.8169 70.9933 69.1085 69.9918C67.4 68.9902 66.1594 67.351 65.6596 65.4348L60.1619 44.359C59.9538 43.5612 60.0711 42.7133 60.4881 42.002C60.9051 41.2906 61.5876 40.7741 62.3855 40.566L70.8193 38.366C71.2143 38.2629 71.6258 38.2387 72.0302 38.2947C72.4347 38.3507 72.8241 38.4857 73.1763 38.6922C73.5286 38.8987 73.8367 39.1725 74.083 39.4981C74.3294 39.8236 74.5093 40.1945 74.6123 40.5896L80.11 61.6653C80.6099 63.5816 80.328 65.6179 79.3265 67.3264C78.325 69.0348 76.6858 70.2754 74.7695 70.7753V70.7753Z" fill="#E4E5E6" stroke="black" stroke-width="2" stroke-linecap="round" stroke-linejoin="round"/>
<path d="M74.7693 70.7759C73.8205 71.0239 72.8321 71.0826 71.8607 70.9486C70.8892 70.8147 69.9536 70.4907 69.1074 69.9951C68.2611 69.4996 67.5208 68.8422 66.9286 68.0605C66.3365 67.2788 65.9041 66.3881 65.6562 65.4393L61.682 50.2041L76.1315 46.4349L80.1057 61.6701C80.6044 63.5852 80.3225 65.6199 79.3219 67.3273C78.3213 69.0347 76.6838 70.2751 74.7693 70.7759V70.7759Z" fill="#F16932" stroke="black" stroke-width="2" stroke-linecap="round" stroke-linejoin="round"/>
<path d="M74.767 70.772L79.164 87.63" stroke="black" stroke-width="2" stroke-linecap="round" stroke-linejoin="round"/>
<path d="M84.417 86.259L73.9109 89" stroke="black" stroke-width="2" stroke-linecap="round" stroke-linejoin="round"/>
<path d="M67.908 58.796C69.0695 58.796 70.011 57.8545 70.011 56.693C70.011 55.5315 69.0695 54.59 67.908 54.59C66.7466 54.59 65.805 55.5315 65.805 56.693C65.805 57.8545 66.7466 58.796 67.908 58.796Z" fill="white"/>
<path d="M72.947 64.535C74.1084 64.535 75.05 63.5935 75.05 62.432C75.05 61.2706 74.1084 60.329 72.947 60.329C71.7855 60.329 70.8439 61.2706 70.8439 62.432C70.8439 63.5935 71.7855 64.535 72.947 64.535Z" fill="white"/>
<path d="M35.2114 64.6722C33.378 63.9237 31.917 62.4774 31.1499 60.6516C30.3828 58.8259 30.3724 56.7702 31.121 54.9367L39.3543 34.7718C39.6659 34.0084 40.2681 33.4001 41.0283 33.0807C41.7885 32.7613 42.6444 32.757 43.4078 33.0686L51.4771 36.3633C52.2405 36.675 52.8488 37.2772 53.1682 38.0374C53.4876 38.7975 53.4919 39.6535 53.1802 40.4168L44.9466 60.5827C44.1978 62.4159 42.7516 63.8766 40.9259 64.6435C39.1002 65.4104 37.0447 65.4208 35.2114 64.6722V64.6722Z" fill="#E4E5E6" stroke="black" stroke-width="2" stroke-linecap="round" stroke-linejoin="round"/>
<path d="M35.2106 64.6728C33.3772 63.9242 31.9162 62.4779 31.1491 60.6522C30.382 58.8264 30.3716 56.7707 31.1202 54.9372L37.0718 40.3604L50.8969 46.0052L44.9448 60.5829C44.1961 62.4159 42.75 63.8765 40.9246 64.6435C39.0992 65.4104 37.0438 65.421 35.2106 64.6728V64.6728Z" fill="#FFBCDD" stroke="black" stroke-width="2" stroke-linecap="round" stroke-linejoin="round"/>
<path d="M35.211 64.67L28.626 80.799" stroke="black" stroke-width="2" stroke-linecap="round" stroke-linejoin="round"/>
<path d="M33.652 82.851L23.6 78.747" stroke="black" stroke-width="2" stroke-linecap="round" stroke-linejoin="round"/>
<path d="M38.161 51.393C39.3224 51.393 40.264 50.4515 40.264 49.29C40.264 48.1286 39.3224 47.187 38.161 47.187C36.9995 47.187 36.058 48.1286 36.058 49.29C36.058 50.4515 36.9995 51.393 38.161 51.393Z" fill="white"/>
<path d="M38.754 59.007C39.9155 59.007 40.857 58.0654 40.857 56.904C40.857 55.7425 39.9155 54.801 38.754 54.801C37.5926 54.801 36.651 55.7425 36.651 56.904C36.651 58.0654 37.5926 59.007 38.754 59.007Z" fill="white"/>
</svg>
