<svg width="108" height="108" viewBox="0 0 108 108" fill="none" xmlns="http://www.w3.org/2000/svg">
<path d="M70.2277 16.6298L68.7318 16.0157C68.038 15.7309 67.2447 16.0624 66.9598 16.7563L46.0017 67.8066C45.7169 68.5004 46.0484 69.2938 46.7422 69.5786L48.2381 70.1927C48.9319 70.4776 49.7253 70.146 50.0101 69.4522L70.9682 18.4018C71.253 17.708 70.9215 16.9147 70.2277 16.6298Z" fill="#2D76FF"/>
<path d="M70.2277 16.6298L68.7318 16.0157C68.038 15.7309 67.2447 16.0624 66.9598 16.7563L46.0017 67.8066C45.7169 68.5004 46.0484 69.2938 46.7422 69.5786L48.2381 70.1927C48.9319 70.4776 49.7253 70.146 50.0101 69.4522L70.9682 18.4018C71.253 17.708 70.9215 16.9147 70.2277 16.6298Z" stroke="black" stroke-width="2" stroke-linecap="round" stroke-linejoin="round"/>
<path d="M63.4451 85.9263H41.8771C40.1001 85.9263 38.6231 84.6073 38.4871 82.8983L34.7871 42.2333H70.5331L66.8331 82.8983C66.6981 84.6073 65.2221 85.9263 63.4451 85.9263Z" fill="#AF5A00"/>
<path d="M63.4451 85.9263H41.8771C40.1001 85.9263 38.6231 84.6073 38.4871 82.8983L34.7871 42.2333H70.5331L66.8331 82.8983C66.6981 84.6073 65.2221 85.9263 63.4451 85.9263Z" stroke="black" stroke-width="2" stroke-linecap="round" stroke-linejoin="round"/>
<path d="M38.858 75.9523H67.421" stroke="black" stroke-width="2" stroke-linecap="round" stroke-linejoin="round"/>
<path d="M70.5612 42.2334H34.7511L34.3362 35.7764H71.0741L70.5612 42.2334Z" stroke="black" stroke-width="2" stroke-linecap="round" stroke-linejoin="round"/>
<path d="M71.657 30.7004H33.738C32.3364 30.7004 31.2 31.8367 31.2 33.2384V33.2394C31.2 34.6411 32.3364 35.7774 33.738 35.7774H71.657C73.0587 35.7774 74.195 34.6411 74.195 33.2394V33.2384C74.195 31.8367 73.0587 30.7004 71.657 30.7004Z" stroke="black" stroke-width="2" stroke-linecap="round" stroke-linejoin="round"/>
</svg>
