<svg width="108" height="108" viewBox="0 0 108 108" fill="none" xmlns="http://www.w3.org/2000/svg">
<path d="M57.509 65.309V85.491C57.5064 86.4208 57.1358 87.3118 56.4783 87.9693C55.8208 88.6268 54.9298 88.9974 54 89C53.0702 88.9974 52.1792 88.6268 51.5217 87.9693C50.8642 87.3118 50.4936 86.4208 50.491 85.491V65.309" fill="#F9D744"/>
<path d="M57.509 65.309V85.491C57.5064 86.4208 57.1358 87.3118 56.4783 87.9693C55.8208 88.6268 54.9298 88.9974 54 89C53.0702 88.9974 52.1792 88.6268 51.5217 87.9693C50.8642 87.3118 50.4936 86.4208 50.491 85.491V65.309" stroke="black" stroke-width="2" stroke-linecap="round" stroke-linejoin="round"/>
<path d="M36.8 62.4V36.2C36.8 26.741 44.539 19 54 19C63.459 19 71.2 26.739 71.2 36.2V62.4C71.2 64.27 70.4571 66.0635 69.1348 67.3858C67.8125 68.7081 66.019 69.451 64.149 69.451H43.853C42.9269 69.4513 42.0098 69.2691 41.1541 68.9148C40.2984 68.5606 39.5208 68.0413 38.8659 67.3865C38.2109 66.7317 37.6914 65.9544 37.3369 65.0988C36.9824 64.2432 36.8 63.3261 36.8 62.4Z" fill="#FFBCDD" stroke="black" stroke-width="2" stroke-linecap="round" stroke-linejoin="round"/>
<path d="M55.4 25.712C58.2145 25.7131 60.9133 26.8319 62.903 28.8225C64.8927 30.8132 66.0103 33.5125 66.01 36.327V36.327" stroke="white" stroke-width="2" stroke-linecap="round" stroke-linejoin="round"/>
</svg>
