<svg width="108" height="108" viewBox="0 0 108 108" fill="none" xmlns="http://www.w3.org/2000/svg">
<path d="M36.6701 49.456L52.6701 88.086C53.1301 89.305 54.8541 89.305 55.3141 88.086L70.2601 49.456H36.6701Z" fill="#F9D744"/>
<path d="M36.6701 49.456L52.6701 88.086C53.1301 89.305 54.8541 89.305 55.3141 88.086L70.2601 49.456H36.6701Z" stroke="black" stroke-width="2" stroke-linecap="round" stroke-linejoin="round"/>
<path d="M74.688 44.734V39.7C74.688 28.317 65.375 19 53.988 19C42.605 19 33.288 28.313 33.288 39.7V44.741C32.3762 45.3563 31.6027 46.1549 31.0167 47.0858C30.4307 48.0167 30.0452 49.0595 29.8847 50.1477C29.7242 51.236 29.7923 52.3457 30.0846 53.4061C30.3768 54.4666 30.8869 55.4544 31.5823 56.3068C32.2776 57.1591 33.143 57.8572 34.1231 58.3564C35.1033 58.8557 36.1768 59.1451 37.275 59.2064C38.3733 59.2677 39.4723 59.0994 40.5019 58.7123C41.5315 58.3252 42.4692 57.7277 43.255 56.958C44.7337 58.4059 46.7209 59.2169 48.7905 59.2169C50.8601 59.2169 52.8473 58.4059 54.326 56.958C55.7475 58.3503 57.6414 59.1557 59.6303 59.2137C61.6192 59.2717 63.5568 58.578 65.057 57.271C65.8721 57.9789 66.8234 58.5126 67.8524 58.8392C68.8815 59.1658 69.9664 59.2784 71.0406 59.1702C72.1147 59.062 73.1554 58.7351 74.0985 58.2098C75.0417 57.6844 75.8674 56.9717 76.5249 56.1154C77.1824 55.2591 77.6577 54.2773 77.9217 53.2305C78.1857 52.1836 78.2327 51.0939 78.0599 50.0282C77.8871 48.9625 77.4981 47.9434 76.9169 47.0337C76.3356 46.1239 75.5744 45.3427 74.68 44.738L74.688 44.734Z" fill="#AF5A00" stroke="black" stroke-width="2" stroke-linecap="round" stroke-linejoin="round"/>
<path d="M57.1883 25.712C60.0036 25.712 62.7035 26.8304 64.6942 28.8211C66.6849 30.8118 67.8033 33.5117 67.8033 36.327V36.327" stroke="white" stroke-width="2" stroke-linecap="round" stroke-linejoin="round"/>
</svg>
