<svg width="108" height="108" viewBox="0 0 108 108" fill="none" xmlns="http://www.w3.org/2000/svg">
<path d="M54 19C34.67 19 19 34.67 19 54C19 73.33 34.67 89 54 89C73.33 89 89 73.33 89 54C89 34.67 73.33 19 54 19ZM54 61.234C52.5693 61.234 51.1706 60.8097 49.981 60.0149C48.7914 59.22 47.8642 58.0902 47.3167 56.7683C46.7691 55.4465 46.6259 53.992 46.905 52.5887C47.1841 51.1855 47.8731 49.8965 48.8848 48.8848C49.8965 47.8731 51.1855 47.1841 52.5887 46.905C53.992 46.6259 55.4465 46.7691 56.7683 47.3167C58.0902 47.8642 59.22 48.7914 60.0149 49.981C60.8097 51.1706 61.234 52.5693 61.234 54C61.234 55.9186 60.4718 57.7586 59.1152 59.1152C57.7586 60.4718 55.9186 61.234 54 61.234V61.234Z" fill="#F8AE05" stroke="black" stroke-width="2" stroke-linecap="round" stroke-linejoin="round"/>
<path d="M82.5479 47.913L73.5479 32.32C72.479 30.4686 70.9414 28.9313 69.0897 27.8628C67.2381 26.7942 65.1377 26.2321 62.9999 26.233H44.9999C42.8627 26.2328 40.7632 26.7953 38.9123 27.8638C37.0615 28.9323 35.5245 30.4692 34.4559 32.32L25.4559 47.913C24.3872 49.7636 23.8246 51.863 23.8246 54C23.8246 56.137 24.3872 58.2364 25.4559 60.087L34.4559 75.68C35.5245 77.5308 37.0615 79.0677 38.9123 80.1362C40.7632 81.2048 42.8627 81.7672 44.9999 81.767H62.9999C65.1371 81.7672 67.2366 81.2048 69.0875 80.1362C70.9384 79.0677 72.4753 77.5308 73.5439 75.68L82.5439 60.087C83.6132 58.2367 84.1765 56.1376 84.1772 54.0005C84.1779 51.8635 83.616 49.764 82.5479 47.913V47.913ZM60.6319 55.713C60.2939 57.0248 59.5746 58.2069 58.5647 59.1099C57.5549 60.0128 56.3 60.596 54.9588 60.7857C53.6175 60.9755 52.25 60.7632 51.0294 60.1758C49.8088 59.5883 48.7898 58.6521 48.1012 57.4855C47.4127 56.3189 47.0855 54.9743 47.1612 53.6218C47.2368 52.2693 47.7118 50.9696 48.5261 49.887C49.3405 48.8045 50.4575 47.9877 51.7361 47.5401C53.0146 47.0924 54.3971 47.0339 55.7089 47.372C57.4669 47.8254 58.9729 48.9582 59.8961 50.5215C60.8192 52.0848 61.0839 53.9507 60.6319 55.709V55.713Z" fill="#FFBCDD" stroke="black" stroke-width="2" stroke-linecap="round" stroke-linejoin="round"/>
<path d="M65.334 48.635L67.795 50.382" stroke="white" stroke-width="2" stroke-linecap="round" stroke-linejoin="round"/>
<path d="M30.8942 61.106L33.3551 62.852" stroke="white" stroke-width="2" stroke-linecap="round" stroke-linejoin="round"/>
<path d="M73.5439 67.288L71.2719 69.274" stroke="white" stroke-width="2" stroke-linecap="round" stroke-linejoin="round"/>
<path d="M39.6969 68.218L42.3999 66.876" stroke="white" stroke-width="2" stroke-linecap="round" stroke-linejoin="round"/>
<path d="M78.241 57.504L75.241 57.182" stroke="white" stroke-width="2" stroke-linecap="round" stroke-linejoin="round"/>
<path d="M67.683 60.399L67.625 57.381" stroke="white" stroke-width="2" stroke-linecap="round" stroke-linejoin="round"/>
<path d="M76.329 47.001L74.057 48.986" stroke="white" stroke-width="2" stroke-linecap="round" stroke-linejoin="round"/>
<path d="M32.03 51.438L29.758 53.423" stroke="white" stroke-width="2" stroke-linecap="round" stroke-linejoin="round"/>
<path d="M41.205 57.42L38.1891 57.343" stroke="white" stroke-width="2" stroke-linecap="round" stroke-linejoin="round"/>
<path d="M51.1941 67.288L49.8691 64.577" stroke="white" stroke-width="2" stroke-linecap="round" stroke-linejoin="round"/>
<path d="M61.62 65.19L60.131 67.815" stroke="white" stroke-width="2" stroke-linecap="round" stroke-linejoin="round"/>
<path d="M62.1861 76.329L59.9811 74.269" stroke="white" stroke-width="2" stroke-linecap="round" stroke-linejoin="round"/>
<path d="M47.207 76.765L48.6271 74.102" stroke="white" stroke-width="2" stroke-linecap="round" stroke-linejoin="round"/>
<path d="M35.4691 40.496L37.7411 38.511" stroke="white" stroke-width="2" stroke-linecap="round" stroke-linejoin="round"/>
<path d="M69.316 39.566L66.6141 40.909" stroke="white" stroke-width="2" stroke-linecap="round" stroke-linejoin="round"/>
<path d="M39.9789 46.485L40.0369 49.502" stroke="white" stroke-width="2" stroke-linecap="round" stroke-linejoin="round"/>
<path d="M57.8192 40.496L59.1442 43.208" stroke="white" stroke-width="2" stroke-linecap="round" stroke-linejoin="round"/>
<path d="M47.3942 42.594L48.8822 39.969" stroke="white" stroke-width="2" stroke-linecap="round" stroke-linejoin="round"/>
<path d="M46.827 31.455L49.0319 33.515" stroke="white" stroke-width="2" stroke-linecap="round" stroke-linejoin="round"/>
<path d="M61.8059 31.019L60.3859 33.682" stroke="white" stroke-width="2" stroke-linecap="round" stroke-linejoin="round"/>
</svg>
