<svg width="108" height="108" viewBox="0 0 108 108" fill="none" xmlns="http://www.w3.org/2000/svg">
<path d="M38.9451 84.6197C43.4379 87.4807 48.6537 89.0005 53.9801 89.0005C59.3065 89.0005 64.5224 87.4807 69.0151 84.6197C97.6051 66.3797 97.4451 35.7567 84.8921 25.0197C74.4971 16.1297 61.8441 17.3347 55.3341 26.9947C55.1838 27.2152 54.9818 27.3956 54.7458 27.5203C54.5098 27.645 54.247 27.7101 53.9801 27.7101C53.7133 27.7101 53.4504 27.645 53.2145 27.5203C52.9785 27.3956 52.7765 27.2152 52.6261 26.9947C46.1161 17.3347 33.4631 16.1297 23.0681 25.0197C10.5151 35.7567 10.3551 66.3797 38.9451 84.6197Z" fill="#F16932" stroke="black" stroke-width="2" stroke-linecap="round" stroke-linejoin="round"/>
<path d="M81.1111 59.0547C81.1111 59.0547 77.3601 71.0007 64.5801 77.1147" stroke="white" stroke-width="4" stroke-linecap="round" stroke-linejoin="round"/>
<path d="M84.8881 51.9517C86.6472 51.9517 88.0731 50.5257 88.0731 48.7667C88.0731 47.0076 86.6472 45.5817 84.8881 45.5817C83.1291 45.5817 81.7031 47.0076 81.7031 48.7667C81.7031 50.5257 83.1291 51.9517 84.8881 51.9517Z" fill="white"/>
<path d="M25.9801 31.8537C25.9801 31.8537 21.0891 41.3397 23.5331 50.0727" stroke="white" stroke-width="4" stroke-linecap="round" stroke-linejoin="round"/>
</svg>
