<svg width="108" height="108" viewBox="0 0 108 108" fill="none" xmlns="http://www.w3.org/2000/svg">
<path d="M19 36.5C19 55.83 34.67 71.5 54 71.5C73.33 71.5 89 55.83 89 36.5H19Z" fill="#017A71" stroke="black" stroke-width="2" stroke-linecap="round" stroke-linejoin="round"/>
<path d="M24.209 36.5C24.209 52.953 37.547 66.29 54 66.29C70.453 66.29 83.791 52.953 83.791 36.5H24.209Z" fill="#FFBCDD" stroke="black" stroke-width="2" stroke-linecap="round" stroke-linejoin="round"/>
<path d="M38.1859 55.072L40.3349 53.195" stroke="black" stroke-width="2" stroke-linecap="round" stroke-linejoin="round"/>
<path d="M50.7819 51.006L48.1859 49.823" stroke="black" stroke-width="2" stroke-linecap="round" stroke-linejoin="round"/>
<path d="M45.8942 41.65L47.1471 44.213" stroke="black" stroke-width="2" stroke-linecap="round" stroke-linejoin="round"/>
<path d="M71.3379 43.352L73.6119 45.074" stroke="black" stroke-width="2" stroke-linecap="round" stroke-linejoin="round"/>
<path d="M34.3871 42.774L36.472 44.722" stroke="black" stroke-width="2" stroke-linecap="round" stroke-linejoin="round"/>
<path d="M61.3459 40.415L60.0039 42.932" stroke="black" stroke-width="2" stroke-linecap="round" stroke-linejoin="round"/>
<path d="M55.274 58.13L52.6901 59.337" stroke="black" stroke-width="2" stroke-linecap="round" stroke-linejoin="round"/>
<path d="M60.675 49.811L58.09 51.018" stroke="black" stroke-width="2" stroke-linecap="round" stroke-linejoin="round"/>
<path d="M68.342 51.825L69.137 54.565" stroke="black" stroke-width="2" stroke-linecap="round" stroke-linejoin="round"/>
</svg>
