<svg width="108" height="108" viewBox="0 0 108 108" fill="none" xmlns="http://www.w3.org/2000/svg">
<path d="M54 19C34.67 19 19 34.67 19 54C19 73.33 34.67 89 54 89C73.33 89 89 73.33 89 54C89 34.67 73.33 19 54 19ZM54 61.234C52.0814 61.234 50.2414 60.4718 48.8848 59.1152C47.5281 57.7586 46.766 55.9186 46.766 54C46.766 52.0814 47.5281 50.2414 48.8848 48.8848C50.2414 47.5282 52.0814 46.766 54 46.766C55.9186 46.766 57.7586 47.5282 59.1152 48.8848C60.4719 50.2414 61.234 52.0814 61.234 54C61.234 55.9186 60.4719 57.7586 59.1152 59.1152C57.7586 60.4718 55.9186 61.234 54 61.234V61.234Z" fill="#F8AE05" stroke="black" stroke-width="2" stroke-linecap="round" stroke-linejoin="round"/>
<path d="M82.548 47.913L73.548 32.32C72.4791 30.4686 70.9415 28.9313 69.0898 27.8627C67.2382 26.7942 65.1378 26.2321 63 26.233H45C42.8628 26.2328 40.7633 26.7952 38.9125 27.8637C37.0616 28.9322 35.5246 30.4692 34.456 32.32L25.456 47.913C24.3873 49.7636 23.8247 51.863 23.8247 54C23.8247 56.137 24.3873 58.2364 25.456 60.087L34.456 75.68C35.5246 77.5308 37.0616 79.0677 38.9125 80.1362C40.7633 81.2048 42.8628 81.7672 45 81.767H63C65.1372 81.7672 67.2367 81.2048 69.0875 80.1362C70.9384 79.0677 72.4754 77.5308 73.544 75.68L82.544 60.087C83.6133 58.2367 84.1766 56.1376 84.1773 54.0005C84.178 51.8635 83.6161 49.764 82.548 47.913V47.913ZM60.632 55.713C60.4075 56.584 60.0137 57.4023 59.473 58.1211C58.9323 58.8399 58.2553 59.4451 57.4807 59.9023C56.706 60.3594 55.8489 60.6595 54.9583 60.7854C54.0677 60.9113 53.161 60.8605 52.29 60.636C50.5313 60.1825 49.0248 59.0489 48.1018 57.4847C47.1787 55.9205 46.9148 54.0538 47.368 52.295C47.8214 50.5361 48.9548 49.0294 50.519 48.1061C52.0832 47.1829 53.9501 46.9188 55.709 47.372C57.467 47.8254 58.973 48.9582 59.8961 50.5215C60.8193 52.0848 61.0839 53.9507 60.632 55.709V55.713Z" fill="#FFBCDD" stroke="black" stroke-width="2" stroke-linecap="round" stroke-linejoin="round"/>
<path d="M63.933 52.336L68.282 47.987C68.5728 47.696 68.9181 47.4651 69.2982 47.3075C69.6782 47.15 70.0856 47.0689 70.4971 47.0689C70.9085 47.0689 71.3158 47.15 71.6959 47.3075C72.076 47.4651 72.4213 47.696 72.712 47.987L72.738 48.013C73.0291 48.3038 73.26 48.6491 73.4175 49.0291C73.5751 49.4092 73.6561 49.8166 73.6561 50.228C73.6561 50.6394 73.5751 51.0468 73.4175 51.4269C73.26 51.8069 73.0291 52.1522 72.738 52.443L58.031 67.15L55.059 70.122C54.4731 70.713 54.1459 71.5125 54.1493 72.3447C54.1526 73.177 54.4863 73.9738 55.077 74.56L55.0911 74.573C55.3818 74.8641 55.7271 75.095 56.1072 75.2525C56.4872 75.41 56.8946 75.4911 57.306 75.4911C57.7175 75.4911 58.1249 75.41 58.5049 75.2525C58.885 75.095 59.2303 74.8641 59.521 74.573L76.79 57.3" stroke="white" stroke-width="2" stroke-linecap="round" stroke-linejoin="round"/>
<path d="M45.931 61.426L39.023 68.333C38.4324 68.924 38.1006 69.7254 38.1006 70.561C38.1006 71.3965 38.4324 72.1979 39.023 72.789L39.036 72.803C39.6235 73.3903 40.4202 73.7202 41.251 73.7202C42.0817 73.7202 42.8785 73.3903 43.466 72.803L51.806 64.463" stroke="white" stroke-width="2" stroke-linecap="round" stroke-linejoin="round"/>
<path d="M55.924 42.521L64.614 33.83C65.2015 33.2426 65.9982 32.9127 66.829 32.9127C67.6597 32.9127 68.4565 33.2426 69.044 33.83L69.07 33.856C69.3611 34.1468 69.5919 34.492 69.7494 34.8721C69.907 35.2522 69.9881 35.6595 69.9881 36.071C69.9881 36.4824 69.907 36.8898 69.7494 37.2698C69.5919 37.6499 69.3611 37.9952 69.07 38.286L61.089 46.267" stroke="white" stroke-width="2" stroke-linecap="round" stroke-linejoin="round"/>
<path d="M32.134 48.485L47.456 33.163C48.0435 32.5756 48.8402 32.2457 49.671 32.2457C50.5017 32.2457 51.2985 32.5756 51.886 33.163L51.912 33.189C52.2031 33.4797 52.434 33.825 52.5915 34.2051C52.749 34.5852 52.8301 34.9926 52.8301 35.404C52.8301 35.8154 52.749 36.2228 52.5915 36.6028C52.434 36.9829 52.2031 37.3282 51.912 37.619L33.612 55.919C33.3193 56.2115 33.0871 56.5588 32.9287 56.9411C32.7703 57.3234 32.6888 57.7332 32.6888 58.147C32.6888 58.5608 32.7703 58.9705 32.9287 59.3528C33.0871 59.7351 33.3193 60.0824 33.612 60.375L33.625 60.388C34.2125 60.9753 35.0092 61.3052 35.84 61.3052C36.6707 61.3052 37.4674 60.9753 38.055 60.388L41.345 57.098" stroke="white" stroke-width="2" stroke-linecap="round" stroke-linejoin="round"/>
</svg>
