<svg width="108" height="108" viewBox="0 0 108 108" fill="none" xmlns="http://www.w3.org/2000/svg">
<path d="M57.758 55.604C57.758 53.4313 55.9969 51.67 53.8245 51.67C51.6521 51.67 49.891 53.4313 49.891 55.604V85.066C49.891 87.2387 51.6521 89 53.8245 89C55.9969 89 57.758 87.2387 57.758 85.066V55.604Z" fill="#2D76FF" stroke="black" stroke-width="2" stroke-linecap="round" stroke-linejoin="round"/>
<path d="M54.156 39.514C49.39 29.087 41.844 26.307 39.043 25.614C35.7895 29.2437 33.9933 33.9485 34 38.823C33.9988 40.7555 34.2801 42.6778 34.835 44.529C37.306 42.33 43.549 38.132 54.156 39.514Z" fill="#F9F8F4" stroke="black" stroke-width="2" stroke-linecap="round" stroke-linejoin="round"/>
<path d="M54.156 39.514C64.432 40.772 70.579 36.836 73.189 34.57C72.3406 30.7187 70.3638 27.2076 67.511 24.4848C64.6581 21.762 61.0587 19.951 57.1721 19.283C58.1841 22.062 60.033 29.806 54.156 39.514Z" fill="#F9F8F4" stroke="black" stroke-width="2" stroke-linecap="round" stroke-linejoin="round"/>
<path d="M54.1559 39.514C47.5379 46.951 47.0419 53.982 47.3559 57.566C49.4384 58.284 51.6261 58.6497 53.8289 58.648C56.5585 58.6503 59.2589 58.0875 61.7603 56.995C64.2616 55.9025 66.5097 54.304 68.363 52.3C64.867 51.244 58.6339 48.2 54.1559 39.514Z" fill="#F9F8F4" stroke="black" stroke-width="2" stroke-linecap="round" stroke-linejoin="round"/>
<path d="M73.189 34.57C70.579 36.836 64.432 40.77 54.156 39.514C58.634 48.203 64.8671 51.244 68.3631 52.299C71.7661 48.6377 73.6546 43.8225 73.6481 38.824C73.6486 37.3936 73.4947 35.9674 73.189 34.57V34.57Z" fill="#F16932" stroke="black" stroke-width="2" stroke-linecap="round" stroke-linejoin="round"/>
<path d="M54.156 39.514C43.549 38.132 37.306 42.33 34.835 44.53C35.7422 47.5376 37.3496 50.2871 39.5253 52.5532C41.7009 54.8192 44.3828 56.5371 47.351 57.566C47.042 53.982 47.538 46.951 54.156 39.514Z" fill="#F16932" stroke="black" stroke-width="2" stroke-linecap="round" stroke-linejoin="round"/>
<path d="M54.156 39.514C60.033 29.806 58.184 22.062 57.172 19.283C56.0659 19.0948 54.9459 19.0001 53.824 19C51.0329 18.9971 48.2729 19.585 45.7253 20.7251C43.1777 21.8653 40.9004 23.5317 39.043 25.615C41.844 26.307 49.39 29.087 54.156 39.514Z" fill="#F16932" stroke="black" stroke-width="2" stroke-linecap="round" stroke-linejoin="round"/>
</svg>
