<svg width="108" height="108" viewBox="0 0 108 108" fill="none" xmlns="http://www.w3.org/2000/svg">
<path d="M55.717 39.9295L55.673 39.6995L55.635 39.5125C55.609 39.3915 55.582 39.2735 55.554 39.1575C55.499 38.9245 55.44 38.6975 55.378 38.4715C55.252 38.0215 55.112 37.5795 54.957 37.1415C54.6451 36.2588 54.2711 35.3994 53.838 34.5695C53.3944 33.7161 52.8813 32.9007 52.304 32.1315C51.7076 31.3333 51.0351 30.5948 50.296 29.9265C49.5336 29.2371 48.6994 28.6313 47.808 28.1195C47.3554 27.8629 46.8901 27.6293 46.414 27.4195C45.936 27.2195 45.448 27.0325 44.953 26.8775C44.4598 26.7242 43.9592 26.596 43.453 26.4935L43.264 26.4545L43.075 26.4215L42.697 26.3575L42.319 26.3055C42.193 26.2885 42.067 26.2705 41.941 26.2595C40.9492 26.1561 39.9507 26.1317 38.955 26.1865H38.889C38.435 26.2104 37.9901 26.3235 37.5799 26.5194C37.1696 26.7153 36.8019 26.9902 36.4979 27.3282C36.1938 27.6662 35.9594 28.0608 35.8079 28.4895C35.6564 28.9181 35.5909 29.3725 35.615 29.8265C35.6639 30.7433 36.0747 31.6032 36.7572 32.2173C37.4397 32.8314 38.3381 33.1494 39.255 33.1015C39.38 33.0945 39.5045 33.0808 39.628 33.0605C40.2489 32.9584 40.8768 32.9042 41.506 32.8985C41.583 32.8985 41.659 32.8985 41.735 32.8985H41.963L42.189 32.9115L42.302 32.9185L42.413 32.9295C42.7089 32.9549 43.0032 32.9953 43.295 33.0505C44.4642 33.2734 45.5697 33.7514 46.533 34.4505C47.533 35.1635 48.427 36.1335 49.183 37.2635C49.5652 37.8387 49.9064 38.4402 50.204 39.0635C50.355 39.3775 50.496 39.6975 50.623 40.0185C50.6897 40.1798 50.7497 40.3395 50.803 40.4975L50.883 40.7295L50.918 40.8375L50.934 40.8865C50.934 40.8955 50.945 40.9245 50.942 40.9055C51.0732 41.5383 51.4501 42.0931 51.9902 42.4481C52.5302 42.803 53.1891 42.9291 53.822 42.7985C54.4533 42.6684 55.0072 42.2934 55.3624 41.7556C55.7176 41.2178 55.8452 40.5611 55.717 39.9295V39.9295Z" fill="#AF5A00" stroke="black" stroke-width="2" stroke-linecap="round" stroke-linejoin="round"/>
<path d="M64.1901 20.0134C66.6341 23.6224 70.4521 32.2784 59.0191 40.9214C58.7457 41.1272 58.4301 41.2697 58.095 41.3389C57.7599 41.408 57.4136 41.402 57.0811 41.3213C56.7486 41.2406 56.4381 41.0872 56.172 40.8721C55.9059 40.657 55.6908 40.3856 55.5421 40.0774C53.4551 35.7704 50.6551 26.4014 60.9711 19.4014C61.4791 19.0557 62.1037 18.926 62.7073 19.0408C63.311 19.1556 63.8444 19.5054 64.1901 20.0134V20.0134Z" fill="#017A71" stroke="black" stroke-width="2" stroke-linecap="round" stroke-linejoin="round"/>
<path d="M30.837 41.7545C35.95 37.2005 43.72 38.3545 47.82 39.5545C50.4683 40.3399 53.2078 40.7769 55.969 40.8545C58.3721 40.922 60.7735 40.6694 63.11 40.1035C67.884 38.9325 75.326 38.3765 80.567 45.5285C90.447 59.0095 80.847 83.2285 70.662 87.9555C65.055 90.5555 60.584 87.5625 57.717 86.6555C54.951 85.7845 52.957 85.6375 49.912 86.3555C47.312 86.9645 43.12 89.9175 38.304 87.7555C19.269 79.2425 19.941 51.4595 30.837 41.7545Z" fill="#F16932" stroke="black" stroke-width="2" stroke-linecap="round" stroke-linejoin="round"/>
<path d="M73.86 48.2925C81.675 58.9565 74.081 78.1185 66.024 81.8565" stroke="white" stroke-width="2" stroke-linecap="round" stroke-linejoin="round"/>
</svg>
