<svg width="108" height="108" viewBox="0 0 108 108" fill="none" xmlns="http://www.w3.org/2000/svg">
<path d="M85.9769 21.1501C85.9599 25.1871 84.355 33.8012 71.095 34.4342C70.7783 34.4487 70.4623 34.3928 70.1699 34.2705C69.8774 34.1483 69.6157 33.9627 69.4035 33.7271C69.1914 33.4916 69.0342 33.2119 68.9431 32.9083C68.852 32.6046 68.8294 32.2846 68.8769 31.9711C69.5339 27.5881 72.2919 18.9591 83.8349 19.0001C84.1168 19.0007 84.3957 19.0567 84.6559 19.165C84.9161 19.2734 85.1523 19.4319 85.3512 19.6315C85.5501 19.8312 85.7078 20.068 85.8151 20.3286C85.9225 20.5892 85.9775 20.8683 85.9769 21.1501V21.1501Z" fill="#017A71" stroke="black" stroke-width="2" stroke-linecap="round" stroke-linejoin="round"/>
<path d="M49.174 26.6401C52.56 24.4401 60.643 21.0581 68.445 31.8001C68.6307 32.057 68.7571 32.3519 68.8152 32.6635C68.8732 32.9751 68.8615 33.2957 68.7807 33.6022C68.7 33.9087 68.5524 34.1935 68.3484 34.4361C68.1443 34.6787 67.8891 34.873 67.601 35.0051C63.576 36.8601 54.848 39.2851 48.552 29.6112C48.2406 29.1346 48.1313 28.554 48.2479 27.9969C48.3645 27.4397 48.6977 26.9517 49.174 26.6401Z" fill="#017A71" stroke="black" stroke-width="2" stroke-linecap="round" stroke-linejoin="round"/>
<path d="M33.679 79.9481C40.1291 79.9481 45.358 74.7193 45.358 68.2691C45.358 61.819 40.1291 56.5901 33.679 56.5901C27.2288 56.5901 22 61.819 22 68.2691C22 74.7193 27.2288 79.9481 33.679 79.9481Z" fill="#F16932" stroke="black" stroke-width="2" stroke-linecap="round" stroke-linejoin="round"/>
<path d="M66.5069 89.0001C72.9571 89.0001 78.186 83.7713 78.186 77.3211C78.186 70.871 72.9571 65.6421 66.5069 65.6421C60.0568 65.6421 54.8279 70.871 54.8279 77.3211C54.8279 83.7713 60.0568 89.0001 66.5069 89.0001Z" fill="#F16932" stroke="black" stroke-width="2" stroke-linecap="round" stroke-linejoin="round"/>
<path d="M73.455 79.3282C72.9227 81.1707 71.6803 82.7263 70.0012 83.6529C68.322 84.5795 66.3436 84.8012 64.501 84.2692" stroke="white" stroke-width="2" stroke-linecap="round" stroke-linejoin="round"/>
<path d="M40.467 70.1001C39.9345 71.9427 38.6919 73.4983 37.0125 74.4247C35.3332 75.3511 33.3546 75.5725 31.512 75.0401" stroke="white" stroke-width="2" stroke-linecap="round" stroke-linejoin="round"/>
<path d="M39.628 61.0241C39.628 61.0241 60.142 51.4591 68.844 33.8431C68.844 33.8431 73.685 49.8351 66.2 68.2691" stroke="black" stroke-width="2" stroke-linecap="round" stroke-linejoin="round"/>
</svg>
