<svg width="108" height="108" viewBox="0 0 108 108" fill="none" xmlns="http://www.w3.org/2000/svg">
<path fill-rule="evenodd" clip-rule="evenodd" d="M72.2189 38.2459C72.2189 37.7679 72.2019 37.2865 72.1679 36.8019C71.4399 26.7469 62.8379 18.8609 52.7569 19.0019C41.9169 19.1579 33.4029 28.2109 33.8389 38.9749C33.8489 39.2269 33.8639 39.4775 33.8839 39.7269C34.3369 45.4269 33.3409 47.2529 30.8789 52.4169C28.862 56.6523 28.0517 61.3618 28.5369 66.0279C29.8519 79.0009 40.9419 89.0049 53.9819 88.9999C68.6099 88.9949 80.1619 76.8409 79.5759 62.3659C79.4159 58.2861 78.2776 54.3046 76.2569 50.7569C73.4089 45.7639 72.2089 43.9979 72.2189 38.2459Z" fill="#017A71" stroke="black" stroke-width="2" stroke-linecap="round" stroke-linejoin="round"/>
<path d="M54.0289 79.2528C62.3794 79.2528 69.1489 72.4834 69.1489 64.1328C69.1489 55.7823 62.3794 49.0128 54.0289 49.0128C45.6783 49.0128 38.9089 55.7823 38.9089 64.1328C38.9089 72.4834 45.6783 79.2528 54.0289 79.2528Z" fill="#AF5A00" stroke="black" stroke-width="2" stroke-linecap="round" stroke-linejoin="round"/>
<path d="M62.7719 60.0038C63.2301 61.2006 63.448 62.4759 63.4132 63.7569C63.3784 65.038 63.0915 66.2996 62.569 67.4697C62.0464 68.6398 61.2984 69.6955 60.3677 70.5764C59.4371 71.4573 58.3419 72.1463 57.1449 72.6038" stroke="white" stroke-width="2" stroke-linecap="round" stroke-linejoin="round"/>
</svg>
