<svg width="108" height="108" viewBox="0 0 108 108" fill="none" xmlns="http://www.w3.org/2000/svg">
<path d="M66.226 21.3393C66.282 25.8053 64.667 35.3673 50.007 36.3133C49.6569 36.3352 49.3063 36.2792 48.9805 36.1493C48.6546 36.0194 48.3616 35.819 48.1225 35.5623C47.8834 35.3056 47.7042 34.9991 47.5978 34.6649C47.4914 34.3306 47.4604 33.9769 47.507 33.6293C48.152 28.7673 51.044 19.1693 63.816 19.0003C64.1279 18.9955 64.4376 19.0523 64.7275 19.1672C65.0174 19.2822 65.2818 19.4532 65.5056 19.6704C65.7295 19.8876 65.9083 20.1468 66.0319 20.4332C66.1555 20.7195 66.2214 21.0274 66.226 21.3393Z" fill="#017A71" stroke="black" stroke-width="2" stroke-linecap="round" stroke-linejoin="round"/>
<path d="M52.176 43.0103L52.142 42.8313L52.111 42.6853C52.091 42.5903 52.07 42.4983 52.049 42.4073C52.006 42.2253 51.96 42.0483 51.911 41.8723C51.811 41.5203 51.703 41.1723 51.582 40.8333C51.3383 40.1441 51.0466 39.4728 50.709 38.8243C50.3613 38.1594 49.96 37.524 49.509 36.9243C49.0437 36.3003 48.5189 35.7229 47.942 35.2003C47.3471 34.6611 46.6956 34.1877 45.999 33.7883C45.646 33.588 45.2829 33.4061 44.911 33.2433C44.538 33.083 44.1572 32.9415 43.77 32.8193C43.383 32.7023 42.992 32.5963 42.599 32.5193L42.452 32.4893L42.304 32.4633L42.004 32.4133L41.704 32.3723C41.604 32.3593 41.504 32.3453 41.409 32.3363C40.6341 32.256 39.854 32.2373 39.076 32.2803H39.025C38.6703 32.2986 38.3227 32.3867 38.002 32.5396C37.6814 32.6925 37.3941 32.9071 37.1566 33.1712C36.919 33.4353 36.7359 33.7437 36.6178 34.0787C36.4996 34.4137 36.4487 34.7686 36.468 35.1233C36.4863 35.4781 36.5744 35.8257 36.7273 36.1463C36.8802 36.4669 37.0948 36.7543 37.3589 36.9918C37.623 37.2293 37.9314 37.4124 38.2664 37.5306C38.6013 37.6487 38.9563 37.6996 39.311 37.6803C39.411 37.6743 39.511 37.6633 39.602 37.6483C40.087 37.5682 40.5775 37.5257 41.069 37.5213C41.13 37.5213 41.189 37.5213 41.248 37.5213H41.426L41.602 37.5313H41.691L41.778 37.5403C42.0092 37.5603 42.2391 37.592 42.467 37.6353C43.3834 37.8116 44.2492 38.189 45.002 38.7403C45.818 39.344 46.5191 40.0891 47.072 40.9403C47.3714 41.3892 47.6388 41.8587 47.872 42.3453C47.99 42.5903 48.1 42.8403 48.199 43.0913C48.249 43.2163 48.299 43.3413 48.34 43.4643L48.402 43.6463L48.43 43.7303L48.442 43.7683C48.442 43.7763 48.451 43.7983 48.449 43.7833C48.4993 44.0281 48.5974 44.2606 48.7376 44.4674C48.8779 44.6743 49.0576 44.8514 49.2664 44.9887C49.4752 45.126 49.7091 45.2208 49.9546 45.2675C50.2 45.3143 50.4523 45.3122 50.697 45.2613C50.9422 45.2112 51.1751 45.1131 51.3823 44.9727C51.5895 44.8323 51.7669 44.6523 51.9043 44.4432C52.0417 44.234 52.1365 43.9998 52.1831 43.7539C52.2297 43.508 52.2273 43.2553 52.176 43.0103V43.0103Z" fill="#AF5A00" stroke="black" stroke-width="2" stroke-linecap="round" stroke-linejoin="round"/>
<path d="M50.1271 44.6093C50.1271 44.6093 28.4481 41.4313 28.4001 63.2423C28.3491 86.5003 58.3791 89.0003 58.3791 89.0003C58.3791 89.0003 77.6591 84.8243 79.4381 64.5593C81.0171 46.5853 63.5381 38.1583 50.1271 44.6093Z" fill="#F16932" stroke="black" stroke-width="2" stroke-linecap="round" stroke-linejoin="round"/>
<path d="M49.0801 44.4063C49.0801 44.4063 61.2651 48.3193 58.3611 63.6203" stroke="black" stroke-width="2" stroke-linecap="round" stroke-linejoin="round"/>
</svg>
