<svg width="108" height="108" viewBox="0 0 108 108" fill="none" xmlns="http://www.w3.org/2000/svg">
<path d="M41.3529 49.0812L41.5069 49.2352C36.6999 58.2732 39.1369 70.9532 48.1359 79.9532C57.1349 88.9532 69.8159 91.3892 78.8549 86.5822L79.0079 86.7362C81.0179 88.7462 83.1019 87.3852 85.2799 85.2082C87.4579 83.0302 88.9039 80.8592 86.8939 78.8492L86.7409 78.6962C91.5479 69.6572 89.1109 56.9772 80.1109 47.9782C71.1109 38.9792 58.4319 36.5412 49.3929 41.3482L49.2399 41.1952C47.23 39.1852 45.2399 40.5412 43.0669 42.7192C40.8889 44.9002 39.3429 47.0712 41.3529 49.0812Z" fill="#F8AE05"/>
<path d="M41.3529 49.0812L41.5069 49.2352C36.6999 58.2732 39.1369 70.9532 48.1359 79.9532C57.1349 88.9532 69.8159 91.3892 78.8549 86.5822L79.0079 86.7362C81.0179 88.7462 83.1019 87.3852 85.2799 85.2082C87.4579 83.0302 88.9039 80.8592 86.8939 78.8492L86.7409 78.6962C91.5479 69.6572 89.1109 56.9772 80.1109 47.9782C71.1109 38.9792 58.4319 36.5412 49.3929 41.3482L49.2399 41.1952C47.23 39.1852 45.2399 40.5412 43.0669 42.7192C40.8889 44.9002 39.3429 47.0712 41.3529 49.0812Z" stroke="black" stroke-width="2" stroke-linecap="round" stroke-linejoin="round"/>
<path d="M46.6049 19.6853C50.4889 23.1143 57.4529 31.9453 46.8559 45.2853C46.6021 45.6032 46.2809 45.861 45.9156 46.04C45.5503 46.219 45.1498 46.3149 44.743 46.3206C44.3362 46.3263 43.9332 46.2418 43.563 46.0732C43.1928 45.9045 42.8645 45.6559 42.6019 45.3452C38.9249 41.0062 32.9229 31.0453 42.7189 19.9373C42.9573 19.6654 43.2471 19.4432 43.5715 19.2833C43.896 19.1235 44.2487 19.0292 44.6096 19.0058C44.9705 18.9824 45.3325 19.0303 45.6749 19.1469C46.0172 19.2635 46.3332 19.4465 46.6049 19.6853Z" fill="#017A71" stroke="black" stroke-width="2" stroke-linecap="round" stroke-linejoin="round"/>
<path d="M45.4309 47.2532C41.8359 50.9842 32.7089 57.5532 19.8439 46.3852C19.5372 46.1179 19.2936 45.786 19.1306 45.4132C18.9676 45.0405 18.8892 44.6363 18.9012 44.2297C18.9131 43.823 19.0151 43.4241 19.1997 43.0616C19.3843 42.6991 19.647 42.382 19.9689 42.1332C24.4689 38.6492 34.6749 33.0872 45.3489 43.3592C45.6101 43.6094 45.8194 43.9087 45.9649 44.2398C46.1104 44.571 46.1892 44.9276 46.1968 45.2892C46.2044 45.6509 46.1407 46.0104 46.0093 46.3474C45.8779 46.6844 45.6813 46.9922 45.4309 47.2532V47.2532Z" fill="#017A71" stroke="black" stroke-width="2" stroke-linecap="round" stroke-linejoin="round"/>
</svg>
