<svg width="108" height="108" viewBox="0 0 108 108" fill="none" xmlns="http://www.w3.org/2000/svg">
<path d="M85.293 52.206H22.707C20.6597 52.206 19 53.8657 19 55.913V55.914C19 57.9613 20.6597 59.621 22.707 59.621H85.293C87.3403 59.621 89 57.9613 89 55.914V55.913C89 53.8657 87.3403 52.206 85.293 52.206Z" fill="#F16932" stroke="black" stroke-width="2" stroke-linecap="round" stroke-linejoin="round"/>
<path d="M84.529 59.621H23.471C21.0017 59.621 19 61.6228 19 64.092C19 66.5613 21.0017 68.563 23.471 68.563H84.529C86.9983 68.563 89 66.5613 89 64.092C89 61.6228 86.9983 59.621 84.529 59.621Z" fill="#AF5A00"/>
<path d="M84.529 59.621H23.471C21.0017 59.621 19 61.6228 19 64.092C19 66.5613 21.0017 68.563 23.471 68.563H84.529C86.9983 68.563 89 66.5613 89 64.092C89 61.6228 86.9983 59.621 84.529 59.621Z" stroke="black" stroke-width="2" stroke-linecap="round" stroke-linejoin="round"/>
<path d="M84.838 49.939C84.896 52.825 82.632 55.263 79.746 55.339C79.6793 55.339 79.6093 55.339 79.536 55.339C75.391 55.339 75.3909 52.37 71.2469 52.37C67.1029 52.37 67.102 55.339 62.958 55.339C58.814 55.339 58.813 52.37 54.668 52.37C50.523 52.37 50.524 55.339 46.379 55.339C42.234 55.339 42.2349 52.37 38.0899 52.37C33.9449 52.37 33.945 55.339 29.801 55.339C23.932 55.339 23.1609 50.296 23.1609 48.324V45.115H84.74L84.838 49.939Z" fill="#017A71" stroke="black" stroke-width="2" stroke-linecap="round" stroke-linejoin="round"/>
<path d="M23.661 68.563H84.339C85.0909 68.563 85.812 68.8617 86.3437 69.3934C86.8753 69.925 87.174 70.6461 87.174 71.398V72.977C87.174 73.9799 86.9765 74.973 86.5927 75.8996C86.2089 76.8261 85.6464 77.668 84.9372 78.3772C84.2281 79.0864 83.3861 79.6489 82.4596 80.0327C81.533 80.4165 80.5399 80.614 79.537 80.614H28.463C26.4375 80.614 24.495 79.8094 23.0628 78.3772C21.6306 76.945 20.826 75.0025 20.826 72.977V71.398C20.826 71.0257 20.8993 70.6571 21.0418 70.3131C21.1843 69.9692 21.3931 69.6566 21.6564 69.3934C21.9196 69.1301 22.2321 68.9213 22.5761 68.7788C22.92 68.6363 23.2887 68.563 23.661 68.563V68.563Z" fill="#F8AE05"/>
<path d="M23.661 68.563H84.339C85.0909 68.563 85.812 68.8617 86.3437 69.3934C86.8753 69.925 87.174 70.6461 87.174 71.398V72.977C87.174 73.9799 86.9765 74.973 86.5927 75.8996C86.2089 76.8261 85.6464 77.668 84.9372 78.3772C84.2281 79.0864 83.3861 79.6489 82.4596 80.0327C81.533 80.4165 80.5399 80.614 79.537 80.614H28.463C26.4375 80.614 24.495 79.8094 23.0628 78.3772C21.6306 76.945 20.826 75.0025 20.826 72.977V71.398C20.826 71.0257 20.8993 70.6571 21.0418 70.3131C21.1843 69.9692 21.3931 69.6566 21.6564 69.3934C21.9196 69.1301 22.2321 68.9213 22.5761 68.7788C22.92 68.6363 23.2887 68.563 23.661 68.563V68.563Z" stroke="black" stroke-width="2" stroke-linecap="round" stroke-linejoin="round"/>
<path d="M83.886 48.042L24.114 48.042C23.2417 48.042 22.4051 47.6955 21.7883 47.0787C21.1715 46.4619 20.825 45.6253 20.825 44.753C20.825 42.4742 21.2739 40.2177 22.1459 38.1123C23.018 36.0069 24.2962 34.094 25.9076 32.4826C27.519 30.8712 29.4319 29.593 31.5373 28.7209C33.6427 27.8489 35.8992 27.4 38.178 27.4L69.821 27.4C72.0998 27.4 74.3564 27.8489 76.4617 28.7209C78.5671 29.593 80.4801 30.8712 82.0914 32.4826C83.7028 34.094 84.981 36.0069 85.8531 38.1123C86.7252 40.2177 87.174 42.4742 87.174 44.753V44.753C87.174 45.6253 86.8275 46.4619 86.2107 47.0787C85.5939 47.6955 84.7573 48.042 83.885 48.042H83.886Z" fill="#F8AE05"/>
<path d="M83.886 48.042L24.114 48.042C23.2417 48.042 22.4051 47.6955 21.7883 47.0787C21.1715 46.4619 20.825 45.6253 20.825 44.753C20.825 42.4742 21.2739 40.2177 22.1459 38.1123C23.018 36.0069 24.2962 34.094 25.9076 32.4826C27.519 30.8712 29.4319 29.593 31.5373 28.7209C33.6427 27.8489 35.8992 27.4 38.178 27.4L69.821 27.4C72.0998 27.4 74.3564 27.8489 76.4617 28.7209C78.5671 29.593 80.4801 30.8712 82.0914 32.4826C83.7028 34.094 84.981 36.0069 85.8531 38.1123C86.7252 40.2177 87.174 42.4742 87.174 44.753V44.753C87.174 45.6253 86.8275 46.4619 86.2107 47.0787C85.5939 47.6955 84.7573 48.042 83.885 48.042H83.886Z" stroke="black" stroke-width="2" stroke-linecap="round" stroke-linejoin="round"/>
</svg>
