<svg width="108" height="108" viewBox="0 0 108 108" fill="none" xmlns="http://www.w3.org/2000/svg">
<path d="M24.7664 36.9358L50.6444 86.9898C52.0544 89.7178 55.9704 89.6818 57.3294 86.9268L82.5944 35.7428L55.4644 22.4428L24.7664 36.9358Z" fill="#F8AE05" stroke="black" stroke-width="2" stroke-linecap="round" stroke-linejoin="round"/>
<path d="M62.7815 54.6407C66.6315 54.6407 69.7525 51.5197 69.7525 47.6697C69.7525 43.8198 66.6315 40.6987 62.7815 40.6987C58.9316 40.6987 55.8105 43.8198 55.8105 47.6697C55.8105 51.5197 58.9316 54.6407 62.7815 54.6407Z" fill="#F16932"/>
<path d="M62.7815 54.6407C66.6315 54.6407 69.7525 51.5197 69.7525 47.6697C69.7525 43.8198 66.6315 40.6987 62.7815 40.6987C58.9316 40.6987 55.8105 43.8198 55.8105 47.6697C55.8105 51.5197 58.9316 54.6407 62.7815 54.6407Z" stroke="black" stroke-width="2" stroke-linecap="round" stroke-linejoin="round"/>
<path d="M43.3315 50.9418C47.1815 50.9418 50.3025 47.8207 50.3025 43.9708C50.3025 40.1208 47.1815 36.9998 43.3315 36.9998C39.4816 36.9998 36.3605 40.1208 36.3605 43.9708C36.3605 47.8207 39.4816 50.9418 43.3315 50.9418Z" fill="#F16932"/>
<path d="M43.3315 50.9418C47.1815 50.9418 50.3025 47.8207 50.3025 43.9708C50.3025 40.1208 47.1815 36.9998 43.3315 36.9998C39.4816 36.9998 36.3605 40.1208 36.3605 43.9708C36.3605 47.8207 39.4816 50.9418 43.3315 50.9418Z" stroke="black" stroke-width="2" stroke-linecap="round" stroke-linejoin="round"/>
<path d="M52.5284 73.1027C56.3784 73.1027 59.4994 69.9817 59.4994 66.1317C59.4994 62.2818 56.3784 59.1607 52.5284 59.1607C48.6785 59.1607 45.5574 62.2818 45.5574 66.1317C45.5574 69.9817 48.6785 73.1027 52.5284 73.1027Z" fill="#F16932"/>
<path d="M52.5284 73.1027C56.3784 73.1027 59.4994 69.9817 59.4994 66.1317C59.4994 62.2818 56.3784 59.1607 52.5284 59.1607C48.6785 59.1607 45.5574 62.2818 45.5574 66.1317C45.5574 69.9817 48.6785 73.1027 52.5284 73.1027Z" stroke="black" stroke-width="2" stroke-linecap="round" stroke-linejoin="round"/>
<path d="M19.7687 39.8238C18.8923 38.9469 18.4 37.7579 18.4 36.5182C18.4 35.2785 18.8923 34.0896 19.7687 33.2127C24.2674 28.7072 29.6103 25.1328 35.4917 22.694C41.3731 20.2553 47.6777 19 54.0447 19C60.4117 19 66.7162 20.2553 72.5976 22.694C78.479 25.1328 83.8219 28.7072 88.3207 33.2127C89.1805 34.0929 89.6587 35.2765 89.6516 36.507C89.6444 37.7374 89.1525 38.9154 88.2824 39.7855C87.4123 40.6555 86.2343 41.1475 85.0039 41.1547C83.7735 41.1618 82.5898 40.6836 81.7097 39.8238C74.3724 32.4867 64.421 28.3648 54.0447 28.3648C43.6683 28.3648 33.717 32.4867 26.3797 39.8238C25.5028 40.7001 24.3139 41.1924 23.0742 41.1924C21.8345 41.1924 20.6455 40.7001 19.7687 39.8238V39.8238Z" fill="#AF5A00" stroke="black" stroke-width="2" stroke-linecap="round" stroke-linejoin="round"/>
</svg>
