<svg width="108" height="108" viewBox="0 0 108 108" fill="none" xmlns="http://www.w3.org/2000/svg">
<path d="M54.3376 28.207C54.3376 28.207 58.3196 19.338 69.5376 22.777C80.7556 26.216 84.0166 43.228 84.0166 43.228C84.0166 43.228 75.5126 67.3 54.3376 67.843C33.1626 68.386 24.4746 44.676 24.4746 42.685C24.4746 40.694 30.4476 25.854 39.6746 22.777C48.9016 19.7 54.3376 28.207 54.3376 28.207Z" fill="#F16932" stroke="black" stroke-width="2" stroke-linecap="round" stroke-linejoin="round"/>
<path d="M32.5605 42.967C32.3582 42.8028 32.2093 42.5822 32.1327 42.3331C32.0561 42.0841 32.0552 41.8179 32.1303 41.5684C32.2053 41.3189 32.3528 41.0973 32.554 40.9318C32.7553 40.7663 33.0012 40.6644 33.2605 40.639C36.7855 40.291 42.4135 39.502 44.9395 37.878C48.7615 35.421 51.4305 34.192 54.6005 34.192C57.7705 34.192 62.8205 37.468 66.5065 38.56C68.7615 39.228 73.0065 39.948 75.9675 40.405C76.2294 40.4456 76.4728 40.5643 76.666 40.7457C76.8591 40.9271 76.9929 41.1627 77.0498 41.4214C77.1067 41.6802 77.084 41.9502 76.9847 42.1958C76.8854 42.4415 76.7142 42.6514 76.4935 42.798C71.6665 46.018 61.2185 52.098 52.0375 51.391C43.3395 50.722 36.1135 45.836 32.5605 42.967Z" fill="black"/>
<path d="M45.6575 42.557H63.6835C65.1765 42.557 66.6082 43.1501 67.6638 44.2057C68.7195 45.2613 69.3126 46.6931 69.3126 48.186V74.36C69.3126 76.2829 68.9337 78.1869 68.1978 79.9634C67.4618 81.7399 66.383 83.354 65.0232 84.7135C63.6633 86.073 62.0489 87.1513 60.2723 87.8867C58.4956 88.6222 56.5914 89.0005 54.6686 89V89C50.7858 89 47.062 87.4576 44.3165 84.712C41.571 81.9665 40.0285 78.2428 40.0285 74.36V48.186C40.0285 46.6931 40.6216 45.2613 41.6773 44.2057C42.7329 43.1501 44.1646 42.557 45.6575 42.557V42.557Z" fill="#FFBCDD"/>
<path d="M45.6575 42.557H63.6835C65.1765 42.557 66.6082 43.1501 67.6638 44.2057C68.7195 45.2613 69.3126 46.6931 69.3126 48.186V74.36C69.3126 76.2829 68.9337 78.1869 68.1978 79.9634C67.4618 81.7399 66.383 83.354 65.0232 84.7135C63.6633 86.073 62.0489 87.1513 60.2723 87.8867C58.4956 88.6222 56.5914 89.0005 54.6686 89V89C50.7858 89 47.062 87.4576 44.3165 84.712C41.571 81.9665 40.0285 78.2428 40.0285 74.36V48.186C40.0285 46.6931 40.6216 45.2613 41.6773 44.2057C42.7329 43.1501 44.1646 42.557 45.6575 42.557V42.557Z" stroke="black" stroke-width="2" stroke-linecap="round" stroke-linejoin="round"/>
<path d="M65.1336 73.163C65.1336 74.5373 64.8628 75.8982 64.3368 77.168C63.8109 78.4377 63.0399 79.5914 62.0681 80.5632C61.0962 81.535 59.9425 82.3058 58.6727 82.8316C57.4029 83.3575 56.0419 83.6281 54.6675 83.628" stroke="white" stroke-width="2" stroke-linecap="round" stroke-linejoin="round"/>
<path d="M36.4246 54.277C36.4071 54.028 36.2958 53.7949 36.1132 53.6247C35.9306 53.4545 35.6902 53.3599 35.4405 53.36C32.5155 53.36 31.1516 49.598 31.1516 47.055C31.1517 46.9256 31.1263 46.7974 31.0769 46.6778C31.0274 46.5582 30.9549 46.4495 30.8634 46.3579C30.7719 46.2663 30.6633 46.1937 30.5437 46.1441C30.4241 46.0945 30.296 46.069 30.1666 46.069C30.037 46.0689 29.9087 46.0943 29.7891 46.1438C29.6694 46.1933 29.5606 46.2659 29.469 46.3575C29.3775 46.4491 29.3048 46.5579 29.2553 46.6776C29.2058 46.7972 29.1804 46.9255 29.1806 47.055C29.1806 48.58 28.7346 50.203 27.9896 51.394C27.4286 52.294 26.4356 53.36 24.8896 53.36C24.6395 53.3596 24.3987 53.454 24.2155 53.6242C24.0324 53.7944 23.9205 54.0277 23.9025 54.277C23.8847 54.5256 23.9619 54.7717 24.1186 54.9655C24.2752 55.1594 24.4997 55.2864 24.7465 55.321C24.9275 55.349 29.1786 56.074 29.1786 62.148C29.1784 62.2775 29.2038 62.4058 29.2533 62.5255C29.3028 62.6452 29.3755 62.7539 29.467 62.8455C29.5586 62.9371 29.6674 63.0097 29.7871 63.0592C29.9067 63.1087 30.035 63.1342 30.1646 63.134C30.294 63.134 30.4221 63.1085 30.5417 63.059C30.6613 63.0094 30.7699 62.9368 30.8614 62.8452C30.9529 62.7536 31.0254 62.6449 31.0749 62.5253C31.1243 62.4057 31.1497 62.2775 31.1496 62.148C31.1496 56.074 35.4005 55.348 35.5755 55.322C35.8232 55.2879 36.0486 55.161 36.2062 54.967C36.3638 54.773 36.4419 54.5264 36.4246 54.277Z" fill="white"/>
<path d="M77.6365 25.36C77.6195 25.1084 77.5075 24.8727 77.323 24.7008C77.1386 24.5288 76.8957 24.4334 76.6436 24.434C74.7216 24.434 73.6976 21.851 73.6976 19.986C73.6977 19.8565 73.6723 19.7282 73.6228 19.6085C73.5732 19.4888 73.5006 19.3801 73.4091 19.2885C73.3175 19.1969 73.2087 19.1243 73.089 19.0748C72.9694 19.0253 72.8411 18.9999 72.7115 19C72.45 19 72.1992 19.1039 72.0143 19.2888C71.8294 19.4737 71.7255 19.7245 71.7255 19.986C71.7255 21.851 70.7025 24.434 68.7805 24.434C68.5278 24.4333 68.2842 24.5283 68.0987 24.6999C67.9132 24.8715 67.7995 25.107 67.7805 25.359C67.7625 25.6082 67.8411 25.8547 67.9999 26.0476C68.1587 26.2404 68.3855 26.3648 68.6335 26.395C69.21 26.5213 69.7458 26.7894 70.1926 27.175C71.2086 28.039 71.7235 29.405 71.7235 31.235C71.7238 31.4964 71.8278 31.7471 72.0126 31.9319C72.1975 32.1168 72.4481 32.2207 72.7095 32.221C72.971 32.221 73.2219 32.1171 73.4068 31.9322C73.5917 31.7473 73.6956 31.4965 73.6956 31.235C73.6956 29.405 74.2115 28.035 75.2275 27.175C75.6725 26.7922 76.2048 26.5246 76.7775 26.396C77.0263 26.3666 77.2543 26.2426 77.4142 26.0497C77.5741 25.8569 77.6537 25.6099 77.6365 25.36V25.36Z" fill="white"/>
<path d="M47.1655 27.66C47.1655 27.66 38.3556 24.26 33.8976 35.302" stroke="white" stroke-width="2" stroke-linecap="round" stroke-linejoin="round"/>
</svg>
