<svg width="108" height="108" viewBox="0 0 108 108" fill="none" xmlns="http://www.w3.org/2000/svg">
<path d="M24.8446 73.4088C22.545 70.7198 21.3442 67.2624 21.4819 63.7268C21.6196 60.1913 23.0858 56.8377 25.5876 54.3358L54.3356 25.5878C56.7955 23.128 60.0802 21.6679 63.5543 21.4899C67.0284 21.3118 70.4452 22.4284 73.1436 24.6238" fill="#F8AE05"/>
<path d="M24.8446 73.4088C22.545 70.7198 21.3442 67.2624 21.4819 63.7268C21.6196 60.1913 23.0858 56.8377 25.5876 54.3358L54.3356 25.5878C56.7955 23.128 60.0802 21.6679 63.5543 21.4899C67.0284 21.3118 70.4452 22.4284 73.1436 24.6238" stroke="black" stroke-width="2" stroke-linecap="round" stroke-linejoin="round"/>
<path d="M83.1227 34.5628C85.4109 37.2531 86.6025 40.7062 86.4604 44.2352C86.3183 47.7641 84.8528 51.1102 82.3557 53.6078L53.6077 82.3558C51.1247 84.8385 47.8023 86.3019 44.2946 86.4581C40.7868 86.6143 37.3475 85.452 34.6537 83.1998" fill="#F8AE05"/>
<path d="M83.1227 34.5628C85.4109 37.2531 86.6025 40.7062 86.4604 44.2352C86.3183 47.7641 84.8528 51.1102 82.3557 53.6078L53.6077 82.3558C51.1247 84.8385 47.8023 86.3019 44.2946 86.4581C40.7868 86.6143 37.3475 85.452 34.6537 83.1998" stroke="black" stroke-width="2" stroke-linecap="round" stroke-linejoin="round"/>
<path d="M82.7962 34.8416C85.4733 32.1646 85.4732 27.8243 82.7962 25.1472C80.1192 22.4702 75.7788 22.4701 73.1018 25.1472L25.1472 73.1018C22.4701 75.7788 22.4702 80.1191 25.1472 82.7962C27.8243 85.4732 32.1646 85.4733 34.8416 82.7962L82.7962 34.8416Z" fill="#F16932" stroke="black" stroke-width="2" stroke-linecap="round" stroke-linejoin="round"/>
<path d="M75.5576 35.5888C72.2286 38.9178 69.0256 35.7148 65.6966 39.0438C62.3676 42.3728 65.5696 45.5768 62.2396 48.9068C58.9096 52.2368 55.7056 49.0348 52.3746 52.3658C49.0436 55.6968 52.2476 58.8988 48.9176 62.2288C45.5876 65.5588 42.3826 62.3578 39.0496 65.6908C35.7166 69.0238 38.9206 72.2258 35.5886 75.5578" stroke="black" stroke-width="2" stroke-linecap="round" stroke-linejoin="round"/>
</svg>
