<svg width="108" height="108" viewBox="0 0 108 108" fill="none" xmlns="http://www.w3.org/2000/svg">
<path d="M47.0529 82.4426C46.685 82.2946 46.3899 82.0081 46.2312 81.6447C46.0724 81.2813 46.0626 80.8701 46.204 80.4996L69.304 19.9736C69.3756 19.7858 69.484 19.6141 69.6228 19.4687C69.7615 19.3232 69.9279 19.2068 70.1122 19.1264C70.2964 19.0459 70.4948 19.003 70.6959 19.0002C70.8969 18.9973 71.0965 19.0345 71.283 19.1096L73.483 19.9956C73.6694 20.0707 73.839 20.1822 73.9819 20.3235C74.1248 20.4649 74.2382 20.6333 74.3152 20.8189C74.3923 21.0046 74.4317 21.2037 74.4309 21.4047C74.4302 21.6057 74.3894 21.8045 74.3109 21.9896L49.0109 81.6296C48.8564 81.9948 48.5645 82.2847 48.1983 82.4368C47.8321 82.5888 47.4207 82.591 47.0529 82.4426V82.4426Z" fill="#F16932"/>
<path d="M47.0529 82.4426C46.685 82.2946 46.3899 82.0081 46.2312 81.6447C46.0724 81.2813 46.0626 80.8701 46.204 80.4996L69.304 19.9736C69.3756 19.7858 69.484 19.6141 69.6228 19.4687C69.7615 19.3232 69.9279 19.2068 70.1122 19.1264C70.2964 19.0459 70.4948 19.003 70.6959 19.0002C70.8969 18.9973 71.0965 19.0345 71.283 19.1096L73.483 19.9956C73.6694 20.0707 73.839 20.1822 73.9819 20.3235C74.1248 20.4649 74.2382 20.6333 74.3152 20.8189C74.3923 21.0046 74.4317 21.2037 74.4309 21.4047C74.4302 21.6057 74.3894 21.8045 74.3109 21.9896L49.0109 81.6296C48.8564 81.9948 48.5645 82.2847 48.1983 82.4368C47.8321 82.5888 47.4207 82.591 47.0529 82.4426V82.4426Z" stroke="black" stroke-width="2" stroke-linecap="round" stroke-linejoin="round"/>
<path d="M53.5689 57.5976C61.8504 57.5976 68.5639 50.8841 68.5639 42.6026C68.5639 34.3211 61.8504 27.6076 53.5689 27.6076C45.2874 27.6076 38.5739 34.3211 38.5739 42.6026C38.5739 50.8841 45.2874 57.5976 53.5689 57.5976Z" fill="#F8AE05" stroke="black" stroke-width="2" stroke-linecap="round" stroke-linejoin="round"/>
<path d="M53.569 52.3966C58.9781 52.3966 63.363 48.0117 63.363 42.6026C63.363 37.1935 58.9781 32.8086 53.569 32.8086C48.1599 32.8086 43.775 37.1935 43.775 42.6026C43.775 48.0117 48.1599 52.3966 53.569 52.3966Z" fill="#F8AE05" stroke="black" stroke-width="2" stroke-linecap="round" stroke-linejoin="round"/>
<path d="M53.5689 46.9096C55.9476 46.9096 57.8759 44.9813 57.8759 42.6026C57.8759 40.2239 55.9476 38.2956 53.5689 38.2956C51.1902 38.2956 49.2619 40.2239 49.2619 42.6026C49.2619 44.9813 51.1902 46.9096 53.5689 46.9096Z" fill="#F8AE05" stroke="black" stroke-width="2" stroke-linecap="round" stroke-linejoin="round"/>
<path d="M40.8609 63.6696C49.1424 63.6696 55.8559 56.9561 55.8559 48.6746C55.8559 40.3931 49.1424 33.6796 40.8609 33.6796C32.5794 33.6796 25.8659 40.3931 25.8659 48.6746C25.8659 56.9561 32.5794 63.6696 40.8609 63.6696Z" fill="#F8AE05" stroke="black" stroke-width="2" stroke-linecap="round" stroke-linejoin="round"/>
<path d="M40.861 58.4687C46.2701 58.4687 50.655 54.0837 50.655 48.6747C50.655 43.2656 46.2701 38.8807 40.861 38.8807C35.4519 38.8807 31.067 43.2656 31.067 48.6747C31.067 54.0837 35.4519 58.4687 40.861 58.4687Z" fill="#F8AE05" stroke="black" stroke-width="2" stroke-linecap="round" stroke-linejoin="round"/>
<path d="M40.8609 52.9817C43.2396 52.9817 45.1679 51.0534 45.1679 48.6747C45.1679 46.296 43.2396 44.3677 40.8609 44.3677C38.4822 44.3677 36.5539 46.296 36.5539 48.6747C36.5539 51.0534 38.4822 52.9817 40.8609 52.9817Z" fill="#F8AE05" stroke="black" stroke-width="2" stroke-linecap="round" stroke-linejoin="round"/>
<path d="M43.383 80.2226C43.0586 79.9949 42.8366 79.6489 42.7648 79.2592C42.693 78.8694 42.777 78.467 42.9989 78.1386L79.2819 24.4676C79.3945 24.3011 79.539 24.1587 79.7072 24.0487C79.8754 23.9387 80.0638 23.8633 80.2614 23.8269C80.4591 23.7905 80.662 23.7938 80.8583 23.8367C81.0546 23.8796 81.2405 23.9611 81.4049 24.0766L83.3449 25.4406C83.5093 25.5563 83.649 25.7035 83.7558 25.8737C83.8626 26.0439 83.9345 26.2337 83.9672 26.432C83.9999 26.6303 83.9927 26.8331 83.9461 27.0286C83.8996 27.2241 83.8145 27.4084 83.6959 27.5706L45.4739 79.8776C45.24 80.1975 44.8899 80.4129 44.4989 80.4774C44.1079 80.5419 43.7072 80.4504 43.383 80.2226V80.2226Z" fill="#F16932"/>
<path d="M43.383 80.2226C43.0586 79.9949 42.8366 79.6489 42.7648 79.2592C42.693 78.8694 42.777 78.467 42.9989 78.1386L79.2819 24.4676C79.3945 24.3011 79.539 24.1587 79.7072 24.0487C79.8754 23.9387 80.0638 23.8633 80.2614 23.8269C80.4591 23.7905 80.662 23.7938 80.8583 23.8367C81.0546 23.8796 81.2405 23.9611 81.4049 24.0766L83.3449 25.4406C83.5093 25.5563 83.649 25.7035 83.7558 25.8737C83.8626 26.0439 83.9345 26.2337 83.9672 26.432C83.9999 26.6303 83.9927 26.8331 83.9461 27.0286C83.8996 27.2241 83.8145 27.4084 83.6959 27.5706L45.4739 79.8776C45.24 80.1975 44.8899 80.4129 44.4989 80.4774C44.1079 80.5419 43.7072 80.4504 43.383 80.2226V80.2226Z" stroke="black" stroke-width="2" stroke-linecap="round" stroke-linejoin="round"/>
<path d="M68.564 88.9996H27.121L24 49.1506H71.684L68.564 88.9996Z" fill="#F4F2EB" stroke="black" stroke-width="2" stroke-linecap="round" stroke-linejoin="round"/>
<path d="M43.731 63.9517L68.564 88.9997H27.121L47.842 69.4337" fill="#F4F2EB"/>
<path d="M43.731 63.9517L68.564 88.9997H27.121L47.842 69.4337" stroke="black" stroke-width="2" stroke-linecap="round" stroke-linejoin="round"/>
<path d="M24 49.1506L33.8 63.9516H61.565L71.684 49.1506H24Z" fill="#F4F2EB" stroke="black" stroke-width="2" stroke-linecap="round" stroke-linejoin="round"/>
</svg>
