<svg width="108" height="108" viewBox="0 0 108 108" fill="none" xmlns="http://www.w3.org/2000/svg">
<path d="M73.8304 73.558H34.3624C30.4014 73.558 27.1894 71.734 27.1894 67.773V60.257C27.1896 58.3548 27.9455 56.5305 29.2906 55.1856C30.6358 53.8406 32.4601 53.085 34.3624 53.085H73.8304C75.7326 53.085 77.5569 53.8406 78.9021 55.1856C80.2473 56.5305 81.0031 58.3548 81.0034 60.257V67.773C81.0034 71.734 77.7964 73.558 73.8304 73.558Z" fill="white"/>
<path d="M73.8304 73.558H34.3624C30.4014 73.558 27.1894 71.734 27.1894 67.773V60.257C27.1896 58.3548 27.9455 56.5305 29.2906 55.1856C30.6358 53.8406 32.4601 53.085 34.3624 53.085H73.8304C75.7326 53.085 77.5569 53.8406 78.9021 55.1856C80.2473 56.5305 81.0031 58.3548 81.0034 60.257V67.773C81.0034 71.734 77.7964 73.558 73.8304 73.558Z" stroke="black" stroke-width="2" stroke-linecap="round" stroke-linejoin="round"/>
<path d="M78.8964 60.733C76.8801 60.7336 74.909 60.136 73.2324 59.016C72.9744 58.844 66.7674 54.796 54.0944 54.796C48.5464 54.796 44.2614 55.223 40.9944 56.101C38.7264 56.711 37.0314 57.501 35.3244 58.758C34.2472 59.5877 33.0151 60.1937 31.7003 60.5403C30.3856 60.887 29.0148 60.9672 27.6686 60.7764C26.3224 60.5856 25.0279 60.1276 23.8613 59.4293C22.6946 58.7309 21.6794 57.8064 20.8752 56.71C20.0711 55.6137 19.4942 54.3676 19.1786 53.045C18.863 51.7225 18.815 50.3502 19.0374 49.0089C19.2598 47.6675 19.7481 46.3842 20.4737 45.2343C21.1993 44.0844 22.1474 43.0912 23.2624 42.313C27.0244 39.552 30.9764 37.675 35.7014 36.405C40.7174 35.056 46.7354 34.4 54.1014 34.4C61.0654 34.4 67.6014 35.307 73.5294 37.1C79.2704 38.834 82.9084 40.95 84.5664 42.057C86.3839 43.2737 87.7621 45.0424 88.4978 47.1021C89.2335 49.1617 89.2876 51.4034 88.6522 53.4962C88.0169 55.589 86.7256 57.4221 84.969 58.7251C83.2124 60.0282 81.0835 60.7321 78.8964 60.733V60.733Z" fill="#F16932"/>
<path d="M78.8964 60.733C76.8801 60.7336 74.909 60.136 73.2324 59.016C72.9744 58.844 66.7674 54.796 54.0944 54.796C48.5464 54.796 44.2614 55.223 40.9944 56.101C38.7264 56.711 37.0314 57.501 35.3244 58.758C34.2472 59.5877 33.0151 60.1937 31.7003 60.5403C30.3856 60.887 29.0148 60.9672 27.6686 60.7764C26.3224 60.5856 25.0279 60.1276 23.8613 59.4293C22.6946 58.7309 21.6794 57.8064 20.8752 56.71C20.0711 55.6137 19.4942 54.3676 19.1786 53.045C18.863 51.7225 18.815 50.3502 19.0374 49.0089C19.2598 47.6675 19.7481 46.3842 20.4737 45.2343C21.1993 44.0844 22.1474 43.0912 23.2624 42.313C27.0244 39.552 30.9764 37.675 35.7014 36.405C40.7174 35.056 46.7354 34.4 54.1014 34.4C61.0654 34.4 67.6014 35.307 73.5294 37.1C79.2704 38.834 82.9084 40.95 84.5664 42.057C86.3839 43.2737 87.7621 45.0424 88.4978 47.1021C89.2335 49.1617 89.2876 51.4034 88.6522 53.4962C88.0169 55.589 86.7256 57.4221 84.969 58.7251C83.2124 60.0282 81.0835 60.7321 78.8964 60.733V60.733Z" stroke="black" stroke-width="2" stroke-linecap="round" stroke-linejoin="round"/>
<path d="M22.9193 42.579C27.2503 45.328 31.6953 50.922 29.5453 60.733" stroke="black" stroke-width="2" stroke-linecap="round" stroke-linejoin="round"/>
<path d="M34.1964 36.838C39.2904 40.411 43.9763 47.049 41.2483 56.038" stroke="black" stroke-width="2" stroke-linecap="round" stroke-linejoin="round"/>
<path d="M66.0223 56.179C69.7403 52.19 73.2163 44.612 66.0363 35.693" stroke="black" stroke-width="2" stroke-linecap="round" stroke-linejoin="round"/>
<path d="M52.3663 54.811C55.7223 50.73 58.8973 42.888 51.4573 34.693" stroke="black" stroke-width="2" stroke-linecap="round" stroke-linejoin="round"/>
<path d="M76.2754 60.39C81.0344 56.143 85.2084 48.761 81.4624 40.253" stroke="black" stroke-width="2" stroke-linecap="round" stroke-linejoin="round"/>
</svg>
