<svg width="108" height="108" viewBox="0 0 108 108" fill="none" xmlns="http://www.w3.org/2000/svg">
<path d="M87.179 38.748L70.358 49.817L53.538 38.748L36.718 49.817L19.899 38.748V77.444H87.179V38.748Z" fill="#F8AE05" stroke="black" stroke-width="2" stroke-linecap="round" stroke-linejoin="round"/>
<path d="M85.439 38.7481C89.3619 38.7481 92.542 35.568 92.542 31.6451C92.542 27.7222 89.3619 24.5421 85.439 24.5421C81.5162 24.5421 78.336 27.7222 78.336 31.6451C78.336 35.568 81.5162 38.7481 85.439 38.7481Z" fill="#F8AE05" stroke="black" stroke-width="2" stroke-linecap="round" stroke-linejoin="round"/>
<path d="M53.735 38.206C57.6579 38.206 60.838 35.0259 60.838 31.103C60.838 27.1801 57.6579 24 53.735 24C49.8122 24 46.632 27.1801 46.632 31.103C46.632 35.0259 49.8122 38.206 53.735 38.206Z" fill="#F8AE05" stroke="black" stroke-width="2" stroke-linecap="round" stroke-linejoin="round"/>
<path d="M22.503 38.7481C26.4259 38.7481 29.606 35.568 29.606 31.6451C29.606 27.7222 26.4259 24.5421 22.503 24.5421C18.5801 24.5421 15.4 27.7222 15.4 31.6451C15.4 35.568 18.5801 38.7481 22.503 38.7481Z" fill="#F8AE05" stroke="black" stroke-width="2" stroke-linecap="round" stroke-linejoin="round"/>
<path d="M53.735 67.2041C58.1831 67.2041 61.789 63.5982 61.789 59.1501C61.789 54.702 58.1831 51.0961 53.735 51.0961C49.2869 51.0961 45.681 54.702 45.681 59.1501C45.681 63.5982 49.2869 67.2041 53.735 67.2041Z" fill="#FFBCDD" stroke="black" stroke-width="2" stroke-linecap="round" stroke-linejoin="round"/>
<path d="M72.498 64.7231C74.8292 64.7231 76.719 62.8333 76.719 60.5021C76.719 58.1709 74.8292 56.2811 72.498 56.2811C70.1669 56.2811 68.2771 58.1709 68.2771 60.5021C68.2771 62.8333 70.1669 64.7231 72.498 64.7231Z" fill="#FFBCDD" stroke="black" stroke-width="2" stroke-linecap="round" stroke-linejoin="round"/>
<path d="M35.322 64.886C37.6532 64.886 39.543 62.9962 39.543 60.665C39.543 58.3339 37.6532 56.444 35.322 56.444C32.9908 56.444 31.101 58.3339 31.101 60.665C31.101 62.9962 32.9908 64.886 35.322 64.886Z" fill="#FFBCDD" stroke="black" stroke-width="2" stroke-linecap="round" stroke-linejoin="round"/>
<path d="M84.626 74.298H21.675C19.225 74.298 17.239 76.2841 17.239 78.734V79.563C17.239 82.013 19.225 83.999 21.675 83.999H84.626C87.0759 83.999 89.062 82.013 89.062 79.563V78.734C89.062 76.2841 87.0759 74.298 84.626 74.298Z" fill="#F8AE05" stroke="black" stroke-width="2" stroke-linecap="round" stroke-linejoin="round"/>
<path d="M82.2601 68.3741V49.9261" stroke="white" stroke-width="2" stroke-linecap="round" stroke-linejoin="round"/>
<path d="M24.964 68.3741V49.9261" stroke="white" stroke-width="2" stroke-linecap="round" stroke-linejoin="round"/>
</svg>
