<svg width="108" height="108" viewBox="0 0 108 108" fill="none" xmlns="http://www.w3.org/2000/svg">
<path d="M79.032 32.852H28.968C23.4628 32.852 19 37.3149 19 42.82V71.465C19 76.9702 23.4628 81.433 28.968 81.433H79.032C84.5372 81.433 89 76.9702 89 71.465V42.82C89 37.3149 84.5372 32.852 79.032 32.852Z" fill="#FFBCDD" stroke="black" stroke-width="2" stroke-linecap="round" stroke-linejoin="round"/>
<path d="M29.698 26.6H41.742C42.4655 26.6 43.1594 26.8874 43.671 27.399C44.1826 27.9106 44.47 28.6045 44.47 29.328V32.756H26.97V29.328C26.97 28.6045 27.2574 27.9106 27.769 27.399C28.2806 26.8874 28.9745 26.6 29.698 26.6V26.6Z" fill="#F8AE05" stroke="black" stroke-width="2" stroke-linecap="round" stroke-linejoin="round"/>
<path d="M69.5359 57.886H89" stroke="black" stroke-width="2" stroke-linecap="round" stroke-linejoin="round"/>
<path d="M19.2141 57.886H38.4641" stroke="black" stroke-width="2" stroke-linecap="round" stroke-linejoin="round"/>
<path d="M66.1791 39.108H78.7041" stroke="black" stroke-width="2" stroke-linecap="round" stroke-linejoin="round"/>
<path d="M54 72.255C61.9358 72.255 68.3691 65.8218 68.3691 57.886C68.3691 49.9502 61.9358 43.517 54 43.517C46.0643 43.517 39.6311 49.9502 39.6311 57.886C39.6311 65.8218 46.0643 72.255 54 72.255Z" fill="#2D76FF" stroke="black" stroke-width="2" stroke-linecap="round" stroke-linejoin="round"/>
<path d="M61.965 57.8851C61.965 59.9975 61.1259 62.0235 59.6321 63.5172C58.1384 65.0109 56.1124 65.85 54 65.85" stroke="white" stroke-width="2" stroke-linecap="round" stroke-linejoin="round"/>
</svg>
