<svg width="108" height="108" viewBox="0 0 108 108" fill="none" xmlns="http://www.w3.org/2000/svg">
<path d="M54.003 60.368C54.003 59.0711 53.7475 57.7869 53.2512 56.5887C52.7549 55.3906 52.0274 54.3019 51.1103 53.3849C50.1932 52.4679 49.1045 51.7406 47.9063 51.2444C46.7081 50.7482 45.4239 50.4928 44.127 50.493C42.8302 50.493 41.5461 50.7484 40.348 51.2446C39.1499 51.7409 38.0613 52.4683 37.1443 53.3853C36.2273 54.3023 35.5 55.3909 35.0037 56.589C34.5074 57.7871 34.252 59.0712 34.252 60.368C34.2517 57.7489 33.2111 55.2371 31.359 53.3852C29.507 51.5333 26.9951 50.493 24.376 50.493C21.7569 50.493 19.245 51.5333 17.393 53.3852C15.5409 55.2371 14.5003 57.7489 14.5 60.368C14.5 38.552 32.186 20.868 54 20.868C75.814 20.868 93.5 38.554 93.5 60.368C93.4997 57.7489 92.4591 55.2371 90.607 53.3852C88.755 51.5333 86.2431 50.493 83.624 50.493C81.0049 50.493 78.493 51.5333 76.641 53.3852C74.7889 55.2371 73.7483 57.7489 73.748 60.368C73.748 57.749 72.7076 55.2372 70.8557 53.3853C69.0038 51.5334 66.492 50.493 63.873 50.493C61.2549 50.4943 58.7444 51.5353 56.8936 53.3871C55.0427 55.2388 54.003 57.7498 54.003 60.368V60.368Z" fill="#96C0E4" stroke="black" stroke-width="2" stroke-linecap="round" stroke-linejoin="round"/>
<path d="M53.932 21.051C53.932 21.051 34.252 27.734 34.252 60.368" stroke="black" stroke-width="2" stroke-linecap="round" stroke-linejoin="round"/>
<path d="M54.0391 21.051C54.0391 21.051 73.719 27.734 73.719 60.368" stroke="black" stroke-width="2" stroke-linecap="round" stroke-linejoin="round"/>
<path d="M54.007 24.724V55.664" stroke="black" stroke-width="2" stroke-linecap="round" stroke-linejoin="round"/>
<path d="M63.9179 84.046C63.9179 85.3599 63.396 86.62 62.467 87.549C61.5379 88.4781 60.2779 89 58.964 89V89C57.6501 89 56.39 88.4781 55.4609 87.549C54.5319 86.62 54.01 85.3599 54.01 84.046V19" stroke="black" stroke-width="2" stroke-linecap="round" stroke-linejoin="round"/>
<path d="M23.7549 45.237C23.7549 45.237 25.1549 39.752 30.9779 35.15" stroke="white" stroke-width="2" stroke-linecap="round" stroke-linejoin="round"/>
<path d="M58.4059 35.979V45.981" stroke="white" stroke-width="2" stroke-linecap="round" stroke-linejoin="round"/>
</svg>
