<svg width="108" height="108" viewBox="0 0 108 108" fill="none" xmlns="http://www.w3.org/2000/svg">
<path d="M74.172 75.5C76.1194 75.5 78.0477 75.1164 79.8469 74.3711C81.646 73.6258 83.2808 72.5334 84.6577 71.1563C86.0346 69.7791 87.1268 68.1443 87.8719 66.3451C88.6169 64.5458 89.0003 62.6174 89 60.67C88.9993 56.9752 87.6188 53.4137 85.1292 50.6836C82.6395 47.9535 79.2201 46.2515 75.541 45.911C74.1 38.278 67.4 32.5 59.344 32.5C51.268 32.5 44.559 38.308 43.137 45.972C41.7717 44.9966 40.1359 44.4722 38.458 44.472C36.3097 44.472 34.2495 45.3254 32.7304 46.8444C31.2114 48.3635 30.358 50.4237 30.358 52.572C30.3608 53.2499 30.4484 53.9249 30.619 54.581C30.2323 54.5363 29.8433 54.5132 29.454 54.512C26.6807 54.5131 24.0214 55.6156 22.061 57.5772C20.1005 59.5388 18.9995 62.1987 19 64.972C19 67.7457 20.1018 70.4057 22.0631 72.3669C24.0243 74.3282 26.6844 75.43 29.458 75.43L74.172 75.5Z" fill="white" stroke="black" stroke-width="2" stroke-linecap="round" stroke-linejoin="round"/>
</svg>
