<svg width="108" height="108" viewBox="0 0 108 108" fill="none" xmlns="http://www.w3.org/2000/svg">
<path d="M58.5148 19.6228L35.1388 54.4488C34.9965 54.66 34.9146 54.906 34.9018 55.1603C34.8889 55.4146 34.9457 55.6675 35.0659 55.892C35.1862 56.1164 35.3653 56.3038 35.5842 56.434C35.803 56.5642 36.0532 56.6322 36.3078 56.6308H46.0648C46.4361 56.6308 46.7922 56.7783 47.0547 57.0409C47.3173 57.3034 47.4648 57.6595 47.4648 58.0308V87.5998C47.4648 89.0208 49.3358 89.5398 50.0648 88.3218L72.9158 50.3218C73.0442 50.1093 73.1137 49.8665 73.1174 49.6183C73.121 49.3701 73.0585 49.1253 72.9364 48.9092C72.8143 48.693 72.6369 48.5132 72.4224 48.3882C72.2079 48.2632 71.964 48.1975 71.7158 48.1978H61.5738C61.3856 48.1979 61.1994 48.1602 61.0262 48.0867C60.853 48.0132 60.6964 47.9056 60.5657 47.7703C60.435 47.6349 60.333 47.4746 60.2656 47.2989C60.1983 47.1233 60.167 46.9358 60.1738 46.7478L61.0798 20.4608C61.1278 19.0438 59.2998 18.4528 58.5148 19.6228Z" fill="#F9D744" stroke="black" stroke-width="2" stroke-linecap="round" stroke-linejoin="round"/>
<path d="M51.2019 39.6818L44.6779 51.1578" stroke="white" stroke-width="2" stroke-linecap="round" stroke-linejoin="round"/>
<path d="M61.3639 55.8929L52.5049 71.4749" stroke="white" stroke-width="2" stroke-linecap="round" stroke-linejoin="round"/>
</svg>
