<svg width="108" height="108" viewBox="0 0 108 108" fill="none" xmlns="http://www.w3.org/2000/svg">
<path d="M47.406 19.1191C47.2496 19.0437 47.0787 19.0031 46.9051 19.0002C46.7315 18.9972 46.5593 19.032 46.4005 19.1021C46.2416 19.1721 46.0998 19.2758 45.9849 19.406C45.87 19.5362 45.7848 19.6898 45.735 19.8562C44.779 23.1292 41.091 31.3562 36.5 39.6562C29.479 52.3432 26.9 58.9191 26.9 66.4381C26.9 73.9571 32.778 88.9981 53.063 88.9981C73.348 88.9981 81.043 75.2752 81.043 65.6722C81.043 60.3192 78.523 51.4912 74.65 45.9522C74.027 45.0622 72.627 45.4131 72.494 46.4911C72.066 49.9371 70.55 55.3662 65.308 56.9912C65.308 56.9982 68.394 29.2751 47.406 19.1191Z" fill="#F16932"/>
<path d="M47.406 19.1191C47.2496 19.0437 47.0787 19.0031 46.9051 19.0002C46.7315 18.9972 46.5593 19.032 46.4005 19.1021C46.2416 19.1721 46.0998 19.2758 45.9849 19.406C45.87 19.5362 45.7848 19.6898 45.735 19.8562C44.779 23.1292 41.091 31.3562 36.5 39.6562C29.479 52.3432 26.9 58.9191 26.9 66.4381C26.9 73.9571 32.778 88.9981 53.063 88.9981C73.348 88.9981 81.043 75.2752 81.043 65.6722C81.043 60.3192 78.523 51.4912 74.65 45.9522C74.027 45.0622 72.627 45.4131 72.494 46.4911C72.066 49.9371 70.55 55.3662 65.308 56.9912C65.308 56.9982 68.394 29.2751 47.406 19.1191Z" stroke="black" stroke-width="2" stroke-linecap="round" stroke-linejoin="round"/>
<path d="M33.2832 64.6542C33.2832 70.2912 37.6922 81.5652 52.8982 81.5652" stroke="white" stroke-width="2" stroke-linecap="round" stroke-linejoin="round"/>
</svg>
