<svg width="108" height="108" viewBox="0 0 108 108" fill="none" xmlns="http://www.w3.org/2000/svg">
<path d="M70.9539 56.1274L62.4069 62.6704C60.3169 64.2704 57.2999 62.7785 57.3069 60.1465L57.3129 49.3825C57.3131 48.8677 57.1882 48.3606 56.9488 47.9049C56.7094 47.4491 56.3629 47.0584 55.9389 46.7664L47.0749 40.6595C44.9079 39.1655 45.3939 35.8354 47.8969 35.0234L58.1359 31.7035C58.6257 31.5447 59.0695 31.2693 59.4291 30.9008C59.7887 30.5324 60.0532 30.082 60.1999 29.5885L63.2699 19.2714C64.0199 16.7484 67.3369 16.1815 68.8829 18.3115L75.2049 27.0234C75.5074 27.44 75.9065 27.7767 76.3679 28.0048C76.8294 28.2328 77.3394 28.3453 77.8539 28.3325L88.6149 28.0635C91.2459 27.9975 92.8149 30.9775 91.2619 33.1055L84.9309 41.8105C84.628 42.2267 84.4308 42.7103 84.3564 43.2197C84.282 43.7291 84.3326 44.249 84.5039 44.7345L88.0849 54.8855C88.9609 57.3675 86.6099 59.7765 84.1079 58.9615L73.8719 55.6294C73.3817 55.4692 72.8598 55.4308 72.3513 55.5176C71.8429 55.6043 71.3633 55.8136 70.9539 56.1274V56.1274Z" fill="#F9D744" stroke="black" stroke-width="2" stroke-linecap="round" stroke-linejoin="round"/>
<path d="M48.8281 53.4845C43.1281 57.7415 37.8951 62.6615 33.1941 67.9845C32.0631 69.2845 30.8941 70.6846 29.8391 72.0466C29.2471 72.8056 28.5161 73.7765 27.9611 74.5585C27.4061 75.3405 26.7121 76.3316 26.1981 77.1256L25.6351 77.9906C22.4281 82.6236 15.6451 78.2816 18.5291 73.4256C18.7541 73.0476 19.4461 72.3566 19.7471 72.0196C19.9411 71.8046 20.3341 71.3905 20.5351 71.1835C21.8101 69.8495 23.2551 68.4406 24.6171 67.1966C30.4031 61.9116 36.8281 57.3175 43.6061 53.4145C44.7301 52.7705 45.8721 52.1445 47.0261 51.5525L47.5371 51.2945C47.8253 51.1509 48.1572 51.1218 48.466 51.2131C48.7748 51.3044 49.0375 51.5094 49.2012 51.7867C49.3649 52.064 49.4174 52.3931 49.3482 52.7076C49.2789 53.0221 49.0931 53.2986 48.8281 53.4815V53.4845Z" fill="#2D76FF" stroke="black" stroke-width="2" stroke-linecap="round" stroke-linejoin="round"/>
<path d="M50.785 62.7895C48.317 67.5995 46.401 72.7075 44.97 77.9075C44.777 78.6565 44.57 79.4785 44.386 80.2315C44.226 80.9785 44.045 81.8165 43.886 82.5585C43.799 83.0585 43.565 84.3865 43.486 84.8835C43.418 85.4105 43.251 86.6655 43.186 87.1985C43.1272 87.762 42.9562 88.3079 42.6831 88.8042C42.4099 89.3005 42.0401 89.7371 41.5956 90.0881C41.151 90.4392 40.6406 90.6978 40.0945 90.8485C39.5484 90.9991 38.9777 91.039 38.416 90.9655C35.757 90.6495 34.045 87.8055 34.99 85.3075L35.604 83.6295C35.933 82.6865 36.541 81.2815 36.927 80.3445C37.397 79.3155 37.9 78.1825 38.416 77.1715C40.9755 72.0374 44.0564 67.1802 47.61 62.6765C47.961 62.2285 48.338 61.7765 48.71 61.3365C49.74 60.1755 51.525 61.4245 50.792 62.7895H50.785Z" fill="#2D76FF" stroke="black" stroke-width="2" stroke-linecap="round" stroke-linejoin="round"/>
<path d="M40.7311 48.7625C36.0681 50.0465 31.5391 51.8705 27.2481 54.0745C26.4361 54.5145 25.5481 54.9745 24.7541 55.4545C24.0321 55.8675 23.0541 56.4705 22.3541 56.9325C21.9941 57.1555 21.5421 57.4635 21.1981 57.7115L20.0661 58.5115C19.6146 58.8451 19.1014 59.0858 18.5562 59.2197C18.011 59.3536 17.4447 59.3781 16.89 59.2916C16.3353 59.205 15.8033 59.0093 15.3248 58.7158C14.8463 58.4222 14.4307 58.0367 14.1023 57.5814C13.7738 57.1261 13.5389 56.6102 13.4112 56.0635C13.2835 55.5169 13.2656 54.9503 13.3584 54.3966C13.4512 53.843 13.6529 53.3132 13.9519 52.8381C14.2509 52.3629 14.6411 51.9518 15.1001 51.6285C15.6251 51.2195 16.9061 50.8135 17.5251 50.5595C18.3631 50.2215 19.6791 49.8005 20.5471 49.5065C21.5251 49.2145 22.5941 48.8855 23.5881 48.6355C28.5871 47.3323 33.7072 46.5481 38.8671 46.2955C39.3791 46.2685 39.9111 46.2555 40.4261 46.2455C41.9641 46.2565 42.2151 48.3925 40.7261 48.7665L40.7311 48.7625Z" fill="#2D76FF" stroke="black" stroke-width="2" stroke-linecap="round" stroke-linejoin="round"/>
</svg>
