<svg width="108" height="108" viewBox="0 0 108 108" fill="none" xmlns="http://www.w3.org/2000/svg">
<path d="M54 19C31.412 19 13.1 37.311 13.1 59.9V89H21.581V59.9C21.581 42 36.095 27.482 53.999 27.482C71.903 27.482 86.418 42 86.418 59.9V89H94.9V59.9C94.9 37.311 76.588 19 54 19Z" fill="#FFBCDD" stroke="black" stroke-width="2" stroke-linecap="round" stroke-linejoin="round"/>
<path d="M86.418 59.9001C86.418 42.0001 71.904 27.4821 54 27.4821C36.096 27.4821 21.582 42.0001 21.582 59.9001V89.0001H31.258V59.9001C31.258 47.3401 41.44 37.1581 54 37.1581C66.56 37.1581 76.742 47.3391 76.742 59.9001H76.75V89.0001H86.426V59.9001H86.418Z" fill="#F8AE05" stroke="black" stroke-width="2" stroke-linecap="round" stroke-linejoin="round"/>
<path d="M54 37.157C41.44 37.157 31.258 47.339 31.258 59.899V88.999H41.3V59.9H41.316C41.3159 58.2344 41.6439 56.5851 42.2813 55.0462C42.9187 53.5074 43.853 52.1092 45.0309 50.9315C46.2088 49.7538 47.6071 48.8197 49.146 48.1826C50.685 47.5454 52.3344 47.2176 54 47.218C55.6654 47.218 57.3145 47.5461 58.8531 48.1834C60.3917 48.8208 61.7896 49.7549 62.9672 50.9326C64.1447 52.1102 65.0788 53.5083 65.716 55.0469C66.3532 56.5856 66.6811 58.2347 66.681 59.9H66.697V89H76.742V59.9C76.742 47.339 66.56 37.157 54 37.157Z" fill="#017A71" stroke="black" stroke-width="2" stroke-linecap="round" stroke-linejoin="round"/>
</svg>
