<svg width="108" height="108" viewBox="0 0 108 108" fill="none" xmlns="http://www.w3.org/2000/svg">
<path d="M74.0231 40.7238C73.4039 42.0437 72.474 43.1939 71.313 44.0758C68.027 46.6308 64.776 46.0758 62.834 45.7388C61.34 45.4818 61.277 45.5308 61.014 45.7388C60.751 45.9468 60.69 45.9908 60.57 47.5028C60.415 49.4668 60.155 52.7548 56.87 55.3088C53.585 57.8628 50.334 57.3088 48.392 56.9708C46.898 56.7148 46.8351 56.7628 46.5731 56.9708C45.6821 57.6554 44.5564 57.9595 43.4419 57.8167C42.3275 57.6739 41.3148 57.0958 40.6252 56.2087C39.9357 55.3216 39.6253 54.1977 39.7618 53.0824C39.8984 51.9672 40.4708 50.9513 41.3541 50.2568C44.6411 47.7018 47.891 48.2568 49.833 48.5948C51.327 48.8508 51.3891 48.8028 51.6521 48.5948C51.9151 48.3868 51.976 48.3418 52.096 46.8308C52.252 44.8668 52.5121 41.5798 55.7961 39.0248C59.08 36.4698 62.3321 37.0248 64.2741 37.3618C65.7741 37.6178 65.831 37.5698 66.093 37.3618C66.355 37.1538 66.419 37.1088 66.539 35.5968C66.695 33.6328 66.956 30.3458 70.239 27.7908C70.6795 27.4444 71.1842 27.1885 71.7239 27.0378C72.2637 26.8871 72.8279 26.8446 73.3841 26.9127C73.9403 26.9808 74.4776 27.1582 74.965 27.4347C75.4525 27.7111 75.8805 28.0812 76.2244 28.5237C76.5683 28.9661 76.8214 29.4721 76.969 30.0127C77.1167 30.5533 77.1561 31.1177 77.0848 31.6736C77.0136 32.2294 76.8332 32.7657 76.5541 33.2516C76.2749 33.7374 75.9024 34.1633 75.458 34.5048C75.196 34.7048 75.133 34.7568 75.013 36.2688C74.924 37.4328 74.7951 39.0598 74.0231 40.7238Z" fill="#F8AE05" stroke="black" stroke-width="2" stroke-linecap="round" stroke-linejoin="round"/>
<path d="M50.218 89.7908C48.7601 89.7856 47.3253 89.4262 46.037 88.7438C42.337 86.8388 41.474 83.6558 40.959 81.7538C40.559 80.2898 40.492 80.2538 40.196 80.1008C39.9 79.9478 39.831 79.9138 38.409 80.4408C36.562 81.1268 33.47 82.2748 29.769 80.3688C26.068 78.4628 25.207 75.2808 24.692 73.3788C24.292 71.9148 24.225 71.8788 23.93 71.7268C23.4272 71.4749 22.9793 71.1258 22.6124 70.6997C22.2454 70.2735 21.9666 69.7788 21.7922 69.2442C21.6177 68.7096 21.551 68.1457 21.596 67.5851C21.641 67.0245 21.7967 66.4784 22.0542 65.9785C22.3116 65.4785 22.6657 65.0346 23.0959 64.6724C23.5261 64.3102 24.0239 64.037 24.5604 63.8685C25.0969 63.7 25.6615 63.6396 26.2216 63.6908C26.7816 63.742 27.3259 63.9037 27.823 64.1667C31.523 66.0717 32.385 69.2548 32.9 71.1568C33.3 72.6208 33.367 72.6568 33.662 72.8088C33.957 72.9608 34.028 72.9968 35.449 72.4688C37.296 71.7828 40.388 70.6358 44.089 72.5408C47.79 74.4458 48.652 77.6298 49.167 79.5308C49.567 80.9948 49.633 81.0308 49.929 81.1828C50.225 81.3348 50.296 81.3718 51.718 80.8438C53.565 80.1588 56.656 79.0117 60.357 80.9167C60.8621 81.1672 61.3125 81.5156 61.6817 81.9417C62.051 82.3677 62.3318 82.863 62.5079 83.3986C62.684 83.9343 62.7517 84.4996 62.7073 85.0616C62.6628 85.6237 62.507 86.1713 62.249 86.6726C61.9909 87.1739 61.6357 87.6189 61.204 87.9816C60.7724 88.3443 60.2729 88.6176 59.7347 88.7855C59.1964 88.9534 58.6301 89.0126 58.0688 88.9596C57.5075 88.9066 56.9623 88.7424 56.465 88.4768C56.165 88.3258 56.099 88.2887 54.677 88.8167C53.582 89.2227 52.051 89.7908 50.218 89.7908Z" fill="#017A71" stroke="black" stroke-width="2" stroke-linecap="round" stroke-linejoin="round"/>
<path d="M83.6701 59.0199C87.2964 59.0199 90.2361 56.0802 90.2361 52.4539C90.2361 48.8276 87.2964 45.8879 83.6701 45.8879C80.0438 45.8879 77.1041 48.8276 77.1041 52.4539C77.1041 56.0802 80.0438 59.0199 83.6701 59.0199Z" fill="#F16932" stroke="black" stroke-width="2" stroke-linecap="round" stroke-linejoin="round"/>
<path d="M24.366 53.6188C27.9923 53.6188 30.9319 50.6791 30.9319 47.0528C30.9319 43.4265 27.9923 40.4868 24.366 40.4868C20.7397 40.4868 17.8 43.4265 17.8 47.0528C17.8 50.6791 20.7397 53.6188 24.366 53.6188Z" fill="#FFBCDD" stroke="black" stroke-width="2" stroke-linecap="round" stroke-linejoin="round"/>
<path d="M76.783 76.0494C79.0681 76.6166 81.3803 75.224 81.9474 72.939C82.5146 70.6539 81.122 68.3417 78.837 67.7745L68.0784 65.1041C65.7934 64.5369 63.4812 65.9295 62.914 68.2146C62.3468 70.4996 63.7394 72.8118 66.0245 73.379L76.783 76.0494Z" fill="#2D76FF" stroke="black" stroke-width="2" stroke-linecap="round" stroke-linejoin="round"/>
<path d="M35.2172 26.2627C33.2139 27.4995 32.5925 30.1262 33.8293 32.1295C35.0661 34.1329 37.6928 34.7543 39.6961 33.5174L49.1284 27.6942C51.1317 26.4574 51.7532 23.8307 50.5163 21.8274C49.2795 19.824 46.6528 19.2026 44.6495 20.4395L35.2172 26.2627Z" fill="#96C0E4" stroke="black" stroke-width="2" stroke-linecap="round" stroke-linejoin="round"/>
</svg>
