<svg width="108" height="108" viewBox="0 0 108 108" fill="none" xmlns="http://www.w3.org/2000/svg">
<path d="M48.888 39.687V19L59.096 25.689V39.693L48.888 39.687Z" fill="#F16932" stroke="black" stroke-width="2" stroke-linecap="round" stroke-linejoin="round"/>
<path d="M48.723 39.6939H59.261C59.8233 39.6939 60.3625 39.9173 60.7601 40.3149C61.1577 40.7125 61.381 41.2517 61.381 41.8139V58.7479H46.603V41.8129C46.6033 41.2509 46.8268 40.7119 47.2243 40.3145C47.6219 39.9172 48.1609 39.6939 48.723 39.6939V39.6939Z" fill="#F8AE05" stroke="black" stroke-width="2" stroke-linecap="round" stroke-linejoin="round"/>
<path d="M61.833 58.747H46.15C44.6864 58.747 43.5 59.9334 43.5 61.397V86.35C43.5 87.8135 44.6864 89 46.15 89H61.833C63.2966 89 64.483 87.8135 64.483 86.35V61.397C64.483 59.9334 63.2966 58.747 61.833 58.747Z" fill="#F8AE05" stroke="black" stroke-width="2" stroke-linecap="round" stroke-linejoin="round"/>
</svg>
