<svg width="108" height="108" viewBox="0 0 108 108" fill="none" xmlns="http://www.w3.org/2000/svg">
<path d="M88.257 49.349H83.586C82.6271 46.7514 80.8946 44.5103 78.6223 42.928C76.3499 41.3457 73.647 40.4982 70.878 40.5C68.4601 40.4967 66.0858 41.1429 64.003 42.3709C61.9203 43.5989 60.2055 45.3638 59.038 47.481H48.82C47.6488 45.3654 45.9322 43.6021 43.8488 42.3744C41.7654 41.1468 39.3912 40.4995 36.973 40.5C34.2033 40.4987 31.4996 41.3462 29.2262 42.9283C26.9528 44.5105 25.2189 46.7513 24.258 49.349H19.743C18.8829 49.349 18.058 49.6907 17.4499 50.2989C16.8417 50.9071 16.5 51.7319 16.5 52.592V52.592C16.5 53.0178 16.5839 53.4395 16.7469 53.8329C16.9099 54.2263 17.1487 54.5838 17.4499 54.8848C17.7511 55.1859 18.1086 55.4246 18.5021 55.5875C18.8955 55.7504 19.3172 55.8342 19.743 55.834H23.543C23.9797 59.0857 25.5818 62.0683 28.0516 64.2278C30.5214 66.3874 33.6912 67.5771 36.972 67.576C38.7498 67.5764 40.5102 67.2265 42.1527 66.5464C43.7952 65.8662 45.2876 64.869 46.5446 63.6119C47.8017 62.3548 48.7987 60.8623 49.4787 59.2198C50.1588 57.5772 50.5085 55.8168 50.508 54.039V53.939H57.343C57.343 53.976 57.33 54.01 57.33 54.034C57.3304 55.8126 57.6811 57.5736 58.3623 59.2166C59.0434 60.8596 60.0415 62.3523 61.2996 63.6095C62.5577 64.8667 64.0511 65.8637 65.6946 66.5436C67.3381 67.2235 69.0994 67.573 70.878 67.572C77.748 67.572 83.409 62.455 84.307 55.83H88.257C88.6828 55.8302 89.1045 55.7464 89.498 55.5835C89.8914 55.4206 90.2489 55.1819 90.5501 54.8808C90.8513 54.5798 91.0901 54.2223 91.2531 53.8289C91.4161 53.4355 91.5 53.0139 91.5 52.588V52.588C91.4989 51.7286 91.1568 50.9048 90.5487 50.2975C89.9407 49.6902 89.1164 49.349 88.257 49.349Z" fill="#2D76FF" stroke="black" stroke-width="2" stroke-linecap="round" stroke-linejoin="round"/>
<path d="M45.1121 54.089C45.1143 55.175 44.9021 56.2508 44.4878 57.2547C44.0734 58.2585 43.4649 59.1707 42.6972 59.939C41.9296 60.7072 41.0178 61.3163 40.0143 61.7314C39.0107 62.1465 37.9351 62.3595 36.8491 62.358C35.7629 62.3592 34.6871 62.1461 33.6834 61.731C32.6797 61.3158 31.7677 60.7068 30.9997 59.9387C30.2317 59.1706 29.6227 58.2585 29.2077 57.2547C28.7927 56.251 28.5797 55.1752 28.5811 54.089C28.5842 51.8982 29.4567 49.7982 31.0069 48.25C32.5571 46.7019 34.6583 45.8323 36.8491 45.832C39.0396 45.8318 41.1405 46.7014 42.69 48.2498C44.2395 49.7981 45.1107 51.8985 45.1121 54.089V54.089Z" fill="#231F20" stroke="black" stroke-width="2" stroke-linecap="round" stroke-linejoin="round"/>
<path d="M79.286 54.089C79.2882 55.175 79.0761 56.2508 78.6617 57.2547C78.2473 58.2585 77.6388 59.1707 76.8712 59.939C76.1035 60.7072 75.1918 61.3163 74.1882 61.7314C73.1847 62.1465 72.109 62.3595 71.023 62.358C69.9368 62.3592 68.861 62.1461 67.8572 61.731C66.8534 61.3159 65.9414 60.7068 65.1733 59.9387C64.4052 59.1706 63.7961 58.2586 63.381 57.2548C62.9659 56.2511 62.7528 55.1752 62.754 54.089C62.7574 51.8981 63.6301 49.7981 65.1805 48.25C66.7308 46.7019 68.8321 45.8323 71.023 45.832C73.2135 45.8318 75.3145 46.7014 76.864 48.2498C78.4135 49.7981 79.2847 51.8985 79.286 54.089V54.089Z" fill="#231F20" stroke="black" stroke-width="2" stroke-linecap="round" stroke-linejoin="round"/>
<path d="M71.02 58.577C71.7153 58.52 72.3818 58.2745 72.948 57.8669C74.523 56.7319 75.448 55.367 75.878 54.038" stroke="white" stroke-width="2" stroke-linecap="round" stroke-linejoin="round"/>
<path d="M36.846 58.577C37.5416 58.5201 38.2086 58.2746 38.775 57.8669C40.349 56.7319 41.275 55.367 41.704 54.038" stroke="white" stroke-width="2" stroke-linecap="round" stroke-linejoin="round"/>
</svg>
