<svg width="108" height="108" viewBox="0 0 108 108" fill="none" xmlns="http://www.w3.org/2000/svg">
<path d="M89.8982 46.585C88.1302 43.392 84.3582 41.548 82.9062 42.93C81.7972 43.985 82.4842 45.056 84.1192 45.946C87.6082 47.846 88.2732 52.798 84.0982 53.419C77.5702 54.389 71.1102 41.5 61.6912 41.5C58.7302 41.5 56.7392 42.271 55.4472 43.112C55.0171 43.3934 54.5142 43.5433 54.0002 43.5433C53.4862 43.5433 52.9833 43.3934 52.5532 43.112C51.2612 42.271 49.2702 41.5 46.3092 41.5C36.8902 41.5 30.4302 54.389 23.9022 53.419C19.7272 52.798 20.3922 47.846 23.8812 45.946C25.5162 45.056 26.2032 43.985 25.0942 42.93C23.6422 41.548 19.8702 43.392 18.1022 46.585C16.1732 50.069 14.7572 56.851 21.4392 62.238C27.0672 66.775 41.7212 69.568 52.3222 60.774C52.7935 60.382 53.3872 60.1673 54.0002 60.1673C54.6132 60.1673 55.2069 60.382 55.6782 60.774C66.2782 69.568 80.9332 66.774 86.5612 62.238C93.2412 56.851 91.8252 50.069 89.8982 46.585Z" fill="#231F20" stroke="black" stroke-width="2" stroke-linecap="round" stroke-linejoin="round"/>
</svg>
