<svg width="108" height="108" viewBox="0 0 108 108" fill="none" xmlns="http://www.w3.org/2000/svg">
<path d="M53.971 74.6267C60.666 74.6267 67.528 72.5957 75.162 64.2617C82.795 55.9857 85.386 53.4366 88.999 51.5176C82.399 46.1396 81.772 41.8116 75.162 36.3916C69.097 31.5726 63.201 33.5476 60.343 34.6546C57.486 35.8456 53.971 39.3336 53.971 39.3336C53.971 39.3336 50.456 35.8456 47.571 34.6546C44.798 33.5476 38.846 31.5726 32.838 36.3916C26.156 41.8116 25.568 46.1396 19 51.5176C22.558 53.4366 25.135 55.9857 32.7 64.2617C40.441 72.5957 47.276 74.6267 53.971 74.6267Z" fill="#FFBCDD" stroke="black" stroke-width="2" stroke-linecap="round" stroke-linejoin="round"/>
</svg>
