<svg width="108" height="108" viewBox="0 0 108 108" fill="none" xmlns="http://www.w3.org/2000/svg">
<path d="M85.8831 51.712H22.474L31.374 31.801H76.984L85.8831 51.712Z" fill="#F8AE05" stroke="black" stroke-width="2" stroke-linecap="round" stroke-linejoin="round"/>
<path d="M22.474 51.712L55.667 87.322L85.8831 51.712H22.474Z" fill="#F8AE05" stroke="black" stroke-width="2" stroke-linecap="round" stroke-linejoin="round"/>
<path d="M47.6119 31.801L40.2039 51.237L55.6669 87.322L67.9039 51.237L61.1399 31.801H47.6119Z" fill="#F8AE05" stroke="black" stroke-width="2" stroke-linecap="round" stroke-linejoin="round"/>
<path d="M85.8831 51.712H22.474" stroke="black" stroke-width="2" stroke-linecap="round" stroke-linejoin="round"/>
<path d="M80.628 27.542C79.086 25.38 78.2 22.542 78.111 19.506C78.1071 19.3704 78.0505 19.2417 77.9532 19.1472C77.8559 19.0527 77.7256 18.9999 77.59 19V19C77.4544 18.9999 77.3241 19.0527 77.2268 19.1472C77.1295 19.2417 77.0729 19.3704 77.069 19.506C76.98 22.543 76.094 25.38 74.552 27.542C73.039 29.663 71.063 30.898 68.944 31.062C68.8123 31.0713 68.689 31.1301 68.5989 31.2266C68.5088 31.323 68.4584 31.45 68.458 31.582V32.019C68.4584 32.1511 68.5087 32.2782 68.5988 32.3748C68.6889 32.4714 68.8123 32.5304 68.944 32.54C71.063 32.704 73.044 33.94 74.552 36.059C76.094 38.221 76.98 41.059 77.069 44.095C77.0729 44.2306 77.1295 44.3595 77.2268 44.4541C77.324 44.5487 77.4543 44.6017 77.59 44.602V44.602C77.7257 44.6017 77.856 44.5487 77.9533 44.4541C78.0505 44.3595 78.1071 44.2306 78.111 44.095C78.2 41.059 79.086 38.221 80.628 36.059C82.141 33.939 84.117 32.704 86.236 32.54C86.3678 32.5304 86.4911 32.4714 86.5812 32.3748C86.6713 32.2782 86.7216 32.1511 86.722 32.019V31.582C86.7216 31.45 86.6712 31.323 86.5811 31.2266C86.491 31.1301 86.3677 31.0713 86.236 31.062C84.117 30.901 82.141 29.663 80.628 27.542Z" fill="white" stroke="black" stroke-width="2" stroke-miterlimit="10"/>
<path d="M37.359 66.489C35.323 63.636 34.159 59.889 34.037 55.889C34.0323 55.7099 33.9579 55.5398 33.8295 55.4148C33.7012 55.2899 33.5291 55.22 33.35 55.22V55.22C33.1709 55.2202 32.9988 55.2901 32.8704 55.415C32.742 55.5399 32.6672 55.7099 32.662 55.889C32.545 59.896 31.376 63.639 29.341 66.489C27.341 69.289 24.741 70.917 21.941 71.134C21.7673 71.1464 21.6047 71.2239 21.4858 71.3512C21.367 71.4784 21.3006 71.6459 21.3 71.82V72.401C21.3006 72.5751 21.367 72.7426 21.4858 72.8699C21.6047 72.9971 21.7673 73.0746 21.941 73.087C24.741 73.304 27.341 74.934 29.341 77.732C31.376 80.585 32.541 84.332 32.662 88.332C32.6672 88.5111 32.742 88.6811 32.8704 88.806C32.9988 88.9309 33.1709 89.0008 33.35 89.001V89.001C33.5291 89.0011 33.7012 88.9312 33.8295 88.8062C33.9579 88.6812 34.0323 88.5111 34.037 88.332C34.155 84.325 35.323 80.582 37.359 77.732C39.359 74.932 41.959 73.304 44.759 73.087C44.9327 73.0746 45.0953 72.9971 45.2142 72.8699C45.3331 72.7426 45.3994 72.5751 45.4 72.401V71.824C45.3994 71.6499 45.3331 71.4824 45.2142 71.3552C45.0953 71.2279 44.9327 71.1504 44.759 71.138C41.962 70.917 39.355 69.287 37.359 66.489Z" fill="white" stroke="black" stroke-width="2" stroke-miterlimit="10"/>
</svg>
