<svg width="108" height="108" viewBox="0 0 108 108" fill="none" xmlns="http://www.w3.org/2000/svg">
<path d="M54.0002 89C73.3302 89 89.0002 73.33 89.0002 54C89.0002 34.67 73.3302 19 54.0002 19C34.6702 19 19.0002 34.67 19.0002 54C19.0002 73.33 34.6702 89 54.0002 89Z" fill="#F8AE05" stroke="black" stroke-width="2" stroke-linecap="round" stroke-linejoin="round"/>
<path d="M78.127 28.645C81.5625 31.9142 84.2979 35.8475 86.1669 40.206C88.036 44.5646 88.9998 49.2576 88.9998 54C88.9998 58.7424 88.036 63.4354 86.1669 67.794C84.2979 72.1525 81.5625 76.0858 78.127 79.355C74.6915 76.0858 71.9561 72.1525 70.0871 67.794C68.218 63.4354 67.2542 58.7424 67.2542 54C67.2542 49.2576 68.218 44.5646 70.0871 40.206C71.9561 35.8475 74.6915 31.9142 78.127 28.645V28.645ZM19 54C18.9942 58.7433 19.9554 63.4381 21.8248 67.7975C23.6943 72.1569 26.4327 76.0894 29.873 79.355C33.3085 76.0858 36.0439 72.1525 37.9129 67.794C39.782 63.4354 40.7458 58.7424 40.7458 54C40.7458 49.2576 39.782 44.5646 37.9129 40.206C36.0439 35.8475 33.3085 31.9142 29.873 28.645C26.4327 31.9106 23.6943 35.8431 21.8248 40.2025C19.9554 44.5619 18.9942 49.2567 19 54V54Z" fill="#017A71" stroke="black" stroke-width="2" stroke-linecap="round" stroke-linejoin="round"/>
</svg>
