<svg width="108" height="108" viewBox="0 0 108 108" fill="none" xmlns="http://www.w3.org/2000/svg">
<path d="M54 89C73.33 89 89 73.33 89 54C89 34.67 73.33 19 54 19C34.67 19 19 34.67 19 54C19 73.33 34.67 89 54 89Z" fill="white" stroke="black" stroke-width="2" stroke-linecap="round" stroke-linejoin="round"/>
<path d="M45.295 69.078L36.59 54L45.295 38.922H62.705L71.4099 54L62.705 69.078H45.295Z" fill="white" stroke="black" stroke-width="2" stroke-linecap="round" stroke-linejoin="round"/>
<path d="M62.6791 69.095L71.489 84.324" stroke="black" stroke-width="2" stroke-linecap="round" stroke-linejoin="round"/>
<path d="M36.432 23.723L45.245 38.957" stroke="black" stroke-width="2" stroke-linecap="round" stroke-linejoin="round"/>
<path d="M36.59 54H19" stroke="black" stroke-width="2" stroke-linecap="round" stroke-linejoin="round"/>
<path d="M89 54H71.41" stroke="black" stroke-width="2" stroke-linecap="round" stroke-linejoin="round"/>
<path d="M45.224 69.037L36.432 84.17" stroke="black" stroke-width="2" stroke-linecap="round" stroke-linejoin="round"/>
<path d="M71.553 23.723L62.718 38.9301" stroke="black" stroke-width="2" stroke-linecap="round" stroke-linejoin="round"/>
</svg>
