<svg width="108" height="108" viewBox="0 0 108 108" fill="none" xmlns="http://www.w3.org/2000/svg">
<path d="M34.2242 34.2232C20.0462 48.4012 21.0622 73.4172 21.9512 82.3542C22.0437 83.3026 22.4626 84.1895 23.1363 84.8634C23.81 85.5373 24.6968 85.9564 25.6452 86.0492C34.5832 86.9372 59.5992 87.9542 73.7762 73.7762C87.9532 59.5982 86.9382 34.5832 86.0492 25.6462C85.9568 24.6977 85.538 23.8107 84.8643 23.1368C84.1905 22.4628 83.3036 22.0438 82.3552 21.9512C73.4172 21.0622 48.4002 20.0462 34.2242 34.2232Z" fill="#AF5A00" stroke="black" stroke-width="2" stroke-linecap="round" stroke-linejoin="round"/>
<path d="M69.4922 38.5092L38.5082 69.4922" stroke="black" stroke-width="2" stroke-linecap="round" stroke-linejoin="round"/>
<path d="M54.0083 69.3312L38.6613 53.9842" stroke="black" stroke-width="2" stroke-linecap="round" stroke-linejoin="round"/>
<path d="M61.6693 61.6702L46.3223 46.3222" stroke="black" stroke-width="2" stroke-linecap="round" stroke-linejoin="round"/>
<path d="M69.3642 53.9762L54.0162 38.6282" stroke="black" stroke-width="2" stroke-linecap="round" stroke-linejoin="round"/>
</svg>
