<svg width="108" height="108" viewBox="0 0 108 108" fill="none" xmlns="http://www.w3.org/2000/svg">
<path d="M53.819 29C32.712 29 15.601 46.111 15.601 67.218H23.526C23.526 50.488 37.089 36.925 53.819 36.925C70.549 36.925 84.112 50.488 84.112 67.218H92.037C92.037 46.111 74.926 29 53.819 29Z" fill="#F16932" stroke="black" stroke-width="2" stroke-linecap="round" stroke-linejoin="round"/>
<path d="M53.819 36.925C37.089 36.925 23.526 50.488 23.526 67.218H32.567C32.567 55.481 42.081 45.967 53.818 45.967C65.555 45.967 75.067 55.481 75.067 67.218H84.109C84.112 50.488 70.549 36.925 53.819 36.925Z" fill="#F8AE05" stroke="black" stroke-width="2" stroke-linecap="round" stroke-linejoin="round"/>
<path d="M53.819 45.967C42.082 45.967 32.568 55.481 32.568 67.218H41.968C41.968 64.0752 43.2164 61.0611 45.4388 58.8388C47.6611 56.6165 50.6751 55.368 53.818 55.368C56.9606 55.3682 59.9744 56.6168 62.1965 58.8391C64.4186 61.0614 65.667 64.0753 65.667 67.218H75.067C75.067 55.481 65.556 45.967 53.819 45.967Z" fill="#2D76FF" stroke="black" stroke-width="2" stroke-linecap="round" stroke-linejoin="round"/>
<path d="M71.681 79C70.5415 79 69.4133 78.7755 68.3606 78.3394C67.3079 77.9034 66.3514 77.2642 65.5458 76.4585C64.7401 75.6527 64.1011 74.6962 63.6651 73.6434C63.2292 72.5907 63.0048 71.4624 63.005 70.323C63.005 68.0219 63.919 65.8152 65.5461 64.1881C67.1732 62.561 69.38 61.647 71.681 61.647C72.5847 61.6463 73.4829 61.7873 74.343 62.065C74.9847 60.4505 76.0963 59.0658 77.5338 58.0902C78.9713 57.1146 80.6686 56.593 82.406 56.593C84.1557 56.5929 85.8645 57.1218 87.3083 58.1103C88.752 59.0988 89.8632 60.5007 90.496 62.132C91.4156 61.8105 92.3828 61.6465 93.357 61.647C95.6581 61.647 97.865 62.561 99.4922 64.188C101.119 65.8151 102.034 68.0218 102.034 70.323C102.034 72.6242 101.12 74.8313 99.4925 76.4585C97.8653 78.0858 95.6583 79 93.357 79H71.681Z" fill="#E4E5E6"/>
<path d="M71.681 79C70.5415 79 69.4133 78.7755 68.3606 78.3394C67.3079 77.9034 66.3514 77.2642 65.5458 76.4585C64.7401 75.6527 64.1011 74.6962 63.6651 73.6434C63.2292 72.5907 63.0048 71.4624 63.005 70.323C63.005 68.0219 63.919 65.8152 65.5461 64.1881C67.1732 62.561 69.38 61.647 71.681 61.647C72.5847 61.6463 73.4829 61.7873 74.343 62.065C74.9847 60.4505 76.0963 59.0658 77.5338 58.0902C78.9713 57.1146 80.6686 56.593 82.406 56.593C84.1557 56.5929 85.8645 57.1218 87.3083 58.1103C88.752 59.0988 89.8632 60.5007 90.496 62.132C91.4156 61.8105 92.3828 61.6465 93.357 61.647C95.6581 61.647 97.865 62.561 99.4922 64.188C101.119 65.8151 102.034 68.0218 102.034 70.323C102.034 72.6242 101.12 74.8313 99.4925 76.4585C97.8653 78.0858 95.6583 79 93.357 79H71.681Z" stroke="black" stroke-width="2" stroke-linecap="round" stroke-linejoin="round"/>
<path d="M97.167 68.741C97.1667 69.4977 97.0174 70.2468 96.7276 70.9457C96.4377 71.6447 96.0131 72.2797 95.4778 72.8144C94.9426 73.3492 94.3072 73.7733 93.6081 74.0625C92.9089 74.3518 92.1596 74.5004 91.403 74.5" stroke="white" stroke-width="2" stroke-linecap="round" stroke-linejoin="round"/>
<path d="M14.577 79C12.2757 79 10.0687 78.0858 8.44142 76.4585C6.81417 74.8313 5.89999 72.6242 5.89999 70.323C5.90026 68.0218 6.81454 65.8151 8.44177 64.188C10.069 62.561 12.2759 61.647 14.577 61.647C15.4807 61.6463 16.379 61.7873 17.239 62.065C17.8806 60.4504 18.9921 59.0657 20.4297 58.0901C21.8673 57.1144 23.5646 56.5929 25.302 56.593C27.0516 56.593 28.7603 57.1219 30.2038 58.1104C31.6474 59.0989 32.7584 60.5008 33.391 62.132C34.3109 61.8105 35.2785 61.6466 36.253 61.647C38.554 61.647 40.7608 62.561 42.3878 64.1881C44.0149 65.8152 44.929 68.0219 44.929 70.323C44.9291 71.4624 44.7048 72.5907 44.2689 73.6434C43.8329 74.6962 43.1939 75.6527 42.3882 76.4585C41.5825 77.2642 40.6261 77.9034 39.5734 78.3394C38.5207 78.7755 37.3924 79 36.253 79H14.577Z" fill="#E4E5E6"/>
<path d="M14.577 79C12.2757 79 10.0687 78.0858 8.44142 76.4585C6.81417 74.8313 5.89999 72.6242 5.89999 70.323C5.90026 68.0218 6.81454 65.8151 8.44177 64.188C10.069 62.561 12.2759 61.647 14.577 61.647C15.4807 61.6463 16.379 61.7873 17.239 62.065C17.8806 60.4504 18.9921 59.0657 20.4297 58.0901C21.8673 57.1144 23.5646 56.5929 25.302 56.593C27.0516 56.593 28.7603 57.1219 30.2038 58.1104C31.6474 59.0989 32.7584 60.5008 33.391 62.132C34.3109 61.8105 35.2785 61.6466 36.253 61.647C38.554 61.647 40.7608 62.561 42.3878 64.1881C44.0149 65.8152 44.929 68.0219 44.929 70.323C44.9291 71.4624 44.7048 72.5907 44.2689 73.6434C43.8329 74.6962 43.1939 75.6527 42.3882 76.4585C41.5825 77.2642 40.6261 77.9034 39.5734 78.3394C38.5207 78.7755 37.3924 79 36.253 79H14.577Z" stroke="black" stroke-width="2" stroke-linecap="round" stroke-linejoin="round"/>
<path d="M68.177 70.5839C68.177 70.5839 67.977 65.9159 73.195 66.3619" stroke="white" stroke-width="2" stroke-linecap="round" stroke-linejoin="round"/>
<path d="M39.909 68.741C39.9084 70.2686 39.3012 71.7334 38.2209 72.8134C37.1406 73.8933 35.6755 74.5 34.148 74.5" stroke="white" stroke-width="2" stroke-linecap="round" stroke-linejoin="round"/>
<path d="M10.921 70.5839C10.921 70.5839 10.721 65.9159 15.94 66.3619" stroke="white" stroke-width="2" stroke-linecap="round" stroke-linejoin="round"/>
</svg>
