<svg width="108" height="108" viewBox="0 0 108 108" fill="none" xmlns="http://www.w3.org/2000/svg">
<path d="M52.935 66.383C52.9385 64.9492 52.6574 63.5289 52.1081 62.2044C51.5588 60.8799 50.7522 59.6776 49.735 58.667V58.667C47.6873 56.6239 44.9127 55.4765 42.02 55.4765C39.1274 55.4765 36.3527 56.6239 34.305 58.667L33.618 59.355L32.93 58.667C31.919 57.651 30.7167 56.8455 29.3924 56.2971C28.0682 55.7487 26.6483 55.4682 25.215 55.472C23.7817 55.4682 22.3619 55.7487 21.0376 56.2971C19.7134 56.8455 18.511 57.651 17.5 58.667C16.4828 59.6776 15.6762 60.8799 15.1269 62.2044C14.5776 63.5289 14.2966 64.9492 14.3 66.383C14.2967 67.8167 14.5778 69.2368 15.1271 70.5611C15.6764 71.8854 16.4829 73.0876 17.5 74.098L18.2 74.798L31.55 88.143C31.822 88.4152 32.145 88.631 32.5006 88.778C32.8562 88.9251 33.2373 89.0006 33.622 89C34.007 89.0007 34.3883 88.9254 34.744 88.7783C35.0998 88.6312 35.423 88.4153 35.695 88.143L47.372 76.472L49.064 74.772L49.741 74.095C50.7567 73.0844 51.5618 71.8825 52.1101 70.5588C52.6583 69.2351 52.9387 67.8158 52.935 66.383V66.383Z" fill="#F16932" stroke="black" stroke-width="2" stroke-miterlimit="10"/>
<path d="M46.673 27.228C46.676 26.1471 46.4645 25.0763 46.0508 24.0776C45.6371 23.079 45.0295 22.1722 44.263 21.41V21.41C42.7188 19.8692 40.6265 19.0039 38.445 19.0039C36.2636 19.0039 34.1712 19.8692 32.627 21.41L32.109 21.928L31.591 21.41C30.8287 20.6436 29.922 20.0361 28.9234 19.6224C27.9247 19.2087 26.854 18.9972 25.773 19C24.6921 18.9971 23.6213 19.2086 22.6226 19.6222C21.624 20.0359 20.7173 20.6435 19.955 21.41C19.1884 22.1721 18.5806 23.0788 18.1669 24.0775C17.7532 25.0762 17.5419 26.147 17.545 27.228C17.5419 28.3089 17.7532 29.3796 18.1667 30.3783C18.5802 31.377 19.1877 32.2837 19.954 33.046L20.481 33.572L30.55 43.638C30.7553 43.8432 30.999 44.0058 31.2672 44.1167C31.5354 44.2275 31.8228 44.2844 32.113 44.284C32.4032 44.2844 32.6907 44.2275 32.9589 44.1167C33.2271 44.0058 33.4707 43.8432 33.676 43.638L42.481 34.838L43.757 33.558L44.267 33.048C45.033 32.2852 45.6401 31.378 46.0531 30.379C46.466 29.38 46.6768 28.309 46.673 27.228V27.228Z" fill="#F16932" stroke="black" stroke-width="2" stroke-miterlimit="10"/>
<path d="M93.792 41.178C93.7959 39.7081 93.5082 38.2519 92.9457 36.8939C92.3833 35.5358 91.5571 34.3027 90.515 33.266V33.266C88.4152 31.1699 85.5695 29.9927 82.6025 29.9927C79.6356 29.9927 76.7899 31.1699 74.69 33.266L73.99 33.971L73.29 33.266C72.2533 32.2239 71.0202 31.3978 69.6621 30.8353C68.3041 30.2728 66.848 29.9852 65.378 29.989C63.9079 29.985 62.4516 30.2726 61.0934 30.8351C59.7352 31.3976 58.5019 32.2238 57.465 33.266C56.423 34.3027 55.5969 35.5358 55.0344 36.8939C54.4719 38.2519 54.1842 39.7081 54.188 41.178C54.1841 42.6481 54.4717 44.1044 55.0342 45.4627C55.5967 46.8209 56.4229 48.0541 57.465 49.091L58.181 49.806L71.873 63.491C72.1521 63.7699 72.4834 63.991 72.8481 64.1417C73.2127 64.2923 73.6035 64.3696 73.998 64.369C74.3927 64.3697 74.7837 64.2925 75.1485 64.1419C75.5133 63.9912 75.8449 63.77 76.1241 63.491L88.0991 51.522L89.834 49.781L90.529 49.087C91.5682 48.0494 92.3916 46.8163 92.9516 45.4589C93.5117 44.1014 93.7973 42.6465 93.792 41.178V41.178Z" fill="#F16932" stroke="black" stroke-width="2" stroke-miterlimit="10"/>
<path d="M88.523 42.022C88.5253 40.9588 88.3167 39.9058 87.9094 38.9238C87.5021 37.9418 86.9041 37.0503 86.15 36.301V36.301" stroke="white" stroke-width="2" stroke-linecap="round" stroke-linejoin="round"/>
<path d="M47.22 67.601C47.2231 66.5379 47.0151 65.4848 46.6083 64.5026C46.2015 63.5204 45.6039 62.6286 44.85 61.879V61.879" stroke="white" stroke-width="2" stroke-linecap="round" stroke-linejoin="round"/>
<path d="M42.02 27.032C41.9479 26.5054 41.7721 25.9983 41.5027 25.54C41.2334 25.0817 40.8759 24.6813 40.451 24.362" stroke="white" stroke-width="2" stroke-linecap="round" stroke-linejoin="round"/>
</svg>
