<svg width="108" height="108" viewBox="0 0 108 108" fill="none" xmlns="http://www.w3.org/2000/svg">
<path d="M76.252 46.63C76.257 44.8261 75.9041 43.0392 75.2137 41.3726C74.5233 39.706 73.5092 38.193 72.23 36.921C66.877 31.568 58.1671 31.568 52.8141 36.921L51.9491 37.786L51.084 36.921C49.8121 35.6422 48.2992 34.6284 46.6328 33.9382C44.9664 33.248 43.1797 32.8951 41.376 32.9C39.5724 32.8951 37.7857 33.248 36.1193 33.9382C34.4529 34.6284 32.94 35.6422 31.6681 36.921C30.3891 38.1931 29.3751 39.7062 28.6847 41.3727C27.9943 43.0393 27.6413 44.8262 27.646 46.63C27.6413 48.4337 27.9943 50.2205 28.6847 51.8869C29.3751 53.5532 30.3891 55.0661 31.6681 56.338L32.5451 57.2161L49.3451 74.0081C49.6873 74.3505 50.0937 74.622 50.5411 74.807C50.9884 74.992 51.4679 75.0868 51.952 75.086C52.4363 75.0867 52.9159 74.9919 53.3635 74.8069C53.811 74.6219 54.2176 74.3505 54.5601 74.0081L69.254 59.322L71.382 57.186L72.2331 56.334C73.5112 55.0625 74.5244 53.5502 75.2143 51.8845C75.9042 50.2189 76.2569 48.4329 76.252 46.63V46.63Z" fill="#F16932" stroke="black" stroke-width="2" stroke-miterlimit="10"/>
<path d="M53.004 68.65L60.561 61.315" stroke="white" stroke-width="2" stroke-linecap="round" stroke-linejoin="round"/>
<path d="M42.173 37.872C40.858 37.8683 39.5552 38.1255 38.3402 38.6288C37.1253 39.1321 36.0223 39.8715 35.0951 40.8041C34.1626 41.7314 33.4234 42.8344 32.9201 44.0494C32.4168 45.2643 32.1595 46.567 32.163 47.882" stroke="white" stroke-width="2" stroke-linecap="round" stroke-linejoin="round"/>
<path d="M53.3141 52.907L87.627 37.903" stroke="black" stroke-width="2" stroke-linecap="round" stroke-linejoin="round"/>
<path d="M19 67.91L35.86 60.538" stroke="black" stroke-width="2" stroke-linecap="round" stroke-linejoin="round"/>
<path d="M78.632 32.9L89 36.284L87.272 46.491" stroke="black" stroke-width="2" stroke-linecap="round" stroke-linejoin="round"/>
</svg>
