<svg width="108" height="108" viewBox="0 0 108 108" fill="none" xmlns="http://www.w3.org/2000/svg">
<path d="M37.3666 75.091V89" stroke="black" stroke-width="2" stroke-linecap="round" stroke-linejoin="round"/>
<path d="M38.8445 59.412C38.3787 59.0931 37.8275 58.9225 37.263 58.9225C36.6986 58.9225 36.1473 59.0931 35.6815 59.412C25.6975 66.157 22.0055 75.939 26.7545 81.012C30.3465 84.853 34.2105 83.166 36.0945 81.918C36.4402 81.6864 36.8469 81.5628 37.263 81.5628C37.6791 81.5628 38.0858 81.6864 38.4315 81.918C40.3165 83.166 44.1795 84.853 47.7715 81.012C52.5205 75.939 48.8285 66.157 38.8445 59.412Z" fill="#96C0E4"/>
<path d="M38.8445 59.412C38.3787 59.0931 37.8275 58.9225 37.263 58.9225C36.6986 58.9225 36.1473 59.0931 35.6815 59.412C25.6975 66.157 22.0055 75.939 26.7545 81.012C30.3465 84.853 34.2105 83.166 36.0945 81.918C36.4402 81.6864 36.8469 81.5628 37.263 81.5628C37.6791 81.5628 38.0858 81.6864 38.4315 81.918C40.3165 83.166 44.1795 84.853 47.7715 81.012C52.5205 75.939 48.8285 66.157 38.8445 59.412Z" stroke="black" stroke-width="2" stroke-linecap="round" stroke-linejoin="round"/>
<path d="M31.6395 89H43.0935" stroke="black" stroke-width="2" stroke-linecap="round" stroke-linejoin="round"/>
<path d="M70.1065 36.932V48.783" stroke="black" stroke-width="2" stroke-linecap="round" stroke-linejoin="round"/>
<path d="M76.0316 48.661L64.1826 48.906" stroke="black" stroke-width="2" stroke-linecap="round" stroke-linejoin="round"/>
<path fill-rule="evenodd" clip-rule="evenodd" d="M63.5335 43.429C61.7903 43.429 60.1184 42.7365 58.8857 41.5038C57.6531 40.2711 56.9605 38.5992 56.9605 36.856C56.9605 35.1127 57.6531 33.4408 58.8857 32.2082C60.1184 30.9755 61.7903 30.283 63.5335 30.283C64.4387 30.2822 65.3343 30.4692 66.1636 30.832C65.3464 30.2203 64.6832 29.4264 64.2267 28.5135C63.7701 27.6005 63.5328 26.5937 63.5335 25.573C63.5338 23.8299 64.2264 22.1583 65.4591 20.9258C66.6917 19.6934 68.3634 19.001 70.1065 19.001C71.8498 19.001 73.5217 19.6935 74.7544 20.9262C75.9871 22.1588 76.6795 23.8307 76.6795 25.574C76.6803 26.5946 76.4431 27.6014 75.9867 28.5143C75.5303 29.4272 74.8674 30.2211 74.0506 30.833C74.8796 30.4702 75.7747 30.2833 76.6795 30.284C78.4228 30.284 80.0947 30.9765 81.3274 32.2092C82.5601 33.4419 83.2525 35.1137 83.2525 36.857C83.2525 38.6003 82.5601 40.2721 81.3274 41.5048C80.0947 42.7375 78.4228 43.43 76.6795 43.43L63.5335 43.429Z" fill="#96C0E4"/>
<path fill-rule="evenodd" clip-rule="evenodd" d="M63.5335 43.429C61.7903 43.429 60.1184 42.7365 58.8857 41.5038C57.6531 40.2711 56.9605 38.5992 56.9605 36.856C56.9605 35.1127 57.6531 33.4408 58.8857 32.2082C60.1184 30.9755 61.7903 30.283 63.5335 30.283C64.4387 30.2822 65.3343 30.4692 66.1636 30.832C65.3464 30.2203 64.6832 29.4264 64.2267 28.5135C63.7701 27.6005 63.5328 26.5937 63.5335 25.573C63.5338 23.8299 64.2264 22.1583 65.4591 20.9258C66.6917 19.6934 68.3634 19.001 70.1065 19.001C71.8498 19.001 73.5217 19.6935 74.7544 20.9262C75.9871 22.1588 76.6795 23.8307 76.6795 25.574C76.6803 26.5946 76.4431 27.6014 75.9867 28.5143C75.5303 29.4272 74.8674 30.2211 74.0506 30.833C74.8796 30.4702 75.7747 30.2833 76.6795 30.284C78.4228 30.284 80.0947 30.9765 81.3274 32.2092C82.5601 33.4419 83.2525 35.1137 83.2525 36.857C83.2525 38.6003 82.5601 40.2721 81.3274 41.5048C80.0947 42.7375 78.4228 43.43 76.6795 43.43L63.5335 43.429Z" stroke="black" stroke-width="2" stroke-linecap="round" stroke-linejoin="round"/>
<path d="M49.4145 33.881L37.2625 48.761L25.1105 33.881L37.2625 19L49.4145 33.881Z" fill="#F16932" stroke="black" stroke-width="2" stroke-linecap="round" stroke-linejoin="round"/>
<path d="M68.5256 85.701C68.9914 86.0198 69.5427 86.1904 70.1071 86.1904C70.6716 86.1904 71.2228 86.0198 71.6886 85.701C81.6726 78.956 85.3646 69.175 80.6156 64.101C77.0236 60.261 73.1596 61.947 71.2756 63.195C70.9299 63.4265 70.5232 63.5501 70.1071 63.5501C69.691 63.5501 69.2843 63.4265 68.9386 63.195C67.0536 61.947 63.1896 60.261 59.5986 64.101C54.8496 69.179 58.5416 78.96 68.5256 85.701Z" fill="#F16932"/>
<path d="M68.5256 85.701C68.9914 86.0198 69.5427 86.1904 70.1071 86.1904C70.6716 86.1904 71.2228 86.0198 71.6886 85.701C81.6726 78.956 85.3646 69.175 80.6156 64.101C77.0236 60.261 73.1596 61.947 71.2756 63.195C70.9299 63.4265 70.5232 63.5501 70.1071 63.5501C69.691 63.5501 69.2843 63.4265 68.9386 63.195C67.0536 61.947 63.1896 60.261 59.5986 64.101C54.8496 69.179 58.5416 78.96 68.5256 85.701Z" stroke="black" stroke-width="2" stroke-linecap="round" stroke-linejoin="round"/>
</svg>
