<svg width="108" height="108" viewBox="0 0 108 108" fill="none" xmlns="http://www.w3.org/2000/svg">
<path d="M85.336 21H22.665C20.5862 21 18.901 22.6852 18.901 24.764V70.865C18.901 72.9438 20.5862 74.629 22.665 74.629H85.336C87.4148 74.629 89.1 72.9438 89.1 70.865V24.764C89.1 22.6852 87.4148 21 85.336 21Z" fill="#2D76FF" stroke="black" stroke-width="2" stroke-linecap="round" stroke-linejoin="round"/>
<path d="M22.665 21H85.336C86.3343 21 87.2917 21.3966 87.9976 22.1024C88.7035 22.8083 89.1 23.7657 89.1 24.764V32.223H18.9V24.764C18.9 24.2696 18.9974 23.7801 19.1866 23.3233C19.3758 22.8666 19.6532 22.4516 20.0028 22.1021C20.3524 21.7526 20.7675 21.4753 21.2243 21.2862C21.6811 21.0971 22.1706 20.9999 22.665 21V21Z" fill="#F4F2EB" stroke="black" stroke-width="2" stroke-linecap="round" stroke-linejoin="round"/>
<path d="M25.779 28.652C26.9056 28.652 27.819 27.7386 27.819 26.612C27.819 25.4853 26.9056 24.572 25.779 24.572C24.6523 24.572 23.739 25.4853 23.739 26.612C23.739 27.7386 24.6523 28.652 25.779 28.652Z" fill="#F16932" stroke="black" stroke-width="2" stroke-linecap="round" stroke-linejoin="round"/>
<path d="M33.6929 28.652C34.8196 28.652 35.7329 27.7386 35.7329 26.612C35.7329 25.4853 34.8196 24.572 33.6929 24.572C32.5663 24.572 31.6529 25.4853 31.6529 26.612C31.6529 27.7386 32.5663 28.652 33.6929 28.652Z" fill="#F8AE05" stroke="black" stroke-width="2" stroke-linecap="round" stroke-linejoin="round"/>
<path d="M41.607 28.652C42.7336 28.652 43.647 27.7386 43.647 26.612C43.647 25.4853 42.7336 24.572 41.607 24.572C40.4803 24.572 39.567 25.4853 39.567 26.612C39.567 27.7386 40.4803 28.652 41.607 28.652Z" fill="#017A71" stroke="black" stroke-width="2" stroke-linecap="round" stroke-linejoin="round"/>
<path d="M78.476 69.57L61.944 65.14C61.788 65.0982 61.6236 65.0981 61.4676 65.1399C61.3115 65.1817 61.1692 65.2638 61.055 65.3781C60.9407 65.4923 60.8586 65.6346 60.8168 65.7906C60.7751 65.9467 60.7751 66.111 60.817 66.267L65.247 82.798C65.2887 82.954 65.3708 83.0963 65.4849 83.2105C65.5991 83.3247 65.7413 83.4069 65.8973 83.4488C66.0532 83.4906 66.2175 83.4907 66.3735 83.449C66.5295 83.4072 66.6718 83.3252 66.786 83.211L70.18 79.811C70.3525 79.6388 70.5862 79.5421 70.83 79.5421C71.0737 79.5421 71.3075 79.6388 71.48 79.811L82.394 90.725C82.4793 90.8104 82.5807 90.8781 82.6922 90.9244C82.8037 90.9706 82.9232 90.9944 83.044 90.9944C83.1647 90.9944 83.2842 90.9706 83.3958 90.9244C83.5073 90.8781 83.6086 90.8104 83.694 90.725L86.406 88.014C86.5782 87.8415 86.6749 87.6077 86.6749 87.364C86.6749 87.1203 86.5782 86.8865 86.406 86.714L75.494 75.801C75.3218 75.6285 75.2251 75.3947 75.2251 75.151C75.2251 74.9073 75.3218 74.6735 75.494 74.501L78.888 71.107C79.0016 70.9928 79.0833 70.8507 79.1248 70.6951C79.1663 70.5394 79.1662 70.3755 79.1244 70.2199C79.0827 70.0643 79.0009 69.9223 78.8871 69.8083C78.7733 69.6942 78.6315 69.6121 78.476 69.57V69.57Z" fill="white" stroke="black" stroke-width="2" stroke-linecap="round" stroke-linejoin="round"/>
</svg>
