<svg width="108" height="108" viewBox="0 0 108 108" fill="none" xmlns="http://www.w3.org/2000/svg">
<path d="M74.0302 51.7954L56.144 33.9092L23.6008 66.4524L41.487 84.3386L74.0302 51.7954Z" fill="#F8AE05" stroke="black" stroke-width="2" stroke-linecap="round" stroke-linejoin="round"/>
<path d="M78.4412 22.9964L84.9416 29.4969C86.4515 31.0067 87.2997 33.0545 87.2997 35.1898C87.2997 37.325 86.4515 39.3728 84.9416 40.8827L74.0296 51.7947L56.1398 33.9049L67.0518 22.9929C67.7997 22.245 68.6876 21.6518 69.6649 21.2472C70.6421 20.8426 71.6895 20.6345 72.7472 20.6348C73.8049 20.6351 74.8522 20.8438 75.8292 21.2491C76.8062 21.6543 77.6937 22.2481 78.4412 22.9964Z" fill="#FFBCDD" stroke="black" stroke-width="2" stroke-linecap="round" stroke-linejoin="round"/>
<path d="M17.3 90.6384L41.499 84.3254L23.613 66.4394L17.3 90.6384Z" fill="#E4E5E6" stroke="black" stroke-width="2" stroke-linecap="round" stroke-linejoin="round"/>
<path d="M17.3 90.6384L27.676 87.9314L20.007 80.2624L17.3 90.6384Z" fill="black" stroke="black" stroke-width="2" stroke-linecap="round" stroke-linejoin="round"/>
<path d="M32.5561 75.3824L65.0871 42.8524" stroke="black" stroke-width="2" stroke-linecap="round" stroke-linejoin="round"/>
</svg>
