<svg width="108" height="108" viewBox="0 0 108 108" fill="none" xmlns="http://www.w3.org/2000/svg">
<path d="M53.957 88.914C73.2632 88.914 88.914 73.2632 88.914 53.957C88.914 34.6508 73.2632 19 53.957 19C34.6508 19 19 34.6508 19 53.957C19 73.2632 34.6508 88.914 53.957 88.914Z" fill="#96C0E4" stroke="black" stroke-width="2" stroke-linecap="round" stroke-linejoin="round"/>
<path d="M53.957 88.914C64.3814 88.914 72.832 73.2637 72.832 53.958C72.832 34.6524 64.3814 19.002 53.957 19.002C43.5327 19.002 35.082 34.6524 35.082 53.958C35.082 73.2637 43.5327 88.914 53.957 88.914Z" fill="#96C0E4" stroke="black" stroke-width="2" stroke-linecap="round" stroke-linejoin="round"/>
<path d="M78.6811 78.6751C71.9981 70.0751 63.3811 64.891 53.9681 64.891C44.5551 64.891 35.9301 70.077 29.2461 78.691" stroke="black" stroke-width="2" stroke-linecap="round" stroke-linejoin="round"/>
<path d="M78.6811 29.246C71.9981 38.13 63.3811 43.48 53.9681 43.48C44.5551 43.48 35.9301 38.124 29.2461 29.233" stroke="black" stroke-width="2" stroke-linecap="round" stroke-linejoin="round"/>
<path d="M53.9631 19.086V89" stroke="black" stroke-width="2" stroke-linecap="round" stroke-linejoin="round"/>
<path d="M88.914 53.957H19" stroke="black" stroke-width="2" stroke-linecap="round" stroke-linejoin="round"/>
</svg>
