<svg width="108" height="108" viewBox="0 0 108 108" fill="none" xmlns="http://www.w3.org/2000/svg">
<path d="M36.931 19H71.139C72.023 19 72.8707 19.3512 73.4958 19.9762C74.1209 20.6013 74.472 21.449 74.472 22.333V85.263C74.472 86.2538 74.0784 87.2041 73.3778 87.9048C72.6772 88.6054 71.7269 88.999 70.736 88.999H37.336C36.3452 88.999 35.3949 88.6054 34.6943 87.9048C33.9937 87.2041 33.6 86.2538 33.6 85.263V22.333C33.6 21.4494 33.9509 20.6019 34.5755 19.9769C35.2002 19.3519 36.0474 19.0005 36.931 19V19Z" fill="#2D76FF" stroke="black" stroke-width="2" stroke-linecap="round" stroke-linejoin="round"/>
<path d="M54.035 83.5C56.5666 83.5 58.619 81.4477 58.619 78.916C58.619 76.3843 56.5666 74.332 54.035 74.332C51.5033 74.332 49.451 76.3843 49.451 78.916C49.451 81.4477 51.5033 83.5 54.035 83.5Z" fill="#050000" stroke="black" stroke-width="2" stroke-linecap="round" stroke-linejoin="round"/>
<path d="M54.601 25.237L68.361 38.997" stroke="white" stroke-width="2" stroke-linecap="round" stroke-linejoin="round"/>
<path d="M62.076 25.237L69.969 33.13" stroke="white" stroke-width="2" stroke-linecap="round" stroke-linejoin="round"/>
</svg>
