<svg width="108" height="108" viewBox="0 0 108 108" fill="none" xmlns="http://www.w3.org/2000/svg">
<path d="M66.0541 19H36.8651C32.7065 19 28.7183 20.652 25.7777 23.5926C22.8371 26.5331 21.1851 30.5214 21.1851 34.68V34.68C21.1851 38.8386 22.8371 42.8269 25.7777 45.7674C28.7183 48.708 32.7065 50.36 36.8651 50.36H52.0321C52.753 50.3599 53.4458 50.6399 53.9641 51.141L61.3381 58.275C61.439 58.3726 61.5665 58.4383 61.7045 58.464C61.8425 58.4896 61.985 58.4741 62.1143 58.4192C62.2435 58.3644 62.3538 58.2728 62.4313 58.1557C62.5088 58.0387 62.5501 57.9014 62.5501 57.761V50.361H66.0571C68.1165 50.3611 70.1557 49.9556 72.0584 49.1675C73.961 48.3795 75.6898 47.2243 77.1459 45.7681C78.6021 44.3118 79.7571 42.583 80.545 40.6803C81.333 38.7776 81.7384 36.7384 81.7381 34.679V34.679C81.738 32.6196 81.3322 30.5805 80.5439 28.6779C79.7556 26.7754 78.6002 25.0468 77.1438 23.5908C75.6874 22.1349 73.9584 20.98 72.0556 20.1923C70.1528 19.4046 68.1135 18.9995 66.0541 19V19Z" fill="#FFBCDD" stroke="black" stroke-width="2" stroke-linecap="round" stroke-linejoin="round"/>
<path d="M23.838 57.167H49.118C50.2402 57.1681 51.3162 57.6144 52.1096 58.4081C52.9031 59.2017 53.3492 60.2778 53.35 61.4V78.97C53.35 80.0932 52.9038 81.1704 52.1096 81.9646C51.3154 82.7588 50.2382 83.205 49.115 83.205H31.338C30.8237 83.2053 30.3296 83.4054 29.96 83.763L24.7 88.854C24.628 88.9237 24.5372 88.9708 24.4387 88.9892C24.3402 89.0076 24.2385 88.9966 24.1462 88.9575C24.054 88.9185 23.9753 88.8531 23.9199 88.7696C23.8645 88.6861 23.835 88.5882 23.835 88.488V83.205C22.7118 83.205 21.6346 82.7588 20.8404 81.9646C20.0462 81.1704 19.6 80.0932 19.6 78.97V61.4C19.6008 60.2767 20.0477 59.1997 20.8424 58.4059C21.6372 57.6121 22.7147 57.1665 23.838 57.167Z" fill="#F8AE05" stroke="black" stroke-width="2" stroke-linecap="round" stroke-linejoin="round"/>
<path d="M88.4761 70.8C88.4736 68.2066 87.6657 65.6781 86.164 63.5638C84.6622 61.4495 82.5409 59.8538 80.093 58.9973C77.6452 58.1409 74.9917 58.0658 72.4994 58.7826C70.0071 59.4995 67.799 60.9727 66.1802 62.9988C64.5614 65.0248 63.6119 67.5037 63.4628 70.0928C63.3138 72.6818 63.9726 75.2533 65.3483 77.4517C66.7239 79.6501 68.7485 81.367 71.1421 82.365C73.5357 83.3631 76.1802 83.5929 78.7101 83.023L83.5661 87.9V80.749C85.0947 79.5801 86.333 78.0742 87.1846 76.3487C88.0362 74.6231 88.4782 72.7243 88.4761 70.8V70.8Z" fill="#96C0E4" stroke="black" stroke-width="2" stroke-linecap="round" stroke-linejoin="round"/>
</svg>
