<svg width="108" height="108" viewBox="0 0 108 108" fill="none" xmlns="http://www.w3.org/2000/svg">
<path d="M76.6531 27.291C75.3163 27.2926 74.0349 27.8251 73.0907 28.7713C72.1465 29.7176 71.6168 31.0002 71.6181 32.337V28.188C71.6181 26.8526 71.0877 25.5719 70.1434 24.6277C69.1992 23.6834 67.9185 23.153 66.5831 23.153C65.2478 23.153 63.9671 23.6834 63.0228 24.6277C62.0786 25.5719 61.5481 26.8526 61.5481 28.188V24.046C61.5489 23.384 61.4193 22.7284 61.1667 22.1166C60.9141 21.5047 60.5434 20.9486 60.0758 20.48C59.6083 20.0115 59.053 19.6396 58.4417 19.3856C57.8304 19.1317 57.1751 19.0007 56.5131 19V19C55.8512 19.0007 55.1958 19.1317 54.5846 19.3856C53.9733 19.6396 53.418 20.0115 52.9504 20.48C52.4829 20.9486 52.1122 21.5047 51.8596 22.1166C51.607 22.7284 51.4773 23.384 51.4781 24.046V28.187C51.4781 26.8516 50.9477 25.571 50.0034 24.6267C49.0592 23.6825 47.7785 23.152 46.4431 23.152C45.1078 23.152 43.8271 23.6825 42.8828 24.6267C41.9386 25.571 41.4081 26.8516 41.4081 28.187V57.016L36.4181 50.216C35.9993 49.6126 35.4639 49.0993 34.8435 48.7063C34.2231 48.3132 33.5302 48.0484 32.8058 47.9274C32.0814 47.8065 31.3401 47.8318 30.6256 48.002C29.9111 48.1722 29.238 48.4838 28.6459 48.9183C28.0538 49.3529 27.5547 49.9016 27.1781 50.5321C26.8015 51.1627 26.555 51.8622 26.4532 52.5896C26.3513 53.317 26.3962 54.0573 26.5851 54.767C26.774 55.4768 27.1032 56.1415 27.5531 56.722L45.1881 80.747C45.409 81.0481 45.6596 81.3261 45.9361 81.577C47.8222 83.8979 50.2024 85.7688 52.9032 87.0531C55.6041 88.3375 58.5575 89.0029 61.5481 89.001C72.6711 89.001 81.6891 79.984 81.6891 68.861V32.337C81.6898 31.675 81.56 31.0193 81.3073 30.4075C81.0546 29.7956 80.6838 29.2396 80.2162 28.771C79.7486 28.3024 79.1932 27.9306 78.5819 27.6766C77.9705 27.4227 77.3151 27.2916 76.6531 27.291V27.291Z" fill="#F8AE05" stroke="black" stroke-width="2" stroke-linecap="round" stroke-linejoin="round"/>
<path d="M51.4781 26.882V48.169" stroke="black" stroke-width="2" stroke-linecap="round" stroke-linejoin="round"/>
<path d="M61.548 27.891V48.169" stroke="black" stroke-width="2" stroke-linecap="round" stroke-linejoin="round"/>
<path d="M71.618 30.448V48.169" stroke="black" stroke-width="2" stroke-linecap="round" stroke-linejoin="round"/>
</svg>
