<svg width="108" height="108" viewBox="0 0 108 108" fill="none" xmlns="http://www.w3.org/2000/svg">
<path d="M53.992 47.907C31.292 47.907 12.9 66.307 12.9 88.999H21.421C21.421 71.011 36.004 56.428 53.992 56.428C71.98 56.428 86.563 71.011 86.563 88.999H95.084C95.084 66.304 76.692 47.907 53.992 47.907Z" fill="#F16932" stroke="black" stroke-width="2" stroke-linecap="round" stroke-linejoin="round"/>
<path d="M53.992 56.428C36.004 56.428 21.421 71.011 21.421 88.999H31.143C31.143 76.38 41.373 66.15 53.992 66.15C66.611 66.15 76.841 76.38 76.841 88.999H86.563C86.563 71.011 71.98 56.428 53.992 56.428Z" fill="#F8AE05" stroke="black" stroke-width="2" stroke-linecap="round" stroke-linejoin="round"/>
<path d="M53.992 66.15C41.373 66.15 31.143 76.38 31.143 88.999H41.251C41.251 85.6199 42.5933 82.3792 44.9827 79.9898C47.3721 77.6004 50.6129 76.258 53.992 76.258C57.3711 76.258 60.6118 77.6004 63.0012 79.9898C65.3906 82.3792 66.733 85.6199 66.733 88.999H76.841C76.841 76.38 66.611 66.15 53.992 66.15Z" fill="#2D76FF" stroke="black" stroke-width="2" stroke-linecap="round" stroke-linejoin="round"/>
<path d="M70.292 54.311C71.6331 55.1206 73.1699 55.5485 74.7365 55.5485C76.3031 55.5485 77.8399 55.1206 79.181 54.311C89.004 48.387 89.019 38.096 84.846 34.527C81.192 31.402 76.685 32.091 74.736 35.927C72.787 32.09 68.281 31.401 64.627 34.527C60.454 38.099 60.47 48.387 70.292 54.311Z" fill="#FFBCDD" stroke="black" stroke-width="2" stroke-linecap="round" stroke-linejoin="round"/>
<path d="M82.244 41.909C82.244 41.909 80.097 47.943 74.985 50.193Z" fill="#FF9AB1"/>
<path d="M82.244 41.909C82.244 41.909 80.097 47.943 74.985 50.193" stroke="white" stroke-width="1.974" stroke-linecap="round" stroke-linejoin="round"/>
<path d="M44.192 37.399C45.3265 38.0831 46.6262 38.4446 47.951 38.4446C49.2758 38.4446 50.5754 38.0831 51.71 37.399C60.018 32.388 60.031 23.684 56.501 20.665C53.411 18.022 49.601 18.605 47.951 21.85C46.303 18.605 42.491 18.022 39.4 20.665C35.868 23.683 35.88 32.387 44.192 37.399Z" fill="#FFBCDD" stroke="black" stroke-width="2" stroke-linecap="round" stroke-linejoin="round"/>
<path d="M54.297 26.908C54.297 26.908 52.481 32.008 48.158 33.914Z" fill="#FF9AB1"/>
<path d="M54.297 26.908C54.297 26.908 52.481 32.008 48.158 33.914" stroke="white" stroke-width="1.974" stroke-linecap="round" stroke-linejoin="round"/>
</svg>
