<svg width="108" height="108" viewBox="0 0 108 108" fill="none" xmlns="http://www.w3.org/2000/svg">
<path d="M75.602 42.901H60.226C59.2611 42.901 58.3358 42.5177 57.6536 41.8354C56.9713 41.1532 56.588 40.2278 56.588 39.263V25.933C56.5827 24.0958 55.8506 22.3355 54.5516 21.0364C53.2525 19.7374 51.4921 19.0053 49.655 19V19C47.818 19.0055 46.0577 19.7377 44.7588 21.0367C43.4598 22.3357 42.7276 24.0959 42.722 25.933V25.945C42.722 34.278 38.311 41.933 31.209 46.293C27.8443 48.3525 25.0649 51.2417 23.1372 54.6836C21.2095 58.1256 20.1981 62.005 20.2 65.95V65.95C20.2 78.68 30.519 89 43.249 89H75.602V42.901Z" fill="#F8AE05" stroke="black" stroke-width="2" stroke-linecap="round" stroke-linejoin="round"/>
<path d="M81.9642 42.901H71.5792C68.3969 42.901 65.8172 45.4807 65.8172 48.663V48.664C65.8172 51.8462 68.3969 54.426 71.5792 54.426H81.9642C85.1464 54.426 87.7262 51.8462 87.7262 48.664V48.663C87.7262 45.4807 85.1464 42.901 81.9642 42.901Z" fill="#F8AE05" stroke="black" stroke-width="2" stroke-linecap="round" stroke-linejoin="round"/>
<path d="M81.9642 54.426H71.5792C68.3969 54.426 65.8172 57.0057 65.8172 60.188V60.189C65.8172 63.3712 68.3969 65.951 71.5792 65.951H81.9642C85.1464 65.951 87.7262 63.3712 87.7262 60.189V60.188C87.7262 57.0057 85.1464 54.426 81.9642 54.426Z" fill="#F8AE05" stroke="black" stroke-width="2" stroke-linecap="round" stroke-linejoin="round"/>
<path d="M81.9642 65.951H71.5792C68.3969 65.951 65.8172 68.5307 65.8172 71.713V71.714C65.8172 74.8962 68.3969 77.476 71.5792 77.476H81.9642C85.1464 77.476 87.7262 74.8962 87.7262 71.714V71.713C87.7262 68.5307 85.1464 65.951 81.9642 65.951Z" fill="#F8AE05" stroke="black" stroke-width="2" stroke-linecap="round" stroke-linejoin="round"/>
<path d="M81.9642 77.475H71.5792C68.3969 77.475 65.8172 80.0548 65.8172 83.237V83.238C65.8172 86.4203 68.3969 89 71.5792 89H81.9642C85.1464 89 87.7262 86.4203 87.7262 83.238V83.237C87.7262 80.0548 85.1464 77.475 81.9642 77.475Z" fill="#F8AE05" stroke="black" stroke-width="2" stroke-linecap="round" stroke-linejoin="round"/>
</svg>
