<svg width="108" height="108" viewBox="0 0 108 108" fill="none" xmlns="http://www.w3.org/2000/svg">
<path d="M91.5 72.7011H66.0831C66.0831 68.1361 63.569 63.9581 59.196 61.7471C58.8328 61.564 58.4565 61.4082 58.0701 61.2811C53.4151 59.7531 48.6831 60.929 45.4561 64.157C44.3304 65.2763 43.4379 66.6078 42.8304 68.0744C42.2229 69.541 41.9125 71.1136 41.917 72.7011H16.5C16.4919 67.6854 17.4959 62.7196 19.4521 58.1011C21.3333 53.6471 24.0607 49.6004 27.4831 46.1851C30.8979 42.7612 34.9452 40.0331 39.4001 38.1521C44.0186 36.1959 48.9843 35.1919 54 35.2001C59.0157 35.1919 63.9815 36.1959 68.6 38.1521C73.0544 40.0326 77.1013 42.76 80.5161 46.1831C83.9384 49.5984 86.6658 53.6451 88.5471 58.0991C90.5038 62.7182 91.5082 67.6846 91.5 72.7011Z" fill="#2D76FF" stroke="black" stroke-width="2" stroke-linecap="round" stroke-linejoin="round"/>
</svg>
