<svg width="108" height="108" viewBox="0 0 108 108" fill="none" xmlns="http://www.w3.org/2000/svg">
<path d="M54 19C34.67 19 19 34.67 19 54C19 73.33 34.67 89 54 89C73.33 89 89 73.33 89 54C89 34.67 73.33 19 54 19ZM54 63.347C51.521 63.347 49.1436 62.3622 47.3907 60.6093C45.6378 58.8564 44.653 56.479 44.653 54C44.653 52.7725 44.8948 51.5571 45.3645 50.423C45.8342 49.289 46.5227 48.2586 47.3907 47.3907C48.2586 46.5227 49.289 45.8342 50.423 45.3645C51.5571 44.8948 52.7725 44.653 54 44.653C55.2275 44.653 56.4429 44.8948 57.577 45.3645C58.711 45.8342 59.7414 46.5227 60.6093 47.3907C61.4773 48.2586 62.1658 49.289 62.6355 50.423C63.1052 51.5571 63.347 52.7725 63.347 54C63.3468 56.4788 62.3619 58.856 60.609 60.6087C58.8561 62.3614 56.4788 63.346 54 63.346V63.347Z" fill="#FFBCDD" stroke="black" stroke-width="2" stroke-linecap="round" stroke-linejoin="round"/>
</svg>
