<svg width="108" height="108" viewBox="0 0 108 108" fill="none" xmlns="http://www.w3.org/2000/svg">
<path d="M54.0126 69.011C52.1353 69.0111 50.3284 68.2959 48.9598 67.0109C47.5912 65.7259 46.7636 63.9676 46.6456 62.094L43.6206 30.067C43.5311 28.6473 43.7335 27.2243 44.2153 25.8858C44.6971 24.5473 45.448 23.3217 46.4217 22.2847C47.3955 21.2477 48.5715 20.4212 49.877 19.8563C51.1826 19.2914 52.5901 18.9999 54.0126 19V19C55.4353 18.9999 56.8428 19.2913 58.1485 19.8563C59.4541 20.4214 60.6301 21.2479 61.6039 22.2851C62.5777 23.3222 63.3286 24.5479 63.8103 25.8865C64.292 27.2251 64.4942 28.6482 64.4046 30.068L61.3796 62.095C61.2613 63.9685 60.4337 65.7265 59.0651 67.0113C57.6965 68.2961 55.8898 69.0112 54.0126 69.011V69.011Z" fill="#2D76FF" stroke="black" stroke-width="2" stroke-linecap="round" stroke-linejoin="round"/>
<path d="M54.0126 89C57.989 89 61.2126 85.7764 61.2126 81.8C61.2126 77.8235 57.989 74.6 54.0126 74.6C50.0361 74.6 46.8126 77.8235 46.8126 81.8C46.8126 85.7764 50.0361 89 54.0126 89Z" fill="#2D76FF" stroke="black" stroke-width="2" stroke-linecap="round" stroke-linejoin="round"/>
<path d="M58.0036 81.212C58.0028 82.27 57.582 83.2843 56.8336 84.0322C56.0852 84.78 55.0705 85.2 54.0126 85.2" stroke="white" stroke-width="2" stroke-linecap="round" stroke-linejoin="round"/>
</svg>
