<svg width="108" height="108" viewBox="0 0 108 108" fill="none" xmlns="http://www.w3.org/2000/svg">
<path d="M87.2 85.37V27.3C87.2 25.0987 86.3255 22.9876 84.769 21.431C83.2124 19.8745 81.1013 19 78.9 19C76.6987 19 74.5876 19.8745 73.031 21.431C71.4745 22.9876 70.6 25.0987 70.6 27.3C70.6 29.5013 69.7255 31.6124 68.169 33.169C66.6124 34.7255 64.5013 35.6 62.3 35.6C60.0987 35.6 57.9876 36.4745 56.431 38.031C54.8745 39.5876 54 41.6987 54 43.9C54 46.1013 53.1255 48.2124 51.569 49.769C50.0124 51.3255 47.9013 52.2 45.7 52.2V52.2C43.4987 52.2 41.3876 53.0745 39.831 54.631C38.2744 56.1876 37.4 58.2987 37.4 60.5V60.5C37.4 61.59 37.1853 62.6693 36.7682 63.6763C36.3511 64.6833 35.7397 65.5983 34.969 66.369C34.1982 67.1397 33.2833 67.7511 32.2763 68.1682C31.2693 68.5853 30.19 68.8 29.1 68.8C26.8987 68.8 24.7876 69.6745 23.231 71.231C21.6744 72.7876 20.8 74.8987 20.8 77.1V89H87.17L87.2 85.37Z" fill="#2D76FF" stroke="black" stroke-width="2" stroke-linecap="round" stroke-linejoin="round"/>
</svg>
