<svg width="108" height="108" viewBox="0 0 108 108" fill="none" xmlns="http://www.w3.org/2000/svg">
<path d="M54.546 24V39.797" stroke="black" stroke-width="2" stroke-linecap="round" stroke-linejoin="round"/>
<path d="M68.8501 26.828L62.4171 41.256" stroke="black" stroke-width="2" stroke-linecap="round" stroke-linejoin="round"/>
<path d="M81.455 34.7679L70.861 46.4869" stroke="black" stroke-width="2" stroke-linecap="round" stroke-linejoin="round"/>
<path d="M90.057 45.972L76.1581 53.48" stroke="black" stroke-width="2" stroke-linecap="round" stroke-linejoin="round"/>
<path d="M39.2069 26.828L45.6399 41.256" stroke="black" stroke-width="2" stroke-linecap="round" stroke-linejoin="round"/>
<path d="M26.6019 34.7679L37.196 46.4869" stroke="black" stroke-width="2" stroke-linecap="round" stroke-linejoin="round"/>
<path d="M18 45.972L31.899 53.48" stroke="black" stroke-width="2" stroke-linecap="round" stroke-linejoin="round"/>
<path d="M76.561 48.916C64.402 36.758 44.689 36.758 32.531 48.916L20.048 61.4C19.9822 61.4656 19.93 61.5435 19.8944 61.6293C19.8588 61.7151 19.8405 61.8071 19.8405 61.9C19.8405 61.9929 19.8588 62.0849 19.8944 62.1707C19.93 62.2565 19.9822 62.3344 20.048 62.4L32.528 74.881C44.686 87.04 64.399 87.04 76.558 74.881L89.044 62.4C89.1098 62.3344 89.162 62.2565 89.1976 62.1707C89.2333 62.0849 89.2516 61.9929 89.2516 61.9C89.2516 61.8071 89.2333 61.7151 89.1976 61.6293C89.162 61.5435 89.1098 61.4656 89.044 61.4L76.561 48.916Z" fill="white" stroke="black" stroke-width="2" stroke-linecap="round" stroke-linejoin="round"/>
<path d="M54.546 78.25C63.5764 78.25 70.897 70.9294 70.897 61.899C70.897 52.8686 63.5764 45.548 54.546 45.548C45.5156 45.548 38.195 52.8686 38.195 61.899C38.195 70.9294 45.5156 78.25 54.546 78.25Z" fill="#2D76FF" stroke="black" stroke-width="2" stroke-linecap="round" stroke-linejoin="round"/>
<path d="M54.546 69.77C58.893 69.77 62.417 66.246 62.417 61.899C62.417 57.552 58.893 54.028 54.546 54.028C50.199 54.028 46.675 57.552 46.675 61.899C46.675 66.246 50.199 69.77 54.546 69.77Z" fill="#050000"/>
<path d="M60.8009 59.368C62.2755 59.368 63.471 58.1726 63.471 56.698C63.471 55.2234 62.2755 54.028 60.8009 54.028C59.3263 54.028 58.1309 55.2234 58.1309 56.698C58.1309 58.1726 59.3263 59.368 60.8009 59.368Z" fill="white"/>
</svg>
