<svg width="108" height="108" viewBox="0 0 108 108" fill="none" xmlns="http://www.w3.org/2000/svg">
<path d="M82.901 54.001L83.017 53.885C90.997 45.905 90.997 32.966 83.017 24.985C75.037 17.005 62.098 17.005 54.117 24.985L54.001 25.101L53.885 24.985C45.905 17.005 32.966 17.005 24.985 24.985C17.005 32.965 17.005 45.904 24.985 53.885L25.101 54.001L24.985 54.117C17.005 62.097 17.005 75.035 24.985 83.017C32.965 90.997 45.904 90.997 53.885 83.017L54.001 82.901L54.117 83.017C62.097 90.997 75.036 90.997 83.017 83.017C90.997 75.036 90.997 62.098 83.017 54.117L82.901 54.001Z" fill="#FFBCDD" stroke="black" stroke-width="2" stroke-linecap="round" stroke-linejoin="round"/>
<path d="M53.496 69.339C61.9675 69.339 68.835 62.4715 68.835 54C68.835 45.5285 61.9675 38.661 53.496 38.661C45.0245 38.661 38.157 45.5285 38.157 54C38.157 62.4715 45.0245 69.339 53.496 69.339Z" fill="#2D76FF" stroke="black" stroke-width="2" stroke-linecap="round" stroke-linejoin="round"/>
</svg>
