<svg width="108" height="108" viewBox="0 0 108 108" fill="none" xmlns="http://www.w3.org/2000/svg">
<path d="M81.008 80.7639H77.654C77.0739 80.7639 76.5175 80.5335 76.1072 80.1234C75.6969 79.7133 75.4662 79.1571 75.466 78.5769V78.5769C75.4662 77.9968 75.6969 77.4406 76.1072 77.0305C76.5175 76.6203 77.0739 76.3899 77.654 76.3899H80.524C81.2998 76.3899 82.0439 76.0818 82.5926 75.5333C83.1413 74.9848 83.4497 74.2408 83.45 73.4649V73.4649C83.45 73.0807 83.3743 72.7002 83.2272 72.3452C83.0802 71.9902 82.8647 71.6677 82.593 71.396C82.3213 71.1243 81.9987 70.9087 81.6437 70.7617C81.2887 70.6147 80.9082 70.5389 80.524 70.5389H77.624C77.341 70.5391 77.0608 70.4835 76.7994 70.3753C76.5379 70.2671 76.3004 70.1084 76.1002 69.9084C75.9001 69.7084 75.7414 69.4709 75.6331 69.2095C75.5247 68.9481 75.469 68.6679 75.469 68.3849V68.3849C75.469 67.8134 75.6961 67.2653 76.1002 66.8611C76.5043 66.457 77.0524 66.23 77.624 66.23H80.951C82.0431 66.23 83.0906 65.7961 83.8628 65.0238C84.6351 64.2515 85.069 63.2042 85.069 62.112C85.069 61.0198 84.6351 59.9724 83.8628 59.2001C83.0906 58.4278 82.0431 57.9939 80.951 57.9939L69.851 57.9779C69.034 57.9766 68.2247 58.1364 67.4695 58.4481C66.7143 58.7599 66.028 59.2175 65.4499 59.7947C64.8717 60.372 64.413 61.0576 64.1 61.8123C63.7871 62.567 63.626 63.3759 63.626 64.193V82.759C63.626 84.4048 64.2787 85.9834 65.441 87.1487C66.6032 88.314 68.1802 88.9707 69.826 88.975L81.005 89C82.0971 89 83.1446 88.5661 83.9168 87.7938C84.6891 87.0216 85.123 85.9741 85.123 84.8819C85.123 83.7903 84.6895 82.7434 83.9179 81.9712C83.1463 81.199 82.0996 80.7647 81.008 80.7639V80.7639Z" fill="#FFBCDD" stroke="black" stroke-width="2" stroke-linecap="round" stroke-linejoin="round"/>
<path d="M53.535 58.9399C52.0653 58.0916 50.3188 57.8619 48.6796 58.3011C47.0404 58.7403 45.6428 59.8124 44.794 61.2819L41.042 67.7819C40.915 68.0018 40.7323 68.1844 40.5124 68.3114C40.2924 68.4383 40.0429 68.5052 39.789 68.5052C39.535 68.5052 39.2856 68.4383 39.0656 68.3114C38.8457 68.1844 38.663 68.0018 38.536 67.7819L34.743 61.2109C33.8942 59.7412 32.4964 58.6688 30.857 58.2296C29.2176 57.7904 27.4708 58.0203 26.001 58.8689V58.8689C24.5313 59.7177 23.4589 61.1155 23.0197 62.7549C22.5805 64.3943 22.8104 66.141 23.659 67.6109L34.12 85.7299C34.9177 87.1154 36.2069 88.1504 37.732 88.6299C39.1415 89.1307 40.6819 89.1218 42.0856 88.605C43.4893 88.0882 44.6677 87.0961 45.416 85.8009L55.878 67.6809C56.7261 66.211 56.9558 64.4644 56.5164 62.8252C56.077 61.1861 55.0046 59.7885 53.535 58.9399Z" fill="#017A71" stroke="black" stroke-width="2" stroke-linecap="round" stroke-linejoin="round"/>
<path d="M69.63 19.001C65.5191 19.001 61.5766 20.634 58.6698 23.5408C55.763 26.4476 54.13 30.3901 54.13 34.501C54.13 38.6118 55.763 42.5543 58.6698 45.4611C61.5766 48.3679 65.5191 50.001 69.63 50.001C73.7408 50.001 77.6833 48.3679 80.5901 45.4611C83.4969 42.5543 85.13 38.6118 85.13 34.501C85.13 30.3901 83.4969 26.4476 80.5901 23.5408C77.6833 20.634 73.7408 19.001 69.63 19.001ZM69.63 38.527C69.1007 38.5271 68.5765 38.423 68.0874 38.2205C67.5984 38.018 67.154 37.7212 66.7797 37.347C66.4054 36.9727 66.1084 36.5285 65.9059 36.0395C65.7033 35.5504 65.599 35.0263 65.599 34.497C65.599 33.4279 66.0237 32.4025 66.7796 31.6466C67.5356 30.8906 68.5609 30.466 69.63 30.466C70.1599 30.4656 70.6846 30.5697 71.1743 30.7724C71.6639 30.975 72.1087 31.2723 72.4833 31.6471C72.8579 32.0219 73.1549 32.4668 73.3574 32.9565C73.5598 33.4463 73.6636 33.9711 73.663 34.501C73.6617 35.5695 73.2361 36.5937 72.4798 37.3484C71.7235 38.1032 70.6985 38.5268 69.63 38.526V38.527Z" fill="#F16932" stroke="black" stroke-width="2" stroke-linecap="round" stroke-linejoin="round"/>
<path d="M34.501 33.991V24.85C34.501 23.2985 33.8846 21.8105 32.7875 20.7134C31.6904 19.6163 30.2025 19 28.651 19C27.0994 19 25.6113 19.6163 24.5141 20.7134C23.4168 21.8104 22.8003 23.2984 22.8 24.85V41.57C22.8 43.8037 23.6873 45.9458 25.2667 47.5252C26.8462 49.1046 28.9883 49.992 31.222 49.992H43.297C44.8486 49.9917 46.3366 49.3752 47.4336 48.2779C48.5307 47.1807 49.147 45.6926 49.147 44.141C49.147 42.5895 48.5306 41.1015 47.4335 40.0044C46.3364 38.9073 44.8485 38.291 43.297 38.291H38.797C37.6572 38.29 36.5646 37.8364 35.759 37.0301C34.9535 36.2238 34.501 35.1308 34.501 33.991V33.991Z" fill="#F8AE05" stroke="black" stroke-width="2" stroke-linecap="round" stroke-linejoin="round"/>
</svg>
