<svg width="108" height="108" viewBox="0 0 108 108" fill="none" xmlns="http://www.w3.org/2000/svg">
<path d="M44.507 34.001C42.4794 34.001 40.5349 34.8064 39.1012 36.2401C37.6675 37.6739 36.862 39.6184 36.862 41.646V42.12C36.862 43.2435 36.4157 44.3208 35.6213 45.1152C34.8269 45.9096 33.7495 46.356 32.626 46.356V46.356C31.5026 46.3557 30.4253 45.9093 29.631 45.1149C28.8366 44.3206 28.3903 43.2434 28.39 42.12V41.646C28.39 40.642 28.1923 39.6479 27.8081 38.7204C27.4239 37.7929 26.8608 36.95 26.1509 36.2401C25.441 35.5302 24.5982 34.9671 23.6706 34.5829C22.7431 34.1987 21.749 34.001 20.745 34.001V34.001C19.7411 34.001 18.747 34.1987 17.8194 34.5829C16.8919 34.9671 16.0491 35.5302 15.3392 36.2401C14.6293 36.95 14.0662 37.7929 13.682 38.7204C13.2978 39.6479 13.1 40.642 13.1 41.646V66.356C13.1 68.3835 13.9055 70.3281 15.3392 71.7618C16.7729 73.1955 18.7174 74.001 20.745 74.001C22.7726 74.001 24.7172 73.1955 26.1509 71.7618C27.5846 70.3281 28.39 68.3835 28.39 66.356V65.8819C28.39 64.7585 28.8363 63.6811 29.6307 62.8867C30.4251 62.0923 31.5026 61.646 32.626 61.646V61.646C33.1823 61.6459 33.7333 61.7553 34.2473 61.9682C34.7612 62.181 35.2282 62.4931 35.6216 62.8864C36.015 63.2798 36.327 63.7467 36.5398 64.2607C36.7527 64.7747 36.8622 65.3256 36.862 65.8819V66.356C36.862 68.3835 37.6675 70.3281 39.1012 71.7618C40.5349 73.1955 42.4794 74.001 44.507 74.001V74.001C46.5346 74.001 48.4792 73.1955 49.9129 71.7618C51.3466 70.3281 52.152 68.3835 52.152 66.356V41.646C52.152 39.6184 51.3466 37.6739 49.9129 36.2401C48.4792 34.8064 46.5346 34.001 44.507 34.001V34.001Z" fill="#F16932" stroke="black" stroke-width="2" stroke-linecap="round" stroke-linejoin="round"/>
<path d="M75.3551 41.645C75.3551 37.4228 71.9323 34 67.7101 34C63.4878 34 60.0651 37.4228 60.0651 41.645V66.355C60.0651 70.5772 63.4878 74 67.7101 74C71.9323 74 75.3551 70.5772 75.3551 66.355V41.645Z" fill="#F8AE05" stroke="black" stroke-width="2" stroke-linecap="round" stroke-linejoin="round"/>
<path d="M94.934 39.037C94.934 36.2552 92.6788 34 89.897 34C87.1151 34 84.86 36.2552 84.86 39.037V55.317C84.86 58.0989 87.1151 60.354 89.897 60.354C92.6788 60.354 94.934 58.0989 94.934 55.317V39.037Z" fill="#FFBCDD" stroke="black" stroke-width="2" stroke-linecap="round" stroke-linejoin="round"/>
<path d="M89.897 74C92.2 74 94.067 72.133 94.067 69.83C94.067 67.527 92.2 65.66 89.897 65.66C87.594 65.66 85.727 67.527 85.727 69.83C85.727 72.133 87.594 74 89.897 74Z" fill="#FFBCDD" stroke="black" stroke-width="2" stroke-linecap="round" stroke-linejoin="round"/>
</svg>
