<svg width="108" height="108" viewBox="0 0 108 108" fill="none" xmlns="http://www.w3.org/2000/svg">
<path d="M20.638 39.1205C18.6762 39.1205 16.7336 39.5069 14.9212 40.2577C13.1088 41.0085 11.462 42.1088 10.0749 43.4961C8.68775 44.8833 7.58744 46.5302 6.8368 48.3427C6.08615 50.1551 5.69985 52.0978 5.69998 54.0595C5.69985 56.0213 6.08615 57.9639 6.8368 59.7763C7.58744 61.5888 8.68775 63.2357 10.0749 64.6229C11.462 66.0102 13.1088 67.1105 14.9212 67.8613C16.7336 68.6121 18.6762 68.9985 20.638 68.9985C24.5998 68.9985 28.3993 67.4247 31.2008 64.6233C34.0022 61.8219 35.576 58.0223 35.576 54.0605C35.5762 52.0987 35.1901 50.1559 34.4395 48.3433C33.6889 46.5307 32.5886 44.8838 31.2014 43.4965C29.8143 42.1091 28.1675 41.0086 26.355 40.2578C24.5425 39.507 22.5998 39.1205 20.638 39.1205V39.1205ZM20.638 59.7615C19.1262 59.7615 17.6764 59.161 16.6075 58.0921C15.5385 57.0231 14.938 55.5732 14.938 54.0615C14.938 52.5498 15.5385 51.1 16.6075 50.031C17.6764 48.9621 19.1262 48.3615 20.638 48.3615C22.1497 48.3615 23.5995 48.9621 24.6685 50.031C25.7374 51.1 26.338 52.5498 26.338 54.0615C26.338 55.5732 25.7374 57.0231 24.6685 58.0921C23.5995 59.161 22.1497 59.7615 20.638 59.7615V59.7615Z" fill="#F8AE05" stroke="black" stroke-width="2" stroke-linecap="round" stroke-linejoin="round"/>
<path d="M70.877 40.1596C70.767 40.0656 70.653 39.9755 70.533 39.8915C69.4715 39.1452 68.1573 38.8505 66.8788 39.0719C65.6003 39.2933 64.4617 40.0128 63.713 41.0726L57.748 49.5375C57.5719 49.7876 57.3382 49.9917 57.0667 50.1325C56.7952 50.2734 56.4938 50.347 56.188 50.347C55.8821 50.347 55.5808 50.2734 55.3093 50.1325C55.0378 49.9917 54.8041 49.7876 54.628 49.5375L48.663 41.0726C47.9142 40.0128 46.7757 39.2933 45.4972 39.0719C44.2186 38.8505 42.9045 39.1452 41.843 39.8915V39.8915C41.723 39.9755 41.609 40.0656 41.499 40.1596C40.8695 40.6123 40.3567 41.2084 40.0032 41.8985C39.6496 42.5887 39.4655 43.3531 39.466 44.1285V63.9795C39.466 65.2773 39.9815 66.522 40.8991 67.4397C41.8166 68.3575 43.0612 68.8733 44.359 68.8735V68.8735C45.0017 68.8735 45.6381 68.7469 46.2318 68.501C46.8256 68.255 47.3651 67.8946 47.8196 67.4401C48.274 66.9857 48.6345 66.4461 48.8805 65.8523C49.1264 65.2586 49.253 64.6222 49.253 63.9795V58.8985L52.097 62.9346C52.556 63.5867 53.1675 64.1166 53.8784 64.4781C54.5892 64.8396 55.3776 65.0217 56.175 65.0085H56.201C56.9983 65.0215 57.7867 64.8393 58.4975 64.4778C59.2083 64.1163 59.8199 63.5866 60.279 62.9346L63.125 58.8985V63.9766C63.125 65.2745 63.6406 66.5193 64.5584 67.4371C65.4762 68.3549 66.721 68.8705 68.019 68.8705V68.8705C69.3168 68.8702 70.5614 68.3545 71.4789 67.4367C72.3965 66.5189 72.912 65.2744 72.912 63.9766V44.1285C72.9122 43.3529 72.7278 42.5884 72.3739 41.8982C72.02 41.2081 71.5069 40.6121 70.877 40.1596V40.1596Z" fill="#F8AE05" stroke="black" stroke-width="2" stroke-linecap="round" stroke-linejoin="round"/>
<path d="M91.399 68.9985C83.161 68.9985 76.458 62.2986 76.458 54.0566C76.458 45.8146 83.158 39.1146 91.399 39.1146C94.0873 39.1141 96.7258 39.8397 99.036 41.2146C100.877 42.3146 101.536 44.7546 100.426 46.5886C99.8939 47.469 99.0341 48.1022 98.0354 48.3489C97.0367 48.5957 95.9809 48.4358 95.1 47.9045C93.9827 47.2329 92.7036 46.8785 91.4 46.8795C89.4966 46.8819 87.6718 47.6391 86.326 48.9852C84.9801 50.3312 84.2231 52.1562 84.221 54.0596C84.2231 55.963 84.9801 57.7879 86.326 59.1339C87.6718 60.4799 89.4966 61.2372 91.4 61.2396C92.1249 61.2306 92.8475 61.1559 93.559 61.0165H93.577C94.293 60.8735 94.208 59.8165 93.477 59.7795H93.387C91.269 59.7795 89.139 58.0795 89.098 55.9745C89.057 53.7985 90.879 52.0186 93.055 52.0186H98.468C99.4971 52.0186 100.484 52.4273 101.212 53.1549C101.94 53.8825 102.349 54.8694 102.349 55.8985V63.3325C102.348 63.9811 102.186 64.6193 101.876 65.1892C101.566 65.759 101.119 66.2424 100.575 66.5955C98.011 68.2505 94.125 68.9985 91.399 68.9985Z" fill="#F8AE05" stroke="black" stroke-width="2" stroke-linecap="round" stroke-linejoin="round"/>
</svg>
