<svg width="108" height="108" viewBox="0 0 108 108" fill="none" xmlns="http://www.w3.org/2000/svg">
<g clip-path="url(#clip0_7_69)">
<mask id="path-1-outside-1_7_69" maskUnits="userSpaceOnUse" x="13.2666" y="50.2485" width="81" height="46" fill="black">
<rect fill="white" x="13.2666" y="50.2485" width="81" height="46"/>
<path d="M38.2977 86.7647C34.3546 88.2416 30.2443 88.576 25.9669 87.7678C23.9466 87.2663 22.4766 86.3049 21.5571 84.8837C20.0662 82.1667 19.7945 75.8063 20.742 65.8023C21.1878 62.2772 22.6229 60.0758 25.0473 59.198C32.808 57.1777 40.3737 57.4982 47.7443 60.1594C48.2459 60.3684 48.4619 60.6262 48.3922 60.9327C47.9881 63.4964 47.3194 65.8789 46.3858 68.0804C46.1629 68.4844 45.7101 68.6029 45.0274 68.4357C40.2762 67.3071 35.9778 67.3071 32.1323 68.4357C31.3938 68.6307 30.9201 69.0278 30.7111 69.6269C30.5021 70.7137 30.4464 72.1976 30.5439 74.0786C30.6136 75.5973 30.9758 76.907 31.6307 78.0077C31.979 78.4257 32.404 78.6765 32.9056 78.7601C34.3685 78.8994 36.0684 78.4745 38.0051 77.4852C37.9633 74.9773 37.9703 72.8594 38.026 71.1317C38.0538 70.8252 38.4161 70.651 39.1128 70.6092C42.3034 70.4002 44.888 70.4211 46.8665 70.6719C47.2567 70.7277 47.4587 70.8879 47.4726 71.1526C47.7374 75.8481 47.7583 81.4492 47.5353 87.9559C47.5214 88.2067 47.2358 88.367 46.6784 88.4366C44.059 88.6596 41.4117 88.6247 38.7366 88.3321C38.4718 88.2903 38.3395 88.1649 38.3395 87.9559C38.3255 87.5519 38.3116 87.1548 38.2977 86.7647ZM81.8107 59.1353C83.831 59.6369 85.3219 60.9536 86.2833 63.0854C87.4676 65.8441 87.7393 71.8005 87.0984 80.9546C86.5271 84.8698 85.092 87.0712 82.793 87.5588C72.3432 88.8268 63.426 88.7153 56.0415 87.2245C54.9268 86.9319 54.0142 86.284 53.3036 85.2808C51.562 82.5081 50.7051 78.1679 50.733 72.2603C50.8723 67.6624 51.5063 64.2488 52.6348 62.0195C53.1364 60.7934 54.272 59.9713 56.0415 59.5533C64.6939 57.6724 73.2837 57.533 81.8107 59.1353ZM74.7258 79.5961C75.4782 79.4567 75.9797 79.1084 76.2305 78.5511C76.6625 77.5897 76.9063 76.1337 76.962 74.1831C76.976 71.689 76.6346 69.8499 75.9379 68.6656C75.6314 68.2336 75.2274 67.955 74.7258 67.8296C71.4933 67.2026 67.9055 67.1817 63.9624 67.7669C62.4995 67.9341 61.6356 68.8467 61.3709 70.5047C61.1062 74.3921 61.2316 76.9209 61.7471 78.0913C62.1651 78.983 62.813 79.5403 63.6908 79.7633C67.1462 80.446 70.8245 80.3903 74.7258 79.5961Z"/>
</mask>
<path d="M38.2977 86.7647C34.3546 88.2416 30.2443 88.576 25.9669 87.7678C23.9466 87.2663 22.4766 86.3049 21.5571 84.8837C20.0662 82.1667 19.7945 75.8063 20.742 65.8023C21.1878 62.2772 22.6229 60.0758 25.0473 59.198C32.808 57.1777 40.3737 57.4982 47.7443 60.1594C48.2459 60.3684 48.4619 60.6262 48.3922 60.9327C47.9881 63.4964 47.3194 65.8789 46.3858 68.0804C46.1629 68.4844 45.7101 68.6029 45.0274 68.4357C40.2762 67.3071 35.9778 67.3071 32.1323 68.4357C31.3938 68.6307 30.9201 69.0278 30.7111 69.6269C30.5021 70.7137 30.4464 72.1976 30.5439 74.0786C30.6136 75.5973 30.9758 76.907 31.6307 78.0077C31.979 78.4257 32.404 78.6765 32.9056 78.7601C34.3685 78.8994 36.0684 78.4745 38.0051 77.4852C37.9633 74.9773 37.9703 72.8594 38.026 71.1317C38.0538 70.8252 38.4161 70.651 39.1128 70.6092C42.3034 70.4002 44.888 70.4211 46.8665 70.6719C47.2567 70.7277 47.4587 70.8879 47.4726 71.1526C47.7374 75.8481 47.7583 81.4492 47.5353 87.9559C47.5214 88.2067 47.2358 88.367 46.6784 88.4366C44.059 88.6596 41.4117 88.6247 38.7366 88.3321C38.4718 88.2903 38.3395 88.1649 38.3395 87.9559C38.3255 87.5519 38.3116 87.1548 38.2977 86.7647ZM81.8107 59.1353C83.831 59.6369 85.3219 60.9536 86.2833 63.0854C87.4676 65.8441 87.7393 71.8005 87.0984 80.9546C86.5271 84.8698 85.092 87.0712 82.793 87.5588C72.3432 88.8268 63.426 88.7153 56.0415 87.2245C54.9268 86.9319 54.0142 86.284 53.3036 85.2808C51.562 82.5081 50.7051 78.1679 50.733 72.2603C50.8723 67.6624 51.5063 64.2488 52.6348 62.0195C53.1364 60.7934 54.272 59.9713 56.0415 59.5533C64.6939 57.6724 73.2837 57.533 81.8107 59.1353ZM74.7258 79.5961C75.4782 79.4567 75.9797 79.1084 76.2305 78.5511C76.6625 77.5897 76.9063 76.1337 76.962 74.1831C76.976 71.689 76.6346 69.8499 75.9379 68.6656C75.6314 68.2336 75.2274 67.955 74.7258 67.8296C71.4933 67.2026 67.9055 67.1817 63.9624 67.7669C62.4995 67.9341 61.6356 68.8467 61.3709 70.5047C61.1062 74.3921 61.2316 76.9209 61.7471 78.0913C62.1651 78.983 62.813 79.5403 63.6908 79.7633C67.1462 80.446 70.8245 80.3903 74.7258 79.5961Z" fill="#F8AE05"/>
<path d="M38.2977 86.7647L45.1028 86.5216L44.7653 77.0707L35.9092 80.3878L38.2977 86.7647ZM25.9669 87.7678L24.3261 94.3767L24.5133 94.4232L24.7028 94.459L25.9669 87.7678ZM21.5571 84.8837L15.5873 88.1594L15.706 88.3758L15.84 88.583L21.5571 84.8837ZM20.742 65.8023L13.9863 64.9478L13.9729 65.0539L13.9628 65.1603L20.742 65.8023ZM25.0473 59.198L23.3318 52.6082L23.0261 52.6878L22.7291 52.7953L25.0473 59.198ZM47.7443 60.1594L50.3634 53.8737L50.2115 53.8105L50.0568 53.7546L47.7443 60.1594ZM48.3922 60.9327L41.7521 59.4236L41.7014 59.6466L41.6658 59.8725L48.3922 60.9327ZM46.3858 68.0804L52.3481 71.3699L52.5178 71.0623L52.655 70.7388L46.3858 68.0804ZM45.0274 68.4357L46.6471 61.8216L46.6241 61.816L46.6011 61.8105L45.0274 68.4357ZM32.1323 68.4357L33.8714 75.0193L33.9609 74.9957L34.0498 74.9696L32.1323 68.4357ZM30.7111 69.6269L24.2816 67.3841L24.118 67.8532L24.0241 68.341L30.7111 69.6269ZM30.5439 74.0786L37.3462 73.7665L37.3453 73.7462L37.3443 73.726L30.5439 74.0786ZM31.6307 78.0077L25.7786 81.4893L26.0543 81.9528L26.3995 82.367L31.6307 78.0077ZM32.9056 78.7601L31.7861 85.4769L32.0219 85.5162L32.26 85.5389L32.9056 78.7601ZM38.0051 77.4852L41.1026 83.5494L44.8844 81.6177L44.8136 77.3717L38.0051 77.4852ZM38.026 71.1317L31.2445 70.5152L31.2265 70.7133L31.22 70.9122L38.026 71.1317ZM39.1128 70.6092L39.5206 77.4065L39.5392 77.4054L39.5578 77.4042L39.1128 70.6092ZM46.8665 70.6719L47.8295 63.9309L47.7763 63.9233L47.7229 63.9165L46.8665 70.6719ZM47.4726 71.1526L40.6725 71.5105L40.6732 71.5232L40.6739 71.5359L47.4726 71.1526ZM47.5353 87.9559L54.3343 88.3337L54.3383 88.2614L54.3408 88.1891L47.5353 87.9559ZM46.6784 88.4366L47.2559 95.2216L47.3897 95.2102L47.523 95.1935L46.6784 88.4366ZM38.7366 88.3321L37.6745 95.0583L37.8349 95.0836L37.9962 95.1013L38.7366 88.3321ZM38.3395 87.9559H45.149V87.8386L45.1449 87.7213L38.3395 87.9559ZM35.9092 80.3878C33.1728 81.4128 30.3285 81.6619 27.231 81.0767L24.7028 94.459C30.1601 95.49 35.5365 95.0704 40.6862 93.1415L35.9092 80.3878ZM27.6077 81.159C27.2053 81.0591 27.0659 80.9649 27.0764 80.9718C27.0823 80.9756 27.114 80.9975 27.1579 81.0413C27.2024 81.0856 27.2425 81.1356 27.2741 81.1844L15.84 88.583C17.9042 91.7731 21.0324 93.5589 24.3261 94.3767L27.6077 81.159ZM27.5269 81.608C27.5835 81.7112 27.1671 80.7975 27.0384 77.785C26.9212 75.0402 27.0621 71.2916 27.5211 66.4443L13.9628 65.1603C13.4744 70.317 13.2774 74.7506 13.4319 78.3662C13.5749 81.7143 14.0397 85.3392 15.5873 88.1594L27.5269 81.608ZM27.4976 66.6568C27.6345 65.5746 27.864 65.2156 27.8571 65.2261C27.8445 65.2455 27.7829 65.3305 27.6613 65.4275C27.5386 65.5254 27.4255 65.579 27.3655 65.6008L22.7291 52.7953C17.0102 54.8659 14.6134 59.9897 13.9863 64.9478L27.4976 66.6568ZM26.7628 65.7879C33.2261 64.1053 39.3862 64.3814 45.4318 66.5642L50.0568 53.7546C41.3612 50.615 32.39 50.2501 23.3318 52.6082L26.7628 65.7879ZM45.1253 66.4451C44.9214 66.3601 43.9597 65.953 43.0629 64.8827C42.567 64.2909 42.0711 63.4691 41.7993 62.4209C41.5234 61.3565 41.5477 60.3229 41.7521 59.4236L55.0324 62.4418C55.5757 60.0511 54.866 57.7642 53.5021 56.1363C52.3893 54.8082 51.0688 54.1677 50.3634 53.8737L45.1253 66.4451ZM41.6658 59.8725C41.341 61.9332 40.8155 63.7741 40.1167 65.422L52.655 70.7388C53.8232 67.9838 54.6353 65.0595 55.1187 61.9928L41.6658 59.8725ZM40.4236 64.7909C41.228 63.3328 42.6063 62.2897 44.156 61.8843C45.4379 61.5491 46.397 61.7604 46.6471 61.8216L43.4076 75.0497C44.3405 75.2782 45.8673 75.5138 47.602 75.0601C49.6046 74.5364 51.3207 73.232 52.3481 71.3699L40.4236 64.7909ZM46.6011 61.8105C40.9485 60.4678 35.4201 60.3741 30.2147 61.9018L34.0498 74.9696C36.5355 74.2401 39.6039 74.1464 43.4537 75.0608L46.6011 61.8105ZM30.3932 61.852C27.9774 62.4901 25.3943 64.1944 24.2816 67.3841L37.1406 71.8698C36.8521 72.697 36.3273 73.4867 35.5976 74.0984C34.9081 74.6763 34.2475 74.92 33.8714 75.0193L30.3932 61.852ZM24.0241 68.341C23.664 70.2139 23.6345 72.327 23.7436 74.4312L37.3443 73.726C37.2583 72.0682 37.3402 71.2135 37.3981 70.9129L24.0241 68.341ZM23.7416 74.3906C23.853 76.8191 24.4531 79.2614 25.7786 81.4893L37.4828 74.5261C37.482 74.5247 37.4767 74.5156 37.4682 74.4957C37.4597 74.4754 37.4461 74.4396 37.4309 74.3846C37.4004 74.2743 37.3605 74.0766 37.3462 73.7665L23.7416 74.3906ZM26.3995 82.367C27.7127 83.9429 29.558 85.1056 31.7861 85.4769L34.025 72.0433C34.5748 72.1349 35.1406 72.3315 35.6716 72.6449C36.1965 72.9547 36.5876 73.3193 36.8619 73.6484L26.3995 82.367ZM32.26 85.5389C35.4921 85.8467 38.5317 84.8626 41.1026 83.5494L34.9075 71.421C34.2938 71.7345 33.8721 71.8782 33.6261 71.9397C33.3862 71.9997 33.3807 71.9651 33.5512 71.9813L32.26 85.5389ZM44.8136 77.3717C44.7729 74.9302 44.781 72.9309 44.8319 71.3513L31.22 70.9122C31.1595 72.788 31.1536 75.0244 31.1965 77.5987L44.8136 77.3717ZM44.8075 71.7482C44.6914 73.0258 44.1946 74.2348 43.3969 75.2178C42.6529 76.1344 41.8243 76.6413 41.2691 76.9083C40.7146 77.1749 40.2559 77.2881 40.0137 77.3375C39.7566 77.39 39.5796 77.403 39.5206 77.4065L38.7049 63.812C38.0277 63.8526 36.7272 63.9807 35.3681 64.6341C33.7804 65.3974 31.5415 67.2475 31.2445 70.5152L44.8075 71.7482ZM39.5578 77.4042C42.5404 77.2088 44.6413 77.2538 46.0102 77.4274L47.7229 63.9165C45.1348 63.5884 42.0664 63.5917 38.6677 63.8143L39.5578 77.4042ZM45.9035 77.413C45.4844 77.3531 44.2966 77.1345 43.0793 76.1691C41.6014 74.997 40.765 73.2664 40.6725 71.5105L54.2727 70.7947C54.1664 68.7742 53.222 66.8311 51.542 65.4987C50.1227 64.373 48.6387 64.0465 47.8295 63.9309L45.9035 77.413ZM40.6739 71.5359C40.9237 75.9652 40.9482 81.3498 40.7298 87.7228L54.3408 88.1891C54.5683 81.5486 54.5511 75.731 54.2713 70.7693L40.6739 71.5359ZM40.7363 87.5782C40.8066 86.3132 41.2454 85.1118 41.9709 84.1164C42.651 83.1832 43.4329 82.6318 43.9791 82.3254C44.9655 81.772 45.7736 81.6873 45.8338 81.6797L47.523 95.1935C48.1406 95.1163 49.3701 94.9167 50.6422 94.2031C52.1203 93.3739 54.1595 91.4812 54.3343 88.3337L40.7363 87.5782ZM46.101 81.6517C43.9306 81.8364 41.7247 81.8089 39.4769 81.563L37.9962 95.1013C41.0987 95.4406 44.1874 95.4827 47.2559 95.2216L46.101 81.6517ZM39.7986 81.606C40.4197 81.7041 41.8209 82.0308 43.1219 83.2634C44.6162 84.679 45.149 86.49 45.149 87.9559H31.53C31.53 89.6309 32.1289 91.6091 33.7556 93.1501C35.1889 94.508 36.7887 94.9184 37.6745 95.0583L39.7986 81.606ZM45.1449 87.7213C45.1309 87.3145 45.1169 86.9146 45.1028 86.5216L31.4925 87.0077C31.5064 87.3949 31.5202 87.7892 31.534 88.1906L45.1449 87.7213ZM81.8107 59.1353L83.4516 52.5265L83.2611 52.4792L83.0683 52.443L81.8107 59.1353ZM86.2833 63.0854L92.5405 60.3992L92.5161 60.3423L92.4907 60.2859L86.2833 63.0854ZM87.0984 80.9546L93.8365 81.9377L93.8734 81.685L93.8912 81.4302L87.0984 80.9546ZM82.793 87.5588L83.6132 94.3188L83.9118 94.2825L84.206 94.2201L82.793 87.5588ZM56.0415 87.2245L54.3126 93.8108L54.502 93.8605L54.6939 93.8993L56.0415 87.2245ZM53.3036 85.2808L47.5373 88.9028L47.6378 89.0627L47.7469 89.2168L53.3036 85.2808ZM50.733 72.2603L43.9266 72.0541L43.924 72.1411L43.9236 72.2282L50.733 72.2603ZM52.6348 62.0195L58.7102 65.0951L58.8337 64.851L58.9373 64.5978L52.6348 62.0195ZM56.0415 59.5533L54.5949 52.8993L54.5354 52.9122L54.476 52.9262L56.0415 59.5533ZM74.7258 79.5961L73.4858 72.9004L73.4265 72.9114L73.3674 72.9235L74.7258 79.5961ZM76.2305 78.5511L82.4403 81.3455L82.4419 81.3417L76.2305 78.5511ZM76.962 74.1831L83.7687 74.3775L83.771 74.2993L83.7714 74.2211L76.962 74.1831ZM75.9379 68.6656L81.8073 65.213L81.6596 64.962L81.4911 64.7246L75.9379 68.6656ZM74.7258 67.8296L76.3773 61.2234L76.2009 61.1793L76.0224 61.1447L74.7258 67.8296ZM63.9624 67.7669L64.7356 74.5323L64.8491 74.5194L64.9621 74.5026L63.9624 67.7669ZM61.3709 70.5047L54.6466 69.4311L54.5981 69.735L54.5771 70.0421L61.3709 70.5047ZM61.7471 78.0913L55.5154 80.8362L55.5475 80.9092L55.5814 80.9815L61.7471 78.0913ZM63.6908 79.7633L62.0146 86.3632L62.1916 86.4082L62.3708 86.4436L63.6908 79.7633ZM80.1699 65.7442C80.1852 65.748 80.1539 65.7415 80.0953 65.7111C80.0355 65.6802 79.9795 65.641 79.9364 65.6029C79.8948 65.5662 79.8897 65.5522 79.9135 65.5856C79.9389 65.6213 79.9983 65.713 80.0758 65.8848L92.4907 60.2859C90.7917 56.5186 87.7656 53.5975 83.4516 52.5265L80.1699 65.7442ZM80.026 65.7716C80.0211 65.7601 80.055 65.8382 80.1084 66.0369C80.1609 66.2323 80.2224 66.5074 80.284 66.8761C80.4087 67.6226 80.5134 68.6278 80.5729 69.932C80.6922 72.5486 80.6163 76.0404 80.3055 80.479L93.8912 81.4302C94.2214 76.7147 94.33 72.6512 94.1777 69.3114C94.0339 66.159 93.6381 62.9559 92.5405 60.3992L80.026 65.7716ZM80.3602 79.9714C80.2616 80.6476 80.1427 81.1269 80.0377 81.4473C79.9319 81.7697 79.8614 81.866 79.8892 81.8233C79.9245 81.7691 80.0714 81.5653 80.3759 81.346C80.6932 81.1175 81.0501 80.9676 81.38 80.8976L84.206 94.2201C90.9457 92.7905 93.1681 86.5189 93.8365 81.9377L80.3602 79.9714ZM81.9728 80.7989C71.9812 82.0113 63.8392 81.8518 57.389 80.5496L54.6939 93.8993C63.0129 95.5788 72.7052 95.6423 83.6132 94.3188L81.9728 80.7989ZM57.7704 80.6381C57.983 80.6939 58.23 80.8012 58.4629 80.9666C58.6906 81.1282 58.8157 81.2818 58.8603 81.3448L47.7469 89.2168C49.3157 91.4316 51.5422 93.0836 54.3126 93.8108L57.7704 80.6381ZM59.0699 81.6588C58.3736 80.5502 57.5164 77.8053 57.5424 72.2924L43.9236 72.2282C43.8938 78.5306 44.7504 84.466 47.5373 88.9028L59.0699 81.6588ZM57.5393 72.4666C57.6697 68.165 58.2683 65.9678 58.7102 65.0951L46.5595 58.9438C44.7442 62.5297 44.0749 67.1598 43.9266 72.0541L57.5393 72.4666ZM58.9373 64.5978C58.6789 65.2296 58.2541 65.7109 57.8558 65.9992C57.5143 66.2464 57.3489 66.2414 57.6069 66.1804L54.476 52.9262C51.4294 53.6459 47.9535 55.4783 46.3323 59.4412L58.9373 64.5978ZM57.488 66.2074C65.2695 64.5158 72.9397 64.397 80.5532 65.8277L83.0683 52.443C73.6277 50.669 64.1184 50.8289 54.5949 52.8993L57.488 66.2074ZM75.9657 86.2917C78.2917 85.861 81.0406 84.4558 82.4403 81.3455L70.0208 75.7567C70.402 74.9097 71.0174 74.1683 71.7821 73.6372C72.4985 73.1398 73.1454 72.9635 73.4858 72.9004L75.9657 86.2917ZM82.4419 81.3417C83.4332 79.1354 83.7055 76.5921 83.7687 74.3775L70.1553 73.9886C70.1337 74.7449 70.0785 75.2726 70.0214 75.6134C69.9605 75.9771 69.9224 75.9758 70.0191 75.7605L82.4419 81.3417ZM83.7714 74.2211C83.7874 71.3566 83.4506 68.0067 81.8073 65.213L70.0686 72.1181C69.899 71.8298 69.9465 71.7728 70.0213 72.1758C70.0927 72.5603 70.158 73.1952 70.1526 74.145L83.7714 74.2211ZM81.4911 64.7246C80.269 63.0025 78.4975 61.7535 76.3773 61.2234L73.0742 74.4358C72.5756 74.3111 72.0445 74.0869 71.539 73.7383C71.0356 73.3911 70.6557 72.9883 70.3848 72.6065L81.4911 64.7246ZM76.0224 61.1447C71.8925 60.3436 67.5131 60.3559 62.9628 61.0312L64.9621 74.5026C68.298 74.0075 71.0941 74.0616 73.4291 74.5145L76.0224 61.1447ZM63.1893 61.0014C61.1527 61.2342 58.9898 62.0809 57.272 63.8956C55.6279 65.6325 54.9238 67.6949 54.6466 69.4311L68.0952 71.5784C68.0827 71.6565 67.9429 72.4336 67.1627 73.2578C66.3087 74.16 65.3092 74.4668 64.7356 74.5323L63.1893 61.0014ZM54.5771 70.0421C54.4352 72.1267 54.3843 74.0218 54.4653 75.6541C54.5369 77.0982 54.7338 79.0618 55.5154 80.8362L67.9788 75.3464C68.1502 75.7355 68.1684 75.9425 68.1431 75.7963C68.1233 75.6821 68.0895 75.4237 68.0675 74.9796C68.0231 74.0831 68.0419 72.7701 68.1646 70.9674L54.5771 70.0421ZM55.5814 80.9815C56.7787 83.5357 58.9715 85.5904 62.0146 86.3632L65.3669 73.1633C65.8858 73.2951 66.4657 73.5672 66.9872 74.0158C67.4952 74.4528 67.7755 74.9083 67.9128 75.2011L55.5814 80.9815ZM62.3708 86.4436C66.8188 87.3224 71.4142 87.2194 76.0841 86.2687L73.3674 72.9235C70.2348 73.5612 67.4735 73.5696 65.0107 73.0829L62.3708 86.4436Z" fill="#081732" mask="url(#path-1-outside-1_7_69)"/>
<mask id="path-3-outside-2_7_69" maskUnits="userSpaceOnUse" x="9.56152" y="12.5806" width="89" height="46" fill="black">
<rect fill="white" x="9.56152" y="12.5806" width="89" height="46"/>
<path d="M19.6591 49.1803C19.3247 42.1301 19.2063 35.7766 19.3038 30.1198C18.8022 30.1616 18.3564 30.2034 17.9662 30.2452C17.604 30.3845 17.3671 30.3288 17.2557 30.078C16.8795 27.9323 16.7471 25.3617 16.8586 22.366C16.8028 22.0038 16.9422 21.746 17.2766 21.5928C28.5763 19.7815 37.793 19.663 44.9268 21.2375C46.9053 21.8087 48.3474 22.8258 49.253 24.2888C50.716 27.0754 50.9807 33.5404 50.0472 43.6837C49.5874 47.1391 48.1802 49.1942 45.8255 49.8491C38.5524 51.2981 30.0532 51.2424 20.3279 49.6819C19.9238 49.6261 19.7009 49.459 19.6591 49.1803ZM29.8581 29.8063C29.9557 33.7633 29.9766 37.6507 29.9208 41.4683C33.0419 41.9142 36.0235 41.8166 38.8659 41.1757C39.5904 40.9807 40.0572 40.5836 40.2662 39.9844C40.4752 38.7444 40.5309 37.1003 40.4334 35.0521C40.308 33.2966 39.9248 31.8475 39.2839 30.705C38.9356 30.2731 38.5176 30.0083 38.0299 29.9108C36.3022 29.5207 33.5783 29.4859 29.8581 29.8063ZM85.3467 21.4674C87.367 21.9689 88.8578 23.2856 89.8192 25.4174C91.0035 28.1761 91.2752 34.1325 90.6343 43.2866C90.0631 47.2018 88.628 49.4032 86.329 49.8909C75.8792 51.1588 66.962 51.0473 59.5774 49.5565C58.4628 49.2639 57.5502 48.616 56.8396 47.6128C55.0979 44.8401 54.2411 40.5 54.2689 34.5923C54.4083 29.9944 55.0422 26.5808 56.1708 24.3515C56.6724 23.1254 57.8079 22.3033 59.5774 21.8853C68.2299 20.0044 76.8197 19.8651 85.3467 21.4674ZM78.2617 41.9281C79.0141 41.7888 79.5157 41.4405 79.7665 40.8831C80.1984 39.9217 80.4423 38.4657 80.498 36.5151C80.5119 34.0211 80.1706 32.1819 79.4739 30.9976C79.1674 30.5657 78.7633 30.287 78.2617 30.1616C75.0292 29.5346 71.4415 29.5137 67.4984 30.0989C66.0354 30.2661 65.1716 31.1787 64.9069 32.8368C64.6421 36.7241 64.7675 39.253 65.283 40.4233C65.701 41.3151 66.3489 41.8724 67.2267 42.0953C70.6821 42.778 74.3605 42.7223 78.2617 41.9281Z"/>
</mask>
<path d="M19.6591 49.1803C19.3247 42.1301 19.2063 35.7766 19.3038 30.1198C18.8022 30.1616 18.3564 30.2034 17.9662 30.2452C17.604 30.3845 17.3671 30.3288 17.2557 30.078C16.8795 27.9323 16.7471 25.3617 16.8586 22.366C16.8028 22.0038 16.9422 21.746 17.2766 21.5928C28.5763 19.7815 37.793 19.663 44.9268 21.2375C46.9053 21.8087 48.3474 22.8258 49.253 24.2888C50.716 27.0754 50.9807 33.5404 50.0472 43.6837C49.5874 47.1391 48.1802 49.1942 45.8255 49.8491C38.5524 51.2981 30.0532 51.2424 20.3279 49.6819C19.9238 49.6261 19.7009 49.459 19.6591 49.1803ZM29.8581 29.8063C29.9557 33.7633 29.9766 37.6507 29.9208 41.4683C33.0419 41.9142 36.0235 41.8166 38.8659 41.1757C39.5904 40.9807 40.0572 40.5836 40.2662 39.9844C40.4752 38.7444 40.5309 37.1003 40.4334 35.0521C40.308 33.2966 39.9248 31.8475 39.2839 30.705C38.9356 30.2731 38.5176 30.0083 38.0299 29.9108C36.3022 29.5207 33.5783 29.4859 29.8581 29.8063ZM85.3467 21.4674C87.367 21.9689 88.8578 23.2856 89.8192 25.4174C91.0035 28.1761 91.2752 34.1325 90.6343 43.2866C90.0631 47.2018 88.628 49.4032 86.329 49.8909C75.8792 51.1588 66.962 51.0473 59.5774 49.5565C58.4628 49.2639 57.5502 48.616 56.8396 47.6128C55.0979 44.8401 54.2411 40.5 54.2689 34.5923C54.4083 29.9944 55.0422 26.5808 56.1708 24.3515C56.6724 23.1254 57.8079 22.3033 59.5774 21.8853C68.2299 20.0044 76.8197 19.8651 85.3467 21.4674ZM78.2617 41.9281C79.0141 41.7888 79.5157 41.4405 79.7665 40.8831C80.1984 39.9217 80.4423 38.4657 80.498 36.5151C80.5119 34.0211 80.1706 32.1819 79.4739 30.9976C79.1674 30.5657 78.7633 30.287 78.2617 30.1616C75.0292 29.5346 71.4415 29.5137 67.4984 30.0989C66.0354 30.2661 65.1716 31.1787 64.9069 32.8368C64.6421 36.7241 64.7675 39.253 65.283 40.4233C65.701 41.3151 66.3489 41.8724 67.2267 42.0953C70.6821 42.778 74.3605 42.7223 78.2617 41.9281Z" fill="#F16932"/>
<path d="M19.6591 49.1803L12.8573 49.5029L12.8737 49.8484L12.925 50.1904L19.6591 49.1803ZM19.3038 30.1198L26.1123 30.2372L26.2421 22.7085L18.7383 23.3338L19.3038 30.1198ZM17.9662 30.2452L17.2408 23.4745L16.3541 23.5695L15.5218 23.8896L17.9662 30.2452ZM17.2557 30.078L10.5485 31.2539L10.693 32.0786L11.0331 32.8436L17.2557 30.078ZM16.8586 22.366L23.6633 22.6192L23.6874 21.9714L23.5889 21.3306L16.8586 22.366ZM17.2766 21.5928L16.1988 14.8691L15.2827 15.0159L14.4393 15.4025L17.2766 21.5928ZM44.9268 21.2375L46.8157 14.6952L46.6068 14.6349L46.3943 14.588L44.9268 21.2375ZM49.253 24.2888L55.2821 21.1235L55.1699 20.9098L55.0429 20.7046L49.253 24.2888ZM50.0472 43.6837L56.7972 44.5819L56.8154 44.4451L56.828 44.3077L50.0472 43.6837ZM45.8255 49.8491L47.156 56.5273L47.4052 56.4777L47.65 56.4096L45.8255 49.8491ZM20.3279 49.6819L21.4067 42.9584L21.3327 42.9465L21.2583 42.9363L20.3279 49.6819ZM29.8581 29.8063L29.2737 23.022L22.8929 23.5716L23.0507 29.9741L29.8581 29.8063ZM29.9208 41.4683L23.1121 41.3689L23.0246 47.3618L28.9578 48.2094L29.9208 41.4683ZM38.8659 41.1757L40.3638 47.8184L40.5007 47.7876L40.6362 47.7511L38.8659 41.1757ZM40.2662 39.9844L46.6957 42.2273L46.8853 41.6838L46.9809 41.1162L40.2662 39.9844ZM40.4334 35.0521L47.2351 34.7282L47.2313 34.6475L47.2255 34.567L40.4334 35.0521ZM39.2839 30.705L45.2227 27.3735L44.9432 26.8751L44.5845 26.4303L39.2839 30.705ZM38.0299 29.9108L36.53 36.5531L36.612 36.5716L36.6945 36.5881L38.0299 29.9108ZM26.461 48.8577C26.1319 41.92 26.0178 35.7168 26.1123 30.2372L12.4953 30.0024C12.3948 35.8365 12.5175 42.3403 12.8573 49.5029L26.461 48.8577ZM18.7383 23.3338C18.1974 23.3789 17.6966 23.4256 17.2408 23.4745L18.6917 37.0159C19.0162 36.9812 19.407 36.9443 19.8693 36.9058L18.7383 23.3338ZM15.5218 23.8896C15.9205 23.7363 17.2855 23.258 19.0765 23.6794C21.3163 24.2064 22.7956 25.7764 23.4782 27.3124L11.0331 32.8436C11.8272 34.6304 13.4806 36.3536 15.9573 36.9364C17.9852 37.4135 19.6498 36.8935 20.4107 36.6008L15.5218 23.8896ZM23.9628 28.9021C23.6936 27.3666 23.5635 25.3012 23.6633 22.6192L10.0538 22.1128C9.93065 25.4221 10.0653 28.498 10.5485 31.2539L23.9628 28.9021ZM23.5889 21.3306C23.7292 22.2426 23.7087 23.6644 22.9116 25.1391C22.1159 26.611 20.9421 27.4033 20.1138 27.783L14.4393 15.4025C13.2766 15.9354 11.8659 16.9332 10.9309 18.663C9.99449 20.3954 9.93222 22.1272 10.1283 23.4015L23.5889 21.3306ZM18.3543 28.3164C29.2338 26.5725 37.4988 26.5714 43.4592 27.8869L46.3943 14.588C38.0873 12.7546 27.9188 12.9904 16.1988 14.8691L18.3543 28.3164ZM43.0378 27.7797C43.4178 27.8894 43.5596 27.9878 43.5674 27.9934C43.5717 27.9964 43.5548 27.9847 43.528 27.9564C43.5009 27.9278 43.4784 27.8977 43.4631 27.873L55.0429 20.7046C53.0798 17.5335 50.0794 15.6375 46.8157 14.6952L43.0378 27.7797ZM43.2239 27.4541C43.2092 27.4261 43.6193 28.4365 43.745 31.5061C43.8601 34.3178 43.7193 38.1387 43.2664 43.0596L56.828 44.3077C57.3087 39.0853 57.5022 34.6022 57.3526 30.9489C57.2135 27.5535 56.7598 23.9382 55.2821 21.1235L43.2239 27.4541ZM43.2972 42.7855C43.2294 43.2947 43.1424 43.6295 43.0753 43.8276C43.0091 44.0232 42.9755 44.0466 43.0284 43.9693C43.0883 43.8818 43.2188 43.725 43.4337 43.5702C43.6501 43.4143 43.8581 43.3283 44.001 43.2886L47.65 56.4096C53.7346 54.7174 56.1575 49.389 56.7972 44.5819L43.2972 42.7855ZM44.4949 43.1708C38.2289 44.4192 30.5796 44.4303 21.4067 42.9584L19.2491 56.4054C29.5268 58.0545 38.8758 58.177 47.156 56.5273L44.4949 43.1708ZM21.2583 42.9363C21.7067 42.9981 22.7996 43.2093 23.9434 44.0671C25.2813 45.0706 26.152 46.562 26.3933 48.1702L12.925 50.1904C13.208 52.0772 14.211 53.7916 15.772 54.9623C17.1387 55.9873 18.5451 56.3099 19.3975 56.4275L21.2583 42.9363ZM23.0507 29.9741C23.1461 33.8453 23.1665 37.6435 23.1121 41.3689L36.7296 41.5677C36.7867 37.6578 36.7652 33.6813 36.6656 29.6385L23.0507 29.9741ZM28.9578 48.2094C32.8308 48.7626 36.65 48.6559 40.3638 47.8184L37.368 34.533C35.3971 34.9774 33.2529 35.0657 30.8838 34.7273L28.9578 48.2094ZM40.6362 47.7511C43.0785 47.0935 45.6022 45.362 46.6957 42.2273L33.8366 37.7416C34.1161 36.9404 34.6247 36.1596 35.3469 35.5451C36.0332 34.9613 36.6991 34.7071 37.0956 34.6004L40.6362 47.7511ZM46.9809 41.1162C47.3054 39.1909 47.3433 36.9997 47.2351 34.7282L33.6316 35.376C33.7185 37.2009 33.6449 38.2979 33.5514 38.8527L46.9809 41.1162ZM47.2255 34.567C47.052 32.1376 46.4923 29.6367 45.2227 27.3735L33.345 34.0365C33.3573 34.0583 33.5639 34.4555 33.6412 35.5373L47.2255 34.567ZM44.5845 26.4303C43.3595 24.9113 41.5974 23.68 39.3654 23.2336L36.6945 36.5881C36.1231 36.4738 35.5665 36.2525 35.0657 35.9353C34.5737 35.6237 34.2207 35.274 33.9833 34.9797L44.5845 26.4303ZM39.5298 23.2686C36.7117 22.6322 33.0958 22.6927 29.2737 23.022L30.4426 36.5907C34.0607 36.279 35.8927 36.4092 36.53 36.5531L39.5298 23.2686ZM85.3467 21.4674L86.9875 14.8585L86.7971 14.8112L86.6043 14.775L85.3467 21.4674ZM89.8192 25.4174L96.0765 22.7312L96.0521 22.6743L96.0267 22.618L89.8192 25.4174ZM90.6343 43.2866L97.3725 44.2697L97.4093 44.017L97.4272 43.7622L90.6343 43.2866ZM86.329 49.8909L87.1492 56.6508L87.4478 56.6146L87.742 56.5521L86.329 49.8909ZM59.5774 49.5565L57.8485 56.1428L58.0379 56.1925L58.2299 56.2313L59.5774 49.5565ZM56.8396 47.6128L51.0733 51.2349L51.1737 51.3947L51.2829 51.5488L56.8396 47.6128ZM54.2689 34.5923L47.4626 34.3861L47.4599 34.4731L47.4595 34.5602L54.2689 34.5923ZM56.1708 24.3515L62.2461 27.4271L62.3697 27.183L62.4733 26.9298L56.1708 24.3515ZM59.5774 21.8853L58.1309 15.2313L58.0713 15.2442L58.012 15.2583L59.5774 21.8853ZM78.2617 41.9281L77.0218 35.2325L76.9625 35.2435L76.9034 35.2555L78.2617 41.9281ZM79.7665 40.8831L85.9762 43.6775L85.9779 43.6738L79.7665 40.8831ZM80.498 36.5151L87.3047 36.7096L87.3069 36.6314L87.3074 36.5531L80.498 36.5151ZM79.4739 30.9976L85.3432 27.5451L85.1956 27.2941L85.0271 27.0566L79.4739 30.9976ZM78.2617 30.1616L79.9133 23.5554L79.7369 23.5113L79.5584 23.4767L78.2617 30.1616ZM67.4984 30.0989L68.2716 36.8644L68.3851 36.8514L68.4981 36.8346L67.4984 30.0989ZM64.9069 32.8368L58.1825 31.7631L58.134 32.0671L58.1131 32.3741L64.9069 32.8368ZM65.283 40.4233L59.0513 43.1683L59.0835 43.2413L59.1173 43.3135L65.283 40.4233ZM67.2267 42.0953L65.5505 48.6953L65.7276 48.7402L65.9068 48.7756L67.2267 42.0953ZM83.7059 28.0762C83.7211 28.08 83.6899 28.0735 83.6313 28.0432C83.5715 28.0122 83.5155 27.9731 83.4724 27.935C83.4308 27.8982 83.4257 27.8842 83.4495 27.9177C83.4749 27.9533 83.5343 28.045 83.6118 28.2168L96.0267 22.618C94.3277 18.8506 91.3015 15.9296 86.9875 14.8585L83.7059 28.0762ZM83.562 28.1036C83.557 28.0921 83.591 28.1703 83.6444 28.369C83.6969 28.5643 83.7584 28.8394 83.82 29.2081C83.9447 29.9547 84.0493 30.9598 84.1088 32.264C84.2282 34.8807 84.1522 38.3724 83.8415 42.811L97.4272 43.7622C97.7573 39.0467 97.866 34.9832 97.7137 31.6435C97.5699 28.491 97.1741 25.2879 96.0765 22.7312L83.562 28.1036ZM83.8962 42.3034C83.7975 42.9796 83.6787 43.4589 83.5736 43.7793C83.4678 44.1018 83.3973 44.198 83.4251 44.1554C83.4605 44.1011 83.6074 43.8974 83.9119 43.6781C84.2292 43.4496 84.5861 43.2996 84.916 43.2296L87.742 56.5521C94.4817 55.1225 96.704 48.8509 97.3725 44.2697L83.8962 42.3034ZM85.5088 43.131C75.5172 44.3433 67.3751 44.1839 60.925 42.8817L58.2299 56.2313C66.5488 57.9108 76.2411 57.9743 87.1492 56.6508L85.5088 43.131ZM61.3064 42.9701C61.519 43.026 61.766 43.1332 61.9989 43.2986C62.2266 43.4602 62.3517 43.6138 62.3963 43.6768L51.2829 51.5488C52.8517 53.7636 55.0781 55.4156 57.8485 56.1428L61.3064 42.9701ZM62.6059 43.9908C61.9095 42.8822 61.0523 40.1373 61.0783 34.6245L47.4595 34.5602C47.4298 40.8626 48.2864 46.798 51.0733 51.2349L62.6059 43.9908ZM61.0753 34.7986C61.2056 30.497 61.8043 28.2999 62.2461 27.4271L50.0955 21.2759C48.2801 24.8617 47.6109 29.4918 47.4626 34.3861L61.0753 34.7986ZM62.4733 26.9298C62.2148 27.5616 61.79 28.0429 61.3917 28.3312C61.0503 28.5784 60.8849 28.5734 61.1429 28.5124L58.012 15.2583C54.9653 15.9779 51.4895 17.8104 49.8683 21.7732L62.4733 26.9298ZM61.024 28.5394C68.8054 26.8478 76.4756 26.7291 84.0892 28.1597L86.6043 14.775C77.1637 13.001 67.6544 13.161 58.1309 15.2313L61.024 28.5394ZM79.5017 48.6238C81.8276 48.193 84.5766 46.7878 85.9762 43.6775L73.5568 38.0888C73.9379 37.2417 74.5533 36.5004 75.3181 35.9693C76.0345 35.4718 76.6814 35.2955 77.0218 35.2325L79.5017 48.6238ZM85.9779 43.6738C86.9691 41.4675 87.2414 38.9241 87.3047 36.7096L73.6913 36.3206C73.6697 37.0769 73.6144 37.6047 73.5574 37.9454C73.4964 38.3092 73.4584 38.3078 73.5551 38.0925L85.9779 43.6738ZM87.3074 36.5531C87.3234 33.6887 86.9866 30.3387 85.3432 27.5451L73.6046 34.4501C73.435 34.1619 73.4825 34.1048 73.5573 34.5079C73.6286 34.8923 73.6939 35.5272 73.6886 36.4771L87.3074 36.5531ZM85.0271 27.0566C83.8049 25.3345 82.0334 24.0855 79.9133 23.5554L76.6102 36.7678C76.1116 36.6431 75.5805 36.4189 75.075 36.0703C74.5716 35.7231 74.1917 35.3204 73.9207 34.9386L85.0271 27.0566ZM79.5584 23.4767C75.4285 22.6757 71.049 22.6879 66.4988 23.3632L68.4981 36.8346C71.8339 36.3395 74.63 36.3936 76.9651 36.8465L79.5584 23.4767ZM66.7252 23.3335C64.6887 23.5662 62.5258 24.4129 60.8079 26.2277C59.1639 27.9645 58.4597 30.0269 58.1825 31.7631L71.6312 33.9104C71.6187 33.9886 71.4788 34.7656 70.6986 35.5899C69.8447 36.492 68.8452 36.7988 68.2716 36.8644L66.7252 23.3335ZM58.1131 32.3741C57.9711 34.4587 57.9203 36.3538 58.0012 37.9862C58.0728 39.4302 58.2697 41.3938 59.0513 43.1683L71.5148 37.6784C71.6862 38.0675 71.7044 38.2745 71.6791 38.1284C71.6593 38.0142 71.6255 37.7557 71.6035 37.3117C71.559 36.4152 71.5778 35.1022 71.7006 33.2994L58.1131 32.3741ZM59.1173 43.3135C60.3146 45.8678 62.5074 47.9224 65.5505 48.6953L68.9029 35.4953C69.4217 35.6271 70.0016 35.8992 70.5231 36.3478C71.0311 36.7848 71.3115 37.2403 71.4488 37.5332L59.1173 43.3135ZM65.9068 48.7756C70.3547 49.6545 74.9501 49.5514 79.6201 48.6007L76.9034 35.2555C73.7708 35.8932 71.0095 35.9016 68.5466 35.415L65.9068 48.7756Z" fill="#081732" mask="url(#path-3-outside-2_7_69)"/>
</g>
<defs>
<clipPath id="clip0_7_69">
<rect width="90" height="90" fill="white" transform="translate(9 9)"/>
</clipPath>
</defs>
</svg>
