<svg width="108" height="108" viewBox="0 0 108 108" fill="none" xmlns="http://www.w3.org/2000/svg">
<path d="M43.969 48.9726L43.204 48.5316L43.969 48.0896C44.3082 47.8939 44.6056 47.6332 44.8441 47.3225C45.0825 47.0118 45.2575 46.6572 45.3589 46.2789C45.4603 45.9006 45.4862 45.506 45.4351 45.1177C45.384 44.7293 45.2568 44.3548 45.061 44.0156V44.0156C44.8651 43.6764 44.6044 43.3792 44.2937 43.1408C43.9829 42.9024 43.6282 42.7276 43.2499 42.6263C42.8716 42.5249 42.4771 42.4992 42.0888 42.5504C41.7005 42.6016 41.3261 42.7288 40.987 42.9247L40.2219 43.3656V42.4826C40.2219 41.6917 39.9078 40.9332 39.3486 40.374C38.7893 39.8148 38.0308 39.5007 37.24 39.5007C36.4491 39.5007 35.6906 39.8148 35.1314 40.374C34.5721 40.9332 34.258 41.6917 34.258 42.4826V43.3656L33.493 42.9247C33.1539 42.7288 32.7794 42.6016 32.3911 42.5504C32.0028 42.4992 31.6083 42.5249 31.23 42.6263C30.8517 42.7276 30.497 42.9024 30.1863 43.1408C29.8756 43.3792 29.6148 43.6764 29.419 44.0156C29.2231 44.3548 29.096 44.7293 29.0448 45.1177C28.9937 45.506 29.0196 45.9006 29.121 46.2789C29.2224 46.6572 29.3974 47.0118 29.6359 47.3225C29.8743 47.6332 30.1717 47.8939 30.511 48.0896L31.2759 48.5316L30.511 48.9726C29.826 49.3682 29.3262 50.0196 29.1215 50.7836C28.9167 51.5476 29.0237 52.3616 29.419 53.0467V53.0467C29.6148 53.3858 29.8756 53.6831 30.1863 53.9215C30.497 54.1599 30.8517 54.3347 31.23 54.436C31.6083 54.5373 32.0028 54.5631 32.3911 54.5119C32.7794 54.4607 33.1539 54.3336 33.493 54.1377L34.258 53.6967V54.5797C34.258 55.3706 34.5721 56.129 35.1314 56.6883C35.6906 57.2475 36.4491 57.5616 37.24 57.5616C38.0308 57.5616 38.7893 57.2475 39.3486 56.6883C39.9078 56.129 40.2219 55.3706 40.2219 54.5797V53.7016L40.987 54.1427C41.3261 54.3386 41.7005 54.4657 42.0888 54.5169C42.4771 54.5681 42.8716 54.5423 43.2499 54.441C43.6282 54.3397 43.9829 54.1648 44.2937 53.9265C44.6044 53.6881 44.8651 53.3908 45.061 53.0516V53.0516C45.2575 52.7122 45.3851 52.3373 45.4366 51.9485C45.4881 51.5597 45.4623 51.1645 45.3609 50.7856C45.2595 50.4068 45.0843 50.0516 44.8455 49.7405C44.6066 49.4294 44.3088 49.1685 43.969 48.9726V48.9726Z" fill="#F16932" stroke="black" stroke-width="2" stroke-linecap="round" stroke-linejoin="round"/>
<path d="M98.635 56.9267C97.859 56.1506 97.423 55.0981 97.423 54.0007C97.423 52.9032 97.859 51.8507 98.635 51.0747L102.035 47.6747C102.933 46.7766 103.437 45.5586 103.437 44.2887C103.437 43.0187 102.933 41.8007 102.035 40.9026V40.9026C101.59 40.4579 101.063 40.1052 100.482 39.8646C99.9009 39.6239 99.2783 39.5 98.6495 39.5C98.0208 39.5 97.3982 39.6239 96.8173 39.8646C96.2364 40.1052 95.7086 40.4579 95.264 40.9026L90.15 46.0167V44.2887C90.15 43.0188 89.6456 41.801 88.7477 40.903C87.8498 40.0051 86.6319 39.5007 85.362 39.5007V39.5007C84.0921 39.5007 82.8742 40.005 81.9761 40.9029C81.078 41.8008 80.5733 43.0187 80.573 44.2887V63.7127C80.5733 64.9826 81.078 66.2004 81.9761 67.0983C82.8742 67.9962 84.0921 68.5007 85.362 68.5007V68.5007C86.6319 68.5007 87.8498 67.9962 88.7477 67.0982C89.6456 66.2003 90.15 64.9826 90.15 63.7127V61.9837L95.269 67.1017C95.7136 67.5463 96.2414 67.8991 96.8223 68.1397C97.4032 68.3804 98.0258 68.5043 98.6545 68.5043C99.2833 68.5043 99.9059 68.3804 100.487 68.1397C101.068 67.8991 101.596 67.5463 102.04 67.1017V67.1017C102.485 66.6571 102.837 66.1293 103.078 65.5484C103.319 64.9675 103.443 64.3449 103.443 63.7161C103.443 63.0873 103.319 62.4648 103.078 61.8839C102.837 61.303 102.485 60.7752 102.04 60.3307L98.635 56.9267Z" fill="#F16932" stroke="black" stroke-width="2" stroke-linecap="round" stroke-linejoin="round"/>
<path d="M21.25 39.5016H8.179C7.69587 39.5016 7.21745 39.5968 6.77109 39.7817C6.32474 39.9666 5.91917 40.2376 5.57754 40.5792C5.23591 40.9208 4.96492 41.3264 4.78003 41.7727C4.59514 42.2191 4.5 42.6975 4.5 43.1807C4.5 43.3547 4.51269 43.5285 4.53799 43.7007C4.51316 43.896 4.50048 44.0927 4.5 44.2896V63.7137C4.5 64.9835 5.00442 66.2014 5.90234 67.0993C6.80027 67.9972 8.01813 68.5016 9.28799 68.5016V68.5016C10.5579 68.5016 11.7759 67.9972 12.674 67.0993C13.5721 66.2014 14.0767 64.9836 14.077 63.7137V60.7436C14.0773 60.1176 14.3261 59.5173 14.7688 59.0748C15.2116 58.6322 15.812 58.3837 16.438 58.3837H18.421C19.3967 58.3837 20.3325 57.9961 21.0225 57.3061C21.7124 56.6162 22.1 55.6804 22.1 54.7047C22.1 54.2215 22.0049 53.7431 21.82 53.2968C21.6351 52.8504 21.3641 52.4448 21.0225 52.1032C20.6808 51.7616 20.2753 51.4905 19.8289 51.3057C19.3825 51.1208 18.9041 51.0257 18.421 51.0257H16.16C15.6076 51.0257 15.0777 50.8062 14.6871 50.4155C14.2965 50.0249 14.077 49.4951 14.077 48.9427C14.0769 48.6691 14.1307 48.3982 14.2353 48.1454C14.3399 47.8926 14.4934 47.6629 14.6868 47.4694C14.8803 47.276 15.1099 47.1226 15.3627 47.018C15.6155 46.9133 15.8864 46.8595 16.16 46.8597H21.25C21.7331 46.8597 22.2116 46.7645 22.6579 46.5796C23.1043 46.3947 23.5098 46.1237 23.8514 45.7821C24.193 45.4405 24.464 45.0349 24.6489 44.5886C24.8338 44.1422 24.929 43.6638 24.929 43.1807V43.1807C24.929 42.2049 24.5414 41.2691 23.8514 40.5792C23.1615 39.8892 22.2257 39.5016 21.25 39.5016Z" fill="#F16932" stroke="black" stroke-width="2" stroke-linecap="round" stroke-linejoin="round"/>
<path d="M65.277 68.5016C57.282 68.5016 50.777 62.0016 50.777 54.0016C50.777 46.0016 57.282 39.5016 65.277 39.5016C67.2711 39.5045 69.2433 39.9173 71.0713 40.7142C72.8992 41.5112 74.5438 42.6755 75.903 44.1347C76.6833 44.975 77.0979 46.0907 77.0557 47.2367C77.0135 48.3827 76.5179 49.465 75.678 50.2457C74.8376 51.026 73.7218 51.4406 72.5759 51.3984C71.4299 51.3562 70.3476 50.8607 69.5669 50.0207C69.0212 49.4277 68.3578 48.955 67.6192 48.6327C66.8805 48.3104 66.0828 48.1455 65.277 48.1486C63.7253 48.1505 62.2378 48.7677 61.1407 49.865C60.0436 50.9623 59.4265 52.45 59.425 54.0016C59.4265 55.5532 60.0436 57.0408 61.1407 58.1379C62.2378 59.235 63.7254 59.852 65.277 59.8536C66.1065 59.8532 66.9266 59.6766 67.6828 59.3356C68.4391 58.9947 69.1143 58.4971 69.6639 57.8757C70.4236 57.0178 71.4928 56.4965 72.6365 56.4264C73.7803 56.3562 74.9051 56.743 75.7639 57.5016C76.6221 58.2612 77.1435 59.3304 77.2136 60.4742C77.2838 61.6181 76.8969 62.743 76.1379 63.6016C74.7775 65.1406 73.1059 66.3732 71.2336 67.2179C69.3613 68.0626 67.331 68.5001 65.277 68.5016Z" fill="#F16932" stroke="black" stroke-width="2" stroke-linecap="round" stroke-linejoin="round"/>
</svg>
