<svg width="108" height="108" viewBox="0 0 108 108" fill="none" xmlns="http://www.w3.org/2000/svg">
<path d="M42.7648 39.483C38.8508 39.483 35.097 41.0379 32.3294 43.8056C29.5617 46.5733 28.0068 50.327 28.0068 54.241C28.0067 56.1792 28.3883 58.0984 29.1299 59.889C29.8715 61.6796 30.9586 63.3067 32.329 64.6772C33.6994 66.0477 35.3264 67.1349 37.117 67.8766C38.9076 68.6183 40.8267 69 42.7648 69C46.6789 69 50.4327 67.4451 53.2003 64.6775C55.968 61.9098 57.5229 58.1561 57.5229 54.242C57.523 52.3039 57.1414 50.3847 56.3998 48.5941C55.6582 46.8034 54.5711 45.1764 53.2007 43.8059C51.8303 42.4354 50.2033 41.3482 48.4127 40.6065C46.6221 39.8647 44.703 39.483 42.7648 39.483V39.483ZM42.7648 58.083C42.2608 58.083 41.7617 57.9837 41.2961 57.7908C40.8304 57.598 40.4074 57.3153 40.051 56.9589C39.6946 56.6025 39.4119 56.1794 39.219 55.7138C39.0261 55.2481 38.9268 54.7491 38.9268 54.245C38.9267 53.7409 39.0259 53.2418 39.2187 52.776C39.4115 52.3102 39.6942 51.887 40.0506 51.5305C40.407 51.174 40.8302 50.8912 41.2959 50.6983C41.7616 50.5053 42.2607 50.406 42.7648 50.406C43.783 50.406 44.7595 50.8104 45.4794 51.5304C46.1994 52.2503 46.6038 53.2269 46.6038 54.245C46.6028 55.2624 46.1978 56.2377 45.478 56.9567C44.7581 57.6756 43.7822 58.0793 42.7648 58.079V58.083Z" fill="#2D76FF" stroke="black" stroke-width="2" stroke-linecap="round" stroke-linejoin="round"/>
<path d="M67.067 39.483C63.1529 39.483 59.3992 41.0379 56.6315 43.8056C53.8639 46.5733 52.309 50.327 52.309 54.241C52.3089 56.1792 52.6905 58.0984 53.4321 59.889C54.1737 61.6796 55.2607 63.3067 56.6312 64.6772C58.0016 66.0477 59.6285 67.1349 61.4191 67.8766C63.2097 68.6183 65.1289 69 67.067 69C70.9811 69 74.7348 67.4451 77.5025 64.6775C80.2701 61.9098 81.825 58.1561 81.825 54.242C81.8251 52.3039 81.4435 50.3847 80.7019 48.5941C79.9603 46.8034 78.8733 45.1764 77.5028 43.8059C76.1324 42.4354 74.5055 41.3482 72.7149 40.6065C70.9243 39.8647 69.0051 39.483 67.067 39.483V39.483ZM67.067 58.083C66.5629 58.0832 66.0637 57.984 65.598 57.7911C65.1322 57.5983 64.709 57.3157 64.3525 56.9593C63.996 56.6029 63.7132 56.1797 63.5202 55.714C63.3273 55.2483 63.228 54.7491 63.228 54.245C63.228 53.2269 63.6325 52.2503 64.3524 51.5304C65.0724 50.8104 66.0488 50.406 67.067 50.406C67.5711 50.406 68.0703 50.5053 68.536 50.6983C69.0017 50.8912 69.4248 51.174 69.7812 51.5305C70.1376 51.887 70.4203 52.3102 70.6131 52.776C70.806 53.2418 70.9051 53.7409 70.905 54.245C70.9039 55.2623 70.4991 56.2374 69.7794 56.9563C69.0598 57.6752 68.0842 58.079 67.067 58.079V58.083Z" fill="#2D76FF" stroke="black" stroke-width="2" stroke-linecap="round" stroke-linejoin="round"/>
<path d="M87.1289 54.955V44.164C87.1286 42.9224 86.6352 41.7319 85.7572 40.854C84.8792 39.9762 83.6885 39.483 82.4469 39.483H82.2519C81.0104 39.483 79.8198 39.9762 78.9419 40.854C78.0641 41.7319 77.5709 42.9225 77.5709 44.164V64.318C77.5709 65.5595 78.0641 66.7501 78.9419 67.628C79.8198 68.5058 81.0104 68.999 82.2519 68.999H96.3959C97.6375 68.999 98.8282 68.5059 99.7062 67.6281C100.584 66.7502 101.078 65.5596 101.078 64.318V64.318C101.078 63.0762 100.585 61.8854 99.7066 61.0073C98.8285 60.1293 97.6376 59.6361 96.3959 59.6361H91.8099C90.5684 59.6361 89.3778 59.1428 88.4999 58.265C87.6221 57.3871 87.1289 56.1965 87.1289 54.955V54.955Z" fill="#2D76FF" stroke="black" stroke-width="2" stroke-linecap="round" stroke-linejoin="round"/>
<path d="M21.758 68.515C13.621 68.515 7 61.895 7 53.757C7 45.619 13.621 39 21.758 39C23.7876 39.0029 25.795 39.423 27.6555 40.2343C29.516 41.0456 31.1898 42.2307 32.573 43.716C32.9664 44.1394 33.2725 44.6361 33.4739 45.1777C33.6752 45.7194 33.7679 46.2954 33.7467 46.8729C33.7254 47.4505 33.5906 48.0181 33.3499 48.5435C33.1093 49.0689 32.7674 49.5417 32.344 49.935C31.9206 50.3285 31.4238 50.6348 30.8821 50.8362C30.3403 51.0377 29.7642 51.1304 29.1865 51.1092C28.6089 51.0879 28.0411 50.9531 27.5156 50.7123C26.9902 50.4715 26.5173 50.1295 26.124 49.706C25.5682 49.1033 24.8929 48.6231 24.1412 48.296C23.3894 47.9689 22.5778 47.8019 21.758 47.806C20.1788 47.8081 18.665 48.4364 17.5484 49.5531C16.4319 50.6698 15.8038 52.1838 15.802 53.763C15.8038 55.342 16.4319 56.8559 17.5485 57.9725C18.6651 59.089 20.1789 59.7172 21.758 59.719C22.6023 59.7187 23.437 59.5391 24.2067 59.1921C24.9764 58.8451 25.6637 58.3385 26.223 57.706C26.6058 57.273 27.0702 56.9197 27.5896 56.6662C28.1089 56.4127 28.6732 56.264 29.2501 56.2286C29.8269 56.1932 30.4051 56.2718 30.9516 56.46C31.4981 56.6481 32.0021 56.942 32.435 57.325C32.868 57.7078 33.2213 58.1722 33.4748 58.6916C33.7283 59.211 33.877 59.7752 33.9124 60.3521C33.9478 60.9289 33.8691 61.5071 33.681 62.0536C33.4929 62.6001 33.199 63.1042 32.816 63.537C31.43 65.102 29.7276 66.355 27.8214 67.2131C25.9151 68.0712 23.8485 68.515 21.758 68.515Z" fill="#2D76FF" stroke="black" stroke-width="2" stroke-linecap="round" stroke-linejoin="round"/>
</svg>
