<svg width="108" height="108" viewBox="0 0 108 108" fill="none" xmlns="http://www.w3.org/2000/svg">
<path d="M33.398 39.739C32.1849 39.739 31.0215 40.2209 30.1637 41.0787C29.3059 41.9365 28.824 43.0999 28.824 44.313V48.505C28.823 48.7487 28.7468 48.9862 28.6059 49.185C28.465 49.3839 28.2662 49.5345 28.0366 49.6163C27.807 49.6981 27.5578 49.7071 27.3229 49.6421C27.088 49.5771 26.8789 49.4412 26.724 49.253L20.357 41.426C19.9002 40.864 19.3163 40.4187 18.6535 40.1267C17.9907 39.8348 17.268 39.7046 16.545 39.747C16.455 39.747 16.365 39.739 16.274 39.739C15.0609 39.739 13.8975 40.2209 13.0397 41.0787C12.1819 41.9365 11.7 43.0999 11.7 44.313V64.425C11.7 65.6381 12.1819 66.8015 13.0397 67.6593C13.8975 68.5171 15.0609 68.999 16.274 68.999C17.4871 68.999 18.6505 68.5171 19.5083 67.6593C20.3661 66.8015 20.848 65.6381 20.848 64.425V59.858C20.8485 59.614 20.9243 59.3761 21.0651 59.1768C21.2059 58.9776 21.4049 58.8267 21.6347 58.7448C21.8646 58.6629 22.1141 58.6541 22.3492 58.7194C22.5843 58.7848 22.7934 58.9212 22.948 59.1099L29.403 67.046C29.7964 67.5304 30.2851 67.9286 30.839 68.216C31.5941 68.7279 32.4857 69.0011 33.398 69V69C34.6111 69 35.7745 68.5181 36.6323 67.6603C37.4901 66.8025 37.972 65.6391 37.972 64.426V44.313C37.972 43.0999 37.4901 41.9365 36.6323 41.0787C35.7745 40.2209 34.6111 39.739 33.398 39.739V39.739Z" fill="#017A71" stroke="black" stroke-width="2" stroke-linecap="round" stroke-linejoin="round"/>
<path d="M92.4131 61.2309H89.2491C88.7019 61.2309 88.1772 61.0136 87.7903 60.6267C87.4034 60.2399 87.1861 59.7151 87.1861 59.168C87.1861 58.6208 87.4034 58.0962 87.7903 57.7093C88.1772 57.3224 88.7019 57.105 89.2491 57.105H91.9571C92.6888 57.105 93.3906 56.8143 93.908 56.2969C94.4254 55.7795 94.7161 55.0777 94.7161 54.346C94.7161 53.6143 94.4254 52.9125 93.908 52.3951C93.3906 51.8777 92.6888 51.587 91.9571 51.587H89.2181C88.679 51.5867 88.1622 51.3724 87.7812 50.9912C87.4001 50.61 87.1861 50.093 87.1861 49.554V49.554C87.1861 49.0151 87.4001 48.4983 87.7812 48.1172C88.1623 47.7361 88.6791 47.522 89.2181 47.522H92.3571C93.3872 47.522 94.3751 47.1128 95.1035 46.3844C95.8319 45.656 96.2411 44.6681 96.2411 43.638C96.2411 42.6079 95.8319 41.62 95.1035 40.8916C94.3751 40.1632 93.3872 39.754 92.3571 39.754L83.5651 39.739C82.7949 39.7383 82.0322 39.8894 81.3205 40.1837C80.6087 40.4779 79.962 40.9095 79.4171 41.4538C78.8723 41.9981 78.44 42.6444 78.145 43.3558C77.8501 44.0673 77.6982 44.8298 77.6981 45.6V63.112C77.6981 64.6645 78.3139 66.1535 79.4104 67.2524C80.5069 68.3514 81.9946 68.9706 83.5471 68.974L92.4171 68.998C93.4472 68.998 94.4351 68.5888 95.1635 67.8604C95.8919 67.132 96.3011 66.1441 96.3011 65.114C96.3009 64.6036 96.2002 64.0984 96.0047 63.627C95.8092 63.1557 95.5228 62.7274 95.1617 62.3668C94.8006 62.0062 94.372 61.7203 93.9004 61.5254C93.4288 61.3305 92.9234 61.2304 92.4131 61.2309V61.2309Z" fill="#017A71" stroke="black" stroke-width="2" stroke-linecap="round" stroke-linejoin="round"/>
<path d="M48.54 39.739C44.6598 39.739 40.9385 41.2803 38.1947 44.0239C35.4509 46.7675 33.9093 50.4888 33.909 54.369C33.909 56.2904 34.2874 58.1929 35.0227 59.9681C35.758 61.7432 36.8357 63.356 38.1943 64.7146C39.5529 66.0733 41.1658 67.151 42.941 67.8863C44.7161 68.6216 46.6186 69 48.54 69C52.42 68.9997 56.1411 67.4582 58.8847 64.7146C61.6283 61.971 63.1697 58.25 63.17 54.37C63.17 50.4898 61.6287 46.7685 58.885 44.0247C56.1414 41.2809 52.4202 39.7392 48.54 39.739V39.739ZM48.54 58.174C47.5316 58.174 46.5645 57.7738 45.8509 57.0613C45.1373 56.3488 44.7356 55.3824 44.734 54.374C44.734 53.8742 44.8324 53.3794 45.0237 52.9177C45.215 52.456 45.4954 52.0364 45.8488 51.6831C46.2022 51.3298 46.6218 51.0495 47.0836 50.8584C47.5453 50.6672 48.0402 50.5689 48.54 50.569C49.0394 50.569 49.534 50.6674 49.9953 50.8587C50.4567 51.05 50.8758 51.3304 51.2288 51.6838C51.5817 52.0372 51.8615 52.4566 52.0522 52.9182C52.2428 53.3799 52.3407 53.8746 52.34 54.374C52.3384 55.3813 51.9375 56.347 51.2253 57.0593C50.513 57.7716 49.5473 58.1724 48.54 58.174Z" fill="#017A71" stroke="black" stroke-width="2" stroke-linecap="round" stroke-linejoin="round"/>
<path d="M73.4872 39H66.7421C66.6841 38.9999 66.6266 39.0114 66.5732 39.034C66.386 39.0116 66.1977 39.0003 66.0091 39C65.3746 38.9999 64.7463 39.1248 64.1601 39.3675C63.5739 39.6102 63.0412 39.966 62.5925 40.4146C62.1438 40.8633 61.7878 41.3958 61.545 41.982C61.3021 42.5682 61.1772 43.1965 61.1772 43.831V64.169C61.1772 64.8035 61.3021 65.4318 61.545 66.018C61.7878 66.6042 62.1438 67.1367 62.5925 67.5854C63.0412 68.034 63.5739 68.3898 64.1601 68.6325C64.7463 68.8752 65.3746 69.0001 66.0091 69C67.2904 69 68.5192 68.491 69.4252 67.5851C70.3312 66.6791 70.8402 65.4503 70.8402 64.169V59.48C70.84 59.1323 70.9084 58.788 71.0414 58.4667C71.1743 58.1454 71.3693 57.8535 71.6151 57.6076C71.8609 57.3617 72.1527 57.1667 72.474 57.0336C72.7952 56.9005 73.1395 56.832 73.4872 56.832C75.8518 56.832 78.1196 55.8927 79.7917 54.2206C81.4638 52.5485 82.4032 50.2807 82.4032 47.916C82.4032 45.5513 81.4638 43.2835 79.7917 41.6114C78.1196 39.9394 75.8518 39 73.4872 39V39ZM74.4331 47.88C74.4318 48.4617 74.2001 49.0193 73.7888 49.4307C73.3774 49.842 72.8199 50.0737 72.2382 50.075H70.0382V45.685H72.2382C72.5269 45.6848 72.8128 45.7417 73.0794 45.8522C73.3461 45.9628 73.5884 46.125 73.7923 46.3294C73.9962 46.5338 74.1578 46.7764 74.2678 47.0434C74.3777 47.3103 74.4339 47.5963 74.4331 47.885V47.88Z" fill="#017A71" stroke="black" stroke-width="2" stroke-linecap="round" stroke-linejoin="round"/>
</svg>
