<svg width="108" height="108" viewBox="0 0 108 108" fill="none" xmlns="http://www.w3.org/2000/svg">
<path d="M71.7157 65.2763L61.2627 38.1124C60.7887 36.8811 59.9468 35.8257 58.8515 35.0901C57.7562 34.3545 56.4608 33.9743 55.1417 34.0013C54.8317 34.0083 54.5227 34.0083 54.2127 34.0013C52.8936 33.9743 51.5982 34.3545 50.5029 35.0901C49.4077 35.8257 48.5657 36.8811 48.0917 38.1124L37.6417 65.2763C37.0306 66.8647 37.0754 68.6308 37.7663 70.1862C38.4571 71.7416 39.7375 72.9589 41.3257 73.5704V73.5704C42.1122 73.8731 42.9506 74.0178 43.793 73.9965C44.6355 73.9751 45.4655 73.7879 46.2356 73.4457C47.0057 73.1035 47.7008 72.6129 48.2813 72.002C48.8618 71.3911 49.3163 70.6719 49.6187 69.8853L52.4387 62.5584H56.9197L59.7007 69.7874C60.9647 73.0714 64.6257 74.8174 67.9307 73.6084C68.7308 73.316 69.4647 72.8671 70.0895 72.2881C70.7143 71.709 71.2176 71.0114 71.5699 70.2358C71.9222 69.4602 72.1166 68.6223 72.1416 67.7708C72.1666 66.9193 72.0219 66.0713 71.7157 65.2763V65.2763ZM52.1217 54.0013L53.7847 46.2303C53.9847 45.2913 55.3267 45.3004 55.5157 46.2414L57.0707 54.0013H52.1217Z" fill="#F16932" stroke="black" stroke-width="2" stroke-linecap="round" stroke-linejoin="round"/>
<path d="M37.7356 34.8483C36.3944 34.0742 34.8006 33.8646 33.3048 34.2655C31.809 34.6665 30.5338 35.6451 29.7596 36.9863L26.3416 42.9153C26.2257 43.1159 26.0591 43.2825 25.8585 43.3983C25.6578 43.5141 25.4303 43.5751 25.1986 43.5751C24.967 43.5751 24.7394 43.5141 24.5387 43.3983C24.3381 43.2825 24.1715 43.1159 24.0556 42.9153L20.5946 36.9204C19.8203 35.5797 18.5451 34.6013 17.0496 34.2006C15.5541 33.7998 13.9606 34.0095 12.6196 34.7834V34.7834C11.9555 35.1667 11.3734 35.677 10.9066 36.2853C10.4398 36.8937 10.0973 37.588 9.8989 38.3287C9.70046 39.0694 9.64987 39.8418 9.75003 40.602C9.85018 41.3623 10.0991 42.0954 10.4826 42.7594L18.8826 54.0004C19.3698 54.8441 19.6263 55.8011 19.6266 56.7754V68.4494C19.6265 69.1783 19.7699 69.9001 20.0488 70.5735C20.3277 71.247 20.7364 71.8589 21.2518 72.3744C21.7672 72.8899 22.3791 73.2989 23.0525 73.5778C23.7259 73.8568 24.4477 74.0004 25.1766 74.0004V74.0004C26.6488 74.0004 28.0608 73.4155 29.1018 72.3745C30.1428 71.3335 30.7276 69.9216 30.7276 68.4494V56.8414C30.7278 55.8668 30.9844 54.9094 31.4716 54.0653L39.8716 42.8244C40.6459 41.4835 40.8559 39.8898 40.4554 38.394C40.0548 36.8983 39.0765 35.6228 37.7356 34.8483V34.8483Z" fill="#F16932" stroke="black" stroke-width="2" stroke-linecap="round" stroke-linejoin="round"/>
<path d="M95.4684 34.8483C94.8044 34.465 94.0713 34.2163 93.3112 34.1163C92.551 34.0163 91.7786 34.0669 91.0381 34.2655C90.2975 34.464 89.6033 34.8066 88.9951 35.2734C88.3869 35.7402 87.8766 36.3222 87.4934 36.9863L84.0694 42.9153C83.9536 43.1159 83.7871 43.2826 83.5866 43.3984C83.386 43.5142 83.1585 43.5751 82.9269 43.5751C82.6953 43.5751 82.4678 43.5142 82.2672 43.3984C82.0666 43.2826 81.9001 43.1159 81.7844 42.9153L78.3234 36.9204C77.5489 35.5795 76.2735 34.6012 74.7778 34.2004C73.2821 33.7997 71.6885 34.0094 70.3474 34.7834V34.7834C69.0064 35.5577 68.0278 36.833 67.6271 38.3288C67.2263 39.8245 67.4361 41.4183 68.2104 42.7593L76.6104 54.0003C77.0975 54.8441 77.3541 55.8011 77.3544 56.7753V68.4494C77.3543 69.1787 77.4978 69.9008 77.7769 70.5746C78.056 71.2484 78.4652 71.8606 78.9809 72.3762C79.4967 72.8918 80.1091 73.3007 80.783 73.5795C81.4568 73.8584 82.1791 74.0017 82.9084 74.0013C83.6373 74.0013 84.3591 73.8577 85.0325 73.5788C85.7059 73.2998 86.3178 72.8909 86.8332 72.3754C87.3486 71.86 87.7573 71.248 88.0362 70.5746C88.3151 69.9011 88.4585 69.1793 88.4584 68.4503V56.8414C88.4585 55.8668 88.7151 54.9093 89.2024 54.0653L97.6024 42.8244C97.986 42.1605 98.2351 41.4276 98.3355 40.6675C98.4359 39.9074 98.3855 39.1349 98.1874 38.3943C97.9892 37.6536 97.6471 36.9594 97.1806 36.3509C96.714 35.7425 96.1322 35.2319 95.4684 34.8483V34.8483Z" fill="#F16932" stroke="black" stroke-width="2" stroke-linecap="round" stroke-linejoin="round"/>
</svg>
