<svg width="108" height="108" viewBox="0 0 108 108" fill="none" xmlns="http://www.w3.org/2000/svg">
<path d="M83.034 89H32.356C29.0536 88.9963 25.8875 87.6828 23.5524 85.3477C21.2172 83.0125 19.9037 79.8464 19.9 76.544V76.5C19.9037 73.1859 21.2219 70.0086 23.5653 67.6652C25.9087 65.3218 29.086 64.0037 32.4 64H75.578C76.2291 63.9992 76.8534 63.7402 77.3138 63.2798C77.7742 62.8194 78.0332 62.1952 78.034 61.544V61.456C78.0332 60.8048 77.7742 60.1806 77.3138 59.7202C76.8534 59.2598 76.2291 59.0008 75.578 59H32.356C29.0536 58.9963 25.8875 57.6828 23.5524 55.3477C21.2172 53.0125 19.9037 49.8464 19.9 46.544V46.5C19.9037 43.1859 21.2219 40.0086 23.5653 37.6652C25.9087 35.3218 29.086 34.0037 32.4 34H75.578C76.2291 33.9992 76.8534 33.7402 77.3138 33.2798C77.7742 32.8194 78.0332 32.1952 78.034 31.544V31.456C78.0332 30.8048 77.7742 30.1806 77.3138 29.7202C76.8534 29.2598 76.2291 29.0008 75.578 29H24.9C23.5739 29 22.3022 28.4732 21.3645 27.5355C20.4268 26.5979 19.9 25.3261 19.9 24C19.9 22.6739 20.4268 21.4021 21.3645 20.4645C22.3022 19.5268 23.5739 19 24.9 19H75.578C78.8804 19.0037 82.0465 20.3172 84.3816 22.6523C86.7168 24.9875 88.0303 28.1536 88.034 31.456V31.544C88.0303 34.8464 86.7168 38.0125 84.3816 40.3477C82.0465 42.6828 78.8804 43.9963 75.578 44H32.4C31.737 44 31.1011 44.2634 30.6323 44.7322C30.1634 45.2011 29.9 45.837 29.9 46.5V46.544C29.9008 47.1952 30.1598 47.8194 30.6202 48.2798C31.0807 48.7402 31.7049 48.9992 32.356 49H75.578C78.8804 49.0037 82.0465 50.3172 84.3816 52.6523C86.7168 54.9875 88.0303 58.1536 88.034 61.456V61.544C88.0303 64.8464 86.7168 68.0125 84.3816 70.3477C82.0465 72.6828 78.8804 73.9963 75.578 74H32.4C31.737 74 31.1011 74.2634 30.6323 74.7322C30.1634 75.2011 29.9 75.837 29.9 76.5V76.544C29.9008 77.1952 30.1598 77.8194 30.6202 78.2798C31.0807 78.7402 31.7049 78.9992 32.356 79H83.034C84.3601 79 85.6319 79.5268 86.5696 80.4645C87.5072 81.4021 88.034 82.6739 88.034 84C88.034 85.3261 87.5072 86.5979 86.5696 87.5355C85.6319 88.4732 84.3601 89 83.034 89Z" fill="#96C0E4" stroke="black" stroke-width="2" stroke-linecap="round" stroke-linejoin="round"/>
</svg>
