<svg width="108" height="108" viewBox="0 0 108 108" fill="none" xmlns="http://www.w3.org/2000/svg">
<path d="M85.5972 36.8055C80.1692 36.8055 77.0972 34.2495 75.2672 32.7215C73.9192 31.5985 73.8112 31.5435 72.9672 31.5435C72.1232 31.5435 72.0132 31.5985 70.6672 32.7215C68.8342 34.2495 65.7672 36.8055 60.3362 36.8055C54.9052 36.8055 51.8362 34.2485 50.0082 32.7205C48.6632 31.5985 48.5552 31.5435 47.7082 31.5435C46.8612 31.5435 46.7562 31.5985 45.4082 32.7215C43.5752 34.2485 40.5082 36.8055 35.0792 36.8055C29.6502 36.8055 26.5792 34.2485 24.7512 32.7205C23.4052 31.5985 23.2982 31.5435 22.4512 31.5435C21.6209 31.554 20.7969 31.3994 20.0268 31.089C19.2567 30.7785 18.5559 30.3183 17.9651 29.7349C17.3743 29.1515 16.9052 28.4565 16.585 27.6904C16.2648 26.9243 16.1 26.1023 16.1 25.272C16.1 24.4417 16.2648 23.6196 16.585 22.8535C16.9052 22.0874 17.3743 21.3925 17.9651 20.8091C18.5559 20.2257 19.2567 19.7654 20.0268 19.4549C20.7969 19.1444 21.6209 18.99 22.4512 19.0005C27.8782 19.0005 30.9512 21.5575 32.7792 23.0855C34.1242 24.2075 34.2312 24.2625 35.0792 24.2625C35.9272 24.2625 36.0312 24.2075 37.3792 23.0845C39.2122 21.5575 42.2792 19.0005 47.7082 19.0005C53.1372 19.0005 56.2082 21.5575 58.0362 23.0855C59.3822 24.2075 59.4892 24.2625 60.3362 24.2625C61.1832 24.2625 61.2912 24.2075 62.6362 23.0845C64.4692 21.5565 67.5362 19.0005 72.9662 19.0005C78.3962 19.0005 81.4662 21.5565 83.2972 23.0845C84.6452 24.2075 84.7532 24.2625 85.5972 24.2625C86.4274 24.252 87.2515 24.4064 88.0216 24.7169C88.7917 25.0274 89.4924 25.4877 90.0833 26.0711C90.6741 26.6545 91.1432 27.3494 91.4633 28.1155C91.7835 28.8816 91.9484 29.7037 91.9484 30.534C91.9484 31.3643 91.7835 32.1863 91.4633 32.9525C91.1432 33.7186 90.6741 34.4135 90.0833 34.9969C89.4924 35.5803 88.7917 36.0405 88.0216 36.351C87.2515 36.6615 86.4274 36.816 85.5972 36.8055Z" fill="#F16932" stroke="black" stroke-width="2" stroke-linecap="round" stroke-linejoin="round"/>
<path d="M85.5973 63.4855C80.1693 63.4855 77.0973 60.9295 75.2673 59.4015C73.9193 58.2795 73.8113 58.2245 72.9673 58.2245C72.1233 58.2245 72.0133 58.2795 70.6673 59.4015C68.8343 60.9295 65.7673 63.4855 60.3363 63.4855C54.9053 63.4855 51.8363 60.9285 50.0083 59.4005C48.6633 58.2785 48.5553 58.2245 47.7083 58.2245C46.8613 58.2245 46.7563 58.2795 45.4083 59.4015C43.5753 60.9285 40.5083 63.4855 35.0793 63.4855C29.6503 63.4855 26.5793 60.9285 24.7513 59.4005C23.4053 58.2785 23.2983 58.2245 22.4513 58.2245C20.7879 58.2245 19.1926 57.5636 18.0163 56.3874C16.8401 55.2112 16.1793 53.6159 16.1793 51.9525C16.1793 50.289 16.8401 48.6937 18.0163 47.5175C19.1926 46.3413 20.7879 45.6805 22.4513 45.6805C27.8783 45.6805 30.9513 48.2374 32.7793 49.7654C34.1243 50.8874 34.2313 50.9425 35.0793 50.9425C35.9273 50.9425 36.0313 50.8874 37.3793 49.7654C39.2123 48.2374 42.2793 45.6805 47.7083 45.6805C53.1373 45.6805 56.2083 48.2374 58.0363 49.7654C59.3823 50.8874 59.4893 50.9425 60.3363 50.9425C61.1833 50.9425 61.2913 50.8875 62.6363 49.7645C64.4693 48.2365 67.5363 45.6805 72.9663 45.6805C78.3963 45.6805 81.4663 48.2365 83.2973 49.7645C84.6453 50.8875 84.7533 50.9425 85.5973 50.9425C86.4276 50.932 87.2516 51.0865 88.0217 51.397C88.7918 51.7075 89.4926 52.1677 90.0834 52.7511C90.6742 53.3345 91.1433 54.0294 91.4635 54.7955C91.7836 55.5616 91.9485 56.3837 91.9485 57.214C91.9485 58.0443 91.7836 58.8663 91.4635 59.6324C91.1433 60.3985 90.6742 61.0935 90.0834 61.6769C89.4926 62.2603 88.7918 62.7206 88.0217 63.0311C87.2516 63.3415 86.4276 63.4959 85.5973 63.4855V63.4855Z" fill="#F8AE05" stroke="black" stroke-width="2" stroke-linecap="round" stroke-linejoin="round"/>
<path d="M85.5973 89.0055C80.1693 89.0055 77.0973 86.4485 75.2673 84.9215C73.9193 83.7985 73.8113 83.7435 72.9673 83.7435C72.1233 83.7435 72.0133 83.7985 70.6673 84.9215C68.8333 86.4485 65.7673 89.0055 60.3363 89.0055C54.9053 89.0055 51.8363 86.4475 50.0083 84.9205C48.6633 83.7985 48.5553 83.7435 47.7083 83.7435C46.8613 83.7435 46.7563 83.7985 45.4083 84.9205C43.5753 86.4485 40.5083 89.0055 35.0793 89.0055C29.6503 89.0055 26.5793 86.4475 24.7513 84.9205C23.4053 83.7985 23.2983 83.7435 22.4513 83.7435C20.7879 83.7435 19.1926 83.0827 18.0163 81.9065C16.8401 80.7302 16.1793 79.1349 16.1793 77.4715C16.1793 75.8081 16.8401 74.2128 18.0163 73.0365C19.1926 71.8603 20.7879 71.1995 22.4513 71.1995C27.8783 71.1995 30.9513 73.7575 32.7793 75.2855C34.1243 76.4065 34.2313 76.4614 35.0793 76.4614C35.9273 76.4614 36.0313 76.4065 37.3793 75.2845C39.2123 73.7565 42.2793 71.1995 47.7083 71.1995C53.1373 71.1995 56.2083 73.7575 58.0363 75.2855C59.3823 76.4065 59.4893 76.4614 60.3363 76.4614C61.1833 76.4614 61.2913 76.4065 62.6363 75.2835C64.4693 73.7565 67.5363 71.1995 72.9663 71.1995C78.3963 71.1995 81.4663 73.7565 83.2973 75.2835C84.6453 76.4065 84.7533 76.4614 85.5973 76.4614C87.2607 76.4614 88.8561 77.1223 90.0323 78.2985C91.2085 79.4748 91.8693 81.0701 91.8693 82.7335C91.8693 84.3969 91.2085 85.9922 90.0323 87.1685C88.8561 88.3447 87.2607 89.0055 85.5973 89.0055V89.0055Z" fill="#FFBCDD" stroke="black" stroke-width="2" stroke-linecap="round" stroke-linejoin="round"/>
</svg>
