<svg width="108" height="108" viewBox="0 0 108 108" fill="none" xmlns="http://www.w3.org/2000/svg">
<path d="M54.359 42.0383C41.326 22.6793 20.459 25.6083 20.459 25.6083C23.729 20.4023 34.948 16.6083 43.624 20.7823C57.98 27.6893 54.554 41.5493 54.554 41.5493L54.359 42.0383Z" fill="#017A71" stroke="black" stroke-width="2" stroke-linecap="round" stroke-linejoin="round"/>
<path d="M54.677 42.0383C67.71 22.6793 88.577 25.6083 88.577 25.6083C85.308 20.4023 74.089 16.6083 65.413 20.7823C51.056 27.6893 54.483 41.5493 54.483 41.5493L54.677 42.0383Z" fill="#017A71" stroke="black" stroke-width="2" stroke-linecap="round" stroke-linejoin="round"/>
<path d="M54.286 42.0303C40.194 31.9653 19.1 39.8423 19.1 39.8423C19.713 34.4153 25.664 28.3263 35.292 28.3763C51.344 28.4603 54.286 41.5053 54.286 41.5053V42.0303Z" fill="#017A71" stroke="black" stroke-width="2" stroke-linecap="round" stroke-linejoin="round"/>
<path d="M54.2861 42.2313C31.0031 40.6303 25.3141 57.0003 25.3141 57.0003C23.2141 51.2243 22.2941 41.9423 30.9141 37.6573C45.1811 30.5673 54.0141 41.7823 54.0141 41.7823L54.2861 42.2313Z" fill="#017A71" stroke="black" stroke-width="2" stroke-linecap="round" stroke-linejoin="round"/>
<path d="M53.7599 42.0303C67.8519 31.9653 88.9459 39.8423 88.9459 39.8423C88.3329 34.4153 82.382 28.3263 72.754 28.3763C56.702 28.4603 53.7599 41.5053 53.7599 41.5053V42.0303Z" fill="#017A71" stroke="black" stroke-width="2" stroke-linecap="round" stroke-linejoin="round"/>
<path d="M53.7599 42.2313C77.0429 40.6303 82.7319 57.0003 82.7319 57.0003C84.8319 51.2243 85.7519 41.9423 77.1319 37.6573C62.8649 30.5673 54.0319 41.7823 54.0319 41.7823L53.7599 42.2313Z" fill="#017A71" stroke="black" stroke-width="2" stroke-linecap="round" stroke-linejoin="round"/>
<path d="M57.386 89.0003H50.66C50.0624 89.0003 49.4712 88.8775 48.9232 88.6394C48.3751 88.4014 47.8818 88.0532 47.474 87.6164C47.0661 87.1797 46.7524 86.6638 46.5523 86.1007C46.3523 85.5377 46.2701 84.9395 46.311 84.3433L49.18 42.5283H58.866L61.735 84.3433C61.7758 84.9395 61.6937 85.5377 61.4936 86.1007C61.2935 86.6638 60.9798 87.1797 60.572 87.6164C60.1642 88.0532 59.6709 88.4014 59.1228 88.6394C58.5747 88.8775 57.9835 89.0003 57.386 89.0003V89.0003Z" fill="#F8AE05" stroke="black" stroke-width="2" stroke-linecap="round" stroke-linejoin="round"/>
<path d="M48.932 46.1512L59.94 58.1752L47.3099 69.7932L61.659 83.2282" stroke="black" stroke-width="2" stroke-linecap="round" stroke-linejoin="round"/>
<path d="M58.9111 46.4833L48.1411 57.6743L60.4301 69.7493L46.5861 83.2283" stroke="black" stroke-width="2" stroke-linecap="round" stroke-linejoin="round"/>
</svg>
