<svg width="108" height="108" viewBox="0 0 108 108" fill="none" xmlns="http://www.w3.org/2000/svg">
<path d="M53.987 19C61.0115 19 67.7483 21.7905 72.7154 26.7576C77.6825 31.7247 80.473 38.4615 80.473 45.486V89H27.5V45.487C27.4999 42.0087 28.1849 38.5643 29.5159 35.3507C30.847 32.1371 32.798 29.2171 35.2576 26.7576C37.7172 24.298 40.6371 22.347 43.8507 21.0159C47.0643 19.6849 50.5087 18.9999 53.987 19V19Z" fill="#F16932" stroke="black" stroke-width="2" stroke-linecap="round" stroke-linejoin="round"/>
<path d="M53.9867 27.16C59.1605 27.16 64.1225 29.2153 67.7809 32.8738C71.4394 36.5323 73.4947 41.4942 73.4947 46.668V81.9H34.4797V46.667C34.4799 41.4935 36.5352 36.532 40.1934 32.8738C43.8517 29.2156 48.8132 27.1603 53.9867 27.16V27.16Z" fill="#F8AE05" stroke="black" stroke-width="2" stroke-linecap="round" stroke-linejoin="round"/>
<path d="M53.9869 35.92C57.4196 35.92 60.7117 37.2837 63.139 39.711C65.5662 42.1382 66.9299 45.4303 66.9299 48.863V74.62H41.0449V48.863C41.0449 45.4305 42.4084 42.1386 44.8354 39.7113C47.2625 37.284 50.5544 35.9203 53.9869 35.92V35.92Z" fill="#017A71" stroke="black" stroke-width="2" stroke-linecap="round" stroke-linejoin="round"/>
<path d="M53.987 43.733C54.8093 43.733 55.6236 43.895 56.3834 44.2097C57.1431 44.5244 57.8334 44.9856 58.4149 45.5671C58.9964 46.1486 59.4576 46.8389 59.7723 47.5987C60.087 48.3584 60.249 49.1727 60.249 49.995V67.242H47.725V49.995C47.725 48.3343 48.3847 46.7415 49.5591 45.5671C50.7334 44.3928 52.3262 43.733 53.987 43.733V43.733Z" fill="#FFBCDD" stroke="black" stroke-width="2" stroke-linecap="round" stroke-linejoin="round"/>
</svg>
