<svg width="108" height="108" viewBox="0 0 108 108" fill="none" xmlns="http://www.w3.org/2000/svg">
<path d="M81.9682 60.5598L78.0172 56.8249C77.0625 55.9231 76.505 54.679 76.4675 53.3663C76.43 52.0536 76.9155 50.7797 77.8172 49.8249L82.0622 45.3329C83.1532 44.1874 83.9961 42.829 84.5382 41.3429C86.8942 34.8079 84.7992 28.1349 79.5682 24.2719C77.6069 22.8218 75.3034 21.9047 72.8822 21.6098C68.1912 21.0448 63.7082 22.6809 60.5492 26.0219L56.8162 29.9719C55.9142 30.9261 54.6701 31.4832 53.3576 31.5207C52.045 31.5582 50.7713 31.073 49.8162 30.1719L45.4072 26.0039C44.1694 24.8244 42.6933 23.9238 41.0782 23.3629C35.2472 21.3629 29.3372 22.8939 25.4402 27.0149C19.9692 32.8059 20.2272 41.9709 26.0172 47.4449L29.9662 51.1779C30.9209 52.0797 31.4783 53.3238 31.5158 54.6365C31.5533 55.9492 31.0679 57.2231 30.1662 58.1779L25.9292 62.6609C24.8359 63.8098 23.9906 65.1714 23.4462 66.6609C21.0882 73.1929 23.1832 79.8609 28.4032 83.7229C30.6313 85.3639 33.2885 86.3214 36.0512 86.4789C38.1631 86.6115 40.2783 86.277 42.2462 85.4992C44.2142 84.7214 45.9866 83.5195 47.4372 81.9789L51.1682 78.0299C52.0701 77.0754 53.3141 76.5182 54.6268 76.4807C55.9394 76.4431 57.2133 76.9284 58.1682 77.8299L62.6542 82.0689C63.8005 83.1616 65.1603 84.0056 66.6482 84.5479C72.8022 86.7679 79.0782 85.0399 83.0142 80.4639C85.1949 77.9238 86.4235 74.704 86.4892 71.3569C86.5356 69.3407 86.1569 67.3374 85.378 65.4771C84.5991 63.6169 83.4373 61.9415 81.9682 60.5598V60.5598ZM53.9962 61.4449C52.0214 61.4449 50.1274 60.6604 48.731 59.264C47.3346 57.8677 46.5502 55.9737 46.5502 53.9989C46.5502 52.0241 47.3346 50.1302 48.731 48.7338C50.1274 47.3374 52.0214 46.5529 53.9962 46.5529C55.971 46.5529 57.8649 47.3374 59.2613 48.7338C60.6577 50.1302 61.4422 52.0241 61.4422 53.9989C61.4422 55.9737 60.6577 57.8677 59.2613 59.264C57.8649 60.6604 55.971 61.4449 53.9962 61.4449V61.4449Z" fill="#F16932" stroke="black" stroke-width="2" stroke-linecap="round" stroke-linejoin="round"/>
</svg>
