<svg width="108" height="108" viewBox="0 0 108 108" fill="none" xmlns="http://www.w3.org/2000/svg">
<path d="M77.424 36.516L69.879 40.668C68.447 41.456 66.85 39.937 67.565 38.468L71.624 30.126C73.186 24.537 68.984 19 63.181 19H44.821C38.821 19 34.594 24.892 36.516 30.576L40.668 38.121C41.456 39.553 39.937 41.15 38.468 40.435L30.126 36.375C24.537 34.814 19 39.0159 19 44.8189V63.179C19 69.179 24.892 73.406 30.576 71.479L38.121 67.327C39.553 66.539 41.15 68.058 40.435 69.527L36.376 77.868C34.814 83.458 39.016 88.995 44.819 88.995H63.179C69.179 88.995 73.406 83.1029 71.484 77.4189L67.332 69.8729C66.544 68.4419 68.063 66.845 69.532 67.56L77.874 71.6189C83.463 73.1809 89 68.979 89 63.176V44.821C89 38.82 83.108 34.593 77.424 36.516ZM62.124 54C62.124 55.0674 61.9137 56.1243 61.5053 57.1104C61.0968 58.0966 60.4981 58.9926 59.7434 59.7474C58.9886 60.5021 58.0926 61.1008 57.1064 61.5093C56.1203 61.9177 55.0634 62.1279 53.996 62.1279C52.9286 62.1279 51.8717 61.9177 50.8855 61.5093C49.8994 61.1008 49.0034 60.5021 48.2486 59.7474C47.4939 58.9926 46.8952 58.0966 46.4867 57.1104C46.0782 56.1243 45.868 55.0674 45.868 54V54C45.868 52.9326 46.0782 51.8757 46.4867 50.8896C46.8952 49.9034 47.4939 49.0074 48.2486 48.2526C49.0034 47.4979 49.8994 46.8992 50.8855 46.4907C51.8717 46.0823 52.9286 45.872 53.996 45.872V45.872C55.0638 45.8714 56.1212 46.0814 57.1079 46.4896C58.0946 46.8979 58.9911 47.4967 59.7463 48.2516C60.5015 49.0065 61.1005 49.9027 61.5092 50.8893C61.9178 51.8758 62.1281 52.9332 62.128 54.001L62.124 54Z" fill="#FFBCDD" stroke="black" stroke-width="2" stroke-linecap="round" stroke-linejoin="round"/>
</svg>
