<svg width="108" height="108" viewBox="0 0 108 108" fill="none" xmlns="http://www.w3.org/2000/svg">
<path d="M83.2795 58.3055L68.5995 54.1456L83.3575 50.2715C83.9732 50.106 84.5668 49.8669 85.1255 49.5595C85.9936 49.075 86.7577 48.4241 87.3742 47.6442C87.9906 46.8642 88.4473 45.9705 88.7182 45.0139C88.9891 44.0574 89.0689 43.0569 88.9529 42.0695C88.837 41.0821 88.5276 40.1273 88.0425 39.2595C87.5581 38.3913 86.9074 37.6269 86.1275 37.0103C85.3476 36.3937 84.4538 35.9368 83.4972 35.6658C82.5407 35.3948 81.5401 35.315 80.5526 35.4309C79.5652 35.5469 78.6102 35.8563 77.7425 36.3416L64.4205 43.7805L72.1205 30.6045C72.439 30.0525 72.6895 29.4638 72.8665 28.8515C73.1375 27.8954 73.2175 26.8953 73.102 25.9083C72.9865 24.9212 72.6777 23.9667 72.1933 23.099C71.7088 22.2313 71.0582 21.4676 70.2786 20.8513C69.499 20.2351 68.6056 19.7784 67.6495 19.5075C66.6934 19.2366 65.6933 19.1568 64.7063 19.2724C63.7194 19.3881 62.7649 19.697 61.8973 20.1815C61.0297 20.666 60.266 21.3168 59.6499 22.0964C59.0338 22.8761 58.5773 23.7695 58.3065 24.7255L54.1465 39.4055L50.2715 24.6475C50.1061 24.0317 49.867 23.4381 49.5595 22.8795C49.0749 22.0115 48.4241 21.2473 47.6442 20.6308C46.8643 20.0143 45.9705 19.5576 45.014 19.2866C44.0575 19.0156 43.057 18.9357 42.0696 19.0515C41.0822 19.1673 40.1273 19.4765 39.2595 19.9615C38.3914 20.446 37.6273 21.0969 37.0108 21.8768C36.3943 22.6567 35.9375 23.5505 35.6665 24.507C35.3956 25.4635 35.3157 26.464 35.4315 27.4514C35.5473 28.4388 35.8565 29.3936 36.3415 30.2615L43.7805 43.5845L30.6045 35.8845C30.0525 35.5655 29.4639 35.3147 28.8515 35.1376C27.8954 34.8667 26.8953 34.7868 25.9083 34.9024C24.9214 35.018 23.9669 35.3269 23.0993 35.8115C22.2317 36.296 21.468 36.9468 20.8519 37.7264C20.2358 38.5061 19.7793 39.3994 19.5085 40.3555C19.2375 41.3115 19.1575 42.3116 19.273 43.2986C19.3885 44.2855 19.6973 45.2401 20.1817 46.1077C20.6662 46.9753 21.3168 47.7389 22.0964 48.355C22.876 48.9712 23.7694 49.4277 24.7255 49.6985L39.4055 53.8586L24.6475 57.7336C24.0316 57.8987 23.4379 58.1377 22.8795 58.4456C22.0113 58.93 21.2471 59.5808 20.6305 60.3607C20.014 61.1406 19.5572 62.0344 19.2863 62.991C19.0154 63.9475 18.9357 64.9481 19.0517 65.9355C19.1677 66.9229 19.4772 67.8778 19.9625 68.7456C20.4469 69.6137 21.0977 70.3779 21.8776 70.9945C22.6575 71.6111 23.5513 72.0678 24.5078 72.3388C25.4643 72.6098 26.4649 72.6897 27.4523 72.5738C28.4397 72.4579 29.3947 72.1486 30.2625 71.6635L43.5845 64.2246L35.8845 77.3996C35.5655 77.9518 35.315 78.5408 35.1385 79.1536C34.8675 80.1096 34.7874 81.1096 34.903 82.0965C35.0185 83.0835 35.3273 84.038 35.8118 84.9056C36.2962 85.7732 36.9468 86.5369 37.7264 87.153C38.5061 87.7691 39.3994 88.2257 40.3555 88.4965C41.3115 88.7675 42.3116 88.8476 43.2985 88.7321C44.2855 88.6166 45.24 88.3078 46.1076 87.8233C46.9752 87.3388 47.7388 86.6882 48.355 85.9086C48.9711 85.1289 49.4276 84.2356 49.6985 83.2795L53.8585 68.5996L57.7335 83.3575C57.899 83.9732 58.1381 84.5669 58.4455 85.1255C58.93 85.9936 59.5808 86.7577 60.3608 87.3742C61.1407 87.9906 62.0345 88.4474 62.991 88.7183C63.9476 88.9892 64.9481 89.0689 65.9355 88.953C66.9229 88.837 67.8777 88.5277 68.7455 88.0425C69.6137 87.5581 70.3779 86.9073 70.9944 86.1274C71.611 85.3475 72.0678 84.4538 72.3388 83.4972C72.6098 82.5407 72.6896 81.5401 72.5738 80.5527C72.4579 79.5653 72.1485 78.6104 71.6635 77.7425L64.2245 64.4206L77.4005 72.1206C77.9525 72.4393 78.5411 72.6898 79.1535 72.8666C80.1095 73.1376 81.1096 73.2175 82.0965 73.102C83.0835 72.9865 84.038 72.6777 84.9056 72.1932C85.7732 71.7088 86.5368 71.0582 87.153 70.2786C87.7691 69.499 88.2256 68.6056 88.4965 67.6496C88.7675 66.6935 88.8475 65.6933 88.732 64.7063C88.6165 63.7193 88.3077 62.7647 87.8233 61.897C87.3388 61.0293 86.6882 60.2656 85.9086 59.6494C85.1289 59.0331 84.2356 58.5765 83.2795 58.3055V58.3055ZM48.5885 56.2055C48.5815 56.1905 48.5755 56.1745 48.5695 56.1595C48.2846 55.4546 48.142 54.7002 48.1499 53.9399C48.1578 53.1796 48.316 52.4284 48.6155 51.7295L48.6345 51.6845C48.9318 50.9848 49.3644 50.3506 49.9076 49.8186C50.4508 49.2866 51.0937 48.8672 51.7995 48.5845L51.8455 48.5666C52.5504 48.2818 53.3047 48.1392 54.065 48.1469C54.8252 48.1547 55.5764 48.3125 56.2755 48.6115L56.3205 48.6315C57.0204 48.9286 57.6546 49.3612 58.1867 49.9044C58.7187 50.4475 59.138 51.0906 59.4205 51.7965C59.4275 51.8115 59.4335 51.8266 59.4395 51.8416C59.7243 52.5465 59.8669 53.3008 59.859 54.0611C59.8511 54.8214 59.6929 55.5726 59.3935 56.2715C59.3875 56.2875 59.3805 56.3025 59.3745 56.3175C59.0773 57.0174 58.6446 57.6515 58.1014 58.1836C57.5583 58.7156 56.9153 59.1349 56.2095 59.4175L56.1635 59.4365C55.4584 59.7211 54.7041 59.8635 53.9439 59.8556C53.1836 59.8477 52.4324 59.6896 51.7335 59.3905L51.6885 59.3715C50.9885 59.0742 50.3544 58.6414 49.8223 58.0981C49.2903 57.5548 48.871 56.9115 48.5885 56.2055V56.2055Z" fill="#017A71" stroke="black" stroke-width="2" stroke-linecap="round" stroke-linejoin="round"/>
</svg>
