<svg width="108" height="108" viewBox="0 0 108 108" fill="none" xmlns="http://www.w3.org/2000/svg">
<path fill-rule="evenodd" clip-rule="evenodd" d="M38.1959 75.2323C36.9437 75.9273 35.5669 76.3686 34.1441 76.5312C32.7213 76.6939 31.2803 76.5746 29.9037 76.1801C28.527 75.7856 27.2415 75.1236 26.1208 74.2321C25 73.3406 24.0659 72.2369 23.3719 70.9843C22.6762 69.7321 22.2341 68.3551 22.071 66.932C21.9078 65.5089 22.0267 64.0675 22.421 62.6904C22.8152 61.3133 23.477 60.0274 24.3686 58.9062C25.2602 57.7851 26.364 56.8505 27.6169 56.1562C32.8839 53.2322 54.1039 53.9423 54.1039 53.9423C54.1039 53.9423 43.4689 72.3123 38.1959 75.2323Z" fill="#F16932" stroke="black" stroke-width="2" stroke-linecap="round" stroke-linejoin="round"/>
<path fill-rule="evenodd" clip-rule="evenodd" d="M69.789 32.7663C71.042 32.0714 72.4196 31.63 73.8432 31.4675C75.2667 31.305 76.7084 31.4244 78.0858 31.8191C79.4632 32.2137 80.7493 32.8759 81.8708 33.7676C82.9923 34.6594 83.9272 35.7633 84.622 37.0163C86.0244 39.5463 86.3648 42.5295 85.5682 45.3103C84.7716 48.0911 82.9033 50.4417 80.374 51.8454C75.105 54.7664 53.891 54.0583 53.891 54.0583C53.891 54.0583 64.523 35.6883 69.789 32.7663Z" fill="#F16932" stroke="black" stroke-width="2" stroke-linecap="round" stroke-linejoin="round"/>
<path fill-rule="evenodd" clip-rule="evenodd" d="M27.7009 51.0272C26.4695 50.2948 25.3946 49.3268 24.5376 48.1786C23.6806 47.0303 23.0584 45.7245 22.7066 44.3356C22.3548 42.9467 22.2802 41.502 22.4872 40.0843C22.6942 38.6666 23.1787 37.3036 23.9129 36.0733C24.6455 34.8426 25.6134 33.7683 26.7614 32.9119C27.9093 32.0554 29.2149 31.4336 30.6033 31.082C31.9917 30.7304 33.4358 30.6558 34.853 30.8626C36.2703 31.0694 37.6328 31.5536 38.8629 32.2872C44.0399 35.3652 54.1009 54.0613 54.1009 54.0613C54.1009 54.0613 32.8739 54.1132 27.7009 51.0272Z" fill="#F16932" stroke="black" stroke-width="2" stroke-linecap="round" stroke-linejoin="round"/>
<path fill-rule="evenodd" clip-rule="evenodd" d="M80.2958 56.9653C82.7813 58.4474 84.5763 60.8561 85.2859 63.6616C85.9955 66.4671 85.5617 69.4396 84.0798 71.9252C83.3474 73.1564 82.3795 74.2311 81.2314 75.0879C80.0834 75.9447 78.7777 76.5668 77.389 76.9186C76.0003 77.2704 74.556 77.345 73.1384 77.1382C71.7209 76.9314 70.3581 76.4471 69.1278 75.7132C63.9568 72.6312 53.8918 53.9373 53.8918 53.9373C53.8918 53.9373 75.1158 53.8853 80.2958 56.9653Z" fill="#F16932" stroke="black" stroke-width="2" stroke-linecap="round" stroke-linejoin="round"/>
<path fill-rule="evenodd" clip-rule="evenodd" d="M44.0449 29.4753C44.1606 26.5855 45.4189 23.8598 47.5431 21.8972C49.6674 19.9345 52.4839 18.8955 55.3739 19.0083C56.8056 19.0636 58.2125 19.4006 59.5139 20C60.8153 20.5995 61.9857 21.4495 62.9583 22.5018C63.9308 23.554 64.6863 24.7877 65.1816 26.1321C65.677 27.4766 65.9023 28.9056 65.8449 30.3373C65.6109 36.3503 53.9909 54.1223 53.9909 54.1223C53.9909 54.1223 43.8049 35.4933 44.0449 29.4753Z" fill="#F16932" stroke="black" stroke-width="2" stroke-linecap="round" stroke-linejoin="round"/>
<path fill-rule="evenodd" clip-rule="evenodd" d="M63.9489 78.5234C63.8321 81.4139 62.5727 84.1399 60.4474 86.1025C58.3221 88.065 55.5046 89.1037 52.6139 88.9903C51.1825 88.9346 49.7761 88.5972 48.4751 87.9975C47.1742 87.3978 46.0042 86.5476 45.0321 85.4954C44.06 84.4432 43.3048 83.2098 42.8097 81.8655C42.3146 80.5213 42.0894 79.0927 42.1469 77.6613C42.3809 71.6483 54.0009 53.8743 54.0009 53.8743C54.0009 53.8743 64.1829 72.5064 63.9489 78.5234Z" fill="#F16932" stroke="black" stroke-width="2" stroke-linecap="round" stroke-linejoin="round"/>
<path fill-rule="evenodd" clip-rule="evenodd" d="M58.7959 62.6553C56.5 63.927 53.7931 64.2349 51.2703 63.5115C48.7474 62.788 46.615 61.0924 45.3419 58.7973C44.7118 57.6611 44.3116 56.4119 44.1642 55.121C44.0169 53.83 44.1252 52.5227 44.4831 51.2737C44.841 50.0246 45.4414 48.8583 46.25 47.8413C47.0586 46.8243 48.0596 45.9765 49.1959 45.3463C51.4914 44.0741 54.1982 43.7653 56.7212 44.488C59.2443 45.2107 61.3771 46.9057 62.6509 49.2003C63.9231 51.496 64.2317 54.2029 63.5088 56.7259C62.7859 59.249 61.0907 61.3817 58.7959 62.6553V62.6553Z" fill="#F9D744" stroke="black" stroke-width="2" stroke-linecap="round" stroke-linejoin="round"/>
</svg>
