<svg width="108" height="108" viewBox="0 0 108 108" fill="none" xmlns="http://www.w3.org/2000/svg">
<path d="M82.839 47.838H68.873L78.749 37.963C79.3211 37.3909 79.7749 36.7117 80.0845 35.9643C80.3942 35.2168 80.5535 34.4156 80.5535 33.6065C80.5535 32.7975 80.3942 31.9962 80.0845 31.2487C79.7749 30.5012 79.3211 29.8221 78.749 29.25V29.25C78.1769 28.6779 77.4977 28.2241 76.7502 27.9145C76.0027 27.6048 75.2016 27.4455 74.3925 27.4455C73.5834 27.4455 72.7823 27.6048 72.0348 27.9145C71.2873 28.2241 70.6081 28.6779 70.036 29.25L60.161 39.126V25.16C60.1607 23.5261 59.5115 21.9594 58.3561 20.8042C57.2007 19.649 55.6338 19 54 19V19C52.366 19 50.7989 19.6491 49.6435 20.8045C48.4881 21.9599 47.839 23.527 47.839 25.161V39.127L37.964 29.251C37.3919 28.6789 36.7127 28.2251 35.9652 27.9154C35.2177 27.6058 34.4166 27.4465 33.6075 27.4465C32.7984 27.4465 31.9973 27.6058 31.2498 27.9154C30.5023 28.2251 29.8231 28.6789 29.251 29.251V29.251C28.6789 29.8231 28.2251 30.5023 27.9155 31.2498C27.6058 31.9973 27.4465 32.7984 27.4465 33.6075C27.4465 34.4166 27.6058 35.2177 27.9155 35.9652C28.2251 36.7127 28.6789 37.3919 29.251 37.964L39.127 47.839H25.161C24.3519 47.839 23.5508 47.9984 22.8033 48.308C22.0558 48.6176 21.3766 49.0715 20.8045 49.6436C20.2324 50.2157 19.7786 50.8948 19.469 51.6423C19.1594 52.3898 19 53.1909 19 54C19 54.8091 19.1594 55.6102 19.469 56.3577C19.7786 57.1052 20.2324 57.7843 20.8045 58.3564C21.3766 58.9285 22.0558 59.3824 22.8033 59.692C23.5508 60.0016 24.3519 60.161 25.161 60.161H39.127L29.251 70.036C28.6789 70.6081 28.2251 71.2873 27.9155 72.0348C27.6058 72.7823 27.4465 73.5834 27.4465 74.3925C27.4465 75.2016 27.6058 76.0027 27.9155 76.7502C28.2251 77.4977 28.6789 78.1769 29.251 78.749V78.749C30.4067 79.904 31.9737 80.5527 33.6075 80.5527C35.2413 80.5527 36.8083 79.904 37.964 78.749L47.839 68.873V82.839C47.839 84.473 48.4881 86.0401 49.6435 87.1955C50.7989 88.3509 52.366 89 54 89V89C55.634 89 57.2011 88.3509 58.3565 87.1955C59.5119 86.0401 60.161 84.473 60.161 82.839V68.873L70.036 78.749C71.1917 79.904 72.7587 80.5527 74.3925 80.5527C76.0263 80.5527 77.5933 79.904 78.749 78.749V78.749C79.3211 78.1769 79.7749 77.4977 80.0845 76.7502C80.3942 76.0027 80.5535 75.2016 80.5535 74.3925C80.5535 73.5834 80.3942 72.7823 80.0845 72.0348C79.7749 71.2873 79.3211 70.6081 78.749 70.036L68.873 60.161H82.839C84.473 60.161 86.0401 59.5119 87.1955 58.3564C88.3509 57.201 89 55.634 89 54C89.0001 53.1908 88.8409 52.3896 88.5313 51.642C88.2217 50.8944 87.768 50.2151 87.1959 49.6429C86.6237 49.0707 85.9445 48.6167 85.1969 48.307C84.4494 47.9973 83.6481 47.838 82.839 47.838V47.838Z" fill="#F8AE05" stroke="black" stroke-width="2" stroke-linecap="round" stroke-linejoin="round"/>
</svg>
