<svg width="108" height="108" viewBox="0 0 108 108" fill="none" xmlns="http://www.w3.org/2000/svg">
<path d="M63.2021 22.9221C64.0066 23.77 64.9801 24.4396 66.0596 24.8874C67.1392 25.3353 68.3007 25.5515 69.4691 25.5221C71.1888 25.4789 72.8992 25.7879 74.495 26.43C76.0909 27.0721 77.5386 28.0339 78.7491 29.2561C79.9711 30.4666 80.9327 31.9141 81.5748 33.5098C82.2169 35.1055 82.526 36.8156 82.4831 38.5351C82.4536 39.7037 82.6698 40.8654 83.1177 41.9452C83.5656 43.0249 84.2352 43.9985 85.0831 44.8031C86.3291 45.9885 87.3196 47.416 87.9938 48.9981C88.6681 50.5801 89.0119 52.2833 89.0041 54.0031C89.0119 55.7228 88.6681 57.426 87.9938 59.008C87.3196 60.5901 86.3291 62.0176 85.0831 63.2031C84.2352 64.0075 83.5656 64.9809 83.1177 66.0605C82.6698 67.14 82.4537 68.3016 82.4831 69.4701C82.5258 71.1897 82.2166 72.8999 81.5745 74.4957C80.9324 76.0915 79.9709 77.5393 78.7491 78.7501C77.5384 79.972 76.0907 80.9334 74.4948 81.5753C72.899 82.2173 71.1887 82.5262 69.4691 82.483C68.3008 82.4539 67.1393 82.6703 66.0598 83.1182C64.9803 83.5661 64.0068 84.2354 63.2021 85.083C62.0167 86.329 60.5892 87.3195 59.0071 87.9938C57.425 88.668 55.7219 89.0118 54.0021 89.004C52.2824 89.0118 50.5792 88.668 48.9972 87.9938C47.4151 87.3195 45.9876 86.329 44.8021 85.083C43.9975 84.2354 43.024 83.5661 41.9445 83.1182C40.865 82.6703 39.7035 82.4539 38.5351 82.483C36.8155 82.5262 35.1051 82.2173 33.5092 81.5751C31.9134 80.933 30.4657 79.9712 29.2551 78.7491C28.0331 77.5386 27.0714 76.0911 26.4293 74.4954C25.7872 72.8998 25.4781 71.1896 25.5211 69.4701C25.5506 68.3015 25.3344 67.1398 24.8865 66.0601C24.4386 64.9804 23.7691 64.0067 22.9211 63.2021C21.675 62.0168 20.6844 60.5893 20.0101 59.0072C19.3358 57.4251 18.9921 55.7219 19.0001 54.0021C18.9924 52.2823 19.3362 50.5792 20.0104 48.9971C20.6847 47.415 21.6752 45.9875 22.9211 44.8021C23.7691 43.9975 24.4387 43.0238 24.8866 41.9441C25.3345 40.8643 25.5506 39.7027 25.5211 38.5341C25.4782 36.8146 25.7873 35.1045 26.4295 33.5088C27.0716 31.9131 28.0332 30.4656 29.2551 29.2551C30.4658 28.0331 31.9135 27.0715 33.5094 26.4293C35.1052 25.7872 36.8155 25.4782 38.5351 25.5211C39.7035 25.5505 40.8651 25.3342 41.9447 24.8864C43.0242 24.4385 43.9977 23.769 44.8021 22.9211C45.9876 21.6752 47.4151 20.6847 48.9972 20.0104C50.5792 19.3361 52.2824 18.9924 54.0021 19.0001C55.722 18.9923 57.4253 19.336 59.0074 20.0105C60.5895 20.6849 62.017 21.6758 63.2021 22.9221V22.9221Z" fill="#2D76FF" stroke="black" stroke-width="2" stroke-linecap="round" stroke-linejoin="round"/>
</svg>
