<svg width="108" height="108" viewBox="0 0 108 108" fill="none" xmlns="http://www.w3.org/2000/svg">
<path d="M56.5362 20.4742C57.8732 18.1372 61.3912 18.6942 61.9362 21.3302C62.0415 21.835 62.2783 22.303 62.6227 22.6868C62.967 23.0707 63.4066 23.3568 63.897 23.5161C64.3875 23.6755 64.9113 23.7024 65.4155 23.5943C65.9196 23.4861 66.3863 23.2467 66.7682 22.9002V22.9002C68.7622 21.0902 71.9352 22.7072 71.6432 25.3842C71.5875 25.8968 71.6681 26.415 71.877 26.8864C72.0859 27.3577 72.4155 27.7655 72.8327 28.0686C73.2498 28.3716 73.7395 28.5591 74.2524 28.612C74.7652 28.665 75.283 28.5816 75.7532 28.3702V28.3702C78.2082 27.2652 80.7272 29.7832 79.6222 32.2392C79.4108 32.7094 79.3274 33.2272 79.3803 33.7401C79.4333 34.2529 79.6208 34.7427 79.9238 35.1598C80.2269 35.5769 80.6347 35.9066 81.1061 36.1155C81.5775 36.3243 82.0957 36.405 82.6082 36.3492C85.2852 36.0572 86.9022 39.2302 85.0922 41.2242C84.7457 41.6061 84.5062 42.0726 84.398 42.5768C84.2898 43.0809 84.3168 43.6047 84.4761 44.095C84.6355 44.5854 84.9216 45.0249 85.3055 45.3692C85.6894 45.7134 86.1574 45.9501 86.6622 46.0552V46.0552C89.2982 46.6052 89.8552 50.1232 87.5182 51.4552C87.0706 51.7112 86.6985 52.0809 86.4398 52.527C86.181 52.973 86.0448 53.4796 86.0448 53.9952C86.0448 54.5109 86.181 55.0174 86.4398 55.4634C86.6985 55.9095 87.0706 56.2792 87.5182 56.5352V56.5352C89.8552 57.8722 89.2982 61.3902 86.6622 61.9352C86.1574 62.0403 85.6894 62.277 85.3055 62.6212C84.9216 62.9654 84.6355 63.405 84.4761 63.8953C84.3168 64.3857 84.2898 64.9096 84.398 65.4137C84.5062 65.9178 84.7457 66.3844 85.0922 66.7662V66.7662C86.9022 68.7602 85.2852 71.9342 82.6082 71.6422C82.0957 71.5865 81.5775 71.6671 81.1061 71.876C80.6347 72.0849 80.2269 72.4146 79.9238 72.8317C79.6208 73.2488 79.4333 73.7385 79.3803 74.2514C79.3274 74.7642 79.4108 75.2819 79.6222 75.7522V75.7522C80.7272 78.2072 78.2082 80.7262 75.7532 79.6212C75.283 79.4095 74.7652 79.3258 74.2522 79.3786C73.7392 79.4315 73.2493 79.6189 72.8321 79.922C72.4149 80.2251 72.0852 80.6331 71.8764 81.1046C71.6676 81.5762 71.5872 82.0945 71.6432 82.6072V82.6072C71.9352 85.2832 68.7622 86.9002 66.7682 85.0912C66.3864 84.7448 65.9198 84.5052 65.4157 84.397C64.9115 84.2888 64.3878 84.3157 63.8974 84.4749C63.407 84.6342 62.9673 84.9201 62.623 85.3038C62.2786 85.6876 62.0417 86.1555 61.9362 86.6602V86.6602C61.3872 89.2972 57.8692 89.8542 56.5362 87.5162C56.2802 87.0686 55.9105 86.6965 55.4644 86.4377C55.0184 86.179 54.5119 86.0427 53.9962 86.0427C53.4806 86.0427 52.9741 86.179 52.528 86.4377C52.082 86.6965 51.7122 87.0686 51.4562 87.5162V87.5162C50.1192 89.8542 46.6012 89.2972 46.0562 86.6602C45.9508 86.1555 45.7139 85.6876 45.3695 85.3038C45.0251 84.9201 44.5855 84.6342 44.0951 84.4749C43.6047 84.3157 43.0809 84.2888 42.5768 84.397C42.0727 84.5052 41.6061 84.7448 41.2242 85.0912V85.0912C39.2302 86.9002 36.0572 85.2832 36.3492 82.6072C36.4053 82.0945 36.3248 81.5762 36.1161 81.1046C35.9073 80.6331 35.5776 80.2251 35.1604 79.922C34.7432 79.6189 34.2533 79.4315 33.7403 79.3786C33.2273 79.3258 32.7094 79.4095 32.2392 79.6212V79.6212C29.7842 80.7212 27.2652 78.2072 28.3702 75.7522C28.5816 75.2819 28.6651 74.7642 28.6121 74.2514C28.5591 73.7385 28.3716 73.2488 28.0686 72.8317C27.7656 72.4146 27.3577 72.0849 26.8863 71.876C26.415 71.6671 25.8968 71.5865 25.3842 71.6422V71.6422C22.7072 71.9342 21.0902 68.7602 22.9002 66.7662C23.2468 66.3844 23.4862 65.9178 23.5944 65.4137C23.7026 64.9096 23.6757 64.3857 23.5163 63.8953C23.3569 63.405 23.0708 62.9654 22.6869 62.6212C22.303 62.277 21.835 62.0403 21.3302 61.9352C18.6942 61.3862 18.1372 57.8682 20.4742 56.5352C20.9219 56.2792 21.2939 55.9095 21.5527 55.4634C21.8114 55.0174 21.9477 54.5109 21.9477 53.9952C21.9477 53.4796 21.8114 52.973 21.5527 52.527C21.2939 52.0809 20.9219 51.7112 20.4742 51.4552V51.4552C18.1372 50.1182 18.6942 46.6002 21.3302 46.0552C21.835 45.9501 22.303 45.7134 22.6869 45.3692C23.0708 45.0249 23.3569 44.5854 23.5163 44.095C23.6757 43.6047 23.7026 43.0809 23.5944 42.5768C23.4862 42.0726 23.2468 41.6061 22.9002 41.2242V41.2242C21.0902 39.2302 22.7072 36.0572 25.3842 36.3492C25.8968 36.405 26.415 36.3243 26.8863 36.1155C27.3577 35.9066 27.7656 35.5769 28.0686 35.1598C28.3716 34.7427 28.5591 34.2529 28.6121 33.7401C28.6651 33.2272 28.5816 32.7094 28.3702 32.2392C27.2652 29.7832 29.7842 27.2652 32.2392 28.3702C32.7095 28.5816 33.2272 28.665 33.7401 28.612C34.2529 28.5591 34.7427 28.3716 35.1598 28.0686C35.5769 27.7655 35.9066 27.3577 36.1154 26.8864C36.3243 26.415 36.405 25.8968 36.3492 25.3842C36.0572 22.7072 39.2302 21.0902 41.2242 22.9002C41.6061 23.2467 42.0728 23.4861 42.577 23.5943C43.0812 23.7024 43.605 23.6755 44.0954 23.5161C44.5858 23.3568 45.0255 23.0707 45.3698 22.6868C45.7141 22.303 45.9509 21.835 46.0562 21.3302V21.3302C46.6052 18.6942 50.1232 18.1372 51.4562 20.4742C51.7122 20.9219 52.082 21.2939 52.528 21.5527C52.9741 21.8114 53.4806 21.9477 53.9962 21.9477C54.5119 21.9477 55.0184 21.8114 55.4644 21.5527C55.9105 21.2939 56.2802 20.9219 56.5362 20.4742V20.4742Z" fill="#FFBCDD" stroke="black" stroke-width="2" stroke-linecap="round" stroke-linejoin="round"/>
</svg>
