<svg width="108" height="108" viewBox="0 0 108 108" fill="none" xmlns="http://www.w3.org/2000/svg">
<path d="M57.0825 22.8326L60.7375 20.0326C61.3818 19.5389 62.1364 19.2092 62.9364 19.072C63.7363 18.9348 64.5577 18.9942 65.3296 19.2451C66.1015 19.4959 66.8008 19.9307 67.3674 20.512C67.9339 21.0932 68.3506 21.8035 68.5815 22.5816L69.8925 26.9986C70.2059 28.0537 70.8583 28.9761 71.7488 29.6231C72.6393 30.2701 73.7182 30.6056 74.8185 30.5776L79.4185 30.4606C80.2298 30.4399 81.034 30.6167 81.7618 30.9758C82.4896 31.335 83.1192 31.8658 83.5962 32.5223C84.0733 33.1789 84.3836 33.9415 84.5004 34.7447C84.6171 35.5478 84.5369 36.3673 84.2665 37.1326L82.7375 41.4716C82.3709 42.5095 82.3566 43.6392 82.6968 44.6861C83.037 45.7329 83.7128 46.6385 84.6195 47.2625L88.4125 49.8736C89.081 50.3338 89.6276 50.9497 90.0052 51.6681C90.3827 52.3865 90.58 53.186 90.58 53.9976C90.58 54.8092 90.3827 55.6086 90.0052 56.327C89.6276 57.0454 89.081 57.6614 88.4125 58.1216L84.6195 60.7316C83.7128 61.3559 83.0371 62.2617 82.6969 63.3086C82.3567 64.3556 82.371 65.4855 82.7375 66.5236L84.2715 70.8646C84.5418 71.6299 84.6221 72.4494 84.5053 73.2526C84.3885 74.0558 84.0782 74.8185 83.6012 75.4751C83.1241 76.1318 82.4946 76.6626 81.7669 77.0219C81.0391 77.3812 80.2349 77.5581 79.4235 77.5375L74.8235 77.4206C73.7229 77.3916 72.6436 77.7267 71.7529 78.3738C70.8622 79.0209 70.21 79.9439 69.8975 80.9996L68.5865 85.4136C68.3556 86.1917 67.9389 86.9019 67.3724 87.4832C66.8058 88.0644 66.1065 88.4992 65.3346 88.75C64.5627 89.0009 63.7413 89.0603 62.9413 88.9231C62.1414 88.7859 61.3868 88.4562 60.7425 87.9625L57.0875 85.1625C56.2135 84.4932 55.1434 84.1305 54.0425 84.1305C52.9417 84.1305 51.8715 84.4932 50.9975 85.1625L47.3425 87.9625C46.6983 88.4562 45.9437 88.7859 45.1437 88.9231C44.3437 89.0603 43.5224 89.0009 42.7505 88.75C41.9785 88.4992 41.2792 88.0644 40.7127 87.4832C40.1462 86.9019 39.7295 86.1917 39.4985 85.4136L38.1825 80.9986C37.87 79.9429 37.2178 79.0199 36.3271 78.3728C35.4364 77.7257 34.3571 77.3906 33.2565 77.4196L28.6565 77.5366C27.8452 77.5571 27.0409 77.3801 26.3132 77.0209C25.5854 76.6616 24.9559 76.1308 24.4788 75.4742C24.0018 74.8175 23.6915 74.0548 23.5747 73.2516C23.458 72.4484 23.5382 71.6289 23.8085 70.8636L25.3425 66.5226C25.709 65.4845 25.7233 64.3546 25.3831 63.3077C25.0429 62.2607 24.3672 61.355 23.4605 60.7306L19.6675 58.1206C18.999 57.6603 18.4525 57.0444 18.0749 56.326C17.6973 55.6076 17.5 54.8082 17.5 53.9966C17.5 53.185 17.6973 52.3856 18.0749 51.6671C18.4525 50.9487 18.999 50.3329 19.6675 49.8726L23.4605 47.2616C24.3662 46.6369 25.0408 45.7312 25.3801 44.6846C25.7193 43.638 25.7044 42.5089 25.3375 41.4716L23.8035 37.1295C23.5332 36.3643 23.4529 35.5449 23.5697 34.7417C23.6864 33.9386 23.9967 33.1759 24.4738 32.5193C24.9509 31.8627 25.5804 31.332 26.3082 30.9728C27.036 30.6136 27.8402 30.4368 28.6515 30.4576L33.2515 30.5746C34.3523 30.6038 35.432 30.2694 36.3235 29.6229C37.2149 28.9764 37.8683 28.054 38.1825 26.9986L39.4935 22.5846C39.7241 21.8063 40.1405 21.0956 40.7069 20.514C41.2733 19.9324 41.9726 19.4974 42.7445 19.2462C43.5165 18.9951 44.338 18.9354 45.1381 19.0724C45.9382 19.2094 46.6931 19.5389 47.3375 20.0326L50.9925 22.8326C51.8663 23.5024 52.9365 23.8655 54.0375 23.8655C55.1385 23.8655 56.2087 23.5024 57.0825 22.8326V22.8326Z" fill="#017A71" stroke="black" stroke-width="2" stroke-linecap="round" stroke-linejoin="round"/>
</svg>
