<svg width="108" height="108" viewBox="0 0 108 108" fill="none" xmlns="http://www.w3.org/2000/svg">
<path d="M95.7 54.0022C95.7 51.1817 94.5795 48.4766 92.5851 46.4821C90.5906 44.4877 87.8856 43.3673 85.065 43.3673H85.051C84.6784 43.3707 84.3158 43.2465 84.0236 43.0152C83.7314 42.784 83.5272 42.4597 83.445 42.0963C83.1345 40.7021 82.5466 39.3847 81.7164 38.2224C80.8862 37.0602 79.8307 36.0768 78.6126 35.3309C77.3945 34.5851 76.0388 34.0919 74.6262 33.8808C73.2136 33.6698 71.7729 33.745 70.39 34.1022C70.0754 34.184 69.7434 34.1686 69.4378 34.0579C69.1322 33.9472 68.8672 33.7465 68.678 33.4822C67.1582 31.3404 64.9 29.8365 62.3379 29.2598C59.7758 28.683 57.0909 29.0742 54.8 30.3582C54.5558 30.4958 54.2803 30.5682 54 30.5682C53.7197 30.5682 53.4442 30.4958 53.2 30.3582C50.9086 29.0746 48.2234 28.684 45.6613 29.2615C43.0992 29.839 40.8412 31.3438 39.322 33.4862C39.1327 33.7505 38.8678 33.9512 38.5622 34.0619C38.2566 34.1726 37.9246 34.188 37.61 34.1062C36.2276 33.7488 34.7875 33.673 33.3752 33.8835C31.963 34.0939 30.6075 34.5863 29.3894 35.3312C28.1713 36.0762 27.1155 37.0586 26.2848 38.2199C25.4541 39.3812 24.8655 40.6978 24.554 42.0912C24.4718 42.4546 24.2676 42.779 23.9754 43.0102C23.6832 43.2415 23.3206 43.3657 22.948 43.3622H22.934C21.537 43.3623 20.1538 43.6377 18.8633 44.1725C17.5728 44.7074 16.4003 45.4912 15.4128 46.4793C14.4253 47.4674 13.6421 48.6402 13.108 49.931C12.5739 51.2219 12.2993 52.6053 12.3 54.0022V54.0093C12.2999 55.4059 12.5749 56.7888 13.1093 58.0792C13.6437 59.3695 14.427 60.542 15.4146 61.5296C16.4022 62.5172 17.5746 63.3005 18.865 63.8349C20.1553 64.3694 21.5383 64.6444 22.935 64.6442H22.949C23.3217 64.641 23.6843 64.7654 23.9765 64.9969C24.2686 65.2283 24.4728 65.5527 24.555 65.9162C24.8661 67.3098 25.4545 68.6267 26.2851 69.7882C27.1157 70.9497 28.1716 71.9321 29.3898 72.677C30.608 73.422 31.9637 73.9143 33.3761 74.1244C34.7884 74.3345 36.2287 74.2583 37.611 73.9003C37.9257 73.8186 38.2577 73.8341 38.5634 73.945C38.869 74.0559 39.1339 74.2568 39.323 74.5213C40.842 76.6639 43.1001 78.1688 45.6623 78.7461C48.2246 79.3234 50.9098 78.9323 53.201 77.6482C53.4453 77.511 53.7208 77.4389 54.001 77.4389C54.2812 77.4389 54.5567 77.511 54.801 77.6482C57.0922 78.9323 59.7774 79.3234 62.3396 78.7461C64.9019 78.1688 67.1599 76.6639 68.679 74.5213C68.8681 74.2568 69.133 74.0559 69.4386 73.945C69.7442 73.8341 70.0763 73.8186 70.391 73.9003C71.7733 74.2583 73.2135 74.3345 74.6259 74.1244C76.0383 73.9143 77.394 73.422 78.6122 72.677C79.8304 71.9321 80.8862 70.9497 81.7169 69.7882C82.5475 68.6267 83.1359 67.3098 83.447 65.9162C83.5292 65.5527 83.7334 65.2283 84.0255 64.9969C84.3177 64.7654 84.6803 64.641 85.053 64.6442H85.067C86.4641 64.6441 87.8474 64.3686 89.138 63.8337C90.4286 63.2987 91.6011 62.5147 92.5885 61.5265C93.576 60.5382 94.359 59.3649 94.8929 58.0739C95.4268 56.7829 95.701 55.3993 95.7 54.0022V54.0022Z" fill="#F8AE05" stroke="black" stroke-width="2" stroke-linecap="round" stroke-linejoin="round"/>
</svg>
