<svg width="120" height="120" viewBox="0 0 120 120" fill="none" xmlns="http://www.w3.org/2000/svg">
<path d="M59.4929 37.0912C59.501 38.4826 59.1023 39.8347 58.3613 40.9882L109.27 66.1133C113.757 68.3269 113.816 74.7047 109.372 77.0013L58.9448 103.073C59.3303 103.961 59.5348 104.926 59.5348 105.913C59.5348 107.805 58.7838 109.619 57.4468 110.956L57.446 110.957C56.1083 112.294 54.2944 113.045 52.403 113.045C50.5117 113.045 48.6978 112.294 47.3601 110.957C42.1739 105.779 38.0595 99.6285 35.2523 92.8585C32.445 86.0882 31 78.8309 31 71.5017C31 64.1724 32.445 56.9151 35.2523 50.1448C38.0597 43.3746 42.1742 37.2242 47.3607 32.0456L47.3757 32.0307C48.7186 30.7188 50.5245 29.9892 52.4018 30.0001C54.2791 30.0111 56.0764 30.7617 57.4039 32.0891C58.7314 33.4166 59.482 35.2139 59.4929 37.0912Z" fill="#081732" fill-opacity="0.25"/>
<path d="M53.4929 31.0912C53.501 32.4826 53.1023 33.8347 52.3613 34.9882L103.27 60.1133C107.757 62.3269 107.816 68.7047 103.372 71.0013L52.9448 97.0725C53.3303 97.9606 53.5348 98.9264 53.5348 99.9133C53.5348 101.805 52.7838 103.619 51.4468 104.956L51.446 104.957C50.1083 106.294 48.2944 107.045 46.403 107.045C44.5117 107.045 42.6978 106.294 41.3601 104.957C36.1739 99.7786 32.0595 93.6285 29.2523 86.8585C26.445 80.0882 25 72.8309 25 65.5017C25 58.1724 26.445 50.9151 29.2523 44.1448C32.0597 37.3746 36.1742 31.2242 41.3607 26.0456L41.3757 26.0307C42.7186 24.7188 44.5245 23.9892 46.4018 24.0001C48.2791 24.0111 50.0764 24.7617 51.4039 26.0891C52.7314 27.4166 53.482 29.2139 53.4929 31.0912Z" fill="#081732"/>
<path d="M47.4929 25.0912C47.501 26.4826 47.1023 27.8347 46.3613 28.9882L97.2699 54.1133C101.757 56.3269 101.816 62.7047 97.3724 65.0013L46.9448 91.0725C47.3303 91.9606 47.5348 92.9264 47.5348 93.9133C47.5348 95.8047 46.7838 97.6186 45.4468 98.9563L45.446 98.9571C44.1083 100.294 42.2944 101.045 40.403 101.045C38.5117 101.045 36.6978 100.294 35.3601 98.9571C30.1739 93.7786 26.0595 87.6285 23.2523 80.8585C20.445 74.0882 19 66.8309 19 59.5017C19 52.1724 20.445 44.9151 23.2523 38.1448C26.0597 31.3746 30.1742 25.2242 35.3607 20.0456L35.3757 20.0307C36.7186 18.7188 38.5245 17.9892 40.4018 18.0001C42.2791 18.0111 44.0764 18.7617 45.4039 20.0891C46.7314 21.4166 47.482 23.2139 47.4929 25.0912Z" fill="#081732"/>
<path d="M41.0233 92.5311L96.6388 63.7777C99.67 62.2111 99.63 57.86 96.5688 56.35L39.6977 28.2822L24.92 58.4266L41.0233 92.5311Z" fill="#F8AE05" stroke="#081732" stroke-width="3.87663" stroke-linecap="round" stroke-linejoin="round"/>
<path d="M60.6955 50.2922C60.6955 46.0144 57.2277 42.5466 52.95 42.5466C48.6722 42.5466 45.2044 46.0144 45.2044 50.2922C45.2044 54.5699 48.6722 58.0377 52.95 58.0377C57.2277 58.0377 60.6955 54.5699 60.6955 50.2922Z" fill="#F16932"/>
<path d="M60.6955 50.2922C60.6955 46.0144 57.2277 42.5466 52.95 42.5466C48.6722 42.5466 45.2044 46.0144 45.2044 50.2922C45.2044 54.5699 48.6722 58.0377 52.95 58.0377C57.2277 58.0377 60.6955 54.5699 60.6955 50.2922Z" stroke="#081732" stroke-width="3.87663" stroke-linecap="round" stroke-linejoin="round"/>
<path d="M56.5855 71.9032C56.5855 67.6255 53.1177 64.1577 48.8399 64.1577C44.5622 64.1577 41.0944 67.6255 41.0944 71.9032C41.0944 76.181 44.5622 79.6488 48.8399 79.6488C53.1177 79.6488 56.5855 76.181 56.5855 71.9032Z" fill="#F16932"/>
<path d="M56.5855 71.9032C56.5855 67.6255 53.1177 64.1577 48.8399 64.1577C44.5622 64.1577 41.0944 67.6255 41.0944 71.9032C41.0944 76.181 44.5622 79.6488 48.8399 79.6488C53.1177 79.6488 56.5855 76.181 56.5855 71.9032Z" stroke="#081732" stroke-width="3.87663" stroke-linecap="round" stroke-linejoin="round"/>
<path d="M81.2089 61.6844C81.2089 57.4066 77.741 53.9388 73.4633 53.9388C69.1855 53.9388 65.7177 57.4066 65.7177 61.6844C65.7177 65.9621 69.1855 69.4299 73.4633 69.4299C77.741 69.4299 81.2089 65.9621 81.2089 61.6844Z" fill="#F16932"/>
<path d="M81.2089 61.6844C81.2089 57.4066 77.741 53.9388 73.4633 53.9388C69.1855 53.9388 65.7177 57.4066 65.7177 61.6844C65.7177 65.9621 69.1855 69.4299 73.4633 69.4299C77.741 69.4299 81.2089 65.9621 81.2089 61.6844Z" stroke="#081732" stroke-width="3.87663" stroke-linecap="round" stroke-linejoin="round"/>
<path d="M44.2322 98.0844C43.2579 99.0581 41.9369 99.6051 40.5594 99.6051C39.182 99.6051 37.8609 99.0581 36.8866 98.0844C31.8805 93.0858 27.9089 87.1492 25.1992 80.6143C22.4895 74.0794 21.0947 67.0744 21.0947 59.9999C21.0947 52.9255 22.4895 45.9205 25.1992 39.3856C27.9089 32.8507 31.8805 26.9141 36.8866 21.9155C37.8646 20.9601 39.1797 20.4287 40.5469 20.4367C41.914 20.4447 43.2229 20.9913 44.1897 21.958C45.1564 22.9248 45.703 24.2337 45.711 25.6008C45.719 26.968 45.1876 28.2831 44.2322 29.261C36.08 37.4136 31.5001 48.4707 31.5001 59.9999C31.5001 71.5292 36.08 82.5863 44.2322 90.7388C45.2059 91.7131 45.7529 93.0342 45.7529 94.4116C45.7529 95.7891 45.2059 97.1101 44.2322 98.0844Z" fill="#AF5A00" stroke="#081732" stroke-width="3.87663" stroke-linecap="round" stroke-linejoin="round"/>
</svg>
