<svg width="120" height="120" viewBox="0 0 120 120" fill="none" xmlns="http://www.w3.org/2000/svg">
<path d="M84.5071 37.0912C84.499 38.4826 84.8977 39.8347 85.6387 40.9882L34.7301 66.1133C30.2426 68.3269 30.1842 74.7047 34.6276 77.0013L85.0552 103.073C84.6697 103.961 84.4652 104.926 84.4652 105.913C84.4652 107.805 85.2162 109.619 86.5532 110.956L86.554 110.957C87.8917 112.294 89.7056 113.045 91.597 113.045C93.4883 113.045 95.3022 112.294 96.6399 110.957C101.826 105.779 105.94 99.6285 108.748 92.8585C111.555 86.0882 113 78.8309 113 71.5017C113 64.1724 111.555 56.9151 108.748 50.1448C105.94 43.3746 101.826 37.2242 96.6393 32.0456L96.6243 32.0307C95.2814 30.7188 93.4755 29.9892 91.5982 30.0001C89.7209 30.0111 87.9236 30.7617 86.5961 32.0891C85.2686 33.4166 84.518 35.2139 84.5071 37.0912Z" fill="#081732" fill-opacity="0.25"/>
<path d="M78.5071 31.0912C78.499 32.4826 78.8977 33.8347 79.6387 34.9882L28.7301 60.1133C24.2426 62.3269 24.1842 68.7047 28.6276 71.0013L79.0552 97.0725C78.6697 97.9606 78.4652 98.9264 78.4652 99.9133C78.4652 101.805 79.2162 103.619 80.5532 104.956L80.554 104.957C81.8917 106.294 83.7056 107.045 85.597 107.045C87.4883 107.045 89.3022 106.294 90.6399 104.957C95.8261 99.7786 99.9405 93.6285 102.748 86.8585C105.555 80.0882 107 72.8309 107 65.5017C107 58.1724 105.555 50.9151 102.748 44.1448C99.9403 37.3746 95.8258 31.2242 90.6393 26.0456L90.6243 26.0307C89.2814 24.7188 87.4755 23.9892 85.5982 24.0001C83.7209 24.0111 81.9236 24.7617 80.5961 26.0891C79.2686 27.4166 78.518 29.2139 78.5071 31.0912Z" fill="#081732"/>
<path d="M72.5071 25.0912C72.499 26.4826 72.8977 27.8347 73.6387 28.9882L22.7301 54.1133C18.2426 56.3269 18.1842 62.7047 22.6276 65.0013L73.0552 91.0725C72.6697 91.9606 72.4652 92.9264 72.4652 93.9133C72.4652 95.8047 73.2162 97.6186 74.5532 98.9563L74.554 98.9571C75.8917 100.294 77.7056 101.045 79.597 101.045C81.4883 101.045 83.3022 100.294 84.6399 98.9571C89.8261 93.7786 93.9405 87.6285 96.7477 80.8585C99.555 74.0882 101 66.8309 101 59.5017C101 52.1724 99.555 44.9151 96.7477 38.1448C93.9403 31.3746 89.8258 25.2242 84.6393 20.0456L84.6243 20.0307C83.2814 18.7188 81.4755 17.9892 79.5982 18.0001C77.7209 18.0111 75.9236 18.7617 74.5961 20.0891C73.2686 21.4166 72.518 23.2139 72.5071 25.0912Z" fill="#081732"/>
<path d="M78.9767 92.5311L23.3612 63.7777C20.3301 62.2111 20.3701 57.86 23.4312 56.35L80.3023 28.2822L95.0801 58.4266L78.9767 92.5311Z" fill="#F8AE05" stroke="#081732" stroke-width="3.87663" stroke-linecap="round" stroke-linejoin="round"/>
<path d="M59.3045 50.2922C59.3045 46.0144 62.7723 42.5466 67.05 42.5466C71.3278 42.5466 74.7956 46.0144 74.7956 50.2922C74.7956 54.5699 71.3278 58.0377 67.05 58.0377C62.7723 58.0377 59.3045 54.5699 59.3045 50.2922Z" fill="#F16932"/>
<path d="M59.3045 50.2922C59.3045 46.0144 62.7723 42.5466 67.05 42.5466C71.3278 42.5466 74.7956 46.0144 74.7956 50.2922C74.7956 54.5699 71.3278 58.0377 67.05 58.0377C62.7723 58.0377 59.3045 54.5699 59.3045 50.2922Z" stroke="#081732" stroke-width="3.87663" stroke-linecap="round" stroke-linejoin="round"/>
<path d="M63.4145 71.9032C63.4145 67.6255 66.8823 64.1577 71.1601 64.1577C75.4378 64.1577 78.9056 67.6255 78.9056 71.9032C78.9056 76.181 75.4378 79.6488 71.1601 79.6488C66.8823 79.6488 63.4145 76.181 63.4145 71.9032Z" fill="#F16932"/>
<path d="M63.4145 71.9032C63.4145 67.6255 66.8823 64.1577 71.1601 64.1577C75.4378 64.1577 78.9056 67.6255 78.9056 71.9032C78.9056 76.181 75.4378 79.6488 71.1601 79.6488C66.8823 79.6488 63.4145 76.181 63.4145 71.9032Z" stroke="#081732" stroke-width="3.87663" stroke-linecap="round" stroke-linejoin="round"/>
<path d="M38.7912 61.6844C38.7912 57.4066 42.259 53.9388 46.5367 53.9388C50.8145 53.9388 54.2823 57.4066 54.2823 61.6844C54.2823 65.9621 50.8145 69.4299 46.5367 69.4299C42.259 69.4299 38.7912 65.9621 38.7912 61.6844Z" fill="#F16932"/>
<path d="M38.7912 61.6844C38.7912 57.4066 42.259 53.9388 46.5367 53.9388C50.8145 53.9388 54.2823 57.4066 54.2823 61.6844C54.2823 65.9621 50.8145 69.4299 46.5367 69.4299C42.259 69.4299 38.7912 65.9621 38.7912 61.6844Z" stroke="#081732" stroke-width="3.87663" stroke-linecap="round" stroke-linejoin="round"/>
<path d="M75.7678 98.0844C76.7421 99.0581 78.0631 99.6051 79.4406 99.6051C80.818 99.6051 82.1391 99.0581 83.1134 98.0844C88.1195 93.0858 92.0911 87.1492 94.8008 80.6143C97.5105 74.0794 98.9053 67.0744 98.9053 59.9999C98.9053 52.9255 97.5105 45.9205 94.8008 39.3856C92.0911 32.8507 88.1195 26.9141 83.1134 21.9155C82.1354 20.9601 80.8203 20.4287 79.4531 20.4367C78.086 20.4447 76.7771 20.9913 75.8103 21.958C74.8436 22.9248 74.297 24.2337 74.289 25.6008C74.281 26.968 74.8124 28.2831 75.7678 29.261C83.92 37.4136 88.4999 48.4707 88.4999 59.9999C88.4999 71.5292 83.92 82.5863 75.7678 90.7388C74.7941 91.7131 74.2471 93.0342 74.2471 94.4116C74.2471 95.7891 74.7941 97.1101 75.7678 98.0844Z" fill="#AF5A00" stroke="#081732" stroke-width="3.87663" stroke-linecap="round" stroke-linejoin="round"/>
</svg>
