<svg width="120" height="120" viewBox="0 0 120 120" fill="none" xmlns="http://www.w3.org/2000/svg">
<path d="M106.909 84.5071C105.517 84.499 104.165 84.8977 103.012 85.6387L77.8867 34.7301C75.6731 30.2426 69.2953 30.1842 66.9986 34.6276L40.9275 85.0552C40.0394 84.6697 39.0736 84.4652 38.0867 84.4652C36.1953 84.4652 34.3814 85.2162 33.0437 86.5532L33.0429 86.554C31.7059 87.8917 30.9549 89.7056 30.9549 91.597C30.9549 93.4883 31.7059 95.3022 33.0429 96.6399C38.2214 101.826 44.3715 105.94 51.1415 108.748C57.9118 111.555 65.1691 113 72.4983 113C79.8276 113 87.0849 111.555 93.8552 108.748C100.625 105.94 106.776 101.826 111.954 96.6393L111.969 96.6243C113.281 95.2814 114.011 93.4755 114 91.5982C113.989 89.7209 113.238 87.9236 111.911 86.5961C110.583 85.2686 108.786 84.518 106.909 84.5071Z" fill="#081732" fill-opacity="0.25"/>
<path d="M100.909 78.5071C99.5174 78.499 98.1652 78.8977 97.0118 79.6387L71.8867 28.7301C69.6731 24.2426 63.2953 24.1842 60.9986 28.6276L34.9275 79.0552C34.0394 78.6697 33.0736 78.4652 32.0867 78.4652C30.1953 78.4652 28.3814 79.2162 27.0437 80.5532L27.0429 80.554C25.7059 81.8917 24.9549 83.7056 24.9549 85.597C24.9549 87.4883 25.7059 89.3022 27.0429 90.6399C32.2214 95.8261 38.3715 99.9405 45.1415 102.748C51.9118 105.555 59.1691 107 66.4983 107C73.8276 107 81.0849 105.555 87.8552 102.748C94.6254 99.9403 100.776 95.8258 105.954 90.6393L105.969 90.6243C107.281 89.2814 108.011 87.4755 108 85.5982C107.989 83.7209 107.238 81.9236 105.911 80.5961C104.583 79.2686 102.786 78.518 100.909 78.5071Z" fill="#081732"/>
<path d="M94.9088 72.5071C93.5174 72.499 92.1652 72.8977 91.0118 73.6387L65.8867 22.7301C63.6731 18.2426 57.2953 18.1842 54.9986 22.6276L28.9275 73.0552C28.0394 72.6697 27.0736 72.4652 26.0867 72.4652C24.1953 72.4652 22.3814 73.2162 21.0437 74.5532L21.0429 74.554C19.7059 75.8917 18.9549 77.7056 18.9549 79.597C18.9549 81.4883 19.7059 83.3022 21.0429 84.6399C26.2214 89.8261 32.3715 93.9405 39.1415 96.7477C45.9118 99.555 53.1691 101 60.4983 101C67.8276 101 75.0849 99.555 81.8552 96.7477C88.6254 93.9403 94.7758 89.8258 99.9544 84.6393L99.9693 84.6243C101.281 83.2814 102.011 81.4755 102 79.5982C101.989 77.7209 101.238 75.9236 99.9109 74.5961C98.5834 73.2686 96.7861 72.518 94.9088 72.5071Z" fill="#081732"/>
<path d="M27.4689 78.9767L56.2223 23.3612C57.789 20.3301 62.1401 20.3701 63.6501 23.4312L91.7178 80.3023L61.5734 95.0801L27.4689 78.9767Z" fill="#F8AE05" stroke="#081732" stroke-width="3.87663" stroke-linecap="round" stroke-linejoin="round"/>
<path d="M69.7078 59.3045C73.9856 59.3045 77.4534 62.7723 77.4534 67.05C77.4534 71.3278 73.9856 74.7956 69.7078 74.7956C65.4301 74.7956 61.9623 71.3278 61.9623 67.05C61.9623 62.7723 65.4301 59.3045 69.7078 59.3045Z" fill="#F16932"/>
<path d="M69.7078 59.3045C73.9856 59.3045 77.4534 62.7723 77.4534 67.05C77.4534 71.3278 73.9856 74.7956 69.7078 74.7956C65.4301 74.7956 61.9623 71.3278 61.9623 67.05C61.9623 62.7723 65.4301 59.3045 69.7078 59.3045Z" stroke="#081732" stroke-width="3.87663" stroke-linecap="round" stroke-linejoin="round"/>
<path d="M48.0967 63.4145C52.3745 63.4145 55.8423 66.8823 55.8423 71.1601C55.8423 75.4378 52.3745 78.9056 48.0967 78.9056C43.819 78.9056 40.3512 75.4378 40.3512 71.1601C40.3512 66.8823 43.819 63.4145 48.0967 63.4145Z" fill="#F16932"/>
<path d="M48.0967 63.4145C52.3745 63.4145 55.8423 66.8823 55.8423 71.1601C55.8423 75.4378 52.3745 78.9056 48.0967 78.9056C43.819 78.9056 40.3512 75.4378 40.3512 71.1601C40.3512 66.8823 43.819 63.4145 48.0967 63.4145Z" stroke="#081732" stroke-width="3.87663" stroke-linecap="round" stroke-linejoin="round"/>
<path d="M58.3156 38.7912C62.5934 38.7912 66.0612 42.259 66.0612 46.5367C66.0612 50.8145 62.5934 54.2823 58.3156 54.2823C54.0379 54.2823 50.5701 50.8145 50.5701 46.5367C50.5701 42.259 54.0379 38.7912 58.3156 38.7912Z" fill="#F16932"/>
<path d="M58.3156 38.7912C62.5934 38.7912 66.0612 42.259 66.0612 46.5367C66.0612 50.8145 62.5934 54.2823 58.3156 54.2823C54.0379 54.2823 50.5701 50.8145 50.5701 46.5367C50.5701 42.259 54.0379 38.7912 58.3156 38.7912Z" stroke="#081732" stroke-width="3.87663" stroke-linecap="round" stroke-linejoin="round"/>
<path d="M21.9156 75.7678C20.9419 76.742 20.3949 78.0631 20.3949 79.4405C20.3949 80.818 20.9419 82.1391 21.9156 83.1133C26.9142 88.1195 32.8508 92.091 39.3857 94.8008C45.9206 97.5105 52.9256 98.9053 60.0001 98.9053C67.0745 98.9053 74.0795 97.5105 80.6145 94.8008C87.1494 92.091 93.0859 88.1195 98.0845 83.1133C99.0399 82.1354 99.5713 80.8202 99.5633 79.4531C99.5554 78.0859 99.0087 76.777 98.042 75.8103C97.0752 74.8436 95.7664 74.2969 94.3992 74.289C93.0321 74.281 91.7169 74.8124 90.739 75.7678C82.5864 83.92 71.5293 88.4999 60.0001 88.4999C48.4708 88.4999 37.4138 83.92 29.2612 75.7678C28.2869 74.794 26.9658 74.2471 25.5884 74.2471C24.211 74.2471 22.8899 74.794 21.9156 75.7678Z" fill="#AF5A00" stroke="#081732" stroke-width="3.87663" stroke-linecap="round" stroke-linejoin="round"/>
</svg>
