<svg id="Artwork" xmlns="http://www.w3.org/2000/svg" viewBox="0 0 1080 1080"><defs><style>.cls-1{fill:#2d76ff;}.cls-2{fill:none;}.cls-2,.cls-4{stroke:#000;stroke-linecap:round;stroke-linejoin:round;stroke-width:20px;}.cls-3,.cls-4{fill:#af5a00;}</style></defs><rect class="cls-1" x="576.26" y="172.41" width="43.33" height="579.01" rx="13.58" transform="translate(220.18 -192.45) rotate(22.32)"/><rect class="cls-2" x="576.26" y="172.41" width="43.33" height="579.01" rx="13.58" transform="translate(220.18 -192.45) rotate(22.32)"/><path class="cls-3" d="M647.47,890H431.79c-17.77,0-32.54-13.19-33.9-30.28l-37-406.65H718.36l-37,406.65C680,876.81,665.24,890,647.47,890Z"/><path class="cls-2" d="M647.47,890H431.79c-17.77,0-32.54-13.19-33.9-30.28l-37-406.65H718.36l-37,406.65C680,876.81,665.24,890,647.47,890Z"/><line class="cls-4" x1="401.61" y1="790.26" x2="687.24" y2="790.26"/><polygon class="cls-2" points="718.64 453.07 360.54 453.07 356.38 388.5 723.76 388.5 718.64 453.07"/><rect class="cls-2" x="325.03" y="337.74" width="429.95" height="50.77" rx="25.38"/></svg>