<svg id="Artwork" xmlns="http://www.w3.org/2000/svg" viewBox="0 0 1080 1080"><defs><style>.cls-1{fill:none;}.cls-1,.cls-2,.cls-3{stroke:#000;stroke-linecap:round;stroke-linejoin:round;stroke-width:20px;}.cls-2,.cls-5{fill:#fff;}.cls-3{fill:#2d76ff;}.cls-4{fill:#050000;}</style></defs><line class="cls-1" x1="545.18" y1="240" x2="545.18" y2="397.97"/><line class="cls-1" x1="688.21" y1="268.28" x2="623.88" y2="412.56"/><line class="cls-1" x1="814.27" y1="347.68" x2="708.33" y2="464.87"/><line class="cls-1" x1="900.29" y1="459.72" x2="761.3" y2="534.8"/><line class="cls-1" x1="391.79" y1="268.28" x2="456.12" y2="412.56"/><line class="cls-1" x1="265.73" y1="347.68" x2="371.67" y2="464.87"/><line class="cls-1" x1="179.71" y1="459.72" x2="318.7" y2="534.8"/><path class="cls-2" d="M765.33,489.16c-121.59-121.58-318.72-121.58-440.3,0L200.2,614a7.06,7.06,0,0,0,0,10L325,748.81c121.58,121.59,318.71,121.59,440.3,0L890.16,624a7.06,7.06,0,0,0,0-10Z"/><circle class="cls-3" cx="545.18" cy="618.99" r="163.51"/><circle class="cls-4" cx="545.18" cy="618.99" r="78.71"/><circle class="cls-5" cx="607.73" cy="566.98" r="26.7"/></svg>