<svg id="Artwork" xmlns="http://www.w3.org/2000/svg" viewBox="0 0 1080 1080"><defs><style>.cls-1,.cls-3{fill:#f8ae05;}.cls-1,.cls-2{stroke:#000;}.cls-1,.cls-2,.cls-3{stroke-linecap:round;stroke-linejoin:round;stroke-width:20px;}.cls-2{fill:#ffbcdd;}.cls-3{stroke:#fff;}</style></defs><path class="cls-1" d="M540,190c-193.3,0-350,156.7-350,350S346.7,890,540,890,890,733.3,890,540,733.3,190,540,190Zm0,422.34A72.34,72.34,0,1,1,612.34,540,72.34,72.34,0,0,1,540,612.34Z"/><path class="cls-2" d="M825.48,479.13l-90-155.93A121.74,121.74,0,0,0,630,262.33H450A121.74,121.74,0,0,0,344.54,323.2l-90,155.93a121.72,121.72,0,0,0,0,121.74l90,155.93A121.74,121.74,0,0,0,450,817.67H630A121.74,121.74,0,0,0,735.46,756.8l90-155.93A121.72,121.72,0,0,0,825.48,479.13Zm-219.16,78a68.49,68.49,0,1,1-49.23-83.41A68.49,68.49,0,0,1,606.32,557.09Z"/><line class="cls-3" x1="653.34" y1="486.35" x2="677.96" y2="503.82"/><line class="cls-3" x1="308.94" y1="611.06" x2="333.56" y2="628.52"/><line class="cls-3" x1="735.45" y1="672.88" x2="712.72" y2="692.74"/><line class="cls-3" x1="396.98" y1="682.18" x2="424" y2="668.76"/><line class="cls-3" x1="782.42" y1="575.04" x2="752.41" y2="571.82"/><line class="cls-3" x1="676.83" y1="603.99" x2="676.25" y2="573.81"/><line class="cls-3" x1="763.3" y1="470.01" x2="740.57" y2="489.86"/><line class="cls-3" x1="320.31" y1="514.38" x2="297.58" y2="534.23"/><line class="cls-3" x1="412.06" y1="574.2" x2="381.89" y2="573.43"/><line class="cls-3" x1="511.95" y1="672.88" x2="498.7" y2="645.77"/><line class="cls-3" x1="616.2" y1="651.9" x2="601.32" y2="678.15"/><line class="cls-3" x1="621.87" y1="763.29" x2="599.82" y2="742.69"/><line class="cls-3" x1="472.08" y1="767.65" x2="486.27" y2="741.02"/><line class="cls-3" x1="354.69" y1="404.96" x2="377.42" y2="385.11"/><line class="cls-3" x1="693.16" y1="395.66" x2="666.14" y2="409.09"/><line class="cls-3" x1="399.79" y1="464.85" x2="400.38" y2="495.02"/><line class="cls-3" x1="578.19" y1="404.96" x2="591.44" y2="432.08"/><line class="cls-3" x1="473.94" y1="425.94" x2="488.82" y2="399.69"/><line class="cls-3" x1="468.27" y1="314.55" x2="490.32" y2="335.15"/><line class="cls-3" x1="618.06" y1="310.19" x2="603.87" y2="336.82"/></svg>