<svg id="Artwork" xmlns="http://www.w3.org/2000/svg" viewBox="0 0 1080 1080"><defs><style>.cls-1{fill:#f9d744;stroke:#000;}.cls-1,.cls-2{stroke-linecap:round;stroke-linejoin:round;stroke-width:20px;}.cls-2{fill:none;stroke:#fff;}</style></defs><path class="cls-1" d="M524.59,490.07c-36.16-50.69-56.93-117.2-59-188.4a12.22,12.22,0,0,0-12.21-11.87h0a12.22,12.22,0,0,0-12.22,11.87c-2.08,71.2-22.85,137.71-59,188.4-35.47,49.71-81.79,78.66-131.48,82.51a12.27,12.27,0,0,0-11.39,12.2V595a12.27,12.27,0,0,0,11.39,12.2c49.69,3.85,96,32.8,131.48,82.51,36.15,50.69,56.92,117.2,59,188.4A12.22,12.22,0,0,0,453.37,890h0a12.22,12.22,0,0,0,12.21-11.87c2.08-71.2,22.85-137.71,59-188.4,35.46-49.71,81.78-78.66,131.47-82.51A12.27,12.27,0,0,0,667.45,595V584.78a12.27,12.27,0,0,0-11.39-12.2C606.37,568.73,560.05,539.78,524.59,490.07Z"/><path class="cls-1" d="M757.74,306.31c-21-29.43-33.06-68.06-34.27-109.41a7.1,7.1,0,0,0-7.09-6.9h0a7.11,7.11,0,0,0-7.1,6.9c-1.2,41.35-13.26,80-34.26,109.41-20.6,28.88-47.51,45.69-76.36,47.93a7.12,7.12,0,0,0-6.62,7.08v5.95a7.13,7.13,0,0,0,6.62,7.09c28.85,2.23,55.76,19.05,76.36,47.92,21,29.44,33.06,68.07,34.26,109.42a7.11,7.11,0,0,0,7.1,6.89h0a7.09,7.09,0,0,0,7.09-6.89c1.21-41.35,13.27-80,34.27-109.42,20.6-28.87,47.5-45.69,76.36-47.92a7.13,7.13,0,0,0,6.62-7.09v-5.95a7.12,7.12,0,0,0-6.62-7.08C805.24,352,778.34,335.19,757.74,306.31Z"/><path class="cls-2" d="M347.52,593.67s95.29,32,98.79,127.6"/></svg>