<svg id="Artwork" xmlns="http://www.w3.org/2000/svg" viewBox="0 0 1080 1080"><defs><style>.cls-1{fill:#fff;}.cls-1,.cls-2,.cls-4{stroke:#000;}.cls-1,.cls-2,.cls-3,.cls-4{stroke-linecap:round;stroke-linejoin:round;stroke-width:20px;}.cls-2{fill:#ffbcdd;}.cls-3,.cls-4{fill:none;}.cls-3{stroke:#fff;}</style></defs><path class="cls-1" d="M684.46,484.88,774,384.68a36.79,36.79,0,0,1,51.72-1.76h0a36.79,36.79,0,0,1-.82,54.77l-6.48,5.64c-6.79,5.91-1.47,17,7.38,15.41L841.1,456A34.53,34.53,0,0,1,881,482.88h0a34.53,34.53,0,0,1-26.29,40.79l-3.54.79c-8.81,2-9.39,14.3-.79,17.08l18.08,5.84a31.06,31.06,0,0,1,20.41,37.85h0a31.08,31.08,0,0,1-38.24,21.67l-2.14-.59a8.86,8.86,0,0,0-9.35,14l3.7,4.73a34.15,34.15,0,0,1-15.23,53.09h0C788,692.56,695.18,597.88,659.37,575.62Z"/><path class="cls-1" d="M385.41,470,284.22,381.58a36.78,36.78,0,0,0-51.53,4.61h0a36.79,36.79,0,0,0,7.55,54.26l7.13,4.8c7.46,5,3.55,16.69-5.43,16.2l-15.53-.85a34.54,34.54,0,0,0-36.29,31.6h0a34.54,34.54,0,0,0,31.12,37.25l3.6.34c9,.87,11.08,13.05,2.89,16.86l-17.23,8a31.08,31.08,0,0,0-15.59,40.08h0a31.09,31.09,0,0,0,40.61,16.8l2.06-.86a8.86,8.86,0,0,1,11,12.74l-3.08,5.15a34.15,34.15,0,0,0,21.65,50.81h0c41.1,9.45,121.54-95.93,154.35-122.43Z"/><path class="cls-2" d="M539.39,741.23a24.4,24.4,0,0,0,17.52-.59C785.55,643.28,788.21,433,706.91,368c-63.62-50.81-139.5-36.59-170.3,29.45-35.17-63.82-111.83-72.92-171.9-17.95C288,449.78,304.73,659.44,539.39,741.23Z"/><path class="cls-3" d="M560.57,681.27c59.85-25.48,96.53-62.55,115.75-100.83"/><path class="cls-3" d="M436.52,388c-11.68,3.8-23.32,10.59-34.14,20.5-17.15,15.69-27.31,41.79-27.39,71.63"/><path class="cls-4" d="M513.22,526.33a30.86,30.86,0,0,0,61.71.36"/><circle cx="577.57" cy="480.11" r="17"/><circle cx="510.58" cy="480.11" r="17"/></svg>