<svg id="Artwork" xmlns="http://www.w3.org/2000/svg" viewBox="0 0 1080 1080"><defs><style>.cls-1{fill:#dfc0ae;}.cls-1,.cls-2,.cls-3,.cls-4{stroke:#000;stroke-linecap:round;stroke-linejoin:round;stroke-width:20px;}.cls-2{fill:#af5a00;}.cls-3{fill:#2d76ff;}.cls-4{fill:none;}</style></defs><path class="cls-1" d="M636.6,890H439.81a59.84,59.84,0,0,1-59.76-56.74L362.38,492.72H714L696.35,833.26A59.84,59.84,0,0,1,636.6,890Z"/><circle class="cls-2" cx="634.91" cy="825.81" r="33.36"/><circle class="cls-2" cx="487.57" cy="744.45" r="33.36"/><circle class="cls-2" cx="538.2" cy="825.81" r="33.36"/><circle class="cls-2" cx="445.45" cy="825.81" r="33.36"/><rect class="cls-3" x="506.27" y="183.43" width="59.59" height="643.54" rx="29.79" transform="translate(-94.53 124.48) rotate(-12.18)"/><rect class="cls-4" x="333.16" y="445.74" width="413.67" height="44.69" rx="22.35"/><path class="cls-4" d="M358.93,444a179.27,179.27,0,1,1,358.54,0Z"/><circle class="cls-2" cx="622.59" cy="696.52" r="33.36"/><circle class="cls-2" cx="436.17" cy="658" r="33.36"/></svg>