<svg id="Artwork" xmlns="http://www.w3.org/2000/svg" viewBox="0 0 1080 1080"><defs><style>.cls-1{fill:#f16932;}.cls-1,.cls-4{stroke:#000;stroke-linecap:round;stroke-linejoin:round;stroke-width:20px;}.cls-1,.cls-2{fill-rule:evenodd;}.cls-2{fill:#ffbcdd;}.cls-3{fill:#f9d744;}.cls-4{fill:none;}</style></defs><path class="cls-1" d="M650.87,780.16a108.87,108.87,0,1,1-217.74,1.58c-.43-60.22,107.12-243.13,107.12-243.13S650.44,719.94,650.87,780.16Z"/><path class="cls-1" d="M429.64,299.84a108.87,108.87,0,1,1,217.74-1.58c.44,60.22-107.11,243.13-107.11,243.13S430.08,360.06,429.64,299.84Z"/><path class="cls-1" d="M299.94,651a108.87,108.87,0,1,1-1.58-217.74c60.22-.44,243.12,107.11,243.12,107.11S360.16,650.53,299.94,651Z"/><path class="cls-1" d="M780.06,429.22A108.87,108.87,0,1,1,781.64,647c-60.22.43-243.12-107.11-243.12-107.11S719.84,429.65,780.06,429.22Z"/><path class="cls-2" d="M370.92,830.79a118.08,118.08,0,0,1-83.38-34.18c-46.69-46-47.18-121.48-1.1-168.23,18.66-18.93,67-41.36,143.67-66.65,56.29-18.57,108.08-32.06,108.6-32.19a10.22,10.22,0,0,1,2.51-.32,10,10,0,0,1,9.72,12.37c-.13.52-12.86,52.5-30.61,109-24.18,77-45.9,125.69-64.56,144.62A118.28,118.28,0,0,1,370.92,830.79Z"/><path d="M541.22,539.22s-50.3,206.13-92.57,249A108.87,108.87,0,1,1,293.57,635.39c42.27-42.89,247.65-96.17,247.65-96.17m0-20a20,20,0,0,0-5,.64c-.52.14-52.63,13.7-109.22,32.37-79.3,26.16-127.6,48.77-147.66,69.13A128.87,128.87,0,1,0,462.89,802.28c20.06-20.35,42-69,67-148.64,17.85-56.86,30.65-109.16,30.78-109.68a20,20,0,0,0-19.43-24.74Zm0,40h0Z"/><path class="cls-2" d="M538.78,551a10,10,0,0,1-9.72-12.37c.13-.52,12.86-52.5,30.61-109,24.18-77,45.9-125.69,64.56-144.62a119,119,0,0,1,168.23-1.35c46.69,46,47.18,121.48,1.1,168.24-18.66,18.93-67,41.35-143.67,66.65-56.29,18.57-108.08,32-108.6,32.18A9.76,9.76,0,0,1,538.78,551Z"/><path d="M709.08,259.4a108.83,108.83,0,0,1,77.35,185.39C744.16,487.68,538.78,541,538.78,541s50.3-206.13,92.57-249a108.79,108.79,0,0,1,77.73-32.54m0-20v0a128.83,128.83,0,0,0-92,38.5c-20.06,20.35-42,69-67,148.65-17.85,56.85-30.65,109.15-30.78,109.67a20,20,0,0,0,24.45,24.1c.52-.13,52.63-13.7,109.22-32.37,79.3-26.16,127.6-48.77,147.66-69.12a128.84,128.84,0,0,0-91.6-219.43Z"/><path class="cls-2" d="M540.87,551.31a10.1,10.1,0,0,1-2.37-.28c-.52-.13-52.5-12.86-109-30.61-77-24.18-125.69-45.9-144.62-64.56-46.76-46.08-47.36-121.55-1.35-168.23a119,119,0,0,1,168.24-1.09c18.93,18.65,41.35,67,66.64,143.66,18.57,56.29,32.06,108.08,32.19,108.6a10,10,0,0,1-9.68,12.51Z"/><path d="M368.1,262.24a108.76,108.76,0,0,1,76.6,31.42c42.89,42.27,96.17,247.65,96.17,247.65s-206.13-50.3-249-92.57a108.83,108.83,0,0,1,76.25-186.5m0-20v0h0A128.87,128.87,0,0,0,277.81,463c20.35,20.06,69,42,148.64,67,56.86,17.85,109.16,30.65,109.68,30.78a19.63,19.63,0,0,0,4.74.57,20,20,0,0,0,19.36-25c-.13-.52-13.7-52.63-32.37-109.22-26.16-79.3-48.77-127.6-69.12-147.66a128.41,128.41,0,0,0-90.64-37.17Z"/><path class="cls-2" d="M711.9,828a118.45,118.45,0,0,1-83.62-34.3c-18.93-18.66-41.35-67-66.64-143.67-18.57-56.29-32.06-108.08-32.19-108.6a10,10,0,0,1,9.68-12.51,9.61,9.61,0,0,1,2.37.29c.52.12,52.5,12.85,109,30.6,77,24.18,125.69,45.9,144.62,64.56A118.84,118.84,0,0,1,711.9,828Z"/><path d="M539.13,538.87s206.13,50.3,249,92.57A108.88,108.88,0,1,1,635.3,786.53c-42.89-42.28-96.17-247.66-96.17-247.66m0-20a20,20,0,0,0-19.36,25c.13.52,13.7,52.63,32.37,109.22,26.16,79.3,48.77,127.6,69.12,147.66A128.87,128.87,0,1,0,802.19,617.2c-20.35-20.06-69-42-148.64-67-56.86-17.84-109.16-30.65-109.68-30.78a20.14,20.14,0,0,0-4.74-.57Z"/><circle class="cls-3" cx="538.66" cy="541.57" r="130.65"/><circle class="cls-4" cx="538.66" cy="541.57" r="130.65"/><path class="cls-4" d="M509.88,563.67a30.29,30.29,0,1,0,60.57.35"/><circle cx="573.05" cy="518.29" r="16.69"/><circle cx="507.28" cy="518.29" r="16.69"/></svg>