<svg id="Artwork" xmlns="http://www.w3.org/2000/svg" viewBox="0 0 1080 1080"><defs><style>.cls-1{fill:#f9d744;}.cls-2,.cls-4{fill:none;}.cls-2,.cls-3{stroke:#000;}.cls-2,.cls-3,.cls-4{stroke-linecap:round;stroke-linejoin:round;stroke-width:20px;}.cls-3{fill:#af5a00;}.cls-4{stroke:#fff;}</style></defs><path class="cls-1" d="M366.76,494.56l160,386.3c4.6,12.19,21.84,12.19,26.44,0l149.46-386.3Z"/><path class="cls-2" d="M366.76,494.56l160,386.3c4.6,12.19,21.84,12.19,26.44,0l149.46-386.3Z"/><path class="cls-3" d="M746.94,447.34V397c0-113.83-93.13-207-207-207h0c-113.83,0-207,93.13-207,207v50.41a79.16,79.16,0,1,0,99.67,122.17,79.12,79.12,0,0,0,110.71,0,79.1,79.1,0,0,0,107.31,3.13,79.15,79.15,0,1,0,96.23-125.33Z"/><path class="cls-4" d="M571.94,257.12A106.15,106.15,0,0,1,678.09,363.27h0"/></svg>