<svg id="Artwork" xmlns="http://www.w3.org/2000/svg" viewBox="0 0 1080 1080"><defs><style>.cls-1{fill:#f16932;}.cls-1,.cls-2,.cls-3,.cls-5{stroke:#000;}.cls-1,.cls-2,.cls-3,.cls-5,.cls-6{stroke-linecap:round;stroke-linejoin:round;stroke-width:20px;}.cls-2{fill:#f8ae05;}.cls-3{fill:#2d76ff;}.cls-4{fill:#e4e5e6;}.cls-5,.cls-6{fill:none;}.cls-6{stroke:#fff;}</style></defs><path class="cls-1" d="M538.52,290c-211.07,0-382.18,171.11-382.18,382.18h79.25c0-167.3,135.63-302.93,302.93-302.93S841.45,504.88,841.45,672.18H920.7C920.7,461.11,749.59,290,538.52,290Z"/><path class="cls-2" d="M538.52,369.25c-167.3,0-302.93,135.63-302.93,302.93H326c0-117.37,95.14-212.51,212.51-212.51S751,554.81,751,672.18h90.42C841.45,504.88,705.82,369.25,538.52,369.25Z"/><path class="cls-3" d="M538.52,459.67C421.15,459.67,326,554.81,326,672.18h94a118.5,118.5,0,1,1,237,0h94C751,554.81,655.89,459.67,538.52,459.67Z"/><path class="cls-4" d="M717.14,790a86.77,86.77,0,1,1,26.62-169.35,86.77,86.77,0,0,1,161.53.67A86.77,86.77,0,1,1,933.9,790Z"/><path class="cls-5" d="M717.14,790a86.77,86.77,0,1,1,26.62-169.35,86.77,86.77,0,0,1,161.53.67A86.77,86.77,0,1,1,933.9,790Z"/><path class="cls-6" d="M972,687.41A57.61,57.61,0,0,1,914.36,745"/><path class="cls-4" d="M146.1,790a86.77,86.77,0,1,1,26.62-169.35,86.76,86.76,0,0,1,161.52.67A86.77,86.77,0,1,1,362.86,790Z"/><path class="cls-5" d="M146.1,790a86.77,86.77,0,1,1,26.62-169.35,86.76,86.76,0,0,1,161.52.67A86.77,86.77,0,1,1,362.86,790Z"/><path class="cls-6" d="M682.1,705.84s-2-46.68,50.18-42.22"/><path class="cls-6" d="M399.42,687.41A57.61,57.61,0,0,1,341.81,745"/><path class="cls-6" d="M109.54,705.84s-2-46.68,50.19-42.22"/></svg>