<svg id="Artwork" xmlns="http://www.w3.org/2000/svg" viewBox="0 0 1080 1080"><defs><style>.cls-1{fill:#017a71;}.cls-1,.cls-2,.cls-3{stroke:#000;stroke-linecap:round;stroke-linejoin:round;stroke-width:20px;}.cls-2{fill:#f8ae05;}.cls-3{fill:none;}</style></defs><path class="cls-1" d="M543.36,420.38c-130.33-193.59-339-164.3-339-164.3C237,204,349.22,166.08,436,207.82c143.56,69.07,109.3,207.67,109.3,207.67Z"/><path class="cls-1" d="M546.54,420.38c130.33-193.59,339-164.3,339-164.3-32.69-52.06-144.88-90-231.64-48.26-143.57,69.07-109.3,207.67-109.3,207.67Z"/><path class="cls-1" d="M542.63,420.3c-140.92-100.65-351.86-21.88-351.86-21.88,6.13-54.27,65.64-115.16,161.92-114.66,160.52.84,189.94,131.29,189.94,131.29Z"/><path class="cls-1" d="M542.63,422.31C309.8,406.3,252.91,570,252.91,570c-21-57.76-30.2-150.58,56-193.43,142.67-70.9,231,41.25,231,41.25Z"/><path class="cls-1" d="M537.37,420.3c140.92-100.65,351.86-21.88,351.86-21.88-6.13-54.27-65.64-115.16-161.92-114.66-160.52.84-189.94,131.29-189.94,131.29Z"/><path class="cls-1" d="M537.37,422.31C770.2,406.3,827.09,570,827.09,570c21-57.76,30.2-150.58-56-193.43-142.67-70.9-231,41.25-231,41.25Z"/><path class="cls-2" d="M573.63,890H506.37a43.59,43.59,0,0,1-43.49-46.57l28.69-418.15h96.86l28.69,418.15A43.59,43.59,0,0,1,573.63,890Z"/><polyline class="cls-3" points="489.08 461.51 599.17 581.75 472.86 697.93 616.35 832.28"/><polyline class="cls-3" points="588.88 464.83 481.18 576.74 604.06 697.49 465.63 832.28"/></svg>