<svg id="Artwork" xmlns="http://www.w3.org/2000/svg" viewBox="0 0 1080 1080"><defs><style>.cls-1{fill:#fff;}.cls-1,.cls-2,.cls-3{stroke:#000;stroke-linecap:round;stroke-linejoin:round;stroke-width:20px;}.cls-2{fill:#af5a00;}.cls-3{fill:#017a71;}</style></defs><path class="cls-1" d="M737.48,329.26l-7.09,529.11A32.72,32.72,0,0,1,697.68,890H382.32a32.72,32.72,0,0,1-32.71-31.63l-7.09-529.11Z"/><path class="cls-2" d="M719.06,756.22H360.94c-14.35,0-26.16-13-26.86-29.46L323,463.86c-.75-17.66,11.49-32.45,26.85-32.45h380.3c15.36,0,27.6,14.79,26.85,32.45l-11.08,262.9C745.22,743.26,733.41,756.22,719.06,756.22Z"/><rect class="cls-1" x="285.55" y="259.63" width="508.9" height="69.63" rx="34.81"/><path class="cls-1" d="M398.31,190H681.69a69.63,69.63,0,0,1,69.63,69.63v0a0,0,0,0,1,0,0H328.68a0,0,0,0,1,0,0v0A69.63,69.63,0,0,1,398.31,190Z"/><circle class="cls-3" cx="540" cy="593.81" r="114.38"/></svg>