<svg id="Artwork" xmlns="http://www.w3.org/2000/svg" viewBox="0 0 1080 1080"><defs><style>.cls-1{fill:#017a71;}.cls-1,.cls-2,.cls-3{stroke:#000;stroke-linecap:round;stroke-linejoin:round;stroke-width:20px;}.cls-2{fill:#ffbcdd;}.cls-3{fill:#f8ae05;}</style></defs><path class="cls-1" d="M190,365c0,193.3,156.7,350,350,350S890,558.3,890,365Z"/><path class="cls-2" d="M242.09,365c0,164.53,133.38,297.9,297.91,297.9S837.91,529.56,837.91,365Z"/><line class="cls-3" x1="381.87" y1="550.72" x2="403.35" y2="531.95"/><line class="cls-3" x1="507.83" y1="510.06" x2="481.87" y2="498.23"/><line class="cls-3" x1="458.95" y1="416.5" x2="471.47" y2="442.13"/><line class="cls-3" x1="713.38" y1="433.52" x2="736.12" y2="450.74"/><line class="cls-3" x1="343.88" y1="427.74" x2="364.72" y2="447.22"/><line class="cls-3" x1="613.46" y1="404.15" x2="600.04" y2="429.32"/><line class="cls-3" x1="552.75" y1="581.3" x2="526.9" y2="593.37"/><line class="cls-3" x1="606.75" y1="498.11" x2="580.9" y2="510.18"/><line class="cls-3" x1="683.42" y1="518.25" x2="691.37" y2="545.65"/></svg>