<svg id="Artwork" xmlns="http://www.w3.org/2000/svg" viewBox="0 0 1080 1080"><defs><style>.cls-1{fill:#f8ae05;}.cls-1,.cls-2{stroke:#000;}.cls-1,.cls-2,.cls-3{stroke-linecap:round;stroke-linejoin:round;stroke-width:20px;}.cls-2{fill:#ffbcdd;}.cls-3{fill:none;stroke:#fff;}</style></defs><path class="cls-1" d="M540,190c-193.3,0-350,156.7-350,350S346.7,890,540,890,890,733.3,890,540,733.3,190,540,190Zm0,422.34A72.34,72.34,0,1,1,612.34,540,72.34,72.34,0,0,1,540,612.34Z"/><path class="cls-2" d="M825.48,479.13l-90-155.93A121.74,121.74,0,0,0,630,262.33H450A121.74,121.74,0,0,0,344.54,323.2l-90,155.93a121.72,121.72,0,0,0,0,121.74l90,155.93A121.74,121.74,0,0,0,450,817.67H630A121.74,121.74,0,0,0,735.46,756.8l90-155.93A121.72,121.72,0,0,0,825.48,479.13Zm-219.16,78a68.49,68.49,0,1,1-49.23-83.41A68.49,68.49,0,0,1,606.32,557.09Z"/><path class="cls-3" d="M639.33,523.36l43.49-43.49a31.31,31.31,0,0,1,44.3,0l.26.26a31.31,31.31,0,0,1,0,44.3L580.31,671.5l-29.72,29.72a31.39,31.39,0,0,0,.18,44.38l.14.13a31.31,31.31,0,0,0,44.3,0L767.9,573"/><path class="cls-3" d="M459.31,614.26l-69.08,69.07a31.52,31.52,0,0,0,0,44.56l.13.14a31.33,31.33,0,0,0,44.3,0l83.4-83.4"/><path class="cls-3" d="M559.24,425.21l86.9-86.91a31.33,31.33,0,0,1,44.3,0l.26.26a31.31,31.31,0,0,1,0,44.3l-79.81,79.81"/><path class="cls-3" d="M321.34,484.85,474.56,331.63a31.33,31.33,0,0,1,44.3,0l.26.26a31.31,31.31,0,0,1,0,44.3l-183,183a31.5,31.5,0,0,0,0,44.56l.13.13a31.33,31.33,0,0,0,44.3,0l32.9-32.9"/></svg>