<svg id="Artwork" xmlns="http://www.w3.org/2000/svg" viewBox="0 0 1080 1080"><defs><style>.cls-1{fill:#f9d744;}.cls-1,.cls-2{stroke:#000;stroke-linecap:round;stroke-linejoin:round;stroke-width:20px;}.cls-2{fill:none;}</style></defs><circle class="cls-1" cx="540" cy="540" r="194.3"/><line class="cls-2" x1="540" y1="190" x2="540" y2="293.8"/><line class="cls-2" x1="540" y1="786.2" x2="540" y2="890"/><line class="cls-2" x1="890" y1="540" x2="786.2" y2="540"/><line class="cls-2" x1="293.8" y1="540" x2="190" y2="540"/><line class="cls-2" x1="787.49" y1="292.51" x2="714.09" y2="365.91"/><line class="cls-2" x1="365.91" y1="714.09" x2="292.51" y2="787.49"/><line class="cls-2" x1="787.49" y1="787.49" x2="714.09" y2="714.09"/><line class="cls-2" x1="365.91" y1="365.91" x2="292.51" y2="292.51"/><line class="cls-2" x1="676.67" y1="217.79" x2="636.14" y2="313.35"/><line class="cls-2" x1="443.86" y1="766.65" x2="403.33" y2="862.21"/><line class="cls-2" x1="862.21" y1="676.67" x2="766.65" y2="636.14"/><line class="cls-2" x1="313.35" y1="443.86" x2="217.79" y2="403.33"/><line class="cls-2" x1="864.48" y1="408.8" x2="768.25" y2="447.71"/><line class="cls-2" x1="311.75" y1="632.29" x2="215.52" y2="671.2"/><line class="cls-2" x1="671.2" y1="864.48" x2="632.29" y2="768.25"/><line class="cls-2" x1="447.71" y1="311.75" x2="408.8" y2="215.52"/><path class="cls-2" d="M509.07,564a30.93,30.93,0,0,0,61.86.36"/><circle cx="573.58" cy="517.7" r="17.05"/><circle cx="506.42" cy="517.7" r="17.05"/></svg>