<svg id="Artwork" xmlns="http://www.w3.org/2000/svg" viewBox="0 0 1080 1080"><defs><style>.cls-1{fill:#f9d744;}.cls-1,.cls-2{stroke:#000;stroke-linecap:round;stroke-linejoin:round;stroke-width:20px;}.cls-2{fill:none;}</style></defs><path class="cls-1" d="M516.9,805.88,368,884.19c-36.42,19.14-79-11.78-72-52.33L324.37,666a49.68,49.68,0,0,0-14.27-43.94L189.59,504.6c-29.46-28.72-13.2-78.76,27.51-84.67l166.53-24.2A49.63,49.63,0,0,0,421,368.57l74.48-150.9c18.2-36.89,70.82-36.89,89,0L659,368.57a49.63,49.63,0,0,0,37.38,27.16l166.53,24.2c40.71,5.91,57,55.95,27.51,84.67L769.9,622.06A49.68,49.68,0,0,0,755.63,666l28.45,165.86c6.95,40.55-35.61,71.47-72,52.33L563.1,805.88A49.66,49.66,0,0,0,516.9,805.88Z"/><path class="cls-2" d="M484.5,569.78a54.35,54.35,0,1,0,108.7.63"/><circle cx="597.86" cy="488.36" r="29.96"/><circle cx="479.85" cy="488.36" r="29.96"/></svg>