<svg id="Artwork" xmlns="http://www.w3.org/2000/svg" viewBox="0 0 1080 1080"><defs><style>.cls-1{fill:#f16932;}.cls-1,.cls-2,.cls-3,.cls-4{stroke:#000;stroke-width:20px;}.cls-1,.cls-2,.cls-3,.cls-4,.cls-5{stroke-linecap:round;stroke-linejoin:round;}.cls-2{fill:#f8ae05;}.cls-3{fill:#2d76ff;}.cls-4{fill:#ffbcdd;}.cls-5{fill:#ff9ab1;stroke:#fff;stroke-width:19.74px;}</style></defs><path class="cls-1" d="M540,479.08c-226.95,0-410.92,184-410.92,410.92h85.21c0-179.88,145.83-325.71,325.71-325.71S865.71,710.12,865.71,890h85.21C950.92,663.05,767,479.08,540,479.08Z"/><path class="cls-2" d="M540,564.29c-179.88,0-325.71,145.83-325.71,325.71h97.22c0-126.19,102.3-228.49,228.49-228.49S768.49,763.81,768.49,890h97.22C865.71,710.12,719.88,564.29,540,564.29Z"/><path class="cls-3" d="M540,661.51c-126.19,0-228.49,102.3-228.49,228.49H412.59a127.41,127.41,0,0,1,254.82,0H768.49C768.49,763.81,666.19,661.51,540,661.51Z"/><path class="cls-4" d="M703,543.12a86,86,0,0,0,88.89,0c98.23-59.24,98.38-162.15,56.65-197.84-36.54-31.25-81.61-24.36-101.1,14C728,320.92,682.9,314,646.36,345.28,604.62,381,604.78,483.88,703,543.12Z"/><path class="cls-5" d="M822.52,419.1s-21.47,60.34-72.59,82.84"/><path class="cls-4" d="M442,374a72.8,72.8,0,0,0,75.18,0c83.08-50.11,83.21-137.15,47.91-167.34-30.9-26.43-69-20.6-85.5,11.85-16.48-32.45-54.6-38.28-85.51-11.85C358.76,236.84,358.88,323.88,442,374Z"/><path class="cls-5" d="M543.05,269.09s-18.16,51-61.39,70.06"/></svg>