<svg id="Artwork" xmlns="http://www.w3.org/2000/svg" viewBox="0 0 1080 1080"><defs><style>.cls-1{fill:#f9d744;}.cls-1,.cls-2,.cls-3{stroke:#000;stroke-width:20px;}.cls-1,.cls-2,.cls-3,.cls-4{stroke-linecap:round;stroke-linejoin:round;}.cls-2{fill:none;}.cls-3{fill:#f16932;}.cls-4{fill:#ff9ab1;stroke:#fff;stroke-width:19.74px;}</style></defs><circle class="cls-1" cx="540" cy="540" r="350"/><path class="cls-2" d="M416.53,624.36a122.92,122.92,0,0,0,245.83,1.43"/><line class="cls-2" x1="650.48" y1="624.36" x2="676.46" y2="624.36"/><line class="cls-2" x1="403.54" y1="624.36" x2="429.52" y2="624.36"/><path class="cls-3" d="M636.44,546.63a77.47,77.47,0,0,0,80,0c88.44-53.34,88.58-146,51-178.14-32.9-28.13-73.48-21.93-91,12.62-17.55-34.55-58.13-40.75-91-12.62C547.85,400.63,548,493.29,636.44,546.63Z"/><path class="cls-4" d="M744.05,435s-19.34,54.34-65.36,74.59"/><path class="cls-3" d="M361.78,546.63a77.47,77.47,0,0,0,80,0c88.44-53.34,88.58-146,51-178.14-32.9-28.13-73.48-21.93-91,12.62-17.55-34.55-58.13-40.75-91-12.62C273.19,400.63,273.33,493.29,361.78,546.63Z"/><path class="cls-4" d="M469.39,435S450.05,489.3,404,509.55"/></svg>