<svg id="Artwork" xmlns="http://www.w3.org/2000/svg" viewBox="0 0 1080 1080"><defs><style>.cls-1{fill:#f9d744;}.cls-1,.cls-2{stroke:#000;}.cls-1,.cls-2,.cls-3{stroke-linecap:round;stroke-linejoin:round;stroke-width:20px;}.cls-2{fill:#ffbcdd;}.cls-3{fill:none;stroke:#fff;}</style></defs><path class="cls-1" d="M575.09,653.09V854.91A35.19,35.19,0,0,1,540,890h0a35.19,35.19,0,0,1-35.09-35.09V653.09"/><path class="cls-2" d="M368,624V362c0-94.59,77.39-172,172-172h0c94.59,0,172,77.39,172,172V624a70.51,70.51,0,0,1-70.51,70.51H438.53A70.51,70.51,0,0,1,368,624Z"/><path class="cls-3" d="M554,257.12A106.14,106.14,0,0,1,660.1,363.27h0"/></svg>