<svg id="Artwork" xmlns="http://www.w3.org/2000/svg" viewBox="0 0 1080 1080"><defs><style>.cls-1{fill:#2d76ff;}.cls-1,.cls-2,.cls-3,.cls-5{stroke:#000;stroke-linecap:round;stroke-linejoin:round;stroke-width:20px;}.cls-2{fill:#e4e5e6;}.cls-3{fill:#f16932;}.cls-4{fill:#fff;}.cls-5{fill:#ffbcdd;}</style></defs><line class="cls-1" x1="609.16" y1="190" x2="592.2" y2="290.58"/><line class="cls-1" x1="657.18" y1="316.59" x2="733.05" y2="262.62"/><line class="cls-1" x1="519" y1="293.28" x2="465.02" y2="217.41"/><path class="cls-2" d="M706.75,389.4h0a74.67,74.67,0,0,1,74.67,74.67V681.87A31.09,31.09,0,0,1,750.32,713H663.17a31.09,31.09,0,0,1-31.09-31.09V464.07A74.67,74.67,0,0,1,706.75,389.4Z" transform="translate(1529.73 906.12) rotate(165.38)"/><path class="cls-3" d="M718.29,479.36h0A74.67,74.67,0,0,1,793,554V711.48a0,0,0,0,1,0,0H643.62a0,0,0,0,1,0,0V554A74.67,74.67,0,0,1,718.29,479.36Z" transform="translate(1563.61 990.26) rotate(165.38)"/><line class="cls-1" x1="747.58" y1="707.72" x2="791.56" y2="876.3"/><line class="cls-1" x1="844.09" y1="862.59" x2="739.03" y2="890"/><circle class="cls-4" cx="679" cy="566.93" r="21.03"/><circle class="cls-4" cx="729.38" cy="624.32" r="21.03"/><path class="cls-2" d="M413.18,335.15h0a74.67,74.67,0,0,1,74.67,74.67V627.62a31.09,31.09,0,0,1-31.09,31.09H369.6a31.09,31.09,0,0,1-31.09-31.09V409.81A74.67,74.67,0,0,1,413.18,335.15Z" transform="translate(607.86 1113.17) rotate(-157.79)"/><path class="cls-5" d="M395.9,423.2h0a74.67,74.67,0,0,1,74.67,74.67V655.32a0,0,0,0,1,0,0H321.23a0,0,0,0,1,0,0V497.86A74.67,74.67,0,0,1,395.9,423.2Z" transform="translate(558.58 1188.15) rotate(-157.79)"/><line class="cls-1" x1="352.03" y1="646.7" x2="286.17" y2="807.99"/><line class="cls-1" x1="336.43" y1="828.51" x2="235.91" y2="787.47"/><circle class="cls-4" cx="381.52" cy="492.9" r="21.03"/><circle class="cls-4" cx="387.46" cy="569.04" r="21.03"/></svg>