<svg id="Artwork" xmlns="http://www.w3.org/2000/svg" viewBox="0 0 1080 1080"><defs><style>.cls-1{fill:none;}.cls-1,.cls-2,.cls-3{stroke:#000;stroke-linecap:round;stroke-linejoin:round;stroke-width:20px;}.cls-2{fill:#f16932;}.cls-3{fill:#ffbcdd;}</style></defs><path class="cls-1" d="M393.13,202.76H686.87A45.11,45.11,0,0,1,732,247.87V379.62a192,192,0,0,1-192,192h0a192,192,0,0,1-192-192V247.87a45.11,45.11,0,0,1,45.11-45.11Z"/><path class="cls-2" d="M540,571.6h0c-106,0-192-86-192-192V308s72.31,51.12,196.53,0S732,308,732,308v71.63C732,485.65,646,571.6,540,571.6Z"/><line class="cls-3" x1="437.21" y1="877.24" x2="642.79" y2="877.24"/><line class="cls-3" x1="540" y1="571.6" x2="540" y2="877.24"/></svg>