<svg id="Artwork" xmlns="http://www.w3.org/2000/svg" viewBox="0 0 1080 1080"><defs><style>.cls-1{fill:#ffbcdd;}.cls-1,.cls-2,.cls-3{stroke:#000;stroke-linecap:round;stroke-linejoin:round;stroke-width:20px;}.cls-2{fill:#f8ae05;}.cls-3{fill:#017a71;}</style></defs><path class="cls-1" d="M540,190c-225.88,0-409,183.11-409,409V890h84.81V599C215.82,420,361,274.81,540,274.81S864.18,420,864.18,599V890H949V599C949,373.11,765.88,190,540,190Z"/><path class="cls-2" d="M864.18,599C864.18,420,719,274.81,540,274.81S215.82,420,215.82,599V890h96.76V599c0-125.6,101.82-227.42,227.42-227.42S767.42,473.39,767.42,599h.08V890h96.76V599Z"/><path class="cls-3" d="M540,371.57c-125.6,0-227.42,101.82-227.42,227.42V890H413V599h.16a126.81,126.81,0,1,1,253.62,0H667V890H767.42V599C767.42,473.39,665.6,371.57,540,371.57Z"/></svg>