<svg id="Artwork" xmlns="http://www.w3.org/2000/svg" viewBox="0 0 1080 1080"><defs><style>.cls-1{fill:#f9d744;}.cls-2,.cls-4{fill:none;}.cls-2,.cls-3{stroke:#000;}.cls-2,.cls-3,.cls-4{stroke-linecap:round;stroke-linejoin:round;stroke-width:20px;}.cls-3{fill:#050000;}.cls-4{stroke:#fff;}.cls-5{fill:#fff;}</style></defs><circle class="cls-1" cx="540.77" cy="540" r="350"/><circle class="cls-2" cx="540.77" cy="540" r="350"/><path class="cls-3" d="M853.87,328.47c-45.14-38.6-100.82-30.09-124.89,17.31-24.08-47.4-79.76-55.91-124.89-17.31-15.2,13-25.9,33.22-30.33,57.14H501.93c-4.43-23.92-15.13-44.14-30.32-57.14-45.14-38.6-100.82-30.09-124.9,17.31-24.07-47.4-79.75-55.91-124.89-17.31-51.56,44.1-51.37,171.22,70,244.42a106.32,106.32,0,0,0,109.82,0c54.75-33,84.83-77,96.63-119.41h79.19c11.8,42.39,41.88,86.39,96.63,119.41a106.32,106.32,0,0,0,109.82,0C905.24,499.69,905.43,372.57,853.87,328.47Z"/><path class="cls-4" d="M356.21,530.07a53.67,53.67,0,0,0,27-10c22-15.87,35-34.94,41-53.58"/><circle class="cls-5" cx="445.34" cy="419.54" r="16.9"/><path class="cls-4" d="M740.55,530.07a53.63,53.63,0,0,0,27-10c22-15.87,35-34.94,41-53.58"/><circle class="cls-5" cx="829.67" cy="419.54" r="16.9"/><path class="cls-2" d="M472.51,563.44a69.24,69.24,0,1,0,138.48.8"/></svg>