<svg id="Artwork" xmlns="http://www.w3.org/2000/svg" viewBox="0 0 1080 1080"><defs><style>.cls-1{fill:#f16932;}.cls-1,.cls-3{stroke:#000;}.cls-1,.cls-3,.cls-4{stroke-linecap:round;stroke-linejoin:round;stroke-width:20px;}.cls-2{fill:#ffbcdd;}.cls-3,.cls-4{fill:none;}.cls-4{stroke:#fff;}.cls-5{fill:#fff;}</style></defs><path class="cls-1" d="M543.77,282.07s39.82-88.69,152-54.3S840.59,432.28,840.59,432.28,755.52,673,543.77,678.43,245.14,446.76,245.14,426.85s59.73-168.31,152-199.08S543.77,282.07,543.77,282.07Z"/><path d="M326,429.67a13.14,13.14,0,0,1,7-23.28c35.25-3.48,91.53-11.37,116.79-27.61,38.22-24.57,64.91-36.86,96.61-36.86s82.2,32.76,119.06,43.68c22.55,6.68,65,13.88,94.61,18.45A13.14,13.14,0,0,1,765.33,428c-48.27,32.2-152.75,93-244.56,85.93C433.79,507.22,361.53,458.36,326,429.67Z"/><path class="cls-2" d="M457,425.57H637.18a56.29,56.29,0,0,1,56.29,56.29V743.6A146.4,146.4,0,0,1,547.07,890h0a146.4,146.4,0,0,1-146.4-146.4V481.86A56.29,56.29,0,0,1,457,425.57Z"/><path class="cls-3" d="M457,425.57H637.18a56.29,56.29,0,0,1,56.29,56.29V743.6A146.4,146.4,0,0,1,547.07,890h0a146.4,146.4,0,0,1-146.4-146.4V481.86A56.29,56.29,0,0,1,457,425.57Z"/><path class="cls-4" d="M651.73,731.63A104.65,104.65,0,0,1,547.07,836.28h0"/><path class="cls-5" d="M364.64,542.77a9.86,9.86,0,0,0-9.84-9.17c-29.25,0-42.89-37.62-42.89-63.05a9.86,9.86,0,1,0-19.71,0c0,15.25-4.46,31.48-11.91,43.39-5.61,9-15.54,19.66-31,19.66a9.85,9.85,0,0,0-1.43,19.61c1.81.28,44.32,7.53,44.32,68.27a9.86,9.86,0,1,0,19.71,0c0-60.74,42.51-68,44.26-68.26A9.86,9.86,0,0,0,364.64,542.77Z"/><path class="cls-5" d="M776.76,253.6a9.93,9.93,0,0,0-9.93-9.26c-19.22,0-29.46-25.83-29.46-44.48a9.86,9.86,0,0,0-19.72,0c0,18.65-10.23,44.48-29.45,44.48a10,10,0,0,0-10,9.25A9.73,9.73,0,0,0,686.75,264a35.49,35.49,0,0,1,15.59,7.8c10.16,8.64,15.31,22.3,15.31,40.6a9.86,9.86,0,0,0,19.72,0c0-18.3,5.16-32,15.32-40.6a35.79,35.79,0,0,1,15.5-7.79A9.76,9.76,0,0,0,776.76,253.6Z"/><path class="cls-4" d="M472.05,276.6S384,242.64,339.37,353"/></svg>